<?xml version="1.0" encoding="UTF-8"?>
<svg id="Layer_1" data-name="Layer 1" xmlns="http://www.w3.org/2000/svg" viewBox="0 0 460.26 468.34">
  <defs>
    <style>
      .cls-1 {
        fill: #e0e0e0;
      }

      .cls-2 {
        fill: #ae7461;
      }

      .cls-3 {
        fill: #f0c808;
      }

      .cls-4 {
        fill: #ebebeb;
      }

      .cls-5 {
        fill: #263238;
      }

      .cls-6 {
        fill: #6f4439;
      }

      .cls-7 {
        fill: #21bdc8;
      }

      .cls-8 {
        fill: #fff;
      }

      .cls-9 {
        opacity: .3;
      }

      .cls-10 {
        fill: #ffbf9d;
      }

      .cls-11 {
        fill: #f5f5f5;
      }

      .cls-12 {
        fill: #086788;
      }

      .cls-13 {
        fill: #455a64;
      }

      .cls-14 {
        fill: #ff9a6c;
      }
    </style>
  </defs>
  <g id="freepik--background-complete--inject-298">
    <path class="cls-11" d="M410.72,442.06c-8-14.93-24.91-25.1-42.44-25.5,10.64-11.25,12.74-28.66,6.6-42.66s-19.64-24.42-34.75-28.92-31.73-3.44-46.83,1.21c1.75-10.94-9.69-21.85-21.13-20.16,4.5-3.09,5.92-9.09,3.28-13.87-2.68-4.52-9.18-6.55-14.13-4.4l.67-80.19h-49.86l.67,80.19c-5-2.15-11.45-.12-14.13,4.4-2.61,4.78-1.18,10.77,3.32,13.85-11.43-1.69-22.87,9.22-21.12,20.16-15.1-4.65-31.69-5.71-46.84-1.21s-28.65,14.93-34.79,28.92-4,31.41,6.6,42.66c-17.53.4-34.45,10.57-42.44,25.5-4.64,8.67-5.07,21.49,4,26h339.37c9.02-4.49,8.59-17.31,3.95-25.98Z"/>
    <polygon class="cls-1" points="171.94 70.21 232.25 0 290.21 70.21 267.59 70.21 267.59 230.27 197.38 230.27 197.38 70.33 171.94 70.21"/>
    <polygon class="cls-11" points="102.3 133.44 114.82 118.88 126.84 133.44 122.15 133.44 122.15 165.34 107.58 165.34 107.58 133.47 102.3 133.44"/>
    <polygon class="cls-11" points="401.69 335.69 414.2 321.13 426.22 335.69 421.53 335.69 421.53 367.59 406.97 367.59 406.97 335.72 401.69 335.69"/>
    <polygon class="cls-11" points="306.63 45.58 323.18 26.31 339.09 45.58 332.88 45.58 332.88 87.8 313.61 87.8 313.61 45.62 306.63 45.58"/>
    <path class="cls-4" d="M95.46,217.1c-.95-2.93-2.3-5.71-4-8.27-1.73-2.58-4.45-4.35-7.51-4.88-3-.38-6.42,1.27-7.42,4.18-.43-6.55-1.36-13.27-4.64-19s-9.39-10.15-16-9.75c-6.17.38-11.46,5-14.4,10.41s-4,11.7-4.91,17.81c-2.35-2.87-7.29-2-9.73.82s-3.07,6.68-3.59,10.35h73.77l-1.57-1.67Z"/>
    <path class="cls-4" d="M152.02,82.05c-1.47-3.92-3-7.88-5.43-11.26s-6.07-6.13-10.21-6.63-8.75,1.73-10.1,5.68c-.59-8.91-1.85-18-6.31-25.78s-12.79-13.82-21.7-13.27c-8.4.51-15.6,6.76-19.6,14.17s-5.37,15.89-6.68,24.2c-3.18-3.9-9.86-2.67-13.23,1.12s-4.17,9.09-4.88,14.08h100.25l-2.11-2.31Z"/>
    <path class="cls-4" d="M430.25,238.48c-.66-2.02-1.59-3.95-2.76-5.73-1.2-1.79-3.08-3.01-5.2-3.38-2.18-.33-4.3.86-5.16,2.89-.3-4.53-.94-9.18-3.21-13.12s-6.51-7-11-6.75c-4.28.26-7.94,3.44-10,7.21s-2.73,8.09-3.4,12.33c-1.62-2-5-1.37-6.73.56s-2.13,4.63-2.49,7.17h51l-1.05-1.18Z"/>
    <path class="cls-4" d="M77.42,404.39c-.65-2.03-1.58-3.95-2.76-5.72-1.2-1.79-3.08-3.01-5.2-3.38-2.16-.32-4.27.86-5.13,2.87-.31-4.54-1-9.19-3.22-13.12s-6.5-7-11-6.76c-4.28.26-7.94,3.44-10,7.21s-2.74,8.1-3.4,12.33c-1.62-2-5-1.36-6.74.57s-2.12,4.62-2.48,7.16h51l-1.07-1.16Z"/>
    <path class="cls-4" d="M423.69,101.08c-.9-2.77-2.16-5.4-3.77-7.82-1.64-2.44-4.2-4.11-7.09-4.62-2.89-.35-6.08,1.21-7,4-.41-6.19-1.29-12.54-4.39-17.91s-8.88-9.6-15.07-9.22c-5.84.36-10.83,4.69-13.61,9.84s-3.73,11-4.64,16.83c-2.22-2.71-6.89-1.86-9.2.77s-2.9,6.32-3.39,9.79h69.6l-1.44-1.66Z"/>
  </g>
  <g id="freepik--Floor--inject-298">
    <path class="cls-5" d="M460.26,468.08c0,.15-103,.26-230.12.26s-230.14-.11-230.14-.26,103-.26,230.14-.26,230.12.12,230.12.26Z"/>
  </g>
  <g id="freepik--speech-bubble--inject-298">
    <path class="cls-8" d="M191.31,87.05l-4.69-4.89c1.7-11.81-6.49-22.77-18.3-24.47-11.81-1.7-22.77,6.49-24.47,18.3-1.7,11.81,6.49,22.77,18.3,24.47,8.9,1.28,17.67-3.08,22.01-10.96h0l7.15-2.45Z"/>
    <path class="cls-5" d="M191.31,87.05l-.48.16-1.38.46-5.32,1.8.09.07h0s.02-.06,0-.08c-.02-.01-.06-.01-.08,0-1.74,3.15-4.25,5.81-7.29,7.74-.94.59-1.92,1.11-2.93,1.56-1.1.45-2.23.83-3.38,1.12-8.48,2.12-17.4-1.12-22.55-8.19-6.2-8.55-5.24-20.35,2.26-27.79,2.38-2.33,5.25-4.09,8.41-5.15,2.98-.98,6.13-1.29,9.24-.9,5.53.67,10.58,3.47,14.09,7.8l.57.73c.19.23.37.48.52.74l1,1.49c.52.97.99,1.97,1.4,3,1.24,3.37,1.6,7,1.07,10.55h0l3.5,3.58c.4.41.7.72.92.93s.32.32.32.32l-.29-.31-.88-.94-3.46-3.58v.06c.53-3.57.15-7.21-1.1-10.59-.42-1.06-.89-2.09-1.43-3.1l-.94-1.52c-.16-.26-.34-.51-.53-.74l-.57-.74c-1.67-2.07-3.7-3.82-6-5.15-2.54-1.47-5.34-2.41-8.25-2.78-3.15-.4-6.35-.09-9.36.9-3.21,1.06-6.12,2.84-8.53,5.21-2.52,2.48-4.39,5.55-5.44,8.93-.15.41-.26.84-.35,1.27l-.3,1.27-.17,1.29c-.08.43-.12.86-.13,1.29v1.29c-.03.43-.03.85,0,1.28,0,.43,0,.86.09,1.28s.13.83.2,1.25c.56,3.25,1.86,6.33,3.81,9,5.21,7.21,14.29,10.5,22.9,8.3,1.16-.3,2.3-.68,3.4-1.15,4.37-1.92,7.97-5.24,10.26-9.43h-.13s-.02.06,0,.08h0l5.33-1.89,1.35-.48.54-.24Z"/>
    <path class="cls-3" d="M170.71,76.41l-6.12-7.87-6.46,7.62h3.34l-.13,10.53h5.94l.17-10.42,3.26.14Z"/>
  </g>
  <g id="freepik--character-3--inject-298">
    <path class="cls-3" d="M348.47,280.27c.44-11.38,4-22.56,5.71-33.88s1.46-23.23-5.25-33.47l-18.11-7.52c-11.31,4.76-14.35,14.16-17.09,22.86-3.74,11.85-8.78,19.08-12.93,27.22-1.33,2.61-5.18,8.35-7.58,11.9-6.34,9.48-11.53,19.68-15.44,30.39-5.1,13.31-7.29,34.07-6,48.41.27,3,.84,6.11,2.67,8.38s5.25,3.24,7.42,1.37c1.38-1.18,1.93-3.13,2.86-4.75.77-1.34,2.17-2.52,3.52-2.41.52.39,1.09.7,1.7.92,3.88,1.4,8.3-1.1,10.59-3.81s4-6,7.78-7.5c4.22-1.65,9.41-.41,13.66,1.2s8.55,3.65,13.31,3.55c5.15-.11,9.51-2.67,13.82-4.76s9.76-3.85,14.45-2.27c-7.87-18.16-15.84-36.76-15.09-55.83Z"/>
    <g class="cls-9">
      <path d="M346.98,279.05c.43-11.38,3.9-22.56,5.57-33.88s1.11-22.74-5.42-33l-9.29-3.89c-18.25,14.25-16.22,36.73-22.79,49.95-7,14.12-20.58,29-24.1,43.85s-5.88,34.48,4,47.55c2.29-.86,4.32-2.3,5.9-4.17,2.23-2.71,3.7-5.65,7.45-7.1,3.15-1.22,7.33-1,11.24.37h0c5.35,2,5.61,2.18,9.9,3.57,2.48.79,6.63,1.39,9.63,0,3.05-.91,6.01-2.09,8.85-3.54,4.2-2.09,11-4.28,15.61-2.7-7.64-18.12-17.28-37.9-16.55-57.01Z"/>
    </g>
    <path class="cls-5" d="M314,260.99c-.02.08-.04.15-.08.22l-.29.65c-.25.57-.65,1.4-1.2,2.45-1.57,2.95-3.29,5.82-5.16,8.59-2.32,3.55-5.26,7.64-8.22,12.37-1.55,2.47-2.96,5.03-4.22,7.66-.7,1.35-1.24,2.79-1.89,4.22s-1.16,2.93-1.62,4.47c-1.92,5.74-3.04,11.72-3.34,17.76-.24,4.95.13,9.92,1.09,14.78.24,1,.4,2,.66,2.93s.5,1.78.72,2.58c.5,1.6,1,3,1.4,4.07l1.06,2.51.26.65c.03.08.06.16.07.24-.05-.06-.09-.13-.12-.21-.08-.17-.19-.38-.31-.64l-1.15-2.48c-.41-1.1-1-2.45-1.48-4.05-.24-.81-.5-1.67-.77-2.59s-.45-1.91-.7-2.94c-1.02-4.87-1.43-9.85-1.21-14.82.27-6.09,1.39-12.12,3.32-17.9.47-1.55,1.1-3,1.64-4.51s1.21-2.89,1.91-4.24c1.27-2.65,2.7-5.21,4.28-7.69,3-4.74,6-8.81,8.31-12.32s4.15-6.42,5.29-8.49c.58-1,1-1.84,1.29-2.39l.33-.63c.08-.19.12-.26.13-.25Z"/>
    <path class="cls-5" d="M312.68,291.01c-.09.48-.24.94-.43,1.39-.32.89-.75,2.17-1.24,3.78-2.59,8.35-3.74,17.08-3.4,25.81.06,1.68.14,3,.22,4,.06.48.08.97.06,1.46-.14-.47-.22-.95-.26-1.44-.14-.93-.28-2.29-.39-4-.54-8.81.62-17.63,3.42-26,.54-1.59,1-2.87,1.4-3.73.17-.44.38-.87.62-1.27Z"/>
    <path class="cls-5" d="M317.64,302.93c-.04,1.01-.15,2.01-.31,3-.27,2.36-.36,4.74-.29,7.11.08,2.38.33,4.75.76,7.09.23.96.4,1.94.51,2.92-.4-.91-.7-1.87-.87-2.85-1.07-4.7-1.23-9.56-.48-14.32.11-1.01.34-2,.68-2.95Z"/>
    <path class="cls-5" d="M322.29,172.71c.06-1.18.86-2.2,2-2.54.83-1.57,2.63-2.36,4.35-1.92.68-.97,1.81-1.53,3-1.48,1.21.09,2.28.8,2.85,1.87,1.03-.67,2.37-.62,3.35.12.97.77,1.36,2.05,1,3.23,1.52-.2,2.91.87,3.11,2.38.17,1.32-.62,2.58-1.89,3l-16-1.93c-1.1-.45-1.81-1.54-1.77-2.73Z"/>
    <path class="cls-10" d="M340.64,177.56c-2.99-5.33-9.58-7.47-15.13-4.91l-.55.25c-5.77,3.1-5.09,9.45-1.82,15.16l10.77,21.87h0l13.22,3.82.06-5.4-2.16-8.19s5.28-3.53,2.69-9.29c-1.25-2.83-4.28-8.35-7.08-13.31Z"/>
    <path class="cls-14" d="M345.07,200.09c-2.65,1.23-5.59,1.67-8.48,1.26,0,0,3.46,3.72,8.91.57l-.43-1.83Z"/>
    <path class="cls-5" d="M341.26,183.32c.21.44.03.97-.4,1.19-.42.23-.95.07-1.18-.35,0,0,0,0,0,0-.21-.44-.03-.96.4-1.19.41-.23.93-.09,1.16.31,0,.01.01.02.02.04Z"/>
    <path class="cls-5" d="M340.91,181.16c0,.15-.88,0-1.76.39s-1.31,1.14-1.45,1.08-.06-.27.13-.6c.26-.44.64-.79,1.1-1,.46-.21.97-.27,1.46-.17.37.11.55.3.52.3Z"/>
    <path class="cls-5" d="M333.78,187.02c.21.44.03.96-.4,1.19-.41.23-.93.09-1.16-.31,0-.01-.01-.02-.02-.04-.22-.44-.04-.97.4-1.19.42-.23.95-.07,1.18.35,0,0,0,0,0,0Z"/>
    <path class="cls-5" d="M332.48,184.95c-.05.15-.88,0-1.75.39s-1.32,1.14-1.46,1.08-.06-.27.13-.6c.26-.44.64-.79,1.1-1,.46-.21.97-.27,1.46-.17.37.08.55.23.52.3Z"/>
    <path class="cls-5" d="M338.39,190.16c.39-.36.83-.67,1.3-.92.21-.13.4-.27.37-.44s-.23-.39-.46-.6l-1.45-1.4c-1.29-1.17-2.48-2.43-3.56-3.79,1.37,1.06,2.66,2.23,3.85,3.49l1.43,1.43c.26.21.45.5.53.83,0,.19-.08.37-.22.5-.11.09-.23.17-.35.23-.45.28-.93.51-1.44.67Z"/>
    <path class="cls-5" d="M336.13,191.94c.14-.07.59.88,1.71,1.18s2.09-.27,2.16-.14-.14.29-.56.5c-.55.27-1.19.33-1.78.17-.57-.15-1.06-.5-1.37-1-.26-.4-.26-.69-.16-.71Z"/>
    <path class="cls-5" d="M331.33,182.43c0,.28-.85.42-1.76.86s-1.58,1-1.78.8,0-.37.19-.71c.31-.43.72-.78,1.2-1,.47-.23.98-.32,1.5-.28.45.06.64.2.65.33Z"/>
    <path class="cls-5" d="M339.59,178.87c0,.27-.73.4-1.43.79s-1.21.86-1.46.73-.13-.31,0-.63c.45-.85,1.37-1.33,2.32-1.23.39.06.58.21.57.34Z"/>
    <path class="cls-5" d="M338.87,175.16s-3.17-2.89-5.27-2.93c-2.56,0-2.39,2.67-4.63,3s-4.68.31-6,2.8c-1.44,2.71.15,3.42,1.19,6,4.22,10.56,3.7,14.35.92,9.74-.3-.51-2-.25-3.23-2.39-1.63-2.79-3.38-6.27-3.69-8.64-.23-2.03.23-4.08,1.32-5.81,1.83-3.39,5.65-5.21,8.38-6.16s9.16-.19,11.01,4.39Z"/>
    <path class="cls-10" d="M326.13,193.16c-.42-.84-1.44-1.18-2.28-.76-.03.01-.05.03-.08.04-1,.59-1.92,1.75-.82,3.92,1.94,3.86,5.39,1.12,5.34,1s-1.36-2.57-2.16-4.2Z"/>
    <path class="cls-14" d="M326.7,196.36s-.05.08-.13.19c-.13.15-.31.24-.5.26-.67-.07-1.25-.49-1.51-1.11-.17-.31-.28-.65-.3-1-.05-.28.04-.57.24-.77.14-.12.35-.12.49,0,.1.09.12.17.14.17s.05-.1-.06-.25c-.06-.09-.16-.15-.27-.16-.15-.03-.3,0-.42.08-.31.24-.46.62-.4,1,0,.42.11.83.31,1.19.32.71,1.03,1.17,1.81,1.18.24-.04.45-.19.56-.41.08-.27.05-.37.04-.37Z"/>
    <path class="cls-5" d="M321.94,185.89c.66.17,1.34.17,2,0,.67-.19,1.1-.86,1-1.55-.08-.29-.3-.58-.22-.87s.53-.45.87-.57c1.23-.45,1.96-1.71,1.75-3,.55.24,1.18,0,1.46-.52.25-.52.43-1.06.53-1.63.1-.57.48-1.05,1-1.29.32-.03.63-.1.93-.21.49-.28.46-1,.3-1.54-.25-.52-.28-1.11-.07-1.65.28-.44.87-.54,1.37-.68s1.06-.55,1-1.06c-.07-.27-.25-.5-.5-.63-1.1-.68-2.52-.5-3.43.42-1.35-1.57-3.72-1.74-5.29-.38-.77.66-1.23,1.61-1.29,2.62-1.19-.37-2.49-.14-3.48.62-.98.78-1.53,1.97-1.48,3.22-1.09.21-1.95,1.04-2.21,2.12-.23,1.09.19,2.21,1.08,2.88-.57.71-.72,1.66-.42,2.52.32.76,1.2,1.13,1.96.81.08-.03.16-.07.23-.12,0,.81.61,1.48,1.41,1.58.8.04,1.51-.51,1.65-1.3"/>
    <path class="cls-13" d="M318.75,185.53s.08.36.59.64c.31.16.66.2,1,.11.44-.11.81-.42,1-.84l-.17.05c.37.27.79.48,1.23.61.29.1.6.14.91.12.29-.02.58-.12.82-.29.44-.25.74-.68.82-1.17.05-.33.03-.67-.06-1,0-.22-.1-.33-.12-.33-.01.12-.01.23,0,.35.05.3.05.61,0,.91-.27.93-1.24,1.46-2.17,1.19-.05-.01-.09-.03-.14-.05-.41-.14-.81-.33-1.17-.57l-.12-.09-.05.14c-.15.35-.44.61-.8.73-.28.11-.6.11-.88,0-.26-.12-.5-.29-.69-.51Z"/>
    <path class="cls-13" d="M321.96,173.16h.32c.3-.01.59.07.84.23l.08.06v-.1c.19-.89.59-1.72,1.18-2.41.38-.44.84-.8,1.37-1.05.59-.26,1.23-.36,1.87-.29.5.06.99.22,1.42.48.41.25.75.59,1,1l.07.11.1-.08c.47-.4,1.09-.6,1.71-.55.49.03.96.22,1.33.54.33.29.59.65.78,1.05,0-.12-.04-.24-.1-.35-.36-.8-1.13-1.35-2-1.44-.67-.06-1.35.14-1.87.57h.17c-.26-.44-.62-.8-1.05-1.07-1.06-.65-2.38-.72-3.51-.2-.55.27-1.04.65-1.44,1.12-.6.73-.99,1.6-1.14,2.53h.1c-.28-.16-.6-.23-.92-.19-.21.04-.32.04-.31.04Z"/>
    <path class="cls-13" d="M337.72,354.16l-2.13,10.72v2.48s6.86,13.27,5.28,15.18l-19.74-18.68,3-3.2,1.92-10.66,11.67,4.16Z"/>
    <path class="cls-5" d="M321.13,363.86l1.48-1.47,18.43,18.46s.54,1.2-.12,1.69l-19.79-18.68Z"/>
    <path class="cls-5" d="M336.02,367.57c-.08.09-.61-.33-1.36-.48s-1.37,0-1.42-.13.58-.51,1.49-.31,1.4.86,1.29.92Z"/>
    <path class="cls-5" d="M337.33,370.35c-.06.11-.62-.13-1.32-.06s-1.17.4-1.26.31.33-.67,1.2-.75,1.46.41,1.38.5Z"/>
    <path class="cls-5" d="M336.3,373.82c-.11-.06.19-.65.91-.92s1.36,0,1.33.07-.57.12-1.15.35-.99.58-1.09.5Z"/>
    <path class="cls-13" d="M358.23,316.16l-9.79,8.39s5.74,13.3,4.09,15l-17.89-19.39,14.68-13.74,8.91,9.74Z"/>
    <path class="cls-1" d="M343.71,317.78c-.44-.3-1.04-.19-1.36.24-.3.46-.16,1.08.3,1.38.48.33,1.13.23,1.48-.24.23-.52.03-1.13-.47-1.4"/>
    <path class="cls-5" d="M334.64,320.16l1.54-1.33,16.57,19.09s.45,1.2-.22,1.63l-17.89-19.39Z"/>
    <path class="cls-5" d="M348.83,324.74c-.09.08-.57-.36-1.29-.55s-1.32-.1-1.37-.22.6-.46,1.47-.21,1.29.92,1.19.98Z"/>
    <path class="cls-5" d="M349.91,327.51c-.07.1-.6-.17-1.28-.14s-1.16.31-1.24.21.37-.62,1.21-.64,1.39.49,1.31.57Z"/>
    <path class="cls-5" d="M348.67,330.8c-.1-.07.23-.61.94-.83s1.32.05,1.28.16-.55.08-1.13.27-.99.49-1.09.4Z"/>
    <path class="cls-5" d="M350.83,322.57c-.12,0-.39-.52-.92-1s-1.07-.77-1-.89.72,0,1.33.58.71,1.29.59,1.31Z"/>
    <path class="cls-5" d="M332.2,270.85s3.14,11.93,9.62,14.52,29.31,12.79,29.31,12.79l-28.6,13.09,5.93,13.3s39.36-14.84,43.87-17.81,5.85-12.29.43-17.08c-2.73-2.41-30.47-25.68-30.47-25.68l-2.65-7.53-23.89-2.88-3.55,17.28Z"/>
    <path class="cls-13" d="M348.43,324.51c-.05-.07-.09-.15-.12-.23l-.33-.68c-.28-.63-.69-1.51-1.21-2.64l-4.38-9.7-.05-.11.11-.05,26.1-12,2.48-1.14v.3c-5.15-2.37-10-4.58-14.48-6.56l-6.31-2.77c-2-.86-3.85-1.6-5.47-2.47-2.55-1.35-4.9-3.03-7-5-.57-.54-1.1-1.1-1.61-1.7-.17-.21-.29-.37-.37-.48l-.12-.17s.05,0,.14.15.22.26.4.45c.36.4.9,1,1.65,1.66,2.13,1.92,4.5,3.56,7.06,4.87,1.61.85,3.48,1.57,5.46,2.42s4.1,1.76,6.33,2.75c4.45,2,9.35,4.17,14.5,6.53l.32.15-.32.15-2.48,1.14-26.14,11.91.06-.16,4.29,9.74,1.15,2.67.29.69c.03.09.04.19.05.28Z"/>
    <path class="cls-13" d="M379.41,296.83c0,.1-1.89.05-4.17.41s-4.08,1-4.11.88c.35-.23.73-.4,1.14-.5.95-.32,1.92-.55,2.91-.7.99-.16,2-.23,3-.21.41-.03.83.01,1.23.12Z"/>
    <path class="cls-5" d="M366.64,271.74c-.17,1.21-14,43.2-17.78,48.45s-11.43,42.24-11.43,42.24c0,0-15.09-2.93-15.2-2.15s3.25-25.53,6.43-36.82,4.87-15.77,4.87-15.77l3.35-33.67s-4-7.77-3.6-12.09c.43-3.08,1.33-6.08,2.67-8.89l30.69,18.7Z"/>
    <path class="cls-13" d="M362.18,267.28c.09.41.14.83.14,1.25.05.81.1,2,.08,3.43-.13,7.56-1.23,15.07-3.27,22.35-.41,1.39-.77,2.51-1.05,3.27-.12.41-.28.79-.49,1.16.06-.42.16-.82.3-1.22.22-.78.53-1.91.88-3.3.92-3.64,1.66-7.33,2.2-11.05.56-3.71.92-7.46,1.08-11.21.06-1.45.08-2.61.09-3.42-.04-.42-.02-.84.04-1.26Z"/>
    <path class="cls-10" d="M344.13,280.32c.7.48,1.33,1.04,1.89,1.68.65,1.27,1.2,2.59,1.66,3.94,0,0-.55.63-1.85-1-.64-.77-1.22-1.6-1.71-2.47v-2.15Z"/>
    <path class="cls-10" d="M346.35,286.25l-2.22-5.87-4-3.4-7.17,2.7,2.56,7.15c.9,1.09,1.91,2.1,3,3,.73.37,1.56-.45,1.56-.45.87.63,2.22-.27,2.22-.27,1.07.57,1.87-.69,1.87-.69,0,0,1.35.51,1.78.27.17-.12.29-.29.36-.49.25-.62.27-1.32.04-1.95Z"/>
    <path class="cls-14" d="M338.98,288.07c.06-.05.35.19.65.54s.49.68.43.73-.34-.19-.65-.55-.49-.63-.43-.72Z"/>
    <path class="cls-14" d="M340.79,287.25c.07,0,.38.4.8.93s.77.94.72,1-.51-.28-.94-.83-.65-1.07-.58-1.1Z"/>
    <path class="cls-14" d="M342.97,286.6c.07,0,.3.39.62.88s.59.89.53.94-.44-.27-.77-.79-.45-1.01-.38-1.03Z"/>
    <path class="cls-14" d="M344.81,282.24c.41.69.75,1.42,1,2.18.33.72.57,1.48.72,2.26-.42-.68-.75-1.41-1-2.17-.33-.72-.57-1.49-.72-2.27Z"/>
    <path class="cls-14" d="M338.41,286.94s0,.12-.08.25c-.13.16-.32.27-.53.31-.21.04-.42,0-.6-.12-.13-.08-.18-.17-.16-.2s.35.11.71,0,.59-.28.66-.24Z"/>
    <path class="cls-14" d="M340.7,286.43s0,.13-.12.25c-.15.17-.36.27-.58.31-.22.04-.45.01-.65-.08-.15-.08-.21-.17-.19-.2s.37.09.79,0,.68-.32.75-.28Z"/>
    <path class="cls-14" d="M344.64,284.36s.23.1.16.41c-.12.34-.38.61-.7.77-.31.15-.66.2-1,.15-.26,0-.39-.15-.38-.18.43,0,.86-.07,1.27-.22.26-.13.49-.33.64-.58.07-.19-.02-.32.01-.35Z"/>
    <path class="cls-10" d="M373.99,161.3s2.18-6.58,2.23-7.58-.43-3.19-1.19-3.72c-.67-.52-1.59-.56-2.3-.11-.15-.81-.83-1.43-1.65-1.51-.53-.17-1.09.13-1.26.65-.05.16-.06.34-.02.51-.03-.59-.48-1.07-1.06-1.14-.37-.03-.74.07-1.06.26,0,0-1.45-1.08-2.28-.26s1.23,12.27,1.23,12.27l7.36.63Z"/>
    <path class="cls-10" d="M366.33,159.36s-2.83-4-2.92-5.16,1.06-3.89,1.79-4.29,3.71-1.35,3.71-1.35c0,0,1.35,1.06-.38,2.37l-2,1.38s3.48.83,3.67,4.29"/>
    <path class="cls-14" d="M370.19,156.6c-.09-.54-.24-1.06-.45-1.57-.27-.56-.66-1.06-1.13-1.46-.62-.52-1.34-.91-2.12-1.12l-.29-.08.24-.17,2-1.42c.35-.24.61-.6.75-1,.08-.41-.08-.84-.41-1.1h.15l-1.58.53c-.43.15-.84.29-1.25.45l-.6.24c-.09.04-.18.08-.27.13-.08.05-.15.11-.2.18-.49.62-.87,1.33-1.12,2.08-.13.35-.23.71-.31,1.07-.08.33-.08.67,0,1,.2.6.46,1.17.78,1.71.58,1,1.09,1.82,1.44,2.38.2.28.37.57.52.87-.24-.24-.45-.51-.63-.8-.38-.54-.92-1.32-1.53-2.34-.35-.55-.63-1.14-.85-1.76-.09-.37-.09-.75,0-1.12.08-.38.18-.75.31-1.11.25-.8.65-1.54,1.16-2.2.08-.09.18-.17.28-.24.1-.06.2-.11.3-.15l.61-.25c.41-.16.83-.3,1.26-.45l1.59-.53h.09l.06.06c.44.34.64.89.52,1.43-.16.47-.47.87-.87,1.15l-2.06,1.41-.05-.25c.82.23,1.58.65,2.21,1.22.49.43.87.97,1.13,1.57.09.22.16.45.21.68.05.17.07.34.08.51.05.3.05.45.03.45Z"/>
    <path class="cls-10" d="M369.56,149.62c-.22,1.26-.22,2.55,0,3.81.03.44.22.85.52,1.17.33.26.76.34,1.16.22.4-.12.75-.37,1-.7"/>
    <path class="cls-14" d="M372.21,154.16s-.16.45-.84.77c-.42.18-.9.15-1.29-.08-.43-.34-.69-.84-.72-1.38-.27-1.27-.2-2.58.2-3.81-.06,1.25-.02,2.51.13,3.75.02.46.22.88.56,1.19.3.18.67.22,1,.11.34-.15.66-.33.96-.55Z"/>
    <path class="cls-10" d="M367.06,152.16c-.13.45-.13.94,0,1.39.05.61.49,1.11,1.08,1.25.49.07,1.05-.62,1.27-1.31"/>
    <path class="cls-14" d="M369.43,153.47s0,.31-.23.74c-.14.26-.35.48-.6.63-.17.1-.38.12-.57.08-.2-.05-.38-.14-.53-.27-.27-.24-.46-.57-.54-.93-.05-.33-.08-.58-.1-.83,0-.5.17-.77.2-.75s0,.3,0,.73c.06.27.11.53.17.78.07.29.24.55.46.75.11.09.24.17.38.21.12.04.24.04.36,0,.22-.12.4-.29.55-.49.3-.4.4-.67.45-.65Z"/>
    <path class="cls-10" d="M372.96,149.94c-.62.82-1.04,1.77-1.23,2.78-.13.52.02,1.07.4,1.44.51.28,1.13.2,1.55-.2.68-.52,1.12-1.3,1.21-2.16"/>
    <path class="cls-14" d="M374.84,151.84c.05.45-.05.9-.29,1.28-.24.44-.58.82-1,1.1-.25.17-.54.28-.85.31-.36.05-.72-.09-.94-.38-.2-.29-.3-.65-.27-1,.01-.29.06-.58.14-.86.11-.47.29-.92.52-1.34.18-.4.45-.77.78-1.06.05,0-.25.44-.57,1.16-.19.42-.34.86-.44,1.31-.06.26-.09.52-.1.79-.02.27.05.53.2.75.32.41,1,.27,1.36,0,.38-.26.7-.6.94-1,.2-.34.37-.69.52-1.06Z"/>
    <path class="cls-1" d="M345.5,205.55c.73-2.17,1.62-4.28,2.67-6.32.93-1.34,13.52-11.64,13.92-14.74.45-3.47,4.47-24,4.42-23.59s9.48-.82,9.48-.82c0,0-.82,23.29-1.11,27.4-.48,6.54-13.54,20-15.22,24.12-1.41,3.44-.39,13.64-.39,13.64l-13.77-19.69Z"/>
    <path class="cls-1" d="M358.81,212.09l-1.09-1.72-10.07-4.84c-1.93-.8-3.91-1.47-5.93-2-2.44-.62-4.94-1.02-7.45-1.21l-4,.28.51,2.77,10,5.13-8,32.32.81,17.68,28.35,2.48s2.25-.84,2.25-5.48l-5.38-45.41Z"/>
    <path class="cls-1" d="M344.95,220.8c-1.64,4-12.19,28-12.19,28,0,0,10,27.93,9.53,28.25s-10.76,3.48-10.76,3.48c0,0-13-28.62-13.22-32.42s6.91-29.18,7.07-29.71.68-4.2,5.77-7.92c6-4.36,10-2.29,12.46.54,2.09,2.43,2,7.54,1.58,9.08-.06.23-.15.47-.24.7Z"/>
    <path class="cls-5" d="M357.83,206.76c.77,1.77,1.24,3.66,1.38,5.59.28,1.9.4,3.81.37,5.73-.48-1.86-.78-3.76-.88-5.67-.36-3.13-1.03-5.61-.87-5.65Z"/>
    <path class="cls-5" d="M331.53,280.52c.23-.12.48-.22.73-.29l2.13-.75,7.84-2.62-.13.24-7.15-20.94-2.45-7.28v-.17c2.45-6.95,4.25-13.14,5.6-17.52.65-2.15,1.18-3.89,1.56-5.16.18-.56.32-1,.44-1.38.04-.16.1-.32.18-.47-.02.17-.05.34-.1.5-.09.37-.2.83-.35,1.4-.32,1.22-.79,3-1.42,5.2-1.26,4.41-3,10.61-5.44,17.6v-.17c.78,2.32,1.61,4.77,2.47,7.28l7,21,.07.19-.19.06-7.9,2.46-2.16.65c-.24.08-.48.14-.73.17Z"/>
    <path class="cls-5" d="M361.99,263.01c-.04-.17-.06-.34-.06-.51,0-.39-.05-.86-.08-1.44-.06-1.25-.14-3.06-.27-5.3-.26-4.47-.74-10.64-1.69-17.4s-2.18-12.83-3.19-17.19c-.51-2.18-.94-3.95-1.25-5.16-.13-.56-.25-1-.34-1.4-.05-.16-.08-.33-.08-.5.08.15.14.3.18.47l.44,1.38c.37,1.2.85,2.95,1.41,5.12,1.43,5.67,2.54,11.42,3.34,17.21.81,5.79,1.33,11.62,1.54,17.46.09,2.24.12,4.05.11,5.31v1.44c0,.17-.02.34-.06.51Z"/>
    <path class="cls-3" d="M330.53,204.96l15.82.21-.34-1.3s4.83.07,4.14,3.43c-.41,2-19.26,2.59-22.92,6.83.17-2.69,1.2-6.66,3.3-9.17Z"/>
    <path class="cls-3" d="M350.85,206.35c-.11-.97-.9-1.72-1.87-1.78-.93-.1-1.83.36-2.28,1.18-.43.83-.29,1.85.34,2.54.65.67,1.66.85,2.51.46.87-.47,1.39-1.41,1.3-2.4Z"/>
    <path class="cls-3" d="M349.26,207.57c.1-.02.21-.02.31,0,.3-.03.6-.03.9,0,1.11.13,2.18.47,3.16,1,.32.17.64.35,1,.55.38.2.7.5.93.86.29.45.25,1.03-.11,1.43-.38.38-.92.54-1.45.44-1.95-.7-3.69-1.87-5.07-3.42l.42-.29.32.72c.49,1.01.79,2.11.89,3.23.09,1.08-.23,2.15-.89,3-.33.46-.9.7-1.46.62-.29-.05-.54-.23-.69-.48-.12-.22-.19-.46-.21-.71-.08-.81-.08-1.64,0-2.45.13-1.17.43-2.3.9-3.38.14-.41.35-.79.62-1.13-.59,1.46-.98,2.99-1.16,4.55-.07.78-.07,1.57,0,2.35.05.41.21.76.56.8.4.06.79-.13,1-.48.58-.77.85-1.73.76-2.69-.11-1.04-.41-2.06-.86-3l-.32-.72-.56-1.26,1,1c.72.72,1.5,1.39,2.32,2,.73.58,1.57,1.02,2.46,1.29.36.08.73-.03,1-.28.27-.25.31-.66.1-.96-.2-.3-.47-.56-.79-.74-.31-.21-.62-.39-.92-.56-1.28-.71-2.7-1.15-4.16-1.29Z"/>
    <path class="cls-5" d="M347.87,208.74c0,.06-.44,0-.91-.45-.92-.91-.93-2.4-.02-3.32.36-.37.84-.61,1.35-.68.65-.08,1,.13,1,.19s-.39,0-.93.17c-1.14.31-1.82,1.48-1.51,2.62.07.27.2.53.38.76.34.47.68.64.64.71Z"/>
    <path class="cls-5" d="M345.93,207.99c0,.15-2.75.13-6.12.32s-6.1.51-6.12.36c1.98-.55,4.03-.85,6.09-.88,2.05-.19,4.12-.13,6.15.2Z"/>
    <path class="cls-5" d="M345.06,207.16c-1.13.12-2.27.07-3.38-.16-1.13-.06-2.25-.28-3.32-.67,1.13-.12,2.27-.07,3.38.16,1.13.06,2.25.28,3.32.67Z"/>
    <g class="cls-9">
      <path d="M335.52,247.65c.23-1.51.62-2.99,1.14-4.42,1.64-5.25,2.57-10.69,2.76-16.18-1.85,6.14-3.7,12.27-5.82,18.32-.46,1.13-.71,2.34-.73,3.56l3.94,11.92h.23c.55-4.42-2-8.78-1.52-13.2Z"/>
    </g>
    <path class="cls-5" d="M314.92,426.16c-.15,0-.26-7.08-.26-15.81s.11-15.8.26-15.8.26,7.07.26,15.8-.12,15.81-.26,15.81Z"/>
    <path class="cls-5" d="M325.69,458.16c-.15,0-.26-14.31-.26-32s.11-32,.26-32,.26,14.31.26,32-.12,32-.26,32Z"/>
  </g>
  <g id="freepik--character-2--inject-298">
    <path class="cls-2" d="M253.55,55.46s.21-7.11,0-8.11-1.36-3-2.27-3.3c-.8-.32-1.72-.09-2.28.57-.39-.76-1.24-1.17-2.08-1-.58.02-1.04.52-1.01,1.1,0,.14.04.29.1.42-.2-.57-.78-.91-1.38-.81-.38.07-.74.27-1,.56,0,0-1.74-.63-2.32.42s4.82,11.7,4.82,11.7l7.42-1.55Z"/>
    <path class="cls-2" d="M245.45,55.81s-4-3.1-4.39-4.21-.1-4.13.51-4.74,3.24-2.42,3.24-2.42c0,0,1.63.64.32,2.44l-1.57,2s3.66-.21,4.88,3.13"/>
    <path class="cls-6" d="M248.44,51.96c-.26-.5-.56-.97-.91-1.41-.44-.47-.96-.84-1.54-1.11-.76-.33-1.59-.49-2.42-.47h-.31l.19-.24,1.58-2c.27-.34.42-.75.44-1.18-.02-.45-.3-.84-.72-1h.16l-1.41,1-1.09.8c-.17.14-.35.27-.51.41-.08.06-.16.14-.23.21-.06.07-.11.15-.15.24-.3.76-.46,1.56-.48,2.37-.03.38-.03.77,0,1.15.01.35.1.69.25,1,.38.52.81.99,1.28,1.43.86.83,1.61,1.47,2.11,1.91.28.22.53.45.77.71-.3-.17-.59-.37-.85-.6-.54-.42-1.3-1-2.19-1.85-.5-.44-.96-.94-1.36-1.48-.18-.34-.29-.72-.3-1.11-.03-.39-.03-.79,0-1.18.02-.86.18-1.71.49-2.51.06-.11.13-.22.21-.31.08-.09.16-.17.25-.24.17-.15.35-.28.53-.42.35-.28.72-.55,1.1-.82l1.41-1h.16c.52.21.88.71.92,1.27-.02.5-.2.99-.51,1.38l-1.62,2-.12-.23c.87-.01,1.74.17,2.53.54.6.29,1.14.7,1.57,1.21.16.19.29.39.41.61.1.15.18.31.24.48.05.14.09.29.12.44Z"/>
    <path class="cls-2" d="M245.76,45.28c.14,1.31.51,2.58,1.09,3.76.16.42.46.77.85,1,.4.17.85.12,1.21-.12.35-.25.63-.6.78-1"/>
    <path class="cls-6" d="M249.69,48.93s0,.49-.6,1c-.36.3-.84.42-1.29.31-.51-.21-.92-.63-1.11-1.15-.64-1.16-.97-2.48-.93-3.81.3,1.25.71,2.48,1.23,3.66.15.44.48.8.9,1,.36.09.75.02,1.05-.2.28-.24.53-.51.75-.81Z"/>
    <path class="cls-2" d="M244.04,48.5c.02.48.17.95.43,1.36.23.58.81.94,1.43.91.5-.07.85-.92.87-1.66"/>
    <path class="cls-6" d="M246.77,49.16s.1.3,0,.79c-.07.3-.21.57-.41.8-.14.15-.33.24-.54.25-.2,0-.4-.03-.59-.11-.34-.16-.63-.43-.81-.76-.13-.26-.24-.52-.34-.79-.16-.48-.06-.8,0-.79s.06.3.25.7l.39.72c.16.27.4.48.68.61.14.06.28.09.43.09.13,0,.25-.05.34-.14.18-.18.32-.41.4-.65.12-.48.14-.72.2-.72Z"/>
    <path class="cls-2" d="M249.2,44.6c-.37.98-.51,2.04-.39,3.09-.01.56.28,1.08.77,1.36.58.12,1.17-.14,1.47-.65.52-.72.71-1.62.55-2.49"/>
    <path class="cls-6" d="M251.6,45.91c.19.43.22.9.09,1.35-.09.5-.31.97-.63,1.37-.2.24-.45.43-.74.55-.33.14-.7.1-1-.1-.27-.21-.47-.51-.55-.85-.07-.29-.11-.59-.12-.89-.02-.49.02-.99.12-1.47.05-.45.21-.89.46-1.27.05,0-.13.5-.23,1.31-.05.47-.05.95,0,1.42.01.27.06.55.13.81.07.26.21.5.42.67.44.31,1,0,1.34-.39.3-.35.52-.76.64-1.21.06-.43.08-.87.07-1.3Z"/>
    <path class="cls-5" d="M236.34,107.31c.77-2.12,1.71-4.17,2.79-6.15,1-1.3,5.42-14.81,5.26-17.83s-.37-27.73-.43-27.38,11.48-2,11.48-2c0,0,1.86,27.84,2,31.05.28,5.81-4.3,19.64-6.79,27.83-1.06,3.49-.61,13.13-.61,13.13l-13.7-18.65Z"/>
    <path class="cls-13" d="M249.42,117.48c-.41-.57-.78-1.17-1.08-1.81-.61-1.14-1.41-2.76-2.18-4.59s-1.36-3.53-1.75-4.77c-.23-.65-.41-1.32-.53-2,.31.65.56,1.31.76,2,.44,1.22,1.07,2.89,1.84,4.72s1.51,3.45,2.07,4.62c.33.59.62,1.2.87,1.83Z"/>
    <path class="cls-5" d="M235.59,91.73c-.56-9.35-2.06-19.68-15.34-19.84,0,0-10-.16-13.52,6.77-1.74,3.41-4.37,15.63-5.89,26.83-1,3.8-2.16,7.63-4.85,10.43-1.67,1.58-3.54,2.92-5.56,4-2.02,1.06-3.88,2.41-5.52,4-1.65,1.63-2.54,3.88-2.45,6.2.17,2.14,1.65,3.95,3.71,4.55-.56.73-.94,1.58-1.1,2.49-.4,2.54,1.32,4.92,3.86,5.32,1.07.17,2.16-.04,3.09-.58-1,3.83,2.37,7.87,6.28,8.43s7.83-1.78,10-5.08c1.64-2.66,2.58-5.68,2.73-8.8,1.57.23,3.18.07,4.67-.48,8.62-2.51,15.67-8.75,19.2-17l2.5-.73s-1.46-20.7-1.81-26.51Z"/>
    <path class="cls-2" d="M215.85,75.16l-1.13-.2-4.27,6.2c-1,.78-1.46,4-.77,5.14l15.86,23.63c1.08,1.66,1.66,3.39,3.52,4l2,.68c3.43,1.23,7.2-.55,8.43-3.97.31-.87.44-1.79.37-2.71-.02-.27-.07-.54-.15-.8-.07-.21-.16-.42-.25-.62-1.08-2.1-2.19-3.81-2.19-3.81-1.29-2.23-1.84-3.14-1.82-3.12s4.22-3.56,1.56-10.24c-1.33-3.32-4.1-7.26-6.9-11.09-3.9-5.26-9.88-6.04-14.26-3.09Z"/>
    <path class="cls-5" d="M223.74,87.9c.26.42.13.97-.29,1.24-.4.28-.95.18-1.23-.21,0,0,0,0,0,0-.26-.42-.13-.97.29-1.24.4-.28.95-.18,1.23.21,0,0,0,0,0,0Z"/>
    <path class="cls-5" d="M231.44,83.07c.26.42.13.97-.29,1.23-.39.28-.94.18-1.21-.21,0,0,0,0,0-.01-.25-.42-.13-.97.28-1.24.39-.28.93-.19,1.21.21,0,0,.01.02.02.02Z"/>
    <path class="cls-5" d="M230.07,80.4c0,.16-.89.08-1.73.58s-1.21,1.29-1.36,1.24-.08-.26.07-.61c.44-.96,1.42-1.54,2.47-1.45.38,0,.61.17.55.24Z"/>
    <path class="cls-5" d="M222.13,85.85c0,.16-.89.07-1.74.56s-1.22,1.28-1.37,1.23-.08-.26.07-.62c.22-.46.56-.85,1-1.11.44-.25.95-.36,1.46-.31.42.04.58.18.58.25Z"/>
    <path class="cls-5" d="M229.03,90.37c.36-.4.77-.76,1.22-1.06.2-.15.38-.32.33-.49s-.27-.36-.52-.55l-1.61-1.26c-1.42-1.04-2.76-2.18-4-3.43,1.5.91,2.92,1.95,4.25,3.1l1.59,1.29c.29.18.5.46.61.78.03.19-.03.38-.17.52-.1.11-.21.2-.33.27-.42.33-.88.61-1.37.83Z"/>
    <path class="cls-6" d="M235.41,99.61c-2.85,1.76-6.13,2.69-9.48,2.68,0,0,4.57,3,10.34-1.2l-.86-1.48Z"/>
    <path class="cls-6" d="M229.06,91.78c-.54,0-1.07.18-1.49.53h0c-.52.41-.68,1.13-.39,1.72.15.38.44.7.8.9.67.14,1.36-.01,1.91-.42.43-.37.63-.94.53-1.5-.14-.66-.69-1.16-1.36-1.23Z"/>
    <path class="cls-5" d="M226.9,92.42c.13-.09.68.83,1.84,1s2.09-.49,2.17-.37-.11.31-.52.56c-.53.33-1.16.46-1.77.36-.59-.08-1.13-.4-1.49-.88-.27-.35-.3-.63-.23-.67Z"/>
    <path class="cls-5" d="M220.86,82.92c0,.29-.92.58-1.9,1.19s-1.7,1.29-1.94,1.14-.07-.37.16-.77c.66-1.01,1.75-1.66,2.95-1.77.43-.02.71.08.73.21Z"/>
    <path class="cls-5" d="M227.68,76.93c0,.27-.73.42-1.43.83s-1.21.89-1.47.77-.14-.31,0-.64c.45-.86,1.37-1.37,2.34-1.3.38.05.57.2.56.34Z"/>
    <path class="cls-5" d="M215.79,96.84s5-1.47.55-13.35c-1.53-4.06-.16-9.08-.16-9.08l-1.59.48s-6.69,7.79-6.76,8,.75,5.64.75,5.64l7.21,8.31Z"/>
    <path class="cls-2" d="M217.03,95.16c-.27-.46-1.43-1.22-1.92-1-1.31.52-3.42,1.91-1.63,5,2.45,4.18,6.14.86,6.08.74s-1.59-3.15-2.53-4.74Z"/>
    <path class="cls-6" d="M217.35,99.03s0,.1-.13.23c-.13.17-.33.29-.54.33-.75-.03-1.43-.46-1.78-1.13-.22-.35-.35-.75-.4-1.16-.07-.31.01-.64.22-.88.14-.15.37-.17.54-.06.13.09.15.19.18.18s.05-.12-.09-.27c-.08-.1-.19-.16-.32-.17-.16-.02-.33.03-.46.13-.31.27-.45.69-.38,1.09.04.47.18.92.43,1.32.41.78,1.24,1.25,2.12,1.18.26-.08.48-.26.6-.5.07-.16.03-.29.01-.29Z"/>
    <path class="cls-13" d="M223.22,113.83c-.06-.05-.12-.11-.17-.17l-.48-.5-1.82-2,.09-.07.38.43h0l.2.12-.08.1c-3.3-2.8-6.21-6.05-8.62-9.65-1.08-1.51-1.98-3.14-2.66-4.86-.27-.75-.43-1.53-.48-2.32-.04-.76-.02-1.53.08-2.29.19-1.49.53-2.89.8-4.23.57-2.68,1.07-5.09,1.5-7.13s.78-3.65,1-4.8c.12-.55.22-1,.29-1.3,0-.14.06-.25.08-.34s0-.11,0-.11c0,.04,0,.08,0,.12,0,.09,0,.2-.06.34-.06.31-.14.75-.25,1.31-.23,1.15-.55,2.79-1,4.81s-.9,4.46-1.45,7.14c-.26,1.34-.6,2.75-.78,4.22-.23,1.51-.1,3.05.39,4.5.68,1.7,1.56,3.32,2.62,4.82,2.41,3.59,5.28,6.84,8.54,9.68l-.08.1-.2-.13h0l-.38-.44.09-.08,1.77,2,.46.52.22.21Z"/>
    <path class="cls-7" d="M241.35,190.74c1.21-12.46,5.23-24.51,7.59-36.82s3-25.4-2.39-37l-24.76-10.17c-10.6,4.54-9.78,13.06-12.89,22.45-4.24,12.77-8.23,27.15-12.57,35.84-7.54,15.06-15.78,30-20.11,46.08s-4.46,33.78,3.84,48.72c.7,1.51,1.83,2.78,3.25,3.65,3.42,1.76,7.61-.72,9.88-3.56s4-6.36,7.6-7.77c4-1.56,8.57.1,12.31,2.12s7.5,4.5,11.84,4.67c4.68.18,8.82-2.37,12.88-4.41s9.14-3.65,13.28-1.64c-5.87-20.41-11.79-41.28-9.75-62.16Z"/>
    <g class="cls-9">
      <path d="M240.13,189.31c1.2-12.46,5.14-24.52,7.46-36.83s2.63-24.88-2.58-36.49l-8.21-4.83c-17.57,14.56-17.33,39.34-24.23,53.45-7.38,15.08-20.74,30.6-25,46.69s-7.79,37.47.29,52.39c2.23-.87,4.18-2.33,5.65-4.22,2.22-2.84,3.76-6,7.27-7.35,3-1.15,6.73-.69,10.17,1.06h0c4.71,2.56,4.93,2.73,8.73,4.49,2.19,1,5.92,1.92,8.74.61,2.94-.84,5.36-3.79,8.09-5.2,4-2.05,8.92-3.66,12.95-1.66-5.66-20.37-11.39-41.26-9.33-62.11Z"/>
    </g>
    <g class="cls-9">
      <path d="M242.13,208.05l-4.18,14.63-.47-.43-10.12,9.57v2.47l8.11,2.75c.92.31,1.92-.18,2.23-1.1.01-.03.02-.06.03-.1l2.95-10.68,2.88-11.82-1.43-5.29Z"/>
    </g>
    <path class="cls-13" d="M240.31,263.16l-.8,10.48.31,2.37s8.07,11.88,6.79,13.88l-21.05-15.56,2.47-3.39.6-10.4,11.68,2.62Z"/>
    <path class="cls-5" d="M225.56,274.35l1.25-1.57,19.71,15.5s.66,1.08.09,1.63l-21.05-15.56Z"/>
    <path class="cls-5" d="M240.24,276.16c-.08.09-.63-.24-1.36-.3s-1.31.15-1.38,0,.5-.56,1.4-.47,1.42.77,1.34.77Z"/>
    <path class="cls-5" d="M241.81,278.68c-.05.11-.62,0-1.27.1s-1.08.52-1.18.44.25-.68,1.06-.86,1.45.22,1.39.32Z"/>
    <path class="cls-5" d="M241.21,282.16c-.11,0,.11-.64.77-1s1.29-.2,1.28-.08-.53.18-1.06.47-.88.61-.99.61Z"/>
    <path class="cls-5" d="M260.4,169.9c0,1.24-9,45.71-12.14,51.51s-7.13,50.33-7.13,50.33l-14.12-1s-.78-31.58,1.12-43.51,3-16.66,3-16.66l-.73-34.7s-3.73-10-3.82-14.49,2.83-9.51,2.83-9.51l30.99,18.03Z"/>
    <path class="cls-13" d="M257.33,219.07l-10.2,4.92s1.89,12.54.11,13.65l-10.83-20.43,15.51-8.36,5.41,10.22Z"/>
    <path class="cls-5" d="M236.45,217.21l1.6-.77,9.78,19.87s.11,1.11-.55,1.33l-10.83-20.43Z"/>
    <path class="cls-5" d="M247.44,224.27c-.09,0-.4-.43-1-.76s-1.1-.38-1.11-.49.61-.25,1.29.16.92,1.07.82,1.09Z"/>
    <path class="cls-5" d="M247.74,226.86c-.08.07-.47-.27-1.05-.4s-1.05,0-1.1-.1.45-.45,1.17-.28,1.07.73.98.78Z"/>
    <path class="cls-5" d="M245.96,229.37c-.07-.08.33-.47,1-.49s1.11.34,1.05.42-.49,0-1,0-.99.16-1.05.07Z"/>
    <path class="cls-5" d="M249.63,222.88c-.11,0-.22-.53-.56-1.07s-.73-.89-.68-1,.62.15,1,.8.34,1.28.24,1.27Z"/>
    <path class="cls-5" d="M254.56,136.41s6,20.33,5.84,28.9-3.7,1.91-3.7,1.91l-2.14-31.57"/>
    <path class="cls-5" d="M227.69,173.23s4.65,11.76,11.57,13.6c3.81,1,14.24,3.08,22.19,4.31,4.53.81,8.98,2.04,13.29,3.67l-31.61,18.24,6.7,10.75s37.05-17.64,41.3-21.19,6.06-11,.22-17c-2.6-2.67-33.89-23.09-33.89-23.09l-3.64-7.36-24.39,11.57-1.74,6.5Z"/>
    <path class="cls-13" d="M282.21,192.93c0,.1-1.92.28-4.21.93s-4,1.49-4.07,1.39c.33-.27.7-.49,1.1-.64.93-.44,1.89-.8,2.88-1.08.98-.27,1.99-.47,3-.58.43-.08.87-.09,1.3-.02Z"/>
    <g class="cls-9">
      <path d="M240.68,187.16s4.07,3.64,8.81,4.25,6.37.88,6.37.88l.42-1.91-15.6-3.22Z"/>
    </g>
    <path class="cls-13" d="M233.29,182.61c.98.87,2.03,1.65,3.14,2.34,2.79,1.5,5.8,2.56,8.91,3.14,3.63.81,7,1.3,9.39,1.75,1.2.22,2.17.4,2.84.56.34.06.68.16,1,.29-.36.02-.72-.01-1.07-.09l-2.86-.4c-2.42-.36-5.78-.78-9.44-1.6-3.17-.59-6.21-1.71-9-3.33-.48-.29-.93-.63-1.35-1-.34-.25-.65-.54-.93-.85-.24-.24-.45-.52-.63-.81Z"/>
    <path class="cls-13" d="M256.36,162.21c1.04.29,2.02.75,2.9,1.36.97.46,1.86,1.08,2.63,1.82-1.03-.3-2.01-.76-2.89-1.37-.97-.46-1.86-1.07-2.64-1.81Z"/>
    <g class="cls-9">
      <path d="M230.51,182.16l26.84,3.23s1.29-18.56.45-22.34c-.41-2.18-1.04-4.31-1.88-6.36,0,.35-25.44,24-25.44,24l.03,1.47Z"/>
    </g>
    <path class="cls-1" d="M254.7,142.16c-.79-7.72,2-12.93-5.9-23.24l-10.16-9.7c-2.21-1.49-4.63-2.64-7.18-3.41-2.18-.58-4.46-.74-6.7-.48l-4.25.57.86,3.19,16.41,7.95v46.17l18.44-6.67-1.52-14.38Z"/>
    <path class="cls-5" d="M221.37,109.16s8.12-3.41,17,5.13c4.75,4.59,9,12.58,10.26,14.78s4.21,9.78,5.52,17.52c1.39,6.01,2.23,12.12,2.52,18.28.32,6.25-.2,12.51-1.56,18.62l-32.62-3.64,4.64-26.56s-3.8-8.83-4.06-9.54c-2-5.51-2.82-4.22-5.29-15.34-.75-3.32-.82-6.76-.22-10.11.64-3.56,1.66-4.93,3.91-8.27l-.1-.87Z"/>
    <path class="cls-13" d="M250.13,132.88l-.25-.27-.69-.82-2.5-3-8.28-10.31-.05-.05v-.07c.12-.62.26-1.27.4-1.93l.1-.51.21.19-2.07.57h-.1l-.07-.08c-.84-.95-1.7-1.85-2.57-2.66-.81-.8-1.71-1.51-2.68-2.11-.94-.47-1.96-.75-3-.83-1-.12-1.89-.19-2.72-.25-1.67-.09-3-.11-3.94-.12h-1.06c-.12.02-.25.02-.37,0h5.38c.84,0,1.76.1,2.75.21,1.07.08,2.12.36,3.08.84.99.61,1.92,1.32,2.76,2.13.91.85,1.78,1.74,2.6,2.68l-.18-.05,2.07-.58.26-.07-.05.25-.1.51c-.14.66-.28,1.31-.4,1.93v-.13l8.19,10.37,2.42,3.11.64.85c.08.06.15.13.22.2Z"/>
    <path class="cls-13" d="M240.66,152.72c0,.09-3,.28-6.72.41-2.24.14-4.49.16-6.74.07,0-.09,3-.27,6.73-.41,3.73-.14,6.73-.16,6.73-.07Z"/>
    <path class="cls-13" d="M255.97,157.89c.07.16.12.33.14.5.07.33.17.81.28,1.44.26,1.79.42,3.59.47,5.39.12,5.95-.26,11.91-1.13,17.8v.25h-.43c-6.95-.79-13.28-1.18-17.85-1.64-2.29-.22-4.14-.42-5.41-.59-.64-.08-1.13-.16-1.47-.21-.17-.02-.34-.05-.5-.11.17-.03.35-.03.52,0l1.47.12,5.42.43c4.57.36,10.91.69,17.89,1.49h.17l-.29.22c.87-5.87,1.3-11.79,1.28-17.72,0-2.28-.19-4.11-.3-5.37-.07-.58-.13-1.06-.18-1.45-.04-.18-.07-.36-.08-.55Z"/>
    <path class="cls-13" d="M232.42,165.31c-.1.51-.22,1.02-.37,1.52-.29,1-.66,2.34-1.1,3.94l-.16-.23c3.56.18,8.56.47,14.09.83l-.27.19v-.16c.56-2,1.11-3.87,1.61-5.62l.23.32c-4.05-.17-7.54-.35-10-.5l-2.95-.18c-.37,0-.73-.04-1.09-.11.33-.03.67-.03,1,0h2.91c2.5.05,6.05.14,10.18.28h.32l-.08.31c-.5,1.75-1,3.65-1.59,5.62v.17l-.06.2h-.21c-5.53-.36-10.53-.71-14.09-1h-.23l.07-.22c.53-1.61,1-2.95,1.31-4,.12-.46.29-.92.48-1.36Z"/>
    <path class="cls-5" d="M203.81,179.77c-.11.23-.24.44-.39.65l-1.18,1.8c-1.06,1.55-2.49,3.84-4.23,6.69s-3.67,6.34-5.53,10.35c-2.07,4.32-3.83,8.78-5.24,13.36-1.41,4.58-2.46,9.26-3.15,14-.23,2.19-.54,4.27-.62,6.23-.05,1-.11,1.93-.16,2.84s0,1.78,0,2.62c-.06,1.67,0,3.18.07,4.51,0,.66.05,1.27.07,1.85s.09,1.08.13,1.55c.06.89.11,1.6.15,2.15.02.25.02.5,0,.75-.07-.24-.11-.49-.13-.74-.06-.54-.14-1.25-.25-2.14-.05-.48-.1-1-.17-1.56l-.11-1.85c-.06-1.33-.18-2.84-.15-4.52v-2.63c0-.91.1-1.87.14-2.85.06-2,.35-4.07.58-6.28.66-4.77,1.71-9.48,3.12-14.08,1.42-4.6,3.2-9.08,5.31-13.41,1.71-3.54,3.59-6.98,5.64-10.33,1.79-2.83,3.27-5.1,4.38-6.61l1.27-1.75c.13-.22.28-.42.45-.6Z"/>
    <path class="cls-13" d="M213.71,203.89s5.78-13.06,9.43-13.56,8.35-.09,8.91,2.32c.66,3.04.76,6.18.28,9.25-.58,2.81-1.39,5.57-2.4,8.25l-3.49-1.55s4.47-13.44,4-15.78-6.54-2.51-7.91-.3-6.14,12.57-6.14,12.57l-2.68-1.2Z"/>
    <path class="cls-13" d="M195.06,218.97c1.94-5.53,6.39-17.66,8.35-23,.54-1.45,2.12-2.23,3.6-1.75l33.12,10.76c1.48.48,2.31,2.05,1.88,3.54l-6.64,23.13c-.42,1.54-2.01,2.45-3.55,2.03-.03,0-.06-.02-.09-.03l-34.84-10.92c-1.52-.49-2.36-2.11-1.87-3.63.01-.04.03-.09.04-.13Z"/>
    <path class="cls-5" d="M237.9,213.53s0,.08-.07.24l-.24.74c-.21.67-.52,1.63-.92,2.86-.81,2.51-2,6.12-3.43,10.58-.09.28-.18.56-.28.84-.07.31-.24.6-.47.82-.24.22-.55.37-.88.41-.34.03-.68-.03-1-.16l-3.8-1.21-8.37-2.68-9.25-3-4.89-1.57-2.5-.81-.63-.2c-.22-.06-.44-.14-.65-.25-.42-.26-.7-.68-.77-1.17-.04-.2-.04-.42,0-.62.06-.21.12-.37.19-.56l.36-1.08c.25-.72.49-1.43.74-2.14.48-1.42,1-2.82,1.43-4.2.94-2.75,1.85-5.41,2.73-8v-.12l.12.05c9.35,3.61,17.48,6.37,23.27,8.24,2.89.94,5.19,1.65,6.77,2.14l1.82.57.46.14.15.06-.17-.05-.47-.13-1.81-.51c-1.59-.47-3.9-1.16-6.8-2.07-5.8-1.83-14-4.56-23.31-8.16l.16-.08-2.72,8c-.47,1.38-.94,2.78-1.43,4.2-.24.7-.48,1.42-.73,2.14-.12.36-.24.72-.37,1.08-.15.33-.23.69-.21,1.05.05.42.29.79.65,1,.18.1.38.18.59.23l.63.2,2.5.81,4.89,1.57,9.24,3,8.37,2.71,3.79,1.22c.28.12.58.18.88.16.29-.04.56-.16.78-.36.2-.2.35-.45.42-.73l.28-.84c1.48-4.43,2.68-8,3.52-10.5.41-1.23.74-2.2,1-2.86l.25-.75c.14-.16.18-.25.18-.25Z"/>
    <path class="cls-5" d="M223.67,225.22s.21.06.61.11c.58.05,1.17-.07,1.69-.34.82-.45,1.4-1.24,1.58-2.16l1.13-3.53c.22-.66.44-1.34.67-2,.3-.71.32-1.5.05-2.22-.28-.77-.87-1.38-1.63-1.68-.8-.28-1.66-.54-2.52-.83l-11.25-3.68c-.97-.31-2.02-.09-2.79.57-.37.32-.65.73-.81,1.19-.16.47-.32.94-.47,1.41-.31.94-.62,1.87-.91,2.77l-.45,1.34c-.13.44-.31.88-.39,1.31-.15.85.1,1.72.66,2.38.28.31.62.56,1,.73.37.16.78.27,1.16.4l4.27,1.42,6.18,2.07,1.67.58.44.15.14.06h-.15l-.44-.13-1.69-.53-6.21-2-4.31-1.45c-.39-.14-.77-.24-1.18-.41-.4-.19-.76-.45-1.05-.78-.61-.71-.88-1.65-.73-2.57.1-.45.24-.9.4-1.34.14-.45.29-.89.44-1.35.29-.9.6-1.83.9-2.77l.48-1.42c.57-1.6,2.31-2.45,3.92-1.92l11.24,3.7c.87.29,1.71.56,2.53.85.82.32,1.46.98,1.76,1.81.27.77.24,1.61-.07,2.36-.24.71-.46,1.39-.68,2-.43,1.3-.83,2.48-1.18,3.52-.07.26-.16.51-.27.75-.1.23-.23.44-.39.63-.27.34-.61.62-1,.82-.54.27-1.15.38-1.75.3-.2-.01-.41-.05-.6-.12Z"/>
    <g class="cls-9">
      <path d="M200.44,220.02c8.96,6.14,19.52,9.53,30.38,9.74l-30.38-9.74Z"/>
    </g>
    <path class="cls-1" d="M222.6,215.48l-3.9-1.28c-.61-.2-.95-.86-.75-1.47h0c.2-.61.86-.95,1.48-.75l3.9,1.29c.61.2.95.86.75,1.47h0c-.2.61-.87.94-1.48.74,0,0,0,0,0,0Z"/>
    <path class="cls-2" d="M231.36,187.61c.57.66,1.06,1.38,1.45,2.15.32,1.43.54,2.88.65,4.34,0,0-.71.48-1.58-1.46-.44-.93-.81-1.9-1.08-2.89l.56-2.14Z"/>
    <path class="cls-2" d="M232.13,194.09l-.69-6.39-3.06-4.39-7.82.86.73,7.76c.62,1.3,1.36,2.55,2.2,3.72.63.55,1.66-.06,1.66-.06.71.85,2.28.3,2.28.3.92.84,2-.21,2-.21,0,0,1.21.85,1.7.72.2-.08.37-.22.48-.4.4-.55.58-1.23.52-1.91Z"/>
    <path class="cls-6" d="M224.32,194.02c.07,0,.3.28.51.7s.32.8.25.84-.3-.29-.51-.71-.32-.8-.25-.83Z"/>
    <path class="cls-6" d="M226.33,193.66c.08,0,.28.5.56,1.13.21.37.37.77.46,1.18-.06,0-.44-.41-.72-1.06-.22-.38-.32-.81-.3-1.25Z"/>
    <path class="cls-6" d="M228.66,193.57c.08,0,.2.46.39,1s.36,1,.29,1.08c-.29-.27-.48-.62-.56-1-.2-.56-.2-1.07-.12-1.08Z"/>
    <path class="cls-6" d="M231.59,189.71c.24.78.38,1.59.43,2.41.14.81.19,1.62.14,2.44-.24-.78-.38-1.59-.43-2.41-.14-.81-.19-1.62-.14-2.44Z"/>
    <path class="cls-6" d="M224.04,192.75s0,.12-.14.23c-.17.13-.39.19-.6.17-.21-.02-.42-.11-.57-.26-.11-.12-.14-.23-.11-.25s.32.2.7.23.67-.18.72-.12Z"/>
    <path class="cls-6" d="M226.44,192.83s0,.12-.17.22c-.2.12-.43.17-.66.15-.23-.01-.44-.1-.62-.24-.13-.11-.17-.22-.15-.24s.36.18.79.2.76-.15.81-.09Z"/>
    <path class="cls-6" d="M230.89,191.77s.2.15.05.45c-.21.31-.53.51-.89.58-.34.07-.68.03-1-.1-.24-.12-.35-.25-.33-.28.43.12.88.15,1.32.1.3-.05.57-.2.78-.41.09-.16.03-.32.07-.34Z"/>
    <path class="cls-5" d="M233.28,125.37c-1.65,4.14-12.3,28.79-12.3,28.79,0,0,9.26,29.36,8.79,29.7s-9.84,2.86-9.84,2.86c0,0-13.58-29.27-13.8-33.16s8.54-31.31,8.7-31.85,1.48-5.64,4.21-6.84c6.95-3,10.28-2.42,12.78.47,2.16,2.48,2.1,7.72,1.68,9.3-.06.25-.13.49-.22.73Z"/>
    <path class="cls-13" d="M219.93,186.72c.22-.1.44-.19.67-.25l1.95-.62,7.17-2.17-.13.23c-1.71-5.72-4-13.45-6.58-22l-2.28-7.71v-.15c1.23-3.42,2.65-6.5,3.87-9.28s2.34-5.2,3.26-7.27,1.62-3.68,2.08-4.82l.54-1.3c.12-.29.19-.45.21-.44-.03.16-.07.32-.13.47-.09.31-.24.76-.45,1.34-.42,1.15-1.08,2.82-2,4.88l-3.16,7.32c-1.19,2.79-2.59,5.88-3.79,9.26v-.15c.72,2.44,1.49,5,2.29,7.7,2.5,8.53,4.76,16.28,6.44,22l.06.19h-.19l-7.22,2-2,.52c-.19.11-.4.19-.61.25Z"/>
    <path class="cls-13" d="M231.03,117.24c-.07,0-.58-.58-1.62-1.35-2.73-2.04-6.35-2.45-9.47-1.09-1.18.51-1.83,1-1.88.94.46-.56,1.06-.99,1.73-1.27,1.57-.8,3.34-1.12,5.09-.92,1.75.21,3.4.92,4.76,2.05.59.43,1.06.99,1.39,1.64Z"/>
    <path class="cls-7" d="M220.59,107.16l18.68-.75-.58-1.2s3.59.07,2.88,3.51c-.42,2-19.95,2.66-23.71,7,.18-2.77.57-6.01,2.73-8.56Z"/>
    <path class="cls-7" d="M242.88,107.7c-.11-.99-.92-1.76-1.92-1.83-.95-.1-1.88.38-2.34,1.22-.44.85-.3,1.89.34,2.6.67.69,1.71.87,2.58.47.9-.48,1.42-1.45,1.34-2.46Z"/>
    <path class="cls-7" d="M241.6,109.89c.11-.01.21-.01.32,0,.31-.03.61-.03.92,0,1.14.13,2.24.47,3.25,1,.32.17.65.35,1,.56.4.21.74.51,1,.88.29.46.24,1.06-.12,1.47-.39.39-.94.55-1.48.44-2-.71-3.79-1.92-5.2-3.51l.42-.29.33.75c.5,1.04.81,2.15.92,3.3.09,1.11-.24,2.22-.92,3.1-.34.47-.91.71-1.49.64-.3-.05-.55-.24-.7-.5-.12-.23-.2-.47-.22-.73-.16-2.05.18-4.11,1-6,.15-.42.36-.81.63-1.16-.61,1.5-1.01,3.07-1.19,4.67-.07.8-.07,1.61,0,2.41.05.41.21.78.58.83.4.02.78-.17,1-.5.59-.79.87-1.78.78-2.76-.11-1.08-.41-2.14-.88-3.12l-.33-.75-.56-1.25,1,1c.74.75,1.54,1.45,2.38,2.09.75.59,1.61,1.05,2.52,1.33.39.09.79-.02,1.08-.29.27-.27.31-.69.08-1-.21-.31-.49-.57-.81-.76-.32-.21-.63-.4-.94-.57-1.35-.74-2.84-1.17-4.37-1.28Z"/>
    <path class="cls-5" d="M238.13,108.34c-1.77.47-3.59.78-5.42.91-1.81.31-3.65.45-5.49.4,1.78-.47,3.6-.77,5.43-.91,1.81-.31,3.64-.45,5.48-.4Z"/>
    <path class="cls-5" d="M239.55,109.8c0,.08-.45.17-.86-.32-.75-1.04-.52-2.49.51-3.24.26-.19.55-.32.87-.39.58-.11.92,0,.91.09s-.34.08-.8.26c-.59.22-1.06.68-1.29,1.27-.22.58-.19,1.23.1,1.79.23.42.56.47.56.54Z"/>
    <path class="cls-5" d="M224.82,400.32c-.15,0-.26-16.53-.26-36.91s.11-36.91.26-36.91.26,16.52.26,36.91-.12,36.91-.26,36.91Z"/>
    <path class="cls-5" d="M233.13,430.67c-.14,0-.26-28.69-.26-64.07s.12-64.08.26-64.08.26,28.68.26,64.08-.09,64.07-.26,64.07Z"/>
  </g>
  <g id="freepik--character-1--inject-298">
    <path class="cls-5" d="M106.81,235.4c-2.04-6.26-1.58-13.07,1.29-19,.14.39.29.79.44,1.18l-3.06-22.91c-3.54-.92-7.38.92-9.67,3.78-1.5,1.99-2.55,4.28-3.08,6.71l-.15.65c-.21.94-.38,1.9-.5,2.85-.09.64-.19,1.32-.29,2-1.08,4.45-3.16,8.59-6.08,12.12-1.8,2.14-3.89,4-5.52,6.29s-2.82,5-2.42,7.8l2.92,1.69c1.71-4.8,4.39-9.2,7.88-12.91-1.7,4.59-4,8.62-5,13.84-.41,2.09.44,3.19,2.32,4,1.62.67,3.33,1.07,5.08,1.17,1.84.14,3.69.23,5.54.29.97.13,1.96-.06,2.82-.52,2.21-1.49,1.78-4.49,1.78-4.49,0,.15,1.42,3.6,1.73,3.63,0,0,4.19,0,5.23-1,1.04-1,.31-1.63-.11-3.19-.38-1.37-.72-2.68-1.15-3.98Z"/>
    <path class="cls-5" d="M92.87,215.89c.75-3.45-.73-7.56.2-11s2.65-6.79,5.62-8.7,7.36-1.9,9.71.74l-.1,3.06c-4.16,13-7.12,26.56-11.28,39.58-.55,1.71-2.33,3-3.48,4.35s-2,.17-3.73-.33c-2.25-.67-4.92-1.25-4.47-3.56,1.79-9.32,5.71-15.81,7.53-24.14Z"/>
    <path class="cls-13" d="M101.77,198.97c.09-.92.32-1.81.69-2.66.37-.85,1.11-1.48,2-1.73.43-.11.88,0,1.2.31.25.29.22.72-.07.97-.04.04-.09.07-.14.1v.11c-.58,1.15-1.18,2.28-1.79,3.41-.14.29-.33.55-.57.77-.25.22-.6.28-.91.16-.49-.25-.49-.91-.41-1.44Z"/>
    <path class="cls-5" d="M101.27,202.57c1.35-4.72,4.77-8.57,9.3-10.47,2.62-1.11,3.94-1,6-1.26,2.08-.3,4.21.14,6,1.24,2.19,1.28,4.01,3.1,5.31,5.28,1.29,2.25,2.38,4.61,3.24,7.05.86,2.46,1.02,5.11.48,7.66l-5.68,3.52c-3.26,1.61-6.71,2.79-10.28,3.51-3.59.55-7.49.07-10.41-2.1-3.99-3.01-5.47-9.61-3.96-14.43Z"/>
    <path class="cls-10" d="M106.68,200.34l6.83-6.5,2.22-.61c4.79-1.91,10.21,2,11.8,5.89,1.77,4.29,3.75,9.59,4.35,13,1.19,6.93-4,9.65-4,9.65,0,0,1.48,3.35,2.38,5.47l-1.74,9.23-11.07-5.11-12-28c-.42-1.17.11-2.47,1.23-3.02Z"/>
    <path class="cls-5" d="M127.88,204.94c.16.45-.07.95-.52,1.12-.43.19-.93,0-1.12-.44,0,0,0-.02,0-.02-.16-.46.07-.95.52-1.13.44-.18.94.02,1.13.46,0,0,0,0,0,.01Z"/>
    <path class="cls-5" d="M126.94,201.86c-.07.14-.87-.11-1.78.2s-1.41,1-1.55.91,0-.26.19-.57c.3-.41.72-.71,1.2-.87.47-.16.99-.16,1.46,0,.35.1.51.26.48.33Z"/>
    <path class="cls-5" d="M124.04,211.16c.43-.31.89-.57,1.38-.77.22-.1.43-.23.41-.4-.06-.25-.2-.47-.39-.63-.4-.49-.83-1-1.28-1.53-1.15-1.28-2.19-2.65-3.11-4.09,1.25,1.18,2.39,2.46,3.43,3.83l1.26,1.55c.24.23.4.54.43.87-.01.19-.11.37-.27.47-.12.07-.24.14-.37.19-.47.23-.97.4-1.49.51Z"/>
    <path class="cls-14" d="M127.85,221.8c-3.08,1.1-6.4,1.32-9.6.64,0,0,3.89,3.76,10.26.91l-.66-1.55Z"/>
    <path class="cls-5" d="M125.38,198.87c-.07.28-.82.36-1.61.71s-1.38.78-1.63.64-.1-.31.11-.63c.6-.82,1.6-1.24,2.61-1.09.37.08.55.24.52.37Z"/>
    <path class="cls-5" d="M117.97,208.49c.17.45.66.68,1.12.53.45-.14.71-.62.57-1.07,0,0,0,0,0,0-.17-.45-.66-.68-1.12-.53-.45.12-.71.59-.58,1.03,0,.02,0,.03.01.05Z"/>
    <path class="cls-5" d="M114.79,206.35c.14.07.6-.64,1.49-1s1.72-.14,1.78-.29-.15-.22-.52-.32c-.99-.24-2.03.16-2.61,1-.19.35-.21.58-.14.61Z"/>
    <path class="cls-5" d="M114.18,203.29c.25.14.86-.34,1.69-.66s1.58-.45,1.66-.73c0-.13-.15-.29-.53-.36-.51-.08-1.03-.02-1.51.19-.48.19-.9.51-1.2.93-.16.32-.23.56-.11.63Z"/>
    <path class="cls-10" d="M110.86,213.75c-.16-.49-1.12-1.45-1.63-1.36-1.36.24-3.65,1.13-2.56,4.42,1.5,4.49,5.7,2.06,5.66,1.93s-.89-3.3-1.47-4.99Z"/>
    <path class="cls-14" d="M110.55,217.51s-.06.08-.17.19c-.16.14-.37.22-.58.21-.54,0-1.19-.64-1.48-1.44-.14-.38-.19-.79-.15-1.2-.01-.31.13-.61.39-.79.17-.11.39-.09.53.06.1.1.1.2.13.2s.07-.11,0-.28c-.06-.1-.16-.18-.27-.22-.15-.06-.32-.06-.47,0-.36.2-.58.59-.58,1-.06.45-.01.91.14,1.34.23.83.93,1.45,1.79,1.56.27-.01.51-.14.67-.36.08-.16.07-.26.05-.27Z"/>
    <path class="cls-5" d="M109.06,212.47l1.57.71c3-6.54,7.72-21.85,7.47-21-2.52.06-4.98.74-7.17,2-3.33,2-9.39,6.57-7.59,10.75,1.38,2.87,3.32,5.44,5.72,7.54Z"/>
    <path class="cls-13" d="M102.3,214.07c-.01-.09-.01-.19,0-.28-.02-.27-.02-.54,0-.81.13-.99.47-1.95,1-2.8.81-1.25,1.82-2.35,3-3.26,1.27-1.07,2.78-2.1,4.12-3.45,1.27-1.26,2.4-2.66,3.35-4.17.78-1.24,1.45-2.54,2-3.9.36-.92.67-1.86.92-2.81l.2-.78c.05-.18.08-.28.08-.27.01.09.01.19,0,.28,0,.18-.08.45-.15.79-.23.97-.51,1.92-.86,2.85-.54,1.39-1.21,2.73-2,4-.95,1.53-2.08,2.95-3.37,4.22-1.32,1.22-2.71,2.37-4.15,3.45-1.17.89-2.18,1.96-3,3.18-.52.83-.86,1.75-1,2.72-.06.34-.11.69-.14,1.04Z"/>
    <path class="cls-13" d="M103.85,214.25c-.14-.31-.21-.66-.21-1-.01-.97.27-1.92.81-2.73.82-1.16,1.87-2.15,3.08-2.9,1.45-.94,2.79-2.04,4-3.27,1.17-1.25,2.17-2.64,3-4.14.68-1.23,1.25-2.52,1.68-3.85.29-.9.52-1.82.69-2.75.05-.31.09-.56.12-.76l.06-.27c.02.09.02.18,0,.27,0,.21,0,.46-.08.78-.14.94-.35,1.88-.62,2.79-.41,1.35-.96,2.66-1.64,3.9-.84,1.52-1.87,2.93-3.07,4.19-1.2,1.25-2.55,2.35-4,3.29-1.2.73-2.24,1.69-3.06,2.82-.54.77-.84,1.69-.87,2.63,0,.34.05.67.11,1Z"/>
    <path class="cls-14" d="M121.57,212.86c-.14-.05-.29-.05-.43,0-.12.07-.22.17-.27.3-.28.6-.17,1.3.26,1.8.45.49,1.15.65,1.77.43.81-.34,1.28-1.19,1.15-2.06-.77-.12-1.71-.34-2.48-.47Z"/>
    <path class="cls-5" d="M122.9,215.4c-.33.06-.67.04-1-.05-.34-.12-.64-.35-.83-.66-.22-.38-.28-.84-.15-1.26.07-.21.18-.44.34-.47.21-.01.42,0,.62.06l1.13.2c.35.08.7.12,1.06.12-.32-.13-.66-.22-1-.28l-1.12-.25c-.23-.07-.48-.09-.72-.07-.14.04-.27.13-.34.26-.07.11-.13.23-.17.36-.14.49-.07,1.02.2,1.45.23.35.59.6,1,.7.33.1.68.06.98-.11Z"/>
    <path class="cls-13" d="M107.62,218.59c-.3.03-.61,0-.9-.09-.81-.17-1.59-.47-2.31-.89-1.07-.62-2-1.44-2.75-2.42-.92-1.21-1.56-2.59-1.9-4.07-.57-2.68-.3-5.48.77-8,.31-.76.68-1.49,1.11-2.19.14-.27.32-.51.54-.72.08.05-.61,1.13-1.31,3-.93,2.48-1.14,5.17-.6,7.76.32,1.41.92,2.74,1.77,3.91.7.94,1.57,1.75,2.56,2.39.95.56,1.96,1.01,3.02,1.32Z"/>
    <path class="cls-12" d="M133.87,308.74c2.32-24.09,14.83-49.29,5.1-73l-22.35-9.92c-9.62,4.54-8.93,13-11.79,22.26-3.9,12.64-7.59,26.88-11.57,35.48-13.61,28.82-33.2,68.08-12.32,97.39,12,3.42,10.59-20,27-9.27,14.9,12.52,21.19-5.72,34.4-1.57-5.21-20.13-10.43-40.73-8.47-61.37Z"/>
    <g class="cls-9">
      <path d="M132.86,307.54c2.3-24,14.48-48.9,4.81-72.5l-7.36-4.71c-16,14.48-15.9,39-22.22,53-16.24,28.47-36.7,64.52-22.9,98.06,8-4,9.41-17.15,21-10.51,21,15.2,18.27-6.74,34.88-2-5.07-20.11-10.15-40.72-8.21-61.34Z"/>
    </g>
    <path class="cls-5" d="M104.02,290.99l-.09.23c-.09.17-.19.37-.31.63l-1.24,2.41c-1.09,2.09-2.66,5.11-4.55,8.87-1,1.87-2,3.95-3.06,6.17s-2.19,4.62-3.35,7.15c-2.51,5.48-4.69,11.1-6.52,16.84-1.82,5.75-2.99,11.68-3.49,17.68-.39,4.9-.3,9.83.27,14.72.12,1.05.2,2,.34,3s.28,1.82.41,2.64l.36,2.3c.14.7.27,1.34.38,1.92.22,1.13.39,2,.51,2.67l.12.69c.01.08.01.16,0,.24-.03-.07-.06-.15-.07-.23-.05-.18-.1-.41-.17-.68l-.61-2.65c-.13-.58-.27-1.21-.42-1.91s-.26-1.48-.4-2.3-.3-1.71-.46-2.64-.24-1.94-.38-3c-.62-4.91-.75-9.87-.38-14.8.49-6.04,1.66-12,3.49-17.78,1.84-5.76,4.04-11.4,6.58-16.89,1.18-2.52,2.28-4.93,3.41-7.14s2.12-4.29,3.11-6.15c1.94-3.74,3.56-6.73,4.71-8.79.55-1,.99-1.79,1.32-2.37l.35-.61c.03-.08.08-.16.14-.22Z"/>
    <path class="cls-5" d="M97.65,335.06c.09,0-.35,1.51-.87,3.94-.66,3.18-1.16,6.38-1.49,9.61-.37,3.73-.7,7.1-1,9.71-.14,1.24-.26,2.25-.36,2.94-.02.36-.09.72-.21,1.07-.05-.36-.05-.73,0-1.09,0-.81.12-1.8.19-2.95.18-2.49.41-5.94.82-9.73.33-3.25.88-6.47,1.64-9.64.31-1.21.59-2.19.83-2.85.11-.35.26-.69.45-1.01Z"/>
    <path class="cls-5" d="M108.78,314.16c-.09.59-.22,1.16-.4,1.73-.3,1.11-.7,2.72-1.17,4.71-2.44,10.38-3.6,21.03-3.46,31.69,0,2,.07,3.7.12,4.84.05.6.05,1.19,0,1.79-.11-.58-.18-1.18-.21-1.77-.12-1.14-.22-2.8-.29-4.85-.17-5.34.04-10.69.61-16,.58-5.32,1.54-10.59,2.87-15.77.51-2,1-3.58,1.32-4.67.17-.58.37-1.15.61-1.7Z"/>
    <path class="cls-10" d="M138.67,274.74s2.52-5.1,5.46-1.53c6.95,8.41,19.26,23.29,24.53,30.83,2.59,3.7,8.22,10.66,7.64,12.72-4.5,15.94-36.49,48.28-36.49,48.28l-7.84-3.7s10.63-14.65,14.28-24.08c4.42-11.42,10.86-16.51,10.86-16.51l-21.18-14.77-2.66-19,5.4-12.24Z"/>
    <path class="cls-13" d="M142.42,368s5.39,13.16,3.71,14.81l-17.2-19.34,3.08-2.78.62-1.09c1.17,1.92,2.97,3.38,5.1,4.13,3.25.93,3.21.09,3.21.09l1.45,4.18"/>
    <path class="cls-5" d="M128.96,363.47l1.53-1.27,15.92,19s.41,1.17-.25,1.59l-17.2-19.32Z"/>
    <path class="cls-5" d="M142.79,368.23c-.09.07-.55-.36-1.25-.57-1.75-.14-1.75-.63.1-.41.85.26,1.25.91,1.15.98Z"/>
    <path class="cls-5" d="M143.8,370.96c-.82-.14-1.65-.14-2.47,0-.15-.71,2.59-.68,2.47,0Z"/>
    <path class="cls-5" d="M142.53,374.16c-.28-.57,2.13-1.21,2.19-.62-.08,0-2.13.62-2.19.62Z"/>
    <path class="cls-5" d="M147.77,254.99c-.09-2.38,11.47,43.07,2.11,30.46l-2.11-31.21"/>
    <path class="cls-10" d="M151.56,297.03c-1.62,15.87-10.31,54.13-15.37,80.13-1.64,8.41-3.23,15.56-3.64,20.2l-9-.6c.09-2-1.92-22-2-34.94,0-4.51,2-11.06,3.58-15.3.71-1.74,1.14-3.59,1.26-5.47-.1-12.55-4.4-38.48-4.4-38.48-2.08-5.12-6.21-16.89-1-23.73l27,5.7,3.57,12.49Z"/>
    <path class="cls-14" d="M132.55,397.37c0-.24.01-.49.06-.73.07-.53.17-1.22.29-2.08.25-1.81.67-4.42,1.23-7.64,1.12-6.43,2.88-15.28,4.95-25s3.92-18.52,5.28-24.95l1.56-7.57.43-2.06c.04-.24.11-.48.19-.71,0,.25-.03.49-.09.73-.08.52-.19,1.21-.34,2.07-.3,1.8-.77,4.4-1.39,7.61-1.23,6.41-3.07,15.24-5.13,25s-3.89,18.57-5.09,25c-.62,3.2-1.08,5.8-1.4,7.6-.16.86-.29,1.54-.38,2.06-.04.23-.1.45-.17.67Z"/>
    <path class="cls-13" d="M134.8,399.86s8,11.75,6.71,13.73l-20.82-15.38,2.45-3.36.38-1.2c1.54,1.64,3.61,2.7,5.84,3,3.37.23,3.17-.57,3.17-.57l2.27,3.78"/>
    <path class="cls-5" d="M120.69,398.21l1.24-1.56,19.5,15.33s.64,1.06.08,1.61l-20.82-15.38Z"/>
    <path class="cls-5" d="M135.21,400.01c-.08.09-.62-.24-1.34-.3-1.74.22-1.84-.25,0-.42.9.08,1.43.65,1.34.72Z"/>
    <path class="cls-5" d="M136.76,402.48c-.83.05-1.64.23-2.41.53-.3-.69,2.39-1.22,2.41-.53Z"/>
    <path class="cls-5" d="M136.18,405.88c-.39-.51,1.84-1.62,2-1.06-.05.01-1.95.99-2,1.06Z"/>
    <path class="cls-5" d="M125.72,336.91s10-5,18.63-9.38l3.2-1.62c4.14-2.09,7.58-3.85,8.86-4.54,4.11-2.21,18.55-9.71,18.55-9.71,0,0-12.83-18.92-21.83-27.92l-3.75-8.81s-29.76,5.09-30.25,5.41-1.56,14.77-.71,17.4c.86,3.25,1.5,6.57,1.9,9.91.22,1.79,5.4,29.26,5.4,29.26Z"/>
    <path class="cls-13" d="M146.2,310.99c.72,3.79,1.09,7.63,1.12,11.49-.72-3.79-1.09-7.63-1.12-11.49Z"/>
    <path class="cls-13" d="M148.13,314.56c.1-.11,1,.57,2.09,1.36s2,1.38,2,1.51c-.84-.15-1.63-.53-2.28-1.09-1.17-.81-1.91-1.68-1.81-1.78Z"/>
    <g class="cls-9">
      <path d="M119.13,300.35l30.72,3.18s2.23-10,1.74-15.86c-.38-3.93-1.15-7.82-2.31-11.6l-30.85,21.67.7,2.61Z"/>
    </g>
    <path class="cls-10" d="M146.77,174.95s.21-7,0-8c-.4-1.93-2.76-4.79-4.5-2.7-.15-1.18-3.73-1.56-2.95.51-.07-.76-1.73-1.16-2.32-.24-6.15-2.22,2.79,11.6,2.48,12l7.29-1.57Z"/>
    <path class="cls-10" d="M138.77,175.29s-3.92-3.07-4.34-4.16c-1.07-3.83,1.28-5.65,3.7-7.08,1.92.62-.13,3.13-1.23,4.34,0,0,3.62-.21,4.82,3.09"/>
    <path class="cls-14" d="M141.72,171.48c-.94-1.94-2.97-3.11-5.12-2.95.66-1.13,3.46-3.15,1.47-4.33h.16c-6.32,3.43-4.1,7.73.54,11.1-5.23-3-7-8.17-.66-11.43,2.4,1.11-.2,3.45-1.1,4.62l-.12-.23c2.15-.14,4.13,1.18,4.83,3.22Z"/>
    <path class="cls-10" d="M139.07,164.88c0,2,1.88,7.08,3.89,3.61"/>
    <path class="cls-14" d="M142.96,168.49c-2.13,4.5-4.4-3.11-3.89-3.61.11.2,1.48,7.36,3.89,3.61Z"/>
    <path class="cls-10" d="M137.37,168.06c-.1,1.94,2.63,3.48,2.69.6"/>
    <path class="cls-14" d="M140.06,168.66c.39,3.08-3.19,1.6-2.69-.6.34,1.76,2.24,3.22,2.69.6Z"/>
    <path class="cls-10" d="M142.47,164.21c-2,4.26,2.33,6.7,2.38,1.29"/>
    <path class="cls-14" d="M144.85,165.5c.41,5.56-4.86,3.4-2.38-1.29-1.34,3.95,1.73,6.62,2.38,1.29Z"/>
    <path class="cls-5" d="M129.76,226.21c10.67-20.3,7.57-30.9,7.57-50.76,0,.3,11.35-1.93,11.35-1.93,0,0,1.84,27.53,2,30.7.38,8.74-9.6,30.69-7.31,40.5l-13.61-18.51Z"/>
    <path class="cls-13" d="M142.69,236.27c-2.46-4.08-4.31-8.49-5.48-13.11,1.15,3.29,3.97,10,5.48,13.11Z"/>
    <path class="cls-1" d="M147.91,260.71c-.78-7.63,2.75-13.67-6.7-22.4-8.8-8.13-13.52-16.58-27.11-13.45l.86,3.15,16.22,7.86v45.65l18.24-6.59-1.51-14.22Z"/>
    <path class="cls-5" d="M114.96,228.01c29-5.11,39,52.12,33.31,73.49l-32.24-3.59,4.64-26.23c-4.18-11.31-16.18-29.29-5.59-42.78l-.12-.89Z"/>
    <path class="cls-13" d="M143.42,251.49c-3.91-4.58-6.92-8.54-11.64-14.34.17-.78.35-1.65.52-2.47l.21.18-2.15.6c-3.61-5.66-10.34-6.31-16.2-6,5.87-.7,12.73.15,16.38,5.74l-.17-.05,2.31-.65c-.18.88-.38,1.82-.55,2.66v-.12c4.56,5.86,7.71,9.62,11.29,14.45Z"/>
    <rect class="cls-13" x="108.42" y="256.9" width="35.66" height="26.75" transform="translate(-171.46 289.2) rotate(-68.6)"/>
    <path class="cls-13" d="M149.05,274.93c.07.16.11.33.13.5.07.34.18.83.28,1.48.26,1.83.42,3.68.48,5.53.13,6.23-.2,12.45-1,18.63v.25h-.26l-3.27-.36-20.77-2c-2.65-.26-4.8-.5-6.28-.69-.74-.09-1.32-.18-1.71-.24-.2-.01-.39-.05-.58-.12.2-.02.4-.02.6,0l1.71.14,6.3.53c5.32.45,12.67,1,20.78,1.82l3.28.36-.28.22c.8-6.15,1.19-12.35,1.17-18.55,0-2.35-.2-4.22-.31-5.52-.08-.6-.14-1.09-.19-1.48-.05-.16-.07-.33-.08-.5Z"/>
    <path class="cls-10" d="M130.72,277.16c1.06-1.65,10.72,1.34,11.53,2,.22,1.3-5.29-.56-4.86-.51l-6.67-1.49Z"/>
    <path class="cls-10" d="M141.46,280.21c-4.74-2.9-5.08-3.25-10.88-3.19l-2.9,6.89,5.82,3.3c.44,0,5.33,1.44,5-.81,1.06-.05,1.55-1.56,1.55-1.56,1.18-.21,1-1.67,1-1.67,1.91-.31,2.08-1.88.41-2.96Z"/>
    <path class="cls-14" d="M136.86,286.1c0-.18,1.69.16,1.62.32s-1.69-.15-1.62-.32Z"/>
    <path class="cls-14" d="M137.76,284.36c.8.11,1.59.3,2.35.57.02.23-2.48-.33-2.35-.57Z"/>
    <path class="cls-14" d="M139.05,282.54c.69.15,1.37.38,2,.7-.02.28-2.15-.48-2-.7Z"/>
    <path class="cls-14" d="M137.82,278.05c1.42.65,2.76,1.46,4,2.4-1.42-.65-2.76-1.45-4-2.4Z"/>
    <path class="cls-14" d="M135.74,285.58c.4.39-.48,1.37-.91,1,.41-.22.73-.57.91-1Z"/>
    <path class="cls-14" d="M137.2,283.79c.33.43-.55,1.44-1,1.16.42-.3.76-.7,1-1.16Z"/>
    <path class="cls-14" d="M138.98,279.79c1.08.11,0,2.3-.8,2.07.2-.03,1.56-1.58.8-2.07Z"/>
    <path class="cls-5" d="M122.9,243.68c-1.71,4.28-9.27,22.54-9.27,22.54l18.19,10-3.84,9.14c-15.29-3.75-22.62-7.91-26-10.49-5.52-4.26-1.35-11.63,6.06-33.68.16-.56,2.52-7,5.35-8.27,10.99-4.76,11.74,2.62,9.51,10.76Z"/>
    <path class="cls-13" d="M110.83,269.27c.18-.32.41-.62.67-.89.46-.55,1.14-1.33,2-2.29v.06c.76-2.08,1.93-4.8,3.22-7.79s2.62-5.91,3.6-8.12l1.11-2.45c.12-.31.28-.6.46-.88-.3,1.19-.72,2.36-1.23,3.48-.85,2.11-2.08,5-3.46,8.18-1.29,3-2.51,5.69-3.34,7.71h0c-.88.92-1.6,1.67-2.11,2.18-.27.31-.58.58-.92.81Z"/>
    <path class="cls-13" d="M123.48,240.16c-.35-.55-.64-1.14-.86-1.76-.61-1.41-1.45-2.71-2.49-3.84-1.07-1.09-2.48-1.8-4-2-.64-.03-1.28-.01-1.92.05.57-.36,1.25-.52,1.92-.45,1.65.1,3.2.82,4.35,2,1.11,1.18,1.96,2.57,2.5,4.1.27.6.44,1.24.5,1.9Z"/>
    <path class="cls-12" d="M114.18,226.04l14.93-.6-.32-.77c1.75.39,2.84,2.13,2.45,3.87-.01.07-.03.13-.05.2-.41,2-15.8,1.47-19.51,5.77.18-2.73.37-5.93,2.5-8.47Z"/>
    <path class="cls-12" d="M133.53,227.04c-.2-2.15-3.33-2.4-4.21-.6-1.62,3.57,4.52,4.55,4.21.6Z"/>
    <path class="cls-12" d="M132.86,227.71c.4-.05.81-.05,1.21,0,1.1.1,2.18.39,3.19.85.73.32,1.36.85,1.79,1.52.31.43.31,1,0,1.43-.4.36-.94.5-1.46.38-.99-.21-1.91-.64-2.7-1.27-.85-.63-1.63-1.33-2.35-2.1l.43-.28.3.74c.41,1.03.68,2.11.81,3.21.18,1.07-.05,2.17-.65,3.08-.34.48-.98.66-1.52.43-.45-.24-.78-.64-.93-1.13-.25-.79-.31-1.64-.17-2.46.18-1.16.53-2.28,1.05-3.33.16-.4.37-.77.62-1.11-.11.41-.25.81-.44,1.19-.44,1.06-.75,2.17-.91,3.3-.11.76-.04,1.53.2,2.26.12.37.37.68.71.86.36.15.78.02,1-.31.49-.82.66-1.79.5-2.73-.13-1.05-.4-2.08-.79-3.07l-.29-.73-.51-1.27.94,1c.7.75,1.46,1.44,2.27,2.06.72.58,1.57.99,2.47,1.2.35.09.72.01,1-.21.23-.21.17-.61,0-.93-.38-.61-.93-1.09-1.58-1.4-.96-.49-1.99-.83-3.06-1-.38-.03-.76-.09-1.13-.18Z"/>
    <path class="cls-5" d="M130.54,229.44c0,.06-.34.16-.81-.1-.61-.36-.96-1.04-.91-1.74.04-.67.33-1.3.81-1.77.35-.34.63-.47.67-.42s-.14.29-.39.66c-.33.45-.53.99-.57,1.55-.03.54.19,1.06.6,1.42.32.27.61.32.6.4Z"/>
    <path class="cls-5" d="M115.13,230.16c.61-.3,1.27-.52,1.94-.64,1.21-.32,2.91-.7,4.8-1s3.61-.54,4.86-.65c.66-.11,1.33-.13,2-.05,0,.15-3.05.56-6.81,1.22s-6.79,1.27-6.79,1.12Z"/>
    <path class="cls-5" d="M122.01,226.38c2.36-.18,4.73.21,6.91,1.11-1.17-.03-2.33-.18-3.47-.45-1.17-.09-2.32-.32-3.44-.66Z"/>
    <path class="cls-13" d="M160.67,292.3c-.8-.65-1.55-1.36-2.23-2.13-1.33-1.37-3.14-3.28-5.12-5.41l-.21-.23h0c-1.09-2.62-2-5-2.7-6.7-.41-.91-.74-1.85-1-2.82.52.85.96,1.75,1.31,2.68.75,1.68,1.75,4,2.84,6.64v-.07l.21.23c2,2.13,3.75,4.08,5,5.5.7.72,1.33,1.49,1.9,2.31Z"/>
    <path class="cls-5" d="M134.91,459.23c-.14,0-.26-5.43-.26-12.14s.12-12.15.26-12.15.26,5.44.26,12.15-.12,12.14-.26,12.14Z"/>
    <path class="cls-5" d="M140.13,452.07c-.14,0-.26-5.87-.26-13.1s.12-13.1.26-13.1.26,5.86.26,13.1-.12,13.1-.26,13.1Z"/>
  </g>
</svg>
