<?xml version="1.0" encoding="UTF-8"?>
<svg id="Layer_1" data-name="Layer 1" xmlns="http://www.w3.org/2000/svg" viewBox="0 0 428.88 444.64">
  <defs>
    <style>
      .cls-1 {
        fill: #e0e0e0;
      }

      .cls-2 {
        isolation: isolate;
      }

      .cls-2, .cls-3 {
        opacity: .3;
      }

      .cls-4 {
        fill: #f0c808;
      }

      .cls-5 {
        fill: #2c6f00;
      }

      .cls-6 {
        fill: #ffbe9d;
      }

      .cls-7 {
        fill: #ebebeb;
      }

      .cls-8 {
        fill: #263238;
      }

      .cls-9 {
        fill: #eb996e;
      }

      .cls-10 {
        fill: #21bdc8;
      }

      .cls-11 {
        fill: #fff;
      }

      .cls-12 {
        fill: #fafafa;
      }

      .cls-13 {
        opacity: .6;
      }

      .cls-14 {
        fill: #f5f5f5;
      }

      .cls-15 {
        fill: #455a64;
      }
    </style>
  </defs>
  <g id="freepik--background-complete--inject-171">
    <path class="cls-7" d="M19.01,93.48s-6.06,4.62-.25,10.72c.1.1.24.16.38.16l53-.31s4.52-5.07.77-10.92l-53.9.35Z"/>
    <path class="cls-1" d="M60.4,98.3c0,.06-6.59.11-14.73.11s-14.73-.05-14.73-.11,6.6-.11,14.73-.11,14.73.05,14.73.11Z"/>
    <path class="cls-1" d="M52.16,100.22s-3.1.1-6.92.1-6.93-.05-6.93-.1,3.1-.11,6.93-.11,6.92.05,6.92.11Z"/>
    <path class="cls-1" d="M65.82,103.88s.11-.61.28-1.59c.21-1.28.31-2.57.3-3.86,0-1.3-.14-2.59-.38-3.86-.18-1-.34-1.57-.31-1.58s.07.14.16.41c.12.37.22.76.3,1.14.29,1.28.44,2.58.45,3.89,0,1.31-.12,2.61-.37,3.89-.11.49-.2.89-.29,1.15-.03.14-.08.28-.14.41Z"/>
    <path class="cls-1" d="M69.73,93.07c.09.12.17.24.23.38.09.15.17.31.24.48.08.19.19.4.27.65.21.57.38,1.15.5,1.75.14.74.22,1.48.24,2.23,0,.75-.07,1.49-.2,2.23-.11.6-.27,1.2-.48,1.77-.07.25-.18.46-.25.65s-.16.35-.23.48c-.07.14-.14.27-.23.39,0,0,.26-.59.57-1.57.18-.57.33-1.16.43-1.75.11-.73.17-1.46.17-2.2-.01-.73-.08-1.47-.21-2.19-.11-.59-.26-1.17-.45-1.74-.29-.98-.6-1.54-.6-1.56Z"/>
    <path class="cls-1" d="M27.37,103.95c-.1-.1-.18-.22-.25-.35-.09-.14-.17-.29-.24-.44-.09-.18-.2-.38-.29-.61-.22-.54-.39-1.1-.51-1.67-.14-.7-.21-1.42-.21-2.14.02-.71.11-1.42.26-2.12.15-.57.35-1.13.6-1.67.1-.23.21-.43.3-.6.08-.15.16-.3.26-.44.07-.12.16-.24.26-.34,0,0-.31.53-.68,1.44-.21.53-.38,1.08-.5,1.64-.15.69-.23,1.39-.25,2.09,0,.7.06,1.4.19,2.09.11.56.26,1.11.46,1.65.31.93.64,1.47.6,1.47Z"/>
    <path class="cls-1" d="M21.65,105.25c-.1-.13-.19-.27-.27-.41-.1-.16-.2-.32-.28-.49-.12-.22-.23-.45-.32-.69-.25-.6-.46-1.23-.6-1.87-.18-.79-.28-1.59-.3-2.39-.02-.8.05-1.61.19-2.4.12-.64.29-1.28.52-1.89.09-.27.2-.49.29-.7s.18-.37.26-.51c.07-.15.15-.28.25-.41,0,0-.3.62-.66,1.67-.2.61-.36,1.24-.47,1.88-.12.78-.18,1.57-.17,2.36.02.79.12,1.58.28,2.35.14.63.32,1.25.55,1.86.4,1.03.81,1.61.73,1.64Z"/>
    <path class="cls-7" d="M70.16,120.18v10.14h-19.61v-10.14h19.61Z"/>
    <path class="cls-1" d="M6.82,125.34v.27c.19,3.07,2.75,5.46,5.83,5.44h58.41v-.73h-13.85c-2.8,0-5.07-2.27-5.07-5.07h0c0-2.8,2.27-5.07,5.07-5.07h13.87v-1.07l-58.43.19c-3.23,0-5.84,2.64-5.83,5.87,0,.06,0,.12,0,.17Z"/>
    <path class="cls-1" d="M70.16,125.39c0,.06-4,.1-9,.1s-9,0-9-.1,4-.11,9-.11,9,.05,9,.11Z"/>
    <path class="cls-1" d="M69.88,127.67c0,.06-3.82.11-8.52.11s-8.52-.05-8.52-.11,3.81-.11,8.52-.11,8.52.05,8.52.11Z"/>
    <path class="cls-1" d="M70.16,129.76c0,.06-3.43.11-7.66.11s-7.66,0-7.66-.11,3.43-.11,7.66-.11,7.66.05,7.66.11Z"/>
    <path class="cls-1" d="M70.16,123.33c0,.06-4,.11-8.82.11s-8.82-.05-8.82-.11,3.95-.1,8.82-.1,8.82.04,8.82.1Z"/>
    <path class="cls-1" d="M69.88,121.28c0,.06-3.52.11-7.85.11s-7.85-.05-7.85-.11,3.51-.1,7.85-.1,7.85.04,7.85.1Z"/>
    <path class="cls-14" d="M13.9,119.47c-.45.46-.86.96-1.24,1.48-1.81,2.62-1.77,6.1.1,8.68.39.51.82,1,1.28,1.45-.16-.08-.3-.19-.42-.31-.37-.3-.7-.63-1-1-2-2.6-2.04-6.21-.1-8.86.28-.39.59-.75.95-1.07.13-.14.27-.27.43-.37Z"/>
    <path class="cls-14" d="M11.93,119.26c-.44.46-.84.95-1.2,1.47-1.81,2.63-1.77,6.11.11,8.69.38.51.81,1,1.27,1.44-.15-.09-.29-.19-.42-.31-.37-.29-.71-.63-1-1-2-2.6-2.04-6.21-.11-8.86.29-.39.63-.75,1-1.07.1-.14.22-.26.35-.36Z"/>
    <path class="cls-14" d="M51.61,119.47c-.44.47-.86.96-1.24,1.48-1.81,2.62-1.77,6.1.1,8.68.38.51.81,1,1.26,1.45-.15-.08-.29-.19-.42-.31-.37-.3-.7-.63-1-1-1.99-2.61-2.03-6.21-.1-8.86.29-.39.63-.75,1-1.07.12-.14.25-.26.4-.37Z"/>
    <path class="cls-14" d="M49.64,119.26c-.45.46-.86.95-1.24,1.47-1.82,2.62-1.78,6.11.1,8.69.37.51.79.99,1.23,1.44-.15-.09-.29-.19-.42-.31-.37-.3-.7-.63-1-1-2-2.6-2.04-6.21-.11-8.86.28-.39.6-.75.95-1.07.14-.15.31-.27.49-.36Z"/>
    <path class="cls-14" d="M20.55,126.77l-.06-4.12c.02-.36-.03-.72-.14-1.06-.12-.35-.42-.6-.79-.66-.51-.23-1.32.2-1.68.79-.31.62-.45,1.31-.4,2-.01,1.09.04,2.18.16,3.26.02.52.15,1.03.38,1.49.28.63,1.01.92,1.64.65.36-.16.62-.47.72-.85.14-.49.2-.99.17-1.5Z"/>
    <path class="cls-14" d="M43.23,125.58c0,.06-4.22.11-9.43.11s-9.43-.05-9.43-.11,4.22-.1,9.43-.1,9.43.05,9.43.1Z"/>
    <polygon class="cls-14" points="16.64 119.07 16.53 109.46 21.76 109.46 21.94 119.07 16.64 119.07"/>
    <path class="cls-1" d="M21.45,111.17c-.81.11-1.62.15-2.43.11-.81.04-1.62,0-2.43-.11.81-.11,1.62-.15,2.43-.11.81-.04,1.62,0,2.43.11Z"/>
    <path class="cls-1" d="M21.45,112.65c-.81.11-1.62.15-2.43.11-.81.04-1.62,0-2.43-.11.81-.1,1.62-.14,2.43-.1.81-.04,1.62,0,2.43.1Z"/>
    <path class="cls-1" d="M21.45,114.14c-.81.1-1.62.13-2.43.1-.81.03-1.62,0-2.43-.1.81-.11,1.62-.15,2.43-.11.81-.04,1.62,0,2.43.11Z"/>
    <path class="cls-1" d="M21.45,115.62c-.81.11-1.62.15-2.43.11-.81.04-1.62,0-2.43-.11.81-.11,1.62-.15,2.43-.11.81-.04,1.62,0,2.43.11Z"/>
    <path class="cls-1" d="M21.45,117.1c-.81.11-1.62.15-2.43.11-.81.04-1.62,0-2.43-.11.81-.11,1.62-.15,2.43-.11.81-.04,1.62,0,2.43.11Z"/>
    <path class="cls-7" d="M16.25,109.21h58c.67,3.43.67,6.95,0,10.38H16.5v-.71h3.52c.92.03,1.68-.69,1.71-1.61,0-.02,0-.03,0-.05v-5.75c0-.92-.74-1.66-1.66-1.66,0,0,0,0-.01,0h-3.81v-.6Z"/>
    <path class="cls-12" d="M29.95,114.4h1s.07-.01.1,0c.07.03.11.1.11.18v.07c-.02.08-.04.16-.07.24-.11.41-.32.79-.6,1.1-.21.25-.51.4-.83.42h-.11c-.28-.05-.53-.23-.66-.48-.2-.35-.3-.75-.29-1.16,0-.28.05-.55.13-.82.1-.42.29-.8.57-1.13.21-.27.53-.44.87-.46.13,0,.26.03.37.09.28.15.48.4.56.7.01.03.01.07,0,.1,0,.03,0,.07,0,.1-.04.06-.11.11-.18.11h-.07c-.06-.02-.11-.07-.13-.14h0c-.03-.08-.07-.16-.12-.23-.1-.26-.4-.39-.66-.29-.08.03-.15.08-.21.15-.24.2-.43.46-.53.76-.15.34-.23.72-.23,1.09,0,.3.05.59.17.86.07.21.27.36.5.37.19-.02.36-.12.47-.28.23-.26.4-.57.5-.9h-.7c-.13-.01-.23-.11-.23-.24v-.07c.04-.11.16-.17.27-.14Z"/>
    <path class="cls-12" d="M33.24,112.52v.07c0,.14.27,1.34.68,3.59,0,.02,0,.03,0,.05,0,.04,0,.07,0,.11-.03.06-.1.1-.17.1h0c-.08,0-.15-.06-.16-.14l-.23-1.2h-1.2l-.57,1.2h0c-.04.06-.11.1-.18.1-.04,0-.07,0-.11,0-.06-.04-.09-.1-.09-.17,0-.02,0-.05,0-.07,0-.08.06-.21.18-.39.83-1.82,1.33-2.89,1.49-3.22.03-.09.11-.14.2-.15.07.01.13.06.16.12ZM32.98,113.32l-.64,1.36h.91l-.27-1.36Z"/>
    <path class="cls-12" d="M36.48,116.44h-1.75s-.07.01-.11,0c-.06-.06-.1-.14-.1-.22h0c0-.07.16-1.26.48-3.58v-.07c.03-.08.1-.13.19-.13h.09c.07.03.12.11.11.19,0,.15,0,.48-.12,1-.19,1.52-.3,2.33-.31,2.41h1.49s.07,0,.11,0c.08.02.14.1.13.19,0,.02,0,.05,0,.07-.03.09-.12.14-.21.14Z"/>
    <path class="cls-12" d="M38.86,112.52v.07c0,.14.27,1.34.68,3.59,0,.02,0,.03,0,.05,0,.04,0,.07,0,.11-.03.06-.1.1-.17.1h0c-.08,0-.15-.06-.16-.14l-.23-1.2h-1.25l-.58,1.2h0c-.04.06-.1.1-.17.1-.04.01-.08.01-.12,0-.06-.04-.09-.1-.09-.17,0-.02,0-.05,0-.07l.18-.39c.83-1.82,1.33-2.89,1.49-3.22.04-.08.11-.14.2-.15.09,0,.18.04.22.12ZM38.6,113.32l-.64,1.36h.91l-.27-1.36Z"/>
    <path class="cls-12" d="M41.65,114.58c.13.38.24.67.31.87.18.5.27.76.27.79.01.04.01.07,0,.11-.05.09-.17.12-.26.07-.05-.03-.08-.07-.09-.12v-.09c-.1-.21-.25-.62-.47-1.23l-1,1.35c-.03.07-.1.11-.18.11-.04,0-.07,0-.11,0-.06-.03-.1-.1-.1-.17h0c.03-.06.06-.12.11-.17.33-.43.7-.94,1.1-1.53-.05-.11-.09-.22-.12-.33-.38-1-.56-1.51-.56-1.55,0-.03,0-.07,0-.1.03-.07.09-.11.16-.11.08,0,.16.05.2.12l.58,1.57,1.17-1.59c.04-.06.11-.09.18-.09.03-.01.07-.01.1,0,.07.04.11.11.1.19,0,.03,0,.06,0,.09l-1.39,1.81Z"/>
    <path class="cls-12" d="M45.97,112.43s.07,0,.1,0c.06.04.11.11.11.18-.29,2.26-.45,3.48-.48,3.66-.05.34-.17.67-.37.95-.26.37-.7.59-1.16.57-.19-.01-.38-.06-.56-.14-.26-.11-.48-.3-.61-.55-.01-.03-.01-.07,0-.1,0-.03,0-.07,0-.1.04-.07.11-.1.18-.1.06,0,.12.03.16.08.2.3.53.49.89.51.27,0,.53-.13.7-.35.24-.32.37-.7.38-1.1-.06.11-.15.2-.25.27-.18.14-.4.21-.63.21h-.12c-.28-.05-.53-.23-.66-.48-.21-.35-.31-.75-.29-1.16v-.66c0-.35.11-.85.23-1.5v-.06c.02-.09.1-.14.19-.14.03,0,.07,0,.1,0,.06.03.11.09.1.16,0,.11,0,.37-.09.8-.07.4-.11.81-.14,1.22-.01.32.04.64.16.94.11.29.29.43.51.43h.07c.22-.07.41-.22.53-.42.21-.3.35-.64.43-1l.26-2s0-.06,0-.09c.06-.08.17-.1.25-.04,0,0,0,0,0,0Z"/>
    <path class="cls-14" d="M72.03,119.73c-.06,0-.1-2.39-.1-5.33s0-5.33.1-5.33.11,2.39.11,5.33-.05,5.33-.11,5.33Z"/>
    <path class="cls-1" d="M24.6,119.73c-.06,0-.1-2.39-.1-5.33s0-5.33.1-5.33.11,2.39.11,5.33-.05,5.33-.11,5.33Z"/>
    <path class="cls-14" d="M73.05,119.73c-.06,0-.11-2.39-.11-5.33s.05-5.33.11-5.33.11,2.39.11,5.33-.05,5.33-.11,5.33Z"/>
    <path class="cls-1" d="M23.65,119.73c-.06,0-.1-2.39-.1-5.33s0-5.33.1-5.33.11,2.39.11,5.33-.03,5.33-.11,5.33Z"/>
    <path class="cls-1" d="M57.98,110.83h0l6.13,4.94h-.07l-.81.22-5.17,1.35h0l-4.68-2-1.33-.56-.35-.16h-.09.09l.36.15,1.33.55,4.7,2h0l5.16-1.37.81-.22v.07l-6.11-5h0"/>
    <polygon class="cls-1" points="63.54 114.98 63.88 115.29 64.32 115.2 64.13 115.61 64.36 116.01 63.9 115.95 63.6 116.29 63.51 115.84 63.09 115.66 63.5 115.44 63.54 114.98"/>
    <polygon class="cls-1" points="57.67 116.93 57.89 117.12 58.18 117.04 58.07 117.31 58.23 117.56 57.94 117.54 57.75 117.77 57.68 117.49 57.4 117.38 57.65 117.23 57.67 116.93"/>
    <polygon class="cls-1" points="51.17 114.27 51.54 114.29 51.76 114 51.85 114.36 52.2 114.48 51.89 114.67 51.87 115.04 51.59 114.81 51.24 114.91 51.38 114.57 51.17 114.27"/>
    <polygon class="cls-1" points="66.29 110.9 66.65 110.93 66.88 110.64 66.97 110.99 67.31 111.12 67 111.31 66.99 111.68 66.71 111.45 66.36 111.55 66.49 111.21 66.29 110.9"/>
    <polygon class="cls-1" points="57.68 110.67 57.91 110.68 58.06 110.5 58.12 110.72 58.33 110.8 58.14 110.93 58.13 111.16 57.95 111.01 57.73 111.08 57.81 110.86 57.68 110.67"/>
    <path class="cls-1" d="M66.8,111.16s-2,0-4.43-.15-4.42-.21-4.42-.23,2,0,4.43.15,4.42.21,4.42.23Z"/>
    <path class="cls-1" d="M69.02,109.12H10.24c-.77-1.75-1-3.41,0-4.9h58.78c.74,1.54.72,3.35,0,4.9Z"/>
    <rect class="cls-7" x="22.41" y="105.62" width="31.85" height="1.78"/>
    <path class="cls-1" d="M12.5,109.14s-.23-.18-.47-.59c-.3-.54-.48-1.13-.53-1.74-.05-.61.02-1.22.22-1.8.07-.25.19-.47.36-.66-.06.24-.13.48-.21.71-.16.57-.21,1.16-.16,1.74.05.58.21,1.15.46,1.68.12.21.23.43.33.66Z"/>
    <path class="cls-1" d="M13.73,109.14s-.23-.18-.46-.59c-.31-.53-.49-1.13-.54-1.74-.05-.61.02-1.22.22-1.8.07-.24.19-.47.36-.66-.06.24-.13.48-.21.71-.16.57-.21,1.16-.16,1.74.05.58.21,1.15.46,1.68.12.21.23.43.33.66Z"/>
    <path class="cls-14" d="M66.65,109.03c.23-.78.37-1.58.41-2.39-.03-.81-.16-1.62-.39-2.4.44.72.65,1.56.6,2.4.03.84-.19,1.67-.62,2.39Z"/>
    <path class="cls-14" d="M65.55,109.02c-.06,0,.19-1,.18-2.35s-.25-2.32-.18-2.34c.3.74.43,1.54.39,2.34.04.8-.09,1.6-.39,2.35Z"/>
    <rect class="cls-7" x="96.77" y="36.28" width="20.93" height="22.2" transform="translate(-.25 .58) rotate(-.31)"/>
    <rect class="cls-14" x="117.97" y="35.42" width="20.93" height="22.2" transform="translate(-.46 1.29) rotate(-.57)"/>
    <path class="cls-1" d="M96.73,42.47c13.91.12,27.86,0,41.76-.19.12,0,.22-.1.22-.22s-.1-.22-.22-.22c-13.91-.08-27.83,0-41.76.25-.1,0-.19.09-.19.19,0,.1.08.19.19.19Z"/>
    <rect class="cls-7" x="83.71" y="58.15" width="38.03" height="18.09" transform="translate(-.36 .56) rotate(-.31)"/>
    <rect class="cls-14" x="121.57" y="57.95" width="38.03" height="18.09" transform="translate(-.36 .76) rotate(-.31)"/>
    <path class="cls-1" d="M83.73,63.3c25.26.28,50.61,0,75.87-.38.12,0,.22-.1.22-.22s-.1-.22-.22-.22c-25.26-.13-50.62-.12-75.88.44-.1,0-.19.09-.19.19,0,.1.08.19.19.19h.01Z"/>
    <rect class="cls-7" x="49.4" y="160.58" width="38.03" height="18.09" transform="translate(-.92 .37) rotate(-.31)"/>
    <rect class="cls-14" x="87.24" y="160.36" width="38.03" height="18.09" transform="translate(-.92 .58) rotate(-.31)"/>
    <path class="cls-1" d="M49.36,165.71c25.26.29,50.61,0,75.88-.37.12-.03.2-.15.18-.27-.02-.09-.09-.16-.18-.18-25.26-.13-50.61-.12-75.87.44-.1,0-.19.09-.19.19s.09.19.19.19h0Z"/>
    <rect class="cls-1" x="26.85" y="28.7" width="9.59" height="47.73" transform="translate(-.28 .17) rotate(-.31)"/>
    <rect class="cls-7" x="36.26" y="10.9" width="9.59" height="65.65" transform="translate(-.24 .22) rotate(-.31)"/>
    <rect class="cls-14" x="45.92" y="23.14" width="14.91" height="53.2" transform="translate(-.27 .29) rotate(-.31)"/>
    <path class="cls-1" d="M60.57,33.35c-2.47.25-4.96.33-7.45.25-2.49.08-4.98,0-7.46-.25,2.48-.26,4.97-.35,7.46-.26,2.49-.09,4.98,0,7.45.26Z"/>
    <path class="cls-1" d="M60.57,31.11c-2.47.26-4.96.34-7.45.26-2.49.08-4.98,0-7.46-.26,2.48-.26,4.97-.34,7.46-.26,2.49-.08,4.98,0,7.45.26Z"/>
    <path class="cls-1" d="M60.57,68.29c-2.47.26-4.96.35-7.45.26-2.49.09-4.98,0-7.46-.26,2.48-.26,4.97-.34,7.46-.26,2.49-.08,4.98,0,7.45.26Z"/>
    <path class="cls-1" d="M60.57,66.06c-2.47.26-4.96.34-7.45.26-2.49.08-4.98,0-7.46-.26,2.48-.26,4.97-.34,7.46-.26,2.49-.08,4.98,0,7.45.26Z"/>
    <path class="cls-1" d="M53.36,61.18c-.15,0-.26-5.37-.26-12s.11-12,.26-12,.25,5.36.25,12-.11,12-.25,12Z"/>
    <rect class="cls-7" x="60.73" y="36.16" width="16.22" height="40.16"/>
    <path class="cls-1" d="M43.5,22.08c0,1.52-1.23,2.76-2.75,2.77-1.52,0-2.76-1.23-2.77-2.75,0-1.52,1.23-2.76,2.75-2.77,1.52-.01,2.76,1.21,2.77,2.73,0,0,0,.01,0,.02Z"/>
    <rect class="cls-1" x="39.89" y="29.67" width="1.7" height="39.05"/>
    <rect class="cls-1" y="131.38" width="168.89" height="5.78"/>
    <rect class="cls-1" y="76.58" width="168.89" height="5.78"/>
    <rect class="cls-1" x="34.47" y="178.8" width="134.42" height="5.45"/>
    <rect class="cls-1" x="78" y="81.22" width="6.44" height="54.52"/>
    <rect class="cls-1" x="34.5" y="131.38" width="6.44" height="52.85"/>
    <path class="cls-14" d="M116.73,106.6l-4,5.69s8.91,2.47,8.91,10.39-5.45,9.4-11.38,9.4-11.63-1.73-11.39-9.65,7.67-10.89,7.67-10.89l-3.71-4.94h13.9Z"/>
    <rect class="cls-14" x="206.42" y="310.33" width="178.78" height="82.45"/>
    <path class="cls-1" d="M380.94,388.89h-170.43v-74.22h170.43v74.22ZM211.62,387.78h168.21v-72h-168.21v72Z"/>
    <rect class="cls-1" x="385.2" y="310.33" width="43.68" height="82.45"/>
    <path class="cls-1" d="M211.06,337.64h169.33c.12-.03.2-.15.18-.27-.02-.09-.09-.16-.18-.18h-169.33c-.12.03-.2.15-.18.27.02.09.09.16.18.18Z"/>
    <path class="cls-1" d="M296.28,337.41c.47-7.46.49-14.93.06-22.39,0-.13-.1-.23-.23-.23-.13,0-.23.1-.23.23-.43,7.46-.41,14.93.06,22.39,0,.09.08.17.17.17.09,0,.17-.08.17-.17h0Z"/>
    <path class="cls-1" d="M341.85,326.22c0,1.28-1.03,2.31-2.31,2.31-1.28,0-2.31-1.03-2.31-2.31,0-1.28,1.03-2.31,2.31-2.31,0,0,0,0,0,0,1.27,0,2.3,1.03,2.3,2.3,0,0,0,0,0,.01Z"/>
    <path class="cls-1" d="M252.99,326.22c.02,1.28-.99,2.33-2.27,2.35-1.28.02-2.33-.99-2.35-2.27-.02-1.28.99-2.33,2.27-2.35.03,0,.06,0,.09,0,1.24.02,2.24,1.03,2.26,2.27Z"/>
    <path class="cls-1" d="M298.03,351.78c0,1.28-1.03,2.31-2.31,2.31-1.28,0-2.31-1.03-2.31-2.31,0-1.28,1.03-2.31,2.31-2.31,0,0,0,0,0,0,1.27,0,2.3,1.04,2.3,2.31Z"/>
    <polygon class="cls-1" points="227.79 392.78 218.59 444.55 223.76 444.55 240.73 392.78 227.79 392.78"/>
    <polygon class="cls-1" points="372.55 392.78 380.25 444.64 375.07 444.64 359.61 392.78 372.55 392.78"/>
    <polygon class="cls-1" points="407.11 392.78 415.83 444.64 410.65 444.64 394.17 392.78 407.11 392.78"/>
    <path class="cls-1" d="M297.88,375.12c0,1.28-1.03,2.31-2.31,2.31s-2.31-1.03-2.31-2.31,1.03-2.31,2.31-2.31h0c1.28,0,2.31,1.03,2.31,2.31Z"/>
    <path class="cls-1" d="M211.06,363.17h169.33c.12-.03.2-.15.18-.27-.02-.09-.09-.16-.18-.18h-169.33c-.12.03-.2.15-.18.27.02.09.09.16.18.18Z"/>
    <rect class="cls-1" x="277.13" y="271.47" width="54.06" height="11" transform="translate(-1.45 1.6) rotate(-.3)"/>
    <rect class="cls-14" x="277.42" y="293.15" width="60.25" height="17.1" transform="translate(-1.58 1.61) rotate(-.3)"/>
    <path class="cls-1" d="M326.13,309.95c-.17,0-.3-3.83-.3-8.55s.13-8.55.3-8.55c.29,2.84.39,5.7.29,8.55.1,2.85,0,5.71-.29,8.55Z"/>
    <path class="cls-1" d="M328.66,309.95c-.3-2.84-.4-5.7-.3-8.55-.1-2.85,0-5.71.3-8.55.29,2.84.39,5.7.29,8.55.1,2.85,0,5.71-.29,8.55Z"/>
    <path class="cls-1" d="M286.55,309.95c-.29-2.84-.39-5.7-.29-8.55-.1-2.85,0-5.71.29-8.55.29,2.84.39,5.7.29,8.55.1,2.85,0,5.71-.29,8.55Z"/>
    <path class="cls-1" d="M289.08,309.95c-.29-2.84-.39-5.7-.29-8.55-.1-2.85,0-5.71.29-8.55.29,2.84.39,5.7.29,8.55.1,2.85,0,5.71-.29,8.55Z"/>
    <path class="cls-1" d="M294.6,301.71c0-.17,6.08-.3,13.58-.3s13.57.13,13.57.3-6.07.29-13.57.29-13.58-.13-13.58-.29Z"/>
    <rect class="cls-7" x="285.97" y="282.09" width="74.34" height="11" transform="translate(-1.5 1.7) rotate(-.3)"/>
    <path class="cls-1" d="M349.73,291.54c-1.97.03-3.59-1.53-3.62-3.5-.03-1.97,1.53-3.59,3.5-3.62,1.97-.03,3.59,1.53,3.62,3.5,0,0,0,.02,0,.03.03,1.95-1.52,3.56-3.47,3.59-.01,0-.02,0-.03,0Z"/>
    <rect class="cls-1" x="290.28" y="286.88" width="49.77" height="2.2"/>
    <rect class="cls-1" x="302.38" y="122.47" width="84.71" height="88.3"/>
    <rect class="cls-12" x="296.65" y="122.47" width="84.71" height="88.3"/>
    <path class="cls-1" d="M381.38,210.79h-84.76v-88.35h84.76v88.35ZM296.67,210.74h84.66v-88.25h-84.66v88.25Z"/>
    <rect class="cls-11" x="308.03" y="134.34" width="61.93" height="64.56"/>
    <path class="cls-1" d="M308.03,199.33c-.44.65-.95,1.24-1.53,1.77-1,1-2.37,2.46-3.93,4s-3,2.91-4,3.88c-.54.56-1.14,1.06-1.79,1.49.43-.65.94-1.24,1.52-1.77,1-1.05,2.38-2.46,4-4s3-2.91,4-3.88c.52-.56,1.1-1.06,1.73-1.49Z"/>
    <path class="cls-1" d="M369.96,199.17c.65.44,1.25.95,1.78,1.53,1.05,1,2.46,2.37,4,3.93s2.91,3,3.88,4c.56.54,1.06,1.14,1.49,1.79-.65-.42-1.25-.91-1.78-1.47-1.05-1-2.46-2.38-4-3.95s-2.91-3-3.88-4.05c-.56-.54-1.06-1.13-1.49-1.78Z"/>
    <path class="cls-1" d="M369.8,134.51c.43-.65.94-1.25,1.52-1.78,1-1,2.38-2.45,3.94-4s3-2.9,4.05-3.87c.53-.57,1.13-1.07,1.79-1.49-.44.65-.95,1.24-1.52,1.77-1,1-2.39,2.46-4,4s-3,2.91-4,3.88c-.53.56-1.13,1.06-1.78,1.49Z"/>
    <path class="cls-1" d="M307.86,134.67c-.65-.44-1.24-.95-1.77-1.53-1.05-1-2.46-2.38-4-3.94s-2.9-3-3.87-4c-.56-.54-1.06-1.14-1.49-1.79.65.43,1.25.94,1.77,1.52,1,1,2.46,2.38,4,3.94s2.91,3,3.88,4.06c.56.52,1.06,1.1,1.48,1.74Z"/>
    <path class="cls-1" d="M369.8,198.95c0-.11,0-.21,0-.32v-.9c0-.81,0-1.97,0-3.48,0-3.06,0-7.51-.06-13.16,0-11.31-.07-27.42-.12-46.7l.24.24h-61.76l.28-.27v64.56l-.24-.24,44.72.12,12.56.06h4.49-4.46l-12.51.06-44.87.12h-.23v-64.93h62.28v.24c-.05,19.35-.09,35.51-.12,46.85,0,5.63-.05,10.06-.06,13.11v4.31c0,.21-.14.33-.14.33Z"/>
    <rect class="cls-7" x="328.67" y="156.28" width="20.67" height="20.67"/>
  </g>
  <g id="freepik--Plant--inject-171">
    <rect class="cls-8" x="79.13" y="393.14" width="60.63" height="8.33"/>
    <path class="cls-8" d="M139.87,401.57h-60.84v-8.54h60.84v8.54ZM79.24,401.36h60.42v-8.12h-60.42v8.12Z"/>
    <polygon class="cls-8" points="84.75 398.69 93.48 441.75 125.77 441.75 134.21 401.47 84.75 398.69"/>
    <polygon class="cls-15" points="84.75 437.68 89.41 444.08 128.66 444.08 134.21 437.68 84.75 437.68"/>
    <path class="cls-8" d="M107.17,399.95c-.12,0-.27-19.95-.34-44.55s0-44.55.09-44.55.27,19.94.34,44.55.03,44.55-.09,44.55Z"/>
    <path class="cls-8" d="M120.73,350.03c-.04.16-.1.32-.17.47l-.54,1.29-.39.93c-.13.35-.26.73-.41,1.13s-.3.84-.46,1.3-.29,1-.45,1.48c-.72,2.44-1.29,4.91-1.7,7.42-.47,3.08-.78,6.18-.94,9.29-.22,5.67-.06,11.35.48,17,.2,2.16.39,3.91.54,5.12.06.56.11,1,.15,1.39.01.16.01.33,0,.49-.06-.15-.1-.31-.11-.48-.07-.36-.14-.82-.24-1.38-.19-1.2-.44-2.95-.67-5.11-.63-5.64-.84-11.33-.61-17,.16-3.13.49-6.24,1-9.33.43-2.52,1.03-5.01,1.8-7.45.17-.52.3-1,.48-1.48s.34-.89.5-1.29.3-.78.44-1.13.3-.64.43-.92c.25-.51.45-.93.62-1.26.06-.17.14-.33.25-.48Z"/>
    <path class="cls-8" d="M119.13,333.95c-.05.22-.12.44-.2.66-.15.46-.36,1.08-.63,1.85-.14.41-.29.86-.46,1.34s-.31,1-.49,1.61c-.35,1.16-.76,2.47-1.13,3.94-.19.74-.4,1.51-.61,2.31s-.37,1.65-.57,2.52c-.42,1.74-.72,3.62-1.12,5.59-.66,4-1.25,8.34-1.66,13s-.55,9-.61,13.06,0,7.65.21,10.68c.05,1.52.15,2.89.23,4.1s.14,2.24.22,3.09.11,1.47.15,1.95c.02.23.02.46,0,.69-.06-.22-.09-.45-.11-.68-.06-.48-.13-1.13-.23-1.94s-.2-1.89-.29-3.09-.23-2.58-.3-4.1c-.2-3-.29-6.67-.3-10.7s.2-8.46.58-13.09,1-9,1.7-13c.4-2,.72-3.86,1.16-5.6.21-.87.41-1.71.6-2.52.22-.8.43-1.57.64-2.31.38-1.47.81-2.78,1.19-3.93.19-.57.36-1.11.52-1.61s.35-.92.5-1.32c.3-.77.54-1.38.71-1.83.08-.23.18-.46.3-.67Z"/>
    <path class="cls-8" d="M103.34,403.48c0-.08,0-.15,0-.23,0-.18-.02-.41-.06-.69,0-.64-.1-1.52-.17-2.64-.15-2.33-.36-5.64-.61-9.72-.53-8.2-1.29-19.53-2.67-32-.7-6.23-1.52-12.15-2.37-17.52-.45-2.67-.86-5.22-1.33-7.59s-.89-4.58-1.31-6.59-.84-3.82-1.2-5.41-.69-3-1-4.08-.48-1.95-.63-2.57c-.07-.27-.12-.49-.16-.67s0-.23,0-.23c.04.07.07.14.09.22l.19.66.62,2.53c.31,1.11.67,2.47,1,4.06s.84,3.39,1.26,5.4.92,4.21,1.36,6.59.91,4.92,1.37,7.6c.87,5.37,1.7,11.29,2.41,17.53,1.38,12.47,2.09,23.82,2.54,32,.23,4.11.38,7.43.47,9.73.05,1.12.08,2,.1,2.65v.68c.04.09.07.19.1.29Z"/>
    <path class="cls-15" d="M106.73,320.44c-.27-2.82-3.12-5-6-5-2.88.13-5.54,1.58-7.22,3.92-1.63,2.33-2.81,4.95-3.48,7.72-2.06,6.63-2.79,13.61-2.13,20.53.81,6.88,3.6,13.65,8.54,18.51.8.79,1.84,1.58,2.94,1.34.6-.19,1.13-.53,1.55-1,9.78-8.95,15.22-21.68,14.92-34.93-.08-2.62-.42-5.34-1.87-7.52s-4.83-4.49-7.29-3.62"/>
    <path class="cls-15" d="M106.92,310.85l-36-21.27c-.4-.17-.71-.49-.88-.89-.14-.53.26-1,.65-1.44,5.01-5.2,12.04-7.97,19.26-7.57,7.24.52,13.75,4.57,17.42,10.83,3.48,6.22,3.59,14.44-.4,20.34"/>
    <path class="cls-8" d="M76.07,282.79l.47-.06c.31,0,.77-.07,1.36-.06,1.68-.03,3.35.1,5,.39,11.23,1.9,20.33,10.14,23.34,21.12.45,1.61.74,3.26.89,4.93.02.33.02.67,0,1-.03.28-.12.55-.27.79.09-.6.09-1.22,0-1.82-.2-1.65-.53-3.28-1-4.87-3.09-10.8-12.04-18.9-23.09-20.9-1.65-.31-3.32-.48-5-.53-1.04.03-1.7.05-1.7,0Z"/>
    <path class="cls-8" d="M102.04,296.17c-.57.35-1.18.62-1.82.83-1.15.45-2.75,1-4.55,1.6s-3.44,1-4.64,1.32c-.65.2-1.32.33-2,.37.61-.29,1.24-.51,1.89-.67l4.59-1.43,4.58-1.48c.63-.25,1.28-.43,1.95-.54Z"/>
    <path class="cls-8" d="M96.36,280.95c.32,1.31.47,2.65.43,4,.1,1.34.03,2.68-.22,4-.17-1.33-.24-2.66-.21-4-.11-1.33-.11-2.67,0-4Z"/>
    <path class="cls-8" d="M70.56,289.18c.84-.39,1.72-.7,2.62-.92,1.63-.51,3.91-1.15,6.46-1.76s4.86-1.08,6.55-1.38c.9-.21,1.82-.33,2.75-.37-.88.29-1.78.51-2.69.67-1.67.37-4,.89-6.51,1.5s-4.82,1.2-6.48,1.63c-.88.27-1.79.48-2.7.63Z"/>
    <path class="cls-15" d="M91.73,314.31c-3.1-2.35-6.37-2.81-10.26-2.66-3.89.26-7.71,1.24-11.24,2.9-6.08,2.66-11.79,6.59-15.42,12.14s-4.9,12.91-2.18,19c.21.63.65,1.16,1.23,1.49.66.18,1.37.13,2-.15,6.91-2.26,13.87-4.53,20.23-8.07s12.14-8.44,15.55-14.86c.88-1.51,1.44-3.19,1.64-4.93.19-1.76-.39-3.52-1.59-4.82"/>
    <path class="cls-8" d="M91.78,313.58c-.16.08-.33.15-.5.2l-1.45.5-1,.35-1.22.48c-.88.35-1.89.71-3,1.22l-1.7.78c-.59.27-1.17.6-1.8.92-1.25.61-2.52,1.4-3.87,2.2-5.8,3.59-10.96,8.13-15.26,13.42-1,1.23-1.9,2.39-2.67,3.56-.4.57-.8,1.11-1.15,1.66s-.66,1.08-1,1.58c-.65,1-1.13,2-1.59,2.78-.23.42-.45.8-.63,1.16l-.48,1c-.28.57-.5,1-.68,1.37-.07.17-.16.32-.26.47.04-.17.1-.34.18-.5l.61-1.41c.13-.31.28-.65.45-1,.17-.36.38-.75.6-1.17.44-.84.9-1.81,1.54-2.82l1-1.61c.34-.56.74-1.1,1.13-1.69.77-1.18,1.7-2.35,2.66-3.61,2.15-2.67,4.5-5.16,7.04-7.47,2.59-2.24,5.35-4.27,8.26-6.08,1.37-.79,2.65-1.57,3.92-2.18.63-.31,1.22-.64,1.82-.9l1.71-.76c1.09-.5,2.12-.83,3-1.17.45-.16.86-.32,1.24-.44l1.07-.32,1.47-.42c.18-.05.37-.08.56-.1Z"/>
    <path class="cls-8" d="M67.55,326.7c-2.47.94-4.99,1.76-7.54,2.43-2.52.8-5.07,1.47-7.66,2,2.47-.94,4.99-1.75,7.54-2.43,2.51-.81,5.07-1.48,7.66-2Z"/>
    <path class="cls-8" d="M67.24,343.34c-.12-.78-.18-1.56-.16-2.35v-5.68c0-2.22.19-4.22.31-5.67.02-.79.12-1.57.29-2.34.07.79.07,1.57,0,2.36,0,1.59-.11,3.52-.17,5.66s-.11,4.08-.15,5.67c.04.79,0,1.57-.12,2.35Z"/>
    <path class="cls-8" d="M81.5,336.07c-.12,0-.5-4.07-.85-9.11s-.53-9.13-.41-9.14.5,4.07.84,9.11.54,9.14.42,9.14Z"/>
    <path class="cls-8" d="M63.73,317.42c.8-.09,1.61-.12,2.42-.07,1.49,0,3.55.05,5.82.13s4.33.17,5.82.25c.81,0,1.62.09,2.41.24-.8.09-1.61.12-2.42.07-1.49,0-3.55-.06-5.82-.13s-4.33-.17-5.82-.26c-.81,0-1.62-.08-2.41-.23Z"/>
    <path class="cls-8" d="M97.98,367.07c-.05-.16-.07-.32-.06-.48,0-.36-.02-.82-.06-1.38,0-1.21-.07-2.95,0-5.11s.19-4.72.44-7.56.69-5.95,1.27-9.19,1.32-6.3,2.05-9.06,1.53-5.21,2.25-7.25,1.35-3.67,1.82-4.78c.23-.52.41-.95.55-1.28.06-.15.13-.3.22-.44-.03.16-.07.32-.14.47-.12.34-.28.77-.47,1.31-.43,1.12-1,2.77-1.69,4.82s-1.42,4.5-2.15,7.25-1.42,5.8-2,9-1,6.33-1.3,9.16-.46,5.38-.54,7.53-.11,3.89-.11,5.09v1.39c-.01.17-.04.34-.08.51Z"/>
    <path class="cls-8" d="M99.88,343.47c-.42.58-.91,1.1-1.44,1.58-.93.93-2.26,2.18-3.77,3.5s-2.92,2.48-4,3.28c-.54.47-1.12.88-1.75,1.22.47-.53.99-1.02,1.56-1.45l3.88-3.37,3.84-3.4c.51-.51,1.08-.96,1.68-1.36Z"/>
    <path class="cls-8" d="M111.29,352.66c-.57-.66-1.09-1.37-1.53-2.12l-3.57-5.2-3.63-5.14c-.54-.69-1.03-1.42-1.46-2.18.62.61,1.19,1.28,1.7,2,1,1.27,2.34,3.06,3.75,5.09s2.62,3.9,3.46,5.28c.49.72.92,1.48,1.28,2.27Z"/>
    <path class="cls-8" d="M105.31,323.76c.06.1-3.73,2.65-8.47,5.7s-8.63,5.43-8.69,5.33,3.72-2.65,8.46-5.7,8.63-5.43,8.7-5.33Z"/>
    <path class="cls-8" d="M116,335.29c-2.01-1.65-3.93-3.42-5.74-5.29-1.91-1.77-3.72-3.65-5.43-5.61,2.01,1.66,3.93,3.43,5.74,5.3,1.91,1.77,3.72,3.64,5.43,5.6Z"/>
    <path class="cls-15" d="M118.73,335.06l3.26-.27c2.31-.18,4.55-.87,6.57-2,.99-.58,2.01-1.09,3.06-1.54,4-1.61,8.51-1.32,12.84-1.54,7.09-.36,14.04-2.13,20.43-5.22.37-.17.68-.46.89-.81.67-1.22-.57-2.3-1.64-3-5.48-3.38-11.06-6.8-17.28-8.48s-13.27-1.39-18.58,2.26c-6.22,4.29-8.49,13.09-9.55,20.57"/>
    <path class="cls-8" d="M165.8,323.27c-.19-.07-.37-.16-.55-.26l-1.54-.81c-1.34-.7-3.27-1.74-5.7-2.9-2.83-1.4-5.78-2.54-8.82-3.4-3.72-1.08-7.61-1.4-11.46-.95-3.84.43-7.47,1.99-10.42,4.48-2.31,2.14-4.16,4.74-5.43,7.62-1.14,2.43-1.84,4.51-2.36,5.93l-.58,1.64c-.06.19-.13.38-.22.56.02-.2.07-.4.14-.59.13-.42.3-1,.5-1.67.63-2.04,1.38-4.05,2.25-6,1.25-2.95,3.1-5.6,5.43-7.79,3.02-2.56,6.75-4.16,10.69-4.59,3.89-.45,7.83-.11,11.59,1,3.05.9,6.01,2.07,8.85,3.51,2.42,1.21,4.33,2.29,5.64,3l1.5.88c.17.1.34.21.49.34Z"/>
    <path class="cls-8" d="M157.99,327.47c-.07.1-4.32-2.66-9.51-6.15s-9.33-6.41-9.26-6.51,4.32,2.66,9.51,6.15,9.32,6.41,9.26,6.51Z"/>
    <path class="cls-8" d="M153.45,314.59c-1,.34-2.04.52-3.1.56-1.05.14-2.12.13-3.16-.05,1.03-.18,2.07-.28,3.12-.31,1.04-.15,2.09-.21,3.14-.2Z"/>
    <path class="cls-8" d="M134.82,312.16c-.35.8-.82,1.53-1.4,2.18-.49.75-1.08,1.42-1.76,2,.34-.8.81-1.53,1.39-2.18.49-.75,1.09-1.42,1.77-2Z"/>
    <path class="cls-8" d="M138.63,329.95c-.72-.3-1.41-.67-2.05-1.11-1.22-.74-2.89-1.84-4.66-3.12s-3.34-2.51-4.47-3.4c-.63-.45-1.22-.96-1.76-1.52.69.36,1.34.79,1.95,1.27l4.53,3.3c1.77,1.28,3.4,2.41,4.58,3.22.66.4,1.29.86,1.88,1.36Z"/>
    <path class="cls-15" d="M123.48,348.89c-3.11-.82-6.81,2.19-7.45,5.34s.54,6.36,1.92,9.26c2.96,6.49,7.35,12.23,12.84,16.79,5.54,4.55,12.45,7.1,19.62,7.23-1.31-6.1.35-12.46-.38-18.65-1.33-11.24-10.24-20.06-21.49-21.28-2-.21-4.27-.52-5.06,1.31"/>
    <path class="cls-8" d="M150.41,387.51c-.15-.05-.3-.12-.44-.21-.41-.22-.8-.48-1.16-.78-1.31-1.13-2.35-2.53-3.07-4.1-.49-1-1-2-1.58-3.16s-1.09-2.39-1.67-3.69c-.61-1.35-1.3-2.67-2.06-3.94-.84-1.35-1.78-2.63-2.82-3.84-2.12-2.5-4.4-4.66-6.38-6.72-1.79-1.8-3.42-3.75-4.86-5.84-.97-1.41-1.77-2.94-2.38-4.54-.16-.44-.3-.88-.42-1.33-.06-.15-.09-.31-.09-.47,0,0,.21.63.66,1.74.66,1.56,1.5,3.05,2.48,4.43,1.47,2.04,3.11,3.96,4.9,5.73,2,2,4.27,4.2,6.42,6.72,1.05,1.22,2.01,2.53,2.86,3.9.76,1.29,1.45,2.63,2.05,4l1.63,3.7c.52,1.15,1.06,2.21,1.54,3.17.67,1.56,1.66,2.95,2.9,4.11.9.78,1.52,1.07,1.49,1.12Z"/>
    <path class="cls-8" d="M134.36,382.44c.02-.71.12-1.41.29-2.09.24-1.28.64-3,1.18-4.94s1.11-3.62,1.57-4.83c.21-.67.5-1.32.85-1.93-.13.68-.31,1.35-.56,2-.38,1.24-.91,2.95-1.45,4.86s-1,3.63-1.29,4.89c-.13.7-.33,1.38-.59,2.04Z"/>
    <path class="cls-8" d="M149.82,367.48c-.74-.1-1.47-.27-2.18-.5-1.34-.35-3.19-.83-5.24-1.29s-3.93-.82-5.29-1.08c-.74-.1-1.47-.26-2.19-.48.75-.02,1.5.04,2.24.18,1.38.18,3.27.49,5.33,1s3.91,1,5.23,1.42c.72.18,1.43.43,2.1.75Z"/>
    <path class="cls-8" d="M122.85,371.83c.03-.82.14-1.63.33-2.42.27-1.48.71-3.52,1.29-5.74s1.2-4.22,1.68-5.64c.23-.78.53-1.55.89-2.28-.13.81-.33,1.6-.59,2.37-.42,1.44-1,3.44-1.56,5.66s-1.06,4.23-1.41,5.7c-.15.8-.36,1.58-.63,2.35Z"/>
    <path class="cls-8" d="M142.73,354.45c0,.12-3.88-.2-8.65-.7s-8.62-1-8.61-1.13c2.9.09,5.79.32,8.66.7,2.88.23,5.75.61,8.6,1.13Z"/>
    <path class="cls-15" d="M139.86,401.43c0,.12-13.61.22-30.41.22s-30.42-.1-30.42-.22,13.62-.21,30.42-.21,30.41.09,30.41.21Z"/>
    <path class="cls-15" d="M130.39,418.95c0,.12-9.18.21-20.49.21s-20.5-.09-20.5-.21,9.18-.22,20.5-.22,20.49.11,20.49.22Z"/>
    <path class="cls-15" d="M130.03,421.46c0,.12-9,.22-20.13.22s-20.14-.1-20.14-.22,9-.21,20.14-.21,20.13.09,20.13.21Z"/>
    <path class="cls-15" d="M130.73,416.89c0,.12-9.49.22-21.2.22s-21.2-.1-21.2-.22,9.49-.21,21.2-.21,21.2.09,21.2.21Z"/>
  </g>
  <g id="freepik--speech-bubble--inject-171">
    <path class="cls-11" d="M283.06,73.83l7.55-13.3c-10.32-16.76-5.1-38.71,11.65-49.04,16.76-10.32,38.71-5.1,49.04,11.66,10.32,16.76,5.1,38.71-11.65,49.04-12.63,7.78-28.76,6.92-40.5-2.16h0l-16.09,3.8Z"/>
    <path class="cls-8" d="M283.06,73.83l16.07-3.88-.06.18h0s-.05-.12,0-.17c0,0,0,0,0,0,.04-.03.1-.03.14,0,2.25,1.73,4.7,3.19,7.29,4.35,3.09,1.36,6.36,2.27,9.7,2.72,1.85.25,3.72.34,5.58.26,1-.06,1.94-.08,2.92-.17l3-.46c8.87-1.75,16.74-6.82,22-14.17,2.92-4.06,4.95-8.7,5.93-13.6,1.01-5.18.86-10.52-.43-15.63-1.33-5.35-3.91-10.31-7.53-14.46l-1.44-1.58c-.47-.53-1-1-1.55-1.45-.5-.49-1.03-.96-1.59-1.39l-1.68-1.26c-.57-.43-1.17-.83-1.79-1.17l-1.78-1.08-1.87-.92c-.61-.32-1.24-.6-1.88-.84-5.01-1.98-10.39-2.81-15.76-2.43-5.08.34-10.03,1.8-14.48,4.27-8.01,4.45-14,11.8-16.76,20.53-1.1,3.72-1.63,7.59-1.57,11.47.17,6.2,1.97,12.24,5.21,17.52.02.04.02.08,0,.12-4.87,8.44-7.25,12.55-7.65,13.24l7.45-13.36v.12c-3.3-5.31-5.14-11.39-5.33-17.64-.08-3.92.43-7.83,1.53-11.6,2.76-8.84,8.81-16.29,16.9-20.8,4.51-2.5,9.51-3.98,14.66-4.33,5.45-.4,10.92.43,16,2.45.66.24,1.29.52,1.91.85l1.89.92,1.81,1.09c.61.36,1.2.75,1.77,1.17l1.68,1.25c.56.44,1.1.91,1.61,1.41.52.49,1.09.94,1.57,1.47l1.45,1.61c3.67,4.2,6.29,9.22,7.63,14.64,1.31,5.19,1.46,10.61.42,15.87-1,4.96-3.04,9.65-6,13.76-5.35,7.42-13.32,12.53-22.3,14.29l-3,.45c-1,.08-2,.11-2.95.16-1.88.07-3.77-.02-5.64-.28-3.37-.46-6.65-1.4-9.76-2.79-2.6-1.19-5.06-2.67-7.32-4.42l.16-.16h0s.05.12,0,.17c0,0,0,0,0,0h0l-16.16,3.7Z"/>
    <path class="cls-5" d="M314.83,37.56h2.32l5.06-7v-4.67s3.58-.23,3.16,5.83,0,4.51,0,4.51c0,0,7.6,0,8.23.69.46.48.67,8,.75,12.13.1,2.03-1.19,3.88-3.14,4.47-.27.07-.54.11-.82.11-1.9,0-11.59-1.54-11.59-1.54h-4l.03-14.53Z"/>
    <polygon class="cls-5" points="308.2 36.29 309.63 52.13 313.59 52.13 313.59 36.61 308.2 36.29"/>
  </g>
  <g id="freepik--Character--inject-171">
    <path class="cls-8" d="M197.62,70.31c-5.58,3.56-12.07,5.41-18.68,5.33-2.09-.13-4.19-.15-6.28-.07-2.11.09-4.13.87-5.74,2.23-1.62,1.42-2.21,3.68-1.48,5.71,1.18,2.7,5,3.77,5.58,6.66.42,2.08-1.13,4.06-2.88,5.27s-3.79,2-5.26,3.54c-2.77,2.88-2.68,7.45.2,10.22.94.91,2.12,1.54,3.39,1.84,1.49.35,3.32.36,4.13,1.66.43.99.51,2.09.22,3.13-.39,2.23-.1,4.52.85,6.58.99,2.08,3.07,3.42,5.37,3.47.88,0,1.74-.3,2.62-.28.9-.06,1.74.45,2.11,1.27.09.6.07,1.21-.08,1.8-.32,2.95,2.62,5.26,5.47,6.1,5.69,1.7,12,.06,16.84-3.44s8.15-8.68,10.4-14.18,3.46-11.34,4.66-17.16"/>
    <path class="cls-10" d="M261.18,217.4c-.64-1.58-1.59-3-2.81-4.19-7.53-8-18.94-11.85-29.91-11.22s-21.48,5.4-30,12.31c-4.55,3.69-10.69,10.8-12.29,16.44,6.68,1.61,16.66-.63,23-3.38s12.54-6.07,19.37-6.77c7.92-.81,15.7,2,23.5,3.59,1.56.38,3.17.51,4.77.38,1.62-.14,3.09-.97,4.06-2.28.85-1.49.96-3.29.31-4.88Z"/>
    <g class="cls-3">
      <path d="M261.18,217.4c-.64-1.58-1.59-3-2.81-4.19-7.53-8-18.94-11.85-29.91-11.22s-21.48,5.4-30,12.31c-4.55,3.69-10.69,10.8-12.29,16.44,6.68,1.61,16.66-.63,23-3.38s12.54-6.07,19.37-6.77c7.92-.81,15.7,2,23.5,3.59,1.56.38,3.17.51,4.77.38,1.62-.14,3.09-.97,4.06-2.28.85-1.49.96-3.29.31-4.88Z"/>
    </g>
    <path class="cls-10" d="M255.73,312.8l19.07-12.35s19,15.23,22.71,13.29l-22.64-37.79-30.51,18,11.37,18.85Z"/>
    <path class="cls-1" d="M266.15,289.73c-.23-.89.26-1.81,1.12-2.13.89-.26,1.82.23,2.12,1.1.23.94-.29,1.91-1.2,2.24-.95.17-1.87-.44-2.08-1.38"/>
    <g class="cls-13">
      <path class="cls-11" d="M274.87,275.95l-3,1.94,22.86,35.5s1.74,1.25,2.81.35l-22.67-37.79Z"/>
    </g>
    <path class="cls-8" d="M274.96,301.17c.18-.11-.29-1.09-.24-2.35s.54-2.21.37-2.34-1.08.79-1.11,2.32.84,2.52.98,2.37Z"/>
    <path class="cls-8" d="M278.98,304.16c.2-.06,0-1,.44-2.15s1.13-1.77,1-1.95-1.23.33-1.71,1.7.09,2.5.27,2.4Z"/>
    <path class="cls-8" d="M285.08,303.57c-.07-.19-1.14.11-1.87,1.19s-.61,2.18-.41,2.17.42-.87,1-1.75,1.37-1.41,1.28-1.61Z"/>
    <path class="cls-8" d="M270.3,303.51c.13-.18-.64-.88-1.19-2s-.71-2.1-.93-2.1-.4,1.17.27,2.45,1.76,1.83,1.85,1.65Z"/>
    <polygon class="cls-2" points="258.74 285.44 267.41 305.22 264.5 307.28 254.5 287.99 258.74 285.44"/>
    <path class="cls-8" d="M247.38,207.83c-.78,0-26.43-.57-40.28,8.58l-11,6.18.29,11.1s-2.35,3.92-1.83,6.27-.07,12.28-.07,12.28c0,0-4.11.26-4.63,7.32,0,0-5.7,2.35-8.2,6.53s-28.12,51.21-29.68,58.79-2.62,20.9,3.13,25.34,18.62,2.87,18.62,2.87c0,0,1.83,5.49,13.07,5.75s28.47-12.8,28.47-12.8l51.74-35.27-12.28-26.21-18.07,11.05,19.33-22.47s8.89-15.15,6.27-31.09c-1.93-11.83-14.88-34.22-14.88-34.22Z"/>
    <path class="cls-15" d="M251.81,215.95h-8.75c-2.7,0-5.92.13-9.46.51-3.84.37-7.63,1.16-11.3,2.36-7.81,2.64-14.09,6.83-18.56,9.82l-5.26,3.64-1.43,1c-.16.13-.33.23-.52.31,0,0,.14-.15.45-.4l1.38-1.06c1.21-.92,3-2.23,5.17-3.79,4.43-3.07,10.71-7.34,18.6-10,3.7-1.21,7.54-2,11.42-2.35,3.16-.29,6.34-.42,9.51-.39,2.7,0,4.89.1,6.4.18l1.74.1c.21,0,.41.02.61.07Z"/>
    <path class="cls-15" d="M199.02,224.11c-.41.41-.69.93-.81,1.5-.1.59.1,1.2.54,1.61.54.5,1.31.66,2,.42.66-.31,1.11-.95,1.16-1.68.04-.6-.23-1.19-.71-1.55-.48-.33-1.05-.51-1.63-.52,0,0,.15-.13.49-.15.48-.03.96.11,1.35.38.64.4,1.02,1.11,1,1.86.02,1.27-.99,2.32-2.26,2.34-.66.01-1.3-.26-1.74-.75-.52-.52-.74-1.28-.58-2,.11-.47.36-.89.72-1.21.28-.24.46-.28.47-.25Z"/>
    <path class="cls-15" d="M208.23,225.46c-.05.05-.41-.22-.92-.74-1.53-1.33-2.03-3.49-1.25-5.36.23-.7.44-1.1.5-1.08s0,.47-.14,1.17c-.21.87-.24,1.78-.09,2.67.26.86.69,1.66,1.26,2.36.42.57.69.93.64.98Z"/>
    <path class="cls-15" d="M210.4,224.13s-.4-.17-.87-.66c-.6-.66-1.05-1.45-1.31-2.31-.4-1.19-.42-2.48-.05-3.68.18,0,0,1.66.55,3.53.43,1.1,1,2.15,1.68,3.12Z"/>
    <path class="cls-15" d="M238.09,215.95c-.08,0-.11-.47-.18-1.21-.08-.94-.29-1.87-.63-2.75-.37-.86-.9-1.65-1.56-2.33-.5-.54-.82-.88-.77-.94s.45.18,1,.67c.77.65,1.38,1.47,1.78,2.4.37.93.55,1.93.52,2.94.04.41-.01.83-.16,1.22Z"/>
    <path class="cls-15" d="M241.45,215.95c-.08,0-.09-.47-.08-1.2.06-.93-.02-1.86-.23-2.76-.34-.87-.77-1.69-1.3-2.46-.39-.62-.6-1-.54-1.07s.38.29.84.86c.64.75,1.15,1.6,1.5,2.52.24.96.27,1.96.09,2.94-.1.68-.21,1.17-.28,1.17Z"/>
    <path class="cls-15" d="M197.22,329.53c.11-.41.26-.8.47-1.17.35-.75.89-1.84,1.6-3.23,1.42-2.79,3.51-6.8,6.13-11.74,5.24-9.88,12.56-23.49,20.71-38.48l6-10.95c1.82-3.39,3.24-6.99,4.21-10.71,1.65-6.33,1.99-12.93,1-19.4-.65-4.36-1.9-8.61-3.69-12.63-.63-1.43-1.18-2.51-1.56-3.24l-.44-.83c-.05-.09-.1-.19-.13-.29.07.08.13.17.18.27l.48.8c.41.71,1,1.78,1.66,3.2,4.67,10.09,5.69,21.48,2.89,32.24-.97,3.77-2.39,7.41-4.23,10.84-1.92,3.53-3.91,7.19-5.94,10.94l-20.83,38.41-6.28,11.66-1.69,3.18-.42.84c-.03.1-.07.2-.12.29Z"/>
    <path class="cls-15" d="M254.93,295.69c-.18.15-.36.28-.56.4l-1.66,1-6.13,3.86c-5.17,3.2-12.29,7.65-20.08,12.69s-14.77,9.67-19.77,13.05l-6,4-1.65,1.06c-.19.13-.38.25-.59.35.16-.16.34-.31.53-.43l1.59-1.15,5.9-4.13c5-3.45,12-8.17,19.75-13.22s14.95-9.45,20.17-12.56c2.61-1.56,4.74-2.8,6.21-3.64l1.71-1c.19-.11.38-.2.58-.28Z"/>
    <path class="cls-15" d="M263.02,313.45c-.19-.32-.35-.65-.48-1l-1.25-2.84c-1.08-2.39-2.62-5.67-4.35-9.28s-3.23-6.78-4.41-9.26l-1.31-2.82c-.18-.34-.32-.69-.42-1.06.24.31.44.64.6,1,.36.65.86,1.58,1.46,2.75,1.2,2.33,2.83,5.58,4.55,9.2s3.22,6.92,4.22,9.36c.5,1.21.87,2.21,1.1,2.91.13.34.23.68.29,1.04Z"/>
    <path class="cls-15" d="M197.22,329.53c-.09-.11,8.75-7.93,19.76-17.47,11.01-9.54,20-17.18,20.1-17.07s-8.75,7.96-19.76,17.46-20,17.19-20.1,17.08Z"/>
    <path class="cls-15" d="M186.26,347.86c.81-.7,1.52-1.49,2.13-2.37,1.07-1.66,2.38-4.1,3.86-6.75s2.73-5.12,3.65-6.89c.45-.98.97-1.93,1.56-2.83-.32,1.03-.73,2.04-1.23,3-.84,1.82-2.06,4.3-3.52,7s-2.84,5.06-4,6.71c-.47.66-1.02,1.24-1.66,1.73-.23.18-.5.32-.79.4Z"/>
    <path class="cls-15" d="M195.63,350.69c-.08,0,.49-1.13,1.12-3,.79-2.45,1.33-4.98,1.62-7.54.36-2.55.36-5.13,0-7.68-.12-.76-.34-1.5-.67-2.2-.17-.23-.32-.47-.44-.73,0,0,.26.17.61.63.42.69.71,1.44.86,2.23.48,2.58.55,5.21.2,7.81-.29,2.6-.89,5.16-1.8,7.61-.28.74-.61,1.46-1,2.15-.3.48-.47.74-.5.72Z"/>
    <path class="cls-15" d="M184.8,335.5c.64-.29,1.31-.51,2-.64,1.58-.43,3.12-.98,4.61-1.64,3.47-1.62,5.74-3.85,5.86-3.69-.44.55-.95,1.03-1.54,1.42-1.27,1.09-2.68,2-4.19,2.7-1.52.68-3.11,1.2-4.74,1.53-.65.2-1.32.3-2,.32Z"/>
    <path class="cls-15" d="M198.03,262.84c-.04.08-.08.15-.14.21l-.44.59c-.39.52-.95,1.29-1.62,2.31-1.88,2.91-3.47,6-4.74,9.22-1.84,4.8-3.36,9.71-4.57,14.7-1.49,5.61-3,11.86-5.51,18.1s-5.77,11.78-7.83,17.2c-1.94,4.75-2.99,9.82-3.11,14.95,0,1.96.22,3.92.66,5.83.35,1.44.83,2.85,1.43,4.21.38.86.81,1.7,1.29,2.51.14.26.26.47.36.64.04.07.08.15.11.23-.06-.06-.12-.13-.16-.2l-.4-.61c-.52-.8-.98-1.62-1.39-2.48-.64-1.36-1.14-2.78-1.52-4.23-.47-1.93-.73-3.92-.75-5.91.05-5.18,1.07-10.31,3-15.12,2.05-5.47,5.22-11.06,7.79-17.23s4-12.42,5.52-18c1.24-5.01,2.81-9.92,4.7-14.72,1.3-3.23,2.95-6.31,4.91-9.19.7-1,1.29-1.77,1.71-2.26l.48-.56c.15-.08.21-.2.22-.19Z"/>
    <path class="cls-15" d="M199.73,231.28c-.15.42-.32.83-.52,1.22-.48,1.1-.81,2.26-1,3.44-.22,1.76-.16,3.54.18,5.28.31,2,1.14,4,1.7,6.34.28,1.13.38,2.3.29,3.46-.09,1.07-.26,2.13-.51,3.17-.42,1.75-.94,3.48-1.55,5.17-.51,1.45-1,2.6-1.28,3.4-.14.42-.32.83-.55,1.21.08-.44.2-.87.36-1.28.3-.91.67-2.07,1.12-3.45s1-3.19,1.43-5.16c.57-2.09.63-4.28.18-6.4-.54-2.23-1.38-4.34-1.66-6.38-.33-1.79-.36-3.62-.08-5.42.21-1.21.61-2.37,1.17-3.46.14-.3.31-.58.49-.86.12-.19.23-.29.23-.28Z"/>
    <path class="cls-15" d="M200.93,261.37c1.11-1.24,1.97-2.69,2.52-4.26.56-1.71.82-3.5.78-5.3-.08-2.21-.35-4.42-.82-6.58-.49-2.18-.86-4.39-1.11-6.61-.16-1.83-.12-3.68.11-5.5.14-1.23.44-2.44.88-3.6.12-.31.26-.62.42-.91.12-.2.18-.3.2-.3s-.17.46-.43,1.28c-.36,1.17-.6,2.37-.71,3.58-.17,1.8-.17,3.6,0,5.4.19,2,.69,4.23,1.14,6.56.48,2.2.74,4.43.79,6.68.02,1.85-.29,3.68-.92,5.42-.42,1.18-1.05,2.27-1.86,3.22-.22.25-.46.49-.72.71-.16.15-.26.22-.27.21Z"/>
    <path class="cls-15" d="M226.29,253.49c-.4.11-.8.19-1.21.22-.78.1-1.91.28-3.29.52-3.61.63-7.16,1.53-10.62,2.72-3.46,1.2-6.82,2.67-10.05,4.39-1.24.67-2.23,1.22-2.91,1.62-.34.23-.71.42-1.09.57.31-.28.64-.53,1-.74.65-.45,1.62-1.06,2.84-1.77,6.41-3.67,13.46-6.1,20.77-7.16,1.4-.19,2.54-.31,3.33-.35.41-.06.82-.06,1.23-.02Z"/>
    <path class="cls-15" d="M227.92,242.58c0,.1-1.48.08-3.81.44-1.35.22-2.69.53-4,.94-3.23,1.01-6.25,2.6-8.92,4.68-1.09.85-2.12,1.78-3.07,2.78-1.62,1.71-2.44,2.94-2.52,2.88.13-.32.3-.63.52-.9.52-.79,1.1-1.53,1.73-2.23.92-1.05,1.92-2.03,3-2.91,1.35-1.07,2.79-2.01,4.3-2.82,1.53-.79,3.13-1.43,4.78-1.94,1.34-.4,2.72-.68,4.11-.84.94-.12,1.88-.18,2.83-.16.35-.01.7.01,1.05.08Z"/>
    <path class="cls-15" d="M230.15,265.46c-.36.18-.73.33-1.12.43-.74.24-1.79.6-3.1,1.06-3.39,1.21-6.7,2.61-9.93,4.19-3.22,1.59-6.34,3.37-9.36,5.32-1.16.75-2.09,1.37-2.73,1.81-.31.25-.64.46-1,.63.27-.3.58-.56.91-.79.6-.49,1.5-1.16,2.64-2,2.97-2.06,6.09-3.9,9.34-5.49,3.23-1.6,6.57-2.96,10-4.07,1.32-.41,2.4-.72,3.15-.9.39-.11.79-.18,1.2-.19Z"/>
    <path class="cls-15" d="M261.73,239.29c-.34-.07-.68-.18-1-.33-.62-.24-1.53-.58-2.71-1-3.25-1.06-6.6-1.8-10-2.19l.25-.23c.12,4.31.09,9.42-.29,14.87-.36,5.31-1.06,10.59-2.11,15.81v-.11c.92,3.03,2.04,5.99,3.33,8.88.47,1,.9,1.82,1.19,2.36.17.26.33.53.47.81-.22-.23-.41-.48-.58-.75-.48-.74-.92-1.52-1.31-2.31-1.38-2.87-2.55-5.83-3.51-8.86v-.11c.98-5.21,1.64-10.47,2-15.76.38-5.43.43-10.52.37-14.82v-.26h.26c3.41.42,6.76,1.22,10,2.38,1.17.43,2.06.82,2.67,1.09.34.15.66.32.97.53Z"/>
    <path class="cls-15" d="M262.49,243.63c-.72-.13-1.42-.33-2.1-.58-1.28-.38-3.07-.88-5.06-1.34-4-.94-7.26-1.54-7.24-1.69.73-.03,1.46.04,2.18.19,1.34.19,3.17.51,5.18,1,4.03.9,7.11,2.28,7.04,2.42Z"/>
    <path class="cls-15" d="M257.73,228.24c0,.07-1.22-.28-3.17-.74-2.54-.59-5.12-1-7.72-1.23-2.6-.2-5.21-.24-7.82-.1-1.08.1-2.17.14-3.26.12.28-.11.57-.18.86-.2.56-.09,1.37-.2,2.37-.29,2.62-.24,5.26-.26,7.89-.05,2.63.22,5.23.69,7.77,1.39,1,.28,1.75.53,2.27.74.29.08.56.2.81.36Z"/>
    <path class="cls-15" d="M237.34,232.75c-.43.18-.87.32-1.33.41-.86.23-2.12.51-3.7.79-4.11.72-8.29.93-12.45.62-2.41-.24-4.82-.5-6.7-1.68-.89-.55-1.61-1.33-2.09-2.26-.4-.83-.52-1.77-.34-2.68.2-1.25.58-2.48,1.11-3.63.17-.44.41-.84.71-1.2,0,0-.2.45-.52,1.27-.45,1.16-.77,2.37-.94,3.61-.13.82,0,1.67.38,2.41.47.84,1.16,1.53,2,2,1.75,1.08,4.1,1.34,6.49,1.57,4.12.3,8.27.14,12.36-.47,1.57-.22,2.84-.45,3.71-.62.43-.09.87-.13,1.31-.14Z"/>
    <path class="cls-8" d="M234.79,53.51c-4.78-10.36-16.61-8.32-22.27-5.57-5.69,2.69-10.16,7.42-12.51,13.25-1.66,4-3,8.56-6.34,11-1.54.91-3.12,1.74-4.75,2.47-1.69.82-2.92,2.37-3.33,4.21-.5,3.45,3,5.84,5.88,7.23-1.73,1.18-2.18,3.85-1.57,6,.74,2.05,1.9,3.93,3.42,5.5,5.1,5.63,10.94,10.55,17.35,14.63,5.46,3.4,9,3.8,14.86,1.36,2.38-1,4.6-2.62,7.14-2.91,2.95-.33,5.77,1.18,8.69,1.79s6.6-.23,7.55-3.3c.24-1.22.37-2.46.4-3.71.15-1.23.76-2.57,1.87-2.85.9-.23,1.8.32,2.68.61,2.11.7,5.29,16.36,7.31,15.41,0,0,2.94-26.54-2.72-42.07-1.81-5-5.67-15.52-8.75-19.63-4.24-5.64-14.4-4.39-14.91-3.39"/>
    <path class="cls-6" d="M228.73,55.23c-7.53-2.63-17.69,3.15-20,10.78-2.57,8.47-5.36,18.92-5.85,25.58-1,13.39,8.53,17.36,8.53,17.36l-3.87,20.93,32.63-10.55,11.39-49.32,1.06-4.14-23.89-10.64Z"/>
    <path class="cls-8" d="M208.73,76.33c.11.29,1.66-.13,3.36.54s2.62,2,2.88,1.88.08-.5-.31-1.11c-.54-.8-1.31-1.42-2.21-1.76-.88-.36-1.86-.42-2.78-.18-.67.25-.94.5-.94.63Z"/>
    <path class="cls-8" d="M225.62,80.78c.2.23,1.55-.63,3.37-.5s3.1,1.13,3.32.92-.08-.51-.64-1c-.75-.6-1.67-.94-2.63-1-.95-.07-1.9.17-2.71.67-.6.41-.8.8-.71.91Z"/>
    <path class="cls-8" d="M218.04,88.27c-.87-.52-1.8-.92-2.77-1.2-.44-.16-.85-.35-.85-.68.07-.48.29-.92.62-1.27l2.15-3.15c3-4.49,5.33-8.23,5.15-8.35s-2.78,3.42-5.81,7.91c-.73,1.12-1.43,2.17-2.1,3.19-.42.48-.65,1.09-.66,1.73.06.35.28.66.59.84.24.12.49.22.75.29.94.35,1.93.59,2.93.69Z"/>
    <path class="cls-9" d="M211.42,108.95c6.2,1.56,12.7,1.4,18.81-.47,0,0-6.33,8.06-19.42,3.74l.61-3.27Z"/>
    <path class="cls-9" d="M222.88,93.38c-.4-.83-1.12-1.46-2-1.74-1.2-.43-2.53-.21-3.53.57-.41.58-.52,1.32-.31,2,.63.81.69,1.49,1.57,2,1.28.42,2.69.26,3.84-.44.63-.63.8-1.58.43-2.39Z"/>
    <path class="cls-8" d="M223,90.73c-.29-.08-.75,1.85-2.72,2.83s-4,.29-4.07.56c0,.11.37.48,1.24.71,1.13.28,2.32.16,3.36-.35,1.01-.49,1.78-1.36,2.16-2.41.27-.79.16-1.32.03-1.34Z"/>
    <path class="cls-8" d="M229.3,71.35c-.1.51,1.39,1,2.9,2.14s2.54,2.31,3,2c.2-.14.19-.67-.11-1.38-.41-.88-1.04-1.64-1.83-2.2-.77-.57-1.68-.92-2.64-1-.79.04-1.27.2-1.32.44Z"/>
    <path class="cls-8" d="M209.83,69.48c.39.38,1.76-.19,3.44-.37s3.15,0,3.44-.48c.12-.23-.14-.62-.81-1-.9-.4-1.89-.55-2.87-.41-.98.1-1.9.48-2.67,1.09-.56.54-.71.98-.53,1.17Z"/>
    <path class="cls-8" d="M254.46,65.84c-.56-1-1.44-1.79-2.5-2.23-6.49-3.56-13.21-6.69-20.12-9.36l-2.84,1.61c-.76,5.66,1.96,11.22,6.9,14.08,1.94,1.08,4.46,2.1,4.71,4.31s-2.14,3.85-3.49,5.71c-1.69,2.37-1.78,5.53-.23,8,.87,1.35,2.19,2.37,3,3.76,1.02,1.91,1.12,4.18.27,6.17-.81,2-2.16,4.63-4,5.74,5.09,1.14,10.35-1.07,13.09-5.51,1.52-2.58,1.64-5.71,1.84-8.7.46-6.8,1.54-13.55,3.23-20.15.43-1.1.48-2.3.14-3.43Z"/>
    <path class="cls-8" d="M232.29,54.56c-1.75,2.31-3.85,4.34-6.23,6-2.46,1.53-5.6,2.25-8.29,1.17.67-.74,1.35-1.48,2-2.23-4.79,3.28-10.21,5.52-15.91,6.58,3.58-4.35,7.27-8.79,12.16-11.6s11.3-3.67,16.07-.68"/>
    <path class="cls-8" d="M255.12,79.85l-15.24,11.84c1.75,1.91,1.07,6.77-.65,8.7s-4,3.58-4.67,6.08c-.74,2.73.71,5.56.75,8.39.06,4-2.63,7.44-4.71,10.86s-3.58,8-1.26,11.27c2.61,3.68,8.52,3.15,12.09.4s5.61-7,8.26-10.64,6.79-6.43,11.28-6c1.39-13.91-.62-27.94-5.85-40.9Z"/>
    <path class="cls-8" d="M257.67,112.86c-.09-.17.81-.82,2.35-2.06,2.17-1.68,4.11-3.64,5.76-5.84,1.09-1.5,1.95-3.14,2.57-4.89.71-1.96,1.02-4.04.9-6.12-.16-2.27-.88-4.46-2.09-6.38-1.35-2.1-3.07-3.95-5.07-5.46-4.1-3.19-9-5-13.28-6.91-3.98-1.54-7.74-3.6-11.18-6.14-2.34-1.75-4.29-3.98-5.69-6.55-.93-1.85-1.08-3-.94-3s.67.93,1.8,2.51c1.63,2.2,3.64,4.09,5.92,5.6,3.45,2.19,7.15,3.98,11.01,5.33,2.18.87,4.51,1.77,6.89,2.87,2.52,1.14,4.91,2.55,7.11,4.23,2.24,1.7,4.16,3.8,5.65,6.19,1.4,2.29,2.19,4.91,2.31,7.59.07,2.4-.37,4.78-1.28,7-.77,1.9-1.83,3.67-3.14,5.25-1.87,2.23-4.12,4.11-6.64,5.55-1.81,1.02-2.9,1.37-2.96,1.23Z"/>
    <path class="cls-15" d="M257.96,76.95c-.46-.09-.9-.24-1.33-.43-.84-.31-2-.78-3.53-1.4-3.9-1.55-7.57-3.63-10.89-6.2-3.34-2.62-5.85-6.15-7.23-10.16-.4-1.21-.64-2.47-.71-3.75-.02-.33-.02-.67,0-1-.02-.12-.02-.24,0-.36.15,1.7.49,3.37,1,5,1.47,3.88,3.97,7.29,7.22,9.87,3.29,2.53,6.89,4.64,10.71,6.27l3.46,1.54c.45.17.89.37,1.3.62Z"/>
    <path class="cls-15" d="M258.44,92.09c-.06,0,.25-.6.41-1.72.18-1.6-.1-3.22-.81-4.67-1.03-2.16-2.63-3.99-4.62-5.32-2.19-1.59-4.91-2.85-7.63-4.48-2.57-1.53-4.87-3.47-6.82-5.74-1.59-1.85-2.94-3.91-4-6.11-.71-1.48-1.27-3.02-1.67-4.61-.16-.56-.22-1-.28-1.3-.05-.15-.07-.3-.06-.46.21.56.39,1.13.53,1.71.48,1.55,1.08,3.05,1.81,4.5,1.08,2.16,2.42,4.18,4,6,1.93,2.22,4.19,4.12,6.72,5.62,2.68,1.6,5.42,2.89,7.64,4.53,2.04,1.39,3.66,3.31,4.68,5.56.7,1.51.93,3.2.67,4.85-.08.44-.21.87-.39,1.28-.09.22-.16.37-.18.36Z"/>
    <path class="cls-15" d="M174.17,81.95s0-.06.09-.16c.1-.15.21-.3.33-.44.46-.55,1.04-.98,1.7-1.26,1.06-.37,2.18-.56,3.3-.57,1.29-.07,2.77-.17,4.4-.17,1.76.03,3.52-.13,5.25-.49,1.95-.5,3.75-1.45,5.27-2.77,1.67-1.48,3.12-3.2,4.3-5.1,1.25-2.06,2.4-4.18,3.43-6.36,1.05-2.19,2.25-4.31,3.6-6.34,1.27-1.91,2.87-3.57,4.72-4.92,3.19-2.22,6.96-3.46,10.85-3.54,2.6-.09,5.19.37,7.6,1.34l1.12.49.77.44c.22.11.43.24.63.39-.23-.08-.46-.18-.67-.3l-.8-.39-1.12-.44c-2.4-.89-4.96-1.28-7.52-1.16-3.8.14-7.47,1.37-10.58,3.56-1.8,1.32-3.35,2.96-4.58,4.82-1.32,2-2.5,4.09-3.53,6.25-1.04,2.2-2.2,4.34-3.47,6.41-1.21,1.93-2.7,3.68-4.42,5.18-1.58,1.36-3.46,2.33-5.48,2.83-1.76.35-3.56.5-5.35.44-1.63,0-3.09,0-4.39.09-1.1-.02-2.19.14-3.23.47-.65.24-1.23.63-1.7,1.14-.16.2-.34.38-.52.56Z"/>
    <path class="cls-6" d="M168.05,68.46c-6-15.15-14-30-15.1-41.29l-11.95.48c.25,4.37,1.82,40.74,10.29,55.12s36.75,48,36.75,48l9.95-25.59s-23.93-21.56-29.94-36.72Z"/>
    <path class="cls-6" d="M148.13,3.65h-5.23s.51,3.08,2.88,3.25,1.91-.37,1.91-.37l-.53.49-3.26.64s.16,2.54,2.31,2.94l3.17-2.94-1.25-4.01Z"/>
    <path class="cls-6" d="M162.45,3.19c-.48,3.94-.53,3.7-.53,3.7l-4.78,3.94-1.22-5.8c-.16-.79-.83-1.37-1.64-1.42l-2.17-.14s.84-3-1.89-2.75c0,0-1.5-.41-2.71,4.61-1.32,5.49-7,18.39-6.51,22.7l12.12.49c-.13-4,3.17-8.27,4.8-10.11.49-.55.84-1.21,1-1.93.22-.99.69-1.9,1.36-2.66,1.5-1.66,4.65-4.65,4.65-4.65V.04s-2.02-.65-2.48,3.15ZM152.73,12.01l-2.49,1.13.42-2.54,2.07-.2v1.61Z"/>
    <path class="cls-9" d="M150.11,13.41c0-.36.04-.72.12-1.07.12-.69.29-1.67.52-2.89l.84-4.26c.2-.82.33-1.65.41-2.49,0-.81-.3-1.74-1.17-1.79s-1.51.54-1.93,1.25c-.2.37-.36.76-.48,1.16l-.39,1.19-1.3,4.14c-.39,1.18-.75,2.12-1,2.76-.11.36-.28.69-.49,1,.06-.34.16-.68.3-1,.21-.66.52-1.61.86-2.79s.75-2.64,1.19-4.18c.13-.4.25-.8.38-1.21.12-.44.29-.86.51-1.26.24-.42.56-.8.94-1.1.43-.34.97-.48,1.51-.41.27.04.53.13.76.27.23.16.41.37.54.61.22.45.32.94.3,1.44-.08.87-.23,1.73-.45,2.57l-1,4.25c-.27,1.2-.5,2.18-.68,2.85-.05.33-.15.65-.29.96Z"/>
    <path class="cls-9" d="M152.59,12.04c-.12-.98-.17-1.96-.15-2.94,0-.4-.06-.78-.09-1.13.02-.26-.07-.52-.23-.73-.34-.25-.75-.25-.73-.34s.09-.07.25-.09c.24-.03.49.01.7.13.3.24.48.61.48,1,.07.39.12.78.14,1.17.14.99.01,2-.37,2.93Z"/>
    <path class="cls-9" d="M158.53,9.81s-.33.44-1,1c-.85.75-1.79,1.39-2.8,1.89-1.05.46-2.18.72-3.33.79-.47.09-.94.09-1.41,0,.43-.18.89-.3,1.36-.33,1.09-.16,2.15-.47,3.16-.9.99-.48,1.95-1.05,2.84-1.7.68-.52,1.13-.81,1.18-.75Z"/>
    <path class="cls-6" d="M253.56,123.39s13.46-.4,21.52-2.8,39-9.76,39-9.76l49.65-8.28,1,12.84s-46.13,13.49-55.09,16.56-49.91,17.12-57.65,15.34l-4.8-9.87,6.37-14.03Z"/>
    <path class="cls-6" d="M387.6,87.45c-.81-.18-4.83,1.65-4.83,1.65.79-.96.82-2.33.08-3.32l-5.52,2.71c-1.46,1.48-3,2.88-4.61,4.19-2.54,2.34-4.88,4.88-7,7.61l-3.3,3.07,2.05,12.15c1.44.12,2.9-.07,4.26-.56,1.71-.79,4.21-4,4.21-4l4.71-.4c.55-.04,1.07-.25,1.5-.59.86-.84,1.29-2.02,1.17-3.22,3-1.7,1.25-3.86,1.25-3.86.95-.12,1.81-.59,2.42-1.33.53-.82.47-1.89-.15-2.64-.56-1-4.88-.69-4.88-.69l-.23-1.27s6.6-5.24,8.08-6.38,1.55-2.95.79-3.12Z"/>
    <path class="cls-9" d="M382.85,88.95c-.47.95-1.16,1.78-2,2.42-.86.73-1.66,1.52-2.41,2.36-.83,1.08-1.43,2.32-1.77,3.64-.35,1.38-.84,2.72-1.48,4-.55,1.02-1.22,1.97-2,2.82-.53.57-1.11,1.09-1.73,1.55-.22.18-.46.33-.73.43-.06-.07.94-.76,2.19-2.23.72-.86,1.34-1.79,1.85-2.79.6-1.24,1.07-2.54,1.42-3.88.35-1.39,1-2.68,1.89-3.8.78-.84,1.63-1.62,2.54-2.33.79-.68,1.53-1.42,2.23-2.19Z"/>
    <path class="cls-9" d="M380.42,106.71c-.67.46-1.42.79-2.2,1-.85.29-1.73.47-2.62.54-.53.04-1.06.04-1.59,0-.6-.04-1.19-.24-1.69-.58-.53-.38-.84-.99-.84-1.64.11-.58.42-1.09.88-1.46.36-.35.81-.6,1.3-.73.44-.12.84-.21,1.21-.28.78-.24,1.6-.33,2.42-.28,0,.06-.9.24-2.34.63l-1.16.34c-.42.13-.8.36-1.1.67-.35.3-.59.7-.7,1.14,0,.48.24.92.64,1.19.9.47,1.93.66,2.94.54.86-.05,1.71-.19,2.54-.42,1.43-.37,2.28-.74,2.31-.66Z"/>
    <path class="cls-9" d="M381.73,102.88c-.52.29-1.1.47-1.7.51-.64.11-1.28.16-1.93.14-.86.06-1.7-.26-2.3-.88-.52-.74-.56-1.71-.1-2.48.34-.59.85-1.07,1.47-1.36.52-.3,1.11-.47,1.72-.49,0,.08-.63.28-1.54.81-.52.3-.94.73-1.22,1.26-.34.6-.32,1.35.07,1.93.51.5,1.21.76,1.92.73.62.04,1.25.04,1.87,0,.57-.1,1.16-.16,1.74-.17Z"/>
    <path class="cls-9" d="M378.47,110.38c-.44.22-.91.36-1.39.43-1.14.32-2.32.46-3.5.42-.41.02-.8-.15-1.07-.45-.22-.29-.33-.64-.31-1,.05-.59.35-1.14.84-1.48.88-.53,1.52-.2,1.48-.16-.45.05-.88.21-1.26.46-.35.3-.56.74-.58,1.2,0,.25.07.49.22.69.18.19.45.29.71.26,1.14.03,2.28-.06,3.4-.26.48-.13.97-.17,1.46-.11Z"/>
    <path class="cls-10" d="M230.73,166.02c-.29.22-.6.4-.94.54-.89.41-1.81.75-2.75,1-3.14.92-6.46,1.08-9.68.48-3.22-.61-6.24-1.98-8.81-4-.77-.6-1.49-1.27-2.15-2-.26-.26-.48-.55-.66-.86.08-.07,1.06,1.12,3,2.58,2.58,1.9,5.55,3.2,8.69,3.81,3.14.59,6.38.48,9.48-.31,2.39-.61,3.76-1.31,3.82-1.24Z"/>
    <path class="cls-4" d="M208,129.04s31.64-10.12,32.82-10.44,29.09,2.17,29.09,2.17c0,0-1.18,18.49,5.82,24.48h0l-20.53,7.4-6.47,17.81s-3.61,7.26-.74,14.07c5.43,12.89,14.85,33.23,13.46,35.56-.15.24-1-7-14.39-10.84-4.06-1.15-11.43-1.17-18.1.18-28.7,5.78-39.78,19-43,21.31,0,0,5.91-46.37,3.12-53.61s-5.75-12-3.45-18.41,5.75-16.77,5.75-16.77l-11.31-12.8,15.8-26.27,14.46,12-2.33,14.16Z"/>
    <path class="cls-8" d="M218.52,172c-.36.05-.73.05-1.09,0-.99-.04-1.98-.17-2.95-.38-3.23-.7-6.21-2.27-8.62-4.53-2.4-2.28-4.09-5.2-4.87-8.42-.23-.98-.36-1.99-.4-3-.03-.36-.01-.72.06-1.08.16,1.33.39,2.64.7,3.94.86,3.1,2.54,5.92,4.87,8.14,2.36,2.19,5.23,3.76,8.35,4.54,2.4.74,3.95.74,3.95.79Z"/>
    <path class="cls-8" d="M188.81,132.8c1.23,1.57,2,3.46,2.2,5.45.37,1.96.19,3.99-.52,5.86.19-1.92.19-3.86,0-5.78-.37-1.9-.93-3.75-1.68-5.53Z"/>
    <path class="cls-8" d="M255.96,138.28c0,.08-.65.53-1.61,1.46-1.24,1.2-2.24,2.63-2.95,4.21-.7,1.58-1.08,3.28-1.12,5,0,1.33.13,2.15,0,2.17-.28-.69-.42-1.43-.41-2.17-.07-1.8.27-3.59,1-5.23.72-1.65,1.81-3.11,3.17-4.28.56-.51,1.21-.91,1.92-1.16Z"/>
    <g class="cls-3">
      <path d="M213.82,171.31c-3.05-.61-5.83-2.18-7.92-4.48-1.42-1.36-2.58-2.97-3.43-4.75-.72,3.14,3.65,8.71,7.91,10.76,4.38,2.04,9.46,1.9,13.72-.38-3.46-.04-6.9-.42-10.28-1.15Z"/>
    </g>
    <path class="cls-11" d="M252.57,194.29c0,.06-.83-.57-2.47-1.31-2.33-1.01-4.85-1.53-7.39-1.54-3.78-.02-7.53.74-11,2.23-4.21,1.9-8.23,4.2-12,6.88-6.94,4.81-14.35,8.92-22.11,12.27-3,1.27-5.44,2.18-7.15,2.77-.85.31-1.52.52-2,.66-.23.09-.46.15-.7.19.21-.12.44-.22.67-.29l1.94-.75c1.69-.65,4.12-1.6,7.07-2.92,7.7-3.43,15.07-7.56,22-12.36,3.79-2.7,7.85-5.01,12.11-6.9,3.54-1.49,7.35-2.23,11.19-2.15,2.58.04,5.13.63,7.47,1.73.85.4,1.64.9,2.37,1.49Z"/>
    <path class="cls-11" d="M246.85,177.71c-.6-.53-1.24-1.03-1.9-1.48-1.87-1.14-3.99-1.81-6.17-1.94-3.25-.15-6.48.44-9.46,1.74-3.66,1.59-7.24,3.37-10.71,5.34-3.51,1.95-7.12,3.69-10.83,5.22-3.05,1.22-6.24,2.08-9.5,2.54-2.19.31-4.42.34-6.62.11-.6-.07-1.19-.16-1.78-.29-.21-.03-.41-.08-.61-.16,0-.05.86.12,2.41.25,2.19.15,4.38.06,6.55-.27,3.21-.51,6.36-1.39,9.37-2.62,3.68-1.54,7.27-3.28,10.76-5.2,3.49-1.97,7.09-3.75,10.78-5.33,3.05-1.3,6.36-1.87,9.67-1.66,2.23.16,4.39.9,6.25,2.14.69.43,1.29.97,1.79,1.61Z"/>
    <path class="cls-11" d="M204.61,165.11s-.21.21-.64.52c-.26.19-.53.37-.82.52-.36.22-.74.42-1.13.6-1.01.47-2.07.85-3.15,1.11-1.33.32-2.69.49-4.06.52-1.37,0-2.74-.15-4.08-.43-1.09-.23-2.16-.56-3.18-1-.39-.16-.78-.35-1.15-.56-.29-.14-.57-.31-.83-.5-.44-.29-.67-.47-.65-.5s1,.55,2.77,1.22c1.02.38,2.06.68,3.13.89,1.32.24,2.66.36,4,.35,1.33-.03,2.65-.19,3.95-.47,1.06-.24,2.1-.58,3.11-1,1.71-.69,2.67-1.35,2.73-1.27Z"/>
    <path class="cls-11" d="M251.62,162.6c-.11.13-.25.24-.39.34-.4.3-.82.56-1.26.79-1.63.85-3.41,1.36-5.24,1.51-2.71.21-5.43-.04-8.05-.74-3-.72-6.11-1.89-9.46-2.84-5.74-1.6-11.76-1.98-17.66-1.14-1.79.25-3.56.62-5.31,1.09-1.23.33-1.91.54-1.92.5s.15-.09.47-.21.78-.3,1.4-.48c1.73-.55,3.5-.97,5.3-1.26,5.96-.97,12.05-.62,17.86,1,3.38,1,6.5,2.14,9.43,2.87,2.57.72,5.25,1,7.91.84,1.79-.12,3.55-.56,5.18-1.32,1.15-.55,1.71-1,1.74-.95Z"/>
    <path class="cls-11" d="M250.79,147.59c-.21.06-.42.09-.64.1-.42,0-1,.12-1.85.18-2.27.06-4.55-.11-6.79-.49-2.84-.46-6.16-1.3-9.82-2.29-3.92-1.16-7.94-2-12-2.5-1.07-.09-2.14-.12-3.21-.1-.53,0-1.05,0-1.57.05l-1.53.18c-1.95.28-3.86.76-5.71,1.43-3.56,1.26-6.67,2.71-9.4,3.63-2.14.78-4.37,1.28-6.64,1.46-.62.06-1.23.06-1.85,0-.22,0-.44-.01-.65-.06.22-.02.43-.02.65,0,.61,0,1.22-.03,1.83-.11,2.24-.26,4.44-.8,6.54-1.61,2.69-.95,5.77-2.43,9.36-3.73,1.87-.7,3.81-1.2,5.79-1.49l1.57-.19h1.6c1.09-.02,2.18.01,3.26.1,4.1.5,8.15,1.36,12.1,2.55,3.65,1,6.94,1.9,9.76,2.4,2.22.41,4.47.63,6.72.64l1.84-.07c.21-.05.42-.08.64-.08Z"/>
    <path class="cls-11" d="M260.73,120.76c.09.05-.93,1.51-1.89,4.16-1.26,3.46-1.6,7.18-1,10.81.65,3.62,2.21,7.01,4.52,9.87,1.78,2.19,3.21,3.25,3.14,3.33-.36-.2-.7-.44-1-.72-.87-.72-1.68-1.52-2.41-2.38-2.45-2.85-4.09-6.3-4.76-10-.62-3.7-.23-7.5,1.14-11,.41-1.04.92-2.05,1.51-3,.21-.38.46-.74.75-1.07Z"/>
    <path class="cls-11" d="M207.98,123.95c-.28.12-.58.18-.88.2-.82.14-1.64.23-2.47.27-1.24.08-2.48-.02-3.69-.29-1.52-.35-2.91-1.13-4-2.25-1.16-1.14-2-2.38-2.93-3.41-.77-.92-1.68-1.71-2.7-2.34-.96-.55-2.03-.86-3.13-.92.29-.1.6-.14.91-.1.84.05,1.66.29,2.4.7,1.09.61,2.07,1.4,2.88,2.35.93,1,1.82,2.26,2.93,3.35,1.01,1.05,2.3,1.79,3.71,2.16,1.17.28,2.36.41,3.56.38,2.16-.1,3.41-.23,3.41-.1Z"/>
    <path class="cls-8" d="M205.97,428.47c-.14,0-.26-10.48-.26-23.41s.12-23.41.26-23.41.26,10.48.26,23.41-.11,23.41-.26,23.41Z"/>
    <path class="cls-8" d="M210.4,416.44c-.15,0-.26-10.48-.26-23.41s.11-23.41.26-23.41.26,10.48.26,23.41-.12,23.41-.26,23.41Z"/>
  </g>
  <g id="freepik--Floor--inject-171">
    <path class="cls-8" d="M417.05,444.08c0,.14-89.7.26-200.31.26s-200.33-.12-200.33-.26,89.68-.26,200.33-.26,200.31.13,200.31.26Z"/>
  </g>
</svg>
