<?xml version="1.0" encoding="UTF-8"?>
<svg id="Layer_1" data-name="Layer 1" xmlns="http://www.w3.org/2000/svg" viewBox="0 0 475.98 462.55">
  <defs>
    <style>
      .cls-1 {
        fill: #e0e0e0;
      }

      .cls-2 {
        fill: #ae7461;
      }

      .cls-3 {
        fill: #f0c808;
      }

      .cls-4 {
        fill: #2c6f00;
      }

      .cls-5 {
        fill: #ebebeb;
      }

      .cls-6 {
        fill: #263238;
      }

      .cls-7 {
        fill: #6f4439;
      }

      .cls-8 {
        fill: #21bdc8;
      }

      .cls-9 {
        fill: #fff;
      }

      .cls-10 {
        opacity: .2;
      }

      .cls-11 {
        opacity: .3;
      }

      .cls-12 {
        fill: #f5f5f5;
      }

      .cls-13 {
        fill: #455a64;
      }
    </style>
  </defs>
  <g id="freepik--background-complete--inject-275">
    <path class="cls-12" d="M305.81,231.97l-120.35-1.12-36.46-.18h-12.5c-.29-.01-.59,0-.88.05.29.03.59.05.88.05l2.58.06,9.91.12,36.48.2,120.36.07c47,0,89.51.06,120.31.28,15.39.11,27.85.25,36.47.41,4.3.08,7.65.16,9.91.25,1.16-.02,2.32.07,3.46.25-1.14.19-2.3.26-3.46.22-2.27.07-5.61.12-9.92.16-8.61.07-21.07.09-36.47,0-30.81.02-73.34-.35-120.32-.82Z"/>
    <path class="cls-12" d="M304.88,242.28l-118.71-19.3-36-5.68-9.8-1.47-2.55-.35c-.29-.05-.58-.08-.88-.09.28.09.57.16.86.19l2.54.45,9.77,1.62,36,5.7,118.89,18.25c46.41,7.08,88.42,13.56,118.81,18.43,15.19,2.43,27.48,4.46,36,5.92,4.24.73,7.53,1.32,9.75,1.75,1.15.15,2.28.41,3.38.77-1.16.02-2.32-.09-3.46-.3-2.25-.28-5.56-.73-9.82-1.34-8.52-1.23-20.83-3.09-36-5.46-30.5-4.74-72.46-11.53-118.78-19.09Z"/>
    <path class="cls-12" d="M302.29,252.28l-114.1-37.2-34.63-11.11-9.45-2.95-2.46-.74c-.28-.1-.56-.17-.85-.22.26.13.54.24.82.32l2.43.83,9.39,3.1,34.62,11.14,114.45,36.21c44.68,14.09,85.12,26.92,114.34,36.38,14.61,4.73,26.42,8.61,34.55,11.35,4.07,1.37,7.23,2.46,9.35,3.22,1.11.32,2.19.75,3.21,1.29-1.14-.17-2.27-.45-3.36-.83-2.18-.62-5.38-1.57-9.49-2.83-8.21-2.51-20.07-6.23-34.7-10.9-29.26-9.33-69.6-22.46-114.12-37.06Z"/>
    <path class="cls-12" d="M298.11,261.82l-106.65-54.21-32.41-16.27-8.84-4.36-2.31-1.11c-.26-.14-.53-.25-.81-.35.24.17.49.32.76.44l2.26,1.2,8.78,4.49,32.39,16.3,107.16,53.26c41.84,20.76,79.69,39.61,107,53.42,13.66,6.91,24.69,12.54,32.28,16.49,3.8,2,6.74,3.53,8.72,4.61,1.06.49,2.06,1.08,3,1.76-1.1-.35-2.16-.79-3.18-1.33-2.05-.95-5.05-2.38-8.91-4.25-7.7-3.74-18.81-9.23-32.5-16.08-27.42-13.69-65.13-32.82-106.74-54.01Z"/>
    <path class="cls-12" d="M292.45,270.58l-96.62-69.75-29.39-21-8-5.65-2.11-1.45c-.24-.17-.48-.32-.74-.46.21.2.43.39.67.55l2.05,1.52,7.95,5.77,29.37,21,97.27,68.89c38,26.86,72.35,51.23,97.11,69,12.39,8.9,22.38,16.14,29.24,21.19,3.43,2.53,6.09,4.51,7.87,5.88.95.64,1.83,1.38,2.64,2.19-1.03-.51-2.02-1.11-2.94-1.8-1.87-1.25-4.6-3.12-8.11-5.55-7-4.86-17.1-12-29.52-20.82-24.88-17.64-59.05-42.26-96.74-69.51Z"/>
    <path class="cls-12" d="M285.46,278.36c-32.92-32.6-62.7-62.11-84.29-83.5l-25.67-25.18-7-6.8-1.85-1.75c-.2-.21-.42-.4-.66-.57.18.23.37.45.58.65l1.78,1.81,6.92,6.9,25.66,25.2,85.07,82.76c33.23,32.27,63.27,61.54,84.88,82.86,10.82,10.66,19.52,19.32,25.5,25.36,3,3,5.28,5.37,6.82,7,.83.78,1.59,1.64,2.26,2.56-.94-.66-1.81-1.4-2.61-2.22-1.65-1.52-4.05-3.78-7.12-6.71-6.15-5.87-15-14.42-25.83-25-21.76-21.26-51.57-50.75-84.44-83.37Z"/>
    <path class="cls-12" d="M277.3,285l-69.89-95.23c-9-12.12-16.28-21.94-21.33-28.76l-5.86-7.73-1.55-2c-.17-.23-.35-.45-.55-.66.13.25.29.5.47.72.34.49.83,1.18,1.46,2.06l5.74,7.87,21.3,28.77,70.79,94.61c27.66,36.9,52.65,70.36,70.59,94.68,9,12.16,16.19,22,21.12,28.9,2.47,3.43,4.37,6.11,5.63,7.94.7.89,1.31,1.86,1.82,2.87-.82-.79-1.57-1.66-2.22-2.59-1.39-1.74-3.4-4.34-6-7.7-5.13-6.72-12.48-16.5-21.51-28.63-18.02-24.3-42.75-57.93-70.01-95.12Z"/>
    <path class="cls-12" d="M268.19,290.28l-53.72-104.64-16.47-31.65c-2-3.7-3.48-6.58-4.54-8.57-.51-.95-.91-1.69-1.2-2.21-.13-.26-.28-.51-.45-.74.1.27.22.53.35.78l1.12,2.26c1,2,2.5,4.91,4.39,8.64l16.42,31.66,54.7,104.2c21.41,40.65,40.71,77.49,54.52,104.27,6.91,13.38,12.45,24.23,16.21,31.76,1.89,3.76,3.33,6.69,4.28,8.7.54.99.99,2.03,1.34,3.1-.69-.9-1.29-1.87-1.78-2.89-1.09-1.93-2.66-4.8-4.66-8.51-4-7.42-9.67-18.2-16.64-31.54-13.93-26.73-32.94-63.71-53.87-104.62Z"/>
    <path class="cls-12" d="M258.32,294.18c-14.1-43.57-26.85-83-36.1-111.59-4.68-14.24-8.48-25.76-11.11-33.76-1.34-4-2.38-7-3.09-9.16l-.84-2.37c-.08-.28-.18-.55-.32-.8.06.28.13.56.22.83.17.57.42,1.37.74,2.4l2.94,9.21c2.63,8,6.41,19.53,11.08,33.77l37.16,111.26c14.53,43.42,27.63,82.75,36.94,111.28,4.65,14.27,8.36,25.83,10.87,33.84,1.25,4,2.2,7.12,2.81,9.24.38,1.06.66,2.16.82,3.28-.53-1-.97-2.05-1.29-3.13-.77-2.08-1.85-5.15-3.22-9.12-2.74-7.94-6.61-19.45-11.33-33.69-9.44-28.49-22.23-67.92-36.28-111.49Z"/>
    <path class="cls-12" d="M248,296.49c-6.87-45.19-13.08-86.08-17.59-115.72-2.32-14.78-4.2-26.74-5.5-35.05-.68-4.11-1.21-7.31-1.57-9.51-.19-1.07-.34-1.89-.44-2.47-.04-.28-.1-.57-.19-.84,0,.29.03.57.08.85.08.59.19,1.42.34,2.49.33,2.21.8,5.42,1.42,9.54,1.3,8.3,3.17,20.27,5.48,35,4.78,29.6,11.38,70.44,18.67,115.56,7.29,45.12,13.89,85.95,18.46,115.55,2.29,14.79,4.08,26.78,5.26,35.07.59,4.15,1,7.37,1.29,9.56.2,1.11.29,2.23.27,3.36-.36-1.07-.61-2.16-.76-3.28-.42-2.17-1-5.37-1.71-9.5-1.42-8.26-3.38-20.22-5.73-35-4.78-29.55-11-70.44-17.78-115.61Z"/>
    <path class="cls-12" d="M237.33,297.19c.43-45.68.81-87,1.09-117,.06-14.95.11-27.05.15-35.45v-12.15c.02-.28.02-.57,0-.85-.05.28-.07.57-.06.85,0,.6,0,1.43-.06,2.51,0,2.24-.07,5.47-.12,9.64,0,8.4-.1,20.5-.17,35.44v117c0,45.7,0,87-.21,116.93-.1,15-.24,27.08-.4,35.44-.08,4.19-.16,7.44-.25,9.64.03,1.13-.06,2.25-.26,3.36-.18-1.11-.26-2.24-.23-3.36-.06-2.2-.12-5.45-.16-9.64-.08-8.37-.11-20.48-.07-35.45-.05-29.92.3-71.26.75-116.91Z"/>
    <path class="cls-12" d="M226.73,296.28c7.72-45.05,14.71-85.83,19.78-115.38,2.45-14.76,4.44-26.7,5.82-35,.65-4.11,1.15-7.31,1.5-9.52.16-1.07.28-1.89.37-2.48.05-.28.08-.57.08-.86-.08.28-.14.56-.19.84l-.46,2.46c-.39,2.21-.95,5.4-1.66,9.51-1.39,8.29-3.38,20.23-5.85,35-4.79,29.6-11.39,70.43-18.69,115.55s-13.9,85.95-18.89,115.48c-2.5,14.77-4.57,26.71-6.07,35-.75,4.12-1.35,7.32-1.79,9.48-.16,1.12-.42,2.22-.8,3.28,0-1.13.1-2.25.31-3.36.28-2.19.75-5.4,1.38-9.55,1.25-8.28,3.16-20.25,5.59-35,4.84-29.63,11.84-70.45,19.57-115.45Z"/>
    <path class="cls-12" d="M216.4,293.78l38.23-110.92c4.82-14.2,8.71-25.69,11.42-33.67l3-9.18.76-2.39c.1-.27.18-.55.22-.83-.13.26-.23.53-.32.8-.21.56-.49,1.34-.86,2.36l-3.18,9.13-11.44,33.66c-9.53,28.5-22.67,67.81-37.18,111.25s-27.65,82.75-37.37,111.15c-4.85,14.2-8.84,25.68-11.65,33.59-1.41,4-2.53,7-3.31,9.09-.34,1.08-.78,2.12-1.32,3.11.17-1.11.45-2.21.84-3.26.64-2.12,1.62-5.23,2.91-9.22,2.58-8,6.4-19.52,11.2-33.74,9.65-28.43,23.09-67.66,38.05-110.93Z"/>
    <path class="cls-12" d="M206.61,289.72c21.76-40.49,41.45-77.13,55.71-103.69,7.06-13.28,12.76-24,16.73-31.5,1.93-3.72,3.44-6.61,4.48-8.6l1.14-2.25c.14-.25.26-.51.35-.78-.17.23-.32.48-.45.73l-1.23,2.21-4.61,8.53-16.73,31.49-54.76,104.18c-21.33,40.67-40.71,77.48-54.9,104-7.09,13.28-12.88,24-16.94,31.39-2,3.69-3.63,6.55-4.74,8.47-.51,1.01-1.11,1.98-1.8,2.88.35-1.08.8-2.12,1.36-3.1,1-2,2.45-4.91,4.37-8.65,3.84-7.5,9.48-18.3,16.52-31.61,14.07-26.58,33.73-63.24,55.5-103.7Z"/>
    <path class="cls-12" d="M197.6,284.28l71.71-94,21.58-28.57,5.81-7.81,1.49-2.05c.18-.23.34-.47.48-.72-.21.2-.4.42-.57.66l-1.57,2-5.93,7.72-21.6,28.54-70.82,94.58c-27.62,36.94-52.67,70.35-71,94.43-9.15,12-16.59,21.75-21.79,28.43-2.6,3.34-4.64,5.91-6,7.65-.67.92-1.42,1.78-2.25,2.56.52-1.01,1.14-1.96,1.85-2.85,1.28-1.82,3.2-4.48,5.7-7.89,5-6.81,12.32-16.62,21.41-28.7,18.17-24.16,43.49-57.39,71.5-93.98Z"/>
    <path class="cls-12" d="M189.59,277.43l85.86-82,25.9-25,7-6.84,1.79-1.8c.21-.2.41-.41.59-.64-.23.17-.46.36-.66.57l-1.87,1.73-7.1,6.73-25.91,24.95-85.09,82.72c-33.2,32.43-63.3,61.6-85.22,82.62-11,10.52-19.87,19-26.07,24.79-3.1,2.91-5.53,5.15-7.19,6.64-.81.81-1.69,1.55-2.63,2.2.67-.92,1.44-1.77,2.28-2.54,1.56-1.6,3.88-3.94,6.9-6.93,6-6,14.82-14.56,25.73-25.11,21.82-21.12,52.15-50.12,85.69-82.09Z"/>
    <path class="cls-12" d="M182.75,269.51l97.94-68,29.58-20.75,8-5.69,2.06-1.51c.24-.16.47-.34.68-.54-.26.13-.51.28-.74.46l-2.13,1.42-8.08,5.58-29.59,20.73c-24.93,17.63-59.31,42-97.3,68.85s-72.36,51.22-97.38,68.68c-12.51,8.73-22.67,15.74-29.72,20.54-3.53,2.4-6.29,4.25-8.17,5.48-.91.68-1.88,1.27-2.9,1.77.82-.8,1.71-1.53,2.66-2.16,1.8-1.35,4.47-3.31,7.92-5.81,6.92-5,17-12.14,29.45-20.92,24.88-17.56,59.48-41.62,97.72-68.13Z"/>
    <path class="cls-12" d="M177.27,260.65l107.73-52.27,32.55-16,8.81-4.42,2.28-1.17c.26-.13.52-.27.76-.43-.28.08-.55.19-.81.33l-2.32,1.09-8.89,4.28-32.56,16-107.23,53.22c-41.81,20.81-79.7,39.59-107.22,53-13.76,6.72-24.92,12.11-32.66,15.77-3.88,1.84-6.89,3.24-9,4.17-1.03.53-2.1.96-3.2,1.3.94-.67,1.95-1.25,3-1.73,2-1.06,4.94-2.59,8.75-4.53,7.63-3.88,18.72-9.42,32.45-16.19,27.48-13.54,65.52-32.05,107.56-52.42Z"/>
    <path class="cls-12" d="M173.29,251.07l114.8-35.16,34.73-10.82,9.42-3,2.44-.81c.28-.08.56-.18.82-.31-.29.04-.57.11-.85.21l-2.47.72-9.47,2.86-34.71,10.79-114.49,36.18c-44.66,14.15-85.12,26.91-114.47,36-14.68,4.55-26.57,8.12-34.81,10.55-4.12,1.22-7.33,2.15-9.51,2.75-1.1.37-2.22.63-3.37.79,1.03-.52,2.11-.94,3.22-1.25,2.13-.75,5.29-1.81,9.38-3.14,8.16-2.67,20-6.44,34.66-11,29.31-9.22,69.87-21.68,114.68-35.36Z"/>
    <path class="cls-12" d="M170.92,240.99l119.08-17.16,36-5.38,9.79-1.53,2.55-.43c.29-.04.58-.1.86-.18-.3,0-.59.03-.88.08l-2.56.33-9.76,1.38-36.06,5.35-118.94,18.22c-46.39,7.15-88.42,13.56-118.87,18-15.23,2.23-27.56,4-36.09,5.13-4.27.57-7.58,1-9.83,1.25-1.14.2-2.3.29-3.46.28,1.1-.36,2.23-.61,3.38-.75,2.23-.41,5.52-1,9.77-1.66,8.5-1.39,20.8-3.3,36-5.59,30.47-4.58,72.54-10.68,119.02-17.34Z"/>
    <path class="cls-12" d="M170.19,230.67l120.35,1,36.48.13h12.49c.29.01.59,0,.88-.05-.29-.02-.59-.02-.88,0l-2.58-.06-9.91-.11-36.48-.3-120.36.07c-47,.07-89.51.06-120.31-.13-15.39-.09-27.85-.21-36.47-.36-4.3-.08-7.65-.16-9.91-.24-1.17.02-2.34-.06-3.49-.24,1.14-.19,2.3-.27,3.46-.23,2.27-.06,5.61-.12,9.92-.16,8.61-.09,21.07-.12,36.47-.09,30.83.05,73.36.38,120.34.77Z"/>
    <path class="cls-12" d="M171.11,220.37l118.74,19.15,36,5.63,9.8,1.46,2.55.35c.29.05.58.08.88.08-.28-.08-.57-.14-.86-.19l-2.54-.44-9.78-1.61-36-5.66-118.9-18.09c-46.42-7-88.44-13.46-118.83-18.29-15.2-2.41-27.49-4.42-36-5.87-4.24-.73-7.53-1.31-9.76-1.74-1.15-.15-2.27-.4-3.37-.77,1.16,0,2.31.09,3.45.3,2.25.27,5.56.72,9.82,1.33,8.53,1.21,20.84,3.06,36.05,5.41,30.44,4.7,72.41,11.44,118.75,18.95Z"/>
    <path class="cls-12" d="M173.68,210.33l114.15,37.09,34.65,11.07,9.45,2.94,2.46.74c.28.1.56.17.85.21-.26-.13-.53-.23-.81-.32l-2.43-.78-9.39-3.08-34.61-11.15-114.5-36.06c-44.7-14.05-85.15-26.82-114.38-36.25-14.62-4.71-26.43-8.57-34.57-11.3-4.07-1.37-7.23-2.45-9.36-3.21-1.1-.33-2.18-.76-3.2-1.29,1.14.17,2.27.45,3.36.82,2.18.62,5.38,1.57,9.49,2.82,8.22,2.5,20.08,6.21,34.72,10.86,29.23,9.3,69.58,22.37,114.12,36.89Z"/>
    <path class="cls-12" d="M177.85,200.81l106.72,54.08,32.43,16.24,8.85,4.35,2.31,1.1c.26.13.53.25.81.35-.24-.17-.49-.32-.76-.44l-2.27-1.21-8.77-4.49-32.42-16.25-107.22-53.12c-41.87-20.7-79.75-39.51-107.09-53.29-13.67-6.85-24.71-12.5-32.31-16.45-3.8-2-6.74-3.52-8.72-4.59-1.06-.49-2.06-1.07-3-1.76,1.1.35,2.17.79,3.19,1.33,2,.94,5,2.37,8.91,4.24,7.71,3.73,18.82,9.21,32.52,16,27.44,13.69,65.18,32.78,106.82,53.91Z"/>
    <path class="cls-12" d="M183.5,192.05l96.71,69.63,29.42,21,8,5.64,2.11,1.45c.24.17.48.32.74.46-.21-.2-.44-.38-.68-.55l-2-1.52-8-5.76-29.4-21-97.36-68.77c-38-26.81-72.41-51.15-97.2-68.91-12.4-8.87-22.4-16.1-29.27-21.15-3.43-2.53-6.09-4.5-7.87-5.87-.95-.64-1.83-1.37-2.64-2.18,1.04.49,2.02,1.08,2.94,1.76,1.88,1.24,4.61,3.11,8.12,5.53,7,4.86,17.12,12,29.55,20.79,24.9,17.68,59.1,42.25,96.83,69.45Z"/>
    <path class="cls-12" d="M190.48,184.28l84.4,83.4,25.7,25.15,7,6.79,1.85,1.74c.2.21.43.4.66.57-.18-.23-.37-.44-.58-.64l-1.78-1.81-6.93-6.9-25.69-25.17-85.11-82.67c-33.27-32.23-63.35-61.47-85-82.76-10.83-10.64-19.54-19.3-25.52-25.32-3-3-5.3-5.37-6.84-7-.83-.77-1.59-1.63-2.26-2.55.94.66,1.82,1.4,2.62,2.23,1.65,1.51,4.06,3.77,7.13,6.7,6.16,5.85,15,14.39,25.86,25,21.73,21.24,51.58,50.64,84.49,83.24Z"/>
    <path class="cls-12" d="M198.63,177.61l70,95.14,21.37,28.73,5.87,7.77,1.55,2c.17.24.35.46.56.66-.14-.25-.3-.49-.47-.72l-1.47-2.06-5.73-7.85-21.31-28.75-70.91-94.52c-27.7-36.87-52.74-70.29-70.71-94.6-9-12.15-16.22-22-21.16-28.87-2.47-3.43-4.37-6.1-5.64-7.93-.7-.89-1.31-1.86-1.82-2.87.82.79,1.56,1.66,2.22,2.59,1.39,1.74,3.41,4.33,6,7.69,5.14,6.72,12.51,16.49,21.55,28.6,18.02,24.23,42.8,57.84,70.1,94.99Z"/>
    <path class="cls-12" d="M207.74,172.28l53.85,104.61c7,13.34,12.58,24.13,16.48,31.63,2,3.7,3.49,6.58,4.55,8.56l1.21,2.22c.28.49.43.74.44.74-.09-.27-.2-.54-.34-.79l-1.12-2.26c-1-2-2.51-4.9-4.41-8.63l-16.46-31.64-54.83-104.13c-21.44-40.62-40.79-77.44-54.63-104.18-6.93-13.36-12.48-24.21-16.26-31.73-1.89-3.76-3.33-6.69-4.29-8.69-.54-.99-.99-2.03-1.34-3.11.69.9,1.29,1.87,1.79,2.89,1.09,1.93,2.66,4.8,4.66,8.51,4,7.41,9.7,18.18,16.68,31.52,13.97,26.67,33.03,63.63,54.02,104.48Z"/>
    <path class="cls-12" d="M217.6,168.41l36.24,111.54c4.71,14.23,8.52,25.75,11.16,33.75l3.1,9.16c.37,1,.64,1.8.84,2.37.08.27.19.54.32.79-.04-.28-.11-.56-.21-.83-.18-.57-.43-1.36-.74-2.4-.69-2.13-1.68-5.22-3-9.2-2.64-8-6.44-19.52-11.13-33.76-9.55-28.48-22.73-67.78-37.3-111.21s-27.7-82.72-37.04-111.24c-4.68-14.26-8.4-25.82-10.92-33.82-1.25-4-2.21-7.12-2.82-9.24-.39-1.06-.66-2.16-.82-3.28.53,1,.96,2.05,1.29,3.13.77,2.11,1.86,5.11,3.23,9.11,2.75,7.94,6.64,19.45,11.37,33.69,9.48,28.47,22.32,67.89,36.43,111.44Z"/>
    <path class="cls-12" d="M228,166.09c6.92,45.18,13.19,86.06,17.73,115.7,2.34,14.77,4.24,26.73,5.56,35,.68,4.11,1.21,7.31,1.58,9.52.19,1.06.34,1.88.44,2.47.04.28.1.56.19.83,0-.29-.03-.57-.08-.85-.08-.59-.2-1.41-.34-2.48-.34-2.22-.82-5.42-1.43-9.54l-5.53-35-18.85-115.55c-7.39-45.09-14-85.93-18.62-115.52-2.3-14.79-4.11-26.78-5.3-35.07-.59-4.15-1-7.37-1.3-9.56-.2-1.11-.29-2.23-.28-3.36.37,1.07.63,2.17.77,3.29.42,2.17,1,5.37,1.72,9.49,1.43,8.26,3.4,20.22,5.77,35,4.75,29.58,11.05,70.47,17.97,115.63Z"/>
    <path class="cls-12" d="M238.58,165.37c-.36,45.68-.69,87-.93,117-.05,14.94-.08,27-.11,35.44v12.15c-.02.28-.02.57,0,.85.05-.28.07-.57.06-.85,0-.6,0-1.43.05-2.51,0-2.23.06-5.47.11-9.63,0-8.41.07-20.51.13-35.45,0-30-.09-71.3-.15-117s-.11-87,.06-116.93c.08-15,.21-27.07.36-35.44.07-4.19.15-7.44.24-9.64-.02-1.13.06-2.25.25-3.36.19,1.11.26,2.24.23,3.36.07,2.2.13,5.45.18,9.64.09,8.37.13,20.48.11,35.45.1,29.93-.17,71.27-.59,116.92Z"/>
    <path class="cls-12" d="M249.19,166.28c-7.67,45.07-14.6,85.85-19.63,115.41-2.43,14.76-4.4,26.71-5.77,35-.65,4.11-1.15,7.31-1.5,9.52-.15,1.07-.27,1.9-.36,2.49-.05.28-.08.56-.08.85.09-.27.15-.56.19-.84l.46-2.46c.38-2.21.94-5.4,1.65-9.51,1.37-8.29,3.35-20.24,5.8-35,4.74-29.6,11.3-70.44,18.54-115.58s13.78-86,18.74-115.5c2.47-14.77,4.53-26.71,6-35,.74-4.12,1.34-7.32,1.78-9.48.15-1.12.41-2.22.79-3.28,0,1.12-.09,2.25-.3,3.35-.29,2.19-.75,5.41-1.37,9.55-1.24,8.29-3.14,20.26-5.55,35-4.79,29.63-11.69,70.48-19.39,115.48Z"/>
    <path class="cls-12" d="M259.52,168.76c-14.87,43.33-28.33,82.54-38.09,111-4.79,14.2-8.67,25.7-11.37,33.69l-3,9.18c-.32,1-.57,1.82-.75,2.39-.1.27-.17.55-.23.83.14-.25.25-.52.33-.79.2-.57.49-1.35.85-2.37.74-2.12,1.81-5.19,3.17-9.13,2.7-8,6.59-19.48,11.4-33.68,9.48-28.51,22.57-67.84,37-111.3s27.54-82.78,37.22-111.19c4.83-14.21,8.8-25.69,11.61-33.61,1.4-4,2.51-7,3.3-9.09.34-1.08.78-2.12,1.31-3.12-.17,1.12-.45,2.21-.84,3.27-.63,2.12-1.61,5.23-2.89,9.23-2.57,8-6.38,19.52-11.15,33.75-9.54,28.46-22.97,67.64-37.87,110.94Z"/>
    <path class="cls-12" d="M269.31,172.8l-55.57,103.76-16.69,31.52-4.47,8.61-1.13,2.25c-.14.25-.26.51-.36.78.17-.23.32-.47.45-.73l1.23-2.21,4.61-8.53,16.7-31.52,54.6-104.24c21.32-40.71,40.61-77.54,54.76-104.12,7.08-13.29,12.86-24,16.91-31.41,2-3.69,3.62-6.55,4.72-8.47.5-1.02,1.11-1.98,1.81-2.88-.36,1.07-.82,2.1-1.37,3.09-1,2-2.44,4.92-4.35,8.67-3.83,7.49-9.46,18.3-16.48,31.62-14.04,26.64-33.68,63.29-55.37,103.81Z"/>
    <path class="cls-12" d="M278.33,178.28l-71.58,94-21.55,28.6-5.8,7.82-1.48,2c-.18.23-.34.47-.48.72.21-.2.39-.42.56-.66.38-.48.89-1.14,1.57-2l5.92-7.74,21.57-28.58,70.7-94.67c27.56-37,52.57-70.41,70.83-94.52,9.13-12,16.56-21.77,21.75-28.45,2.59-3.34,4.63-5.92,6-7.66.67-.92,1.42-1.78,2.24-2.57-.51,1.01-1.13,1.97-1.84,2.86-1.28,1.82-3.2,4.48-5.69,7.89-5,6.83-12.29,16.64-21.37,28.73-18.11,24.3-43.39,57.55-71.35,94.23Z"/>
    <path class="cls-12" d="M286.35,185.07l-85.75,82.08-25.87,25-7,6.85-1.79,1.8c-.21.2-.41.41-.59.64.24-.17.46-.36.66-.57l1.87-1.73,7.09-6.74c6.13-5.92,15-14.45,25.88-25l85-82.83c33.15-32.29,63.21-61.6,85.15-82.64,10.95-10.53,19.85-19,26-24.83,3.1-2.91,5.52-5.15,7.18-6.65.8-.8,1.68-1.53,2.62-2.17-.67.92-1.44,1.77-2.28,2.54-1.55,1.61-3.87,3.95-6.89,6.94-6,6-14.8,14.58-25.7,25.15-21.79,21.12-52.08,50.15-85.58,82.16Z"/>
    <path class="cls-12" d="M293.2,192.98l-97.85,68.11-29.55,20.79-8,5.7-2.06,1.51c-.24.17-.46.35-.68.54.26-.13.51-.28.74-.45l2.12-1.43,8.08-5.59,29.56-20.76,97.21-69c37.92-26.95,72.3-51.3,97.29-68.78,12.5-8.75,22.65-15.78,29.7-20.59,3.52-2.4,6.27-4.25,8.16-5.48.93-.68,1.91-1.28,2.94-1.78-.81.81-1.7,1.54-2.66,2.17-1.79,1.35-4.46,3.31-7.91,5.81-6.91,5-16.95,12.17-29.41,21-24.88,17.53-59.47,41.67-97.68,68.23Z"/>
    <path class="cls-12" d="M298.69,201.83l-107.61,52.45-32.53,16-8.81,4.42-2.27,1.18c-.27.12-.52.26-.76.43.28-.09.55-.2.81-.34l2.32-1.09,8.88-4.29,32.54-16,107.11-53.36c41.78-20.86,79.65-39.69,107.15-53.16,13.75-6.74,24.91-12.14,32.64-15.82,3.87-1.84,6.89-3.25,8.95-4.18,1.02-.53,2.09-.96,3.19-1.3-.94.68-1.94,1.26-3,1.73-2,1.07-4.94,2.6-8.75,4.54-7.63,3.9-18.7,9.44-32.42,16.24-27.41,13.58-65.43,32.13-107.44,52.55Z"/>
    <path class="cls-12" d="M302.68,211.41l-114.75,35.3-34.72,10.87-9.41,3-2.44.81c-.28.08-.56.19-.82.32.29-.06.57-.13.85-.22l2.47-.72,9.47-2.87,34.72-10.84,114.41-36.32c44.65-14.21,85.09-27,114.43-36.12,14.67-4.55,26.56-8.18,34.8-10.63,4.11-1.22,7.32-2.15,9.5-2.75,1.09-.38,2.22-.65,3.37-.8-1.03.52-2.11.94-3.22,1.26-2.13.74-5.29,1.8-9.37,3.14-8.16,2.68-20,6.47-34.65,11.08-29.32,9.24-69.84,21.75-114.64,35.49Z"/>
    <path class="cls-12" d="M305.07,221.49l-119.07,17.31-36,5.42-9.78,1.54-2.55.43c-.29.04-.58.1-.86.19.29,0,.59-.04.88-.08l2.56-.34,9.81-1.39,36-5.39,118.94-18.37c46.38-7.21,88.4-13.67,118.84-18.17,15.23-2.25,27.56-4,36.09-5.17,4.26-.58,7.58-1,9.83-1.27,1.14-.2,2.3-.29,3.46-.28-1.1.36-2.23.61-3.38.75-2.23.42-5.53,1-9.77,1.68-8.5,1.39-20.8,3.32-36,5.63-30.47,4.63-72.53,10.79-119,17.51Z"/>
    <path class="cls-5" d="M295.16,139.36l4.62,1.74-4,1.14c-1.34.38-2.4,1.4-2.83,2.72l-1.46,4.44-1.78-4.45c-.45-1.11-1.34-1.97-2.46-2.38l-4.06-1.47,4.4-1.81c1.06-.43,1.9-1.29,2.31-2.36l1.59-4.13,1.14,3.84c.37,1.25,1.31,2.26,2.53,2.72Z"/>
    <path class="cls-5" d="M110.78,309.78l4.62,1.74-4,1.13c-1.34.38-2.4,1.41-2.83,2.73l-1.45,4.44-1.79-4.45c-.44-1.11-1.34-1.97-2.46-2.38l-4-1.47,4.39-1.81c1.07-.44,1.91-1.29,2.32-2.37l1.59-4.12,1.13,3.83c.36,1.24,1.28,2.25,2.48,2.73Z"/>
    <path class="cls-5" d="M112.46,211.18l4.62,1.74-4,1.14c-1.34.38-2.4,1.4-2.84,2.72l-1.45,4.44-1.79-4.45c-.44-1.11-1.33-1.97-2.45-2.38l-4.06-1.47,4.4-1.81c1.06-.43,1.9-1.29,2.31-2.36l1.59-4.13,1.14,3.84c.37,1.25,1.31,2.26,2.53,2.72Z"/>
    <path class="cls-5" d="M400.54,432.43l4.27,1.6-3.71,1.05c-1.23.36-2.21,1.3-2.61,2.52l-1.34,4.09-1.65-4.1c-.41-1.02-1.24-1.82-2.27-2.2l-3.74-1.36,4.05-1.66c.98-.4,1.76-1.2,2.14-2.19l1.47-3.81,1.05,3.55c.34,1.16,1.21,2.09,2.34,2.51Z"/>
    <path class="cls-5" d="M122.26,65.51l4.26,1.61-3.7,1c-1.24.35-2.22,1.29-2.62,2.51l-1.34,4.1-1.64-4.11c-.41-.99-1.21-1.77-2.22-2.14l-3.75-1.36,4.06-1.67c.96-.41,1.72-1.19,2.09-2.17l1.46-3.81,1.06,3.54c.34,1.16,1.21,2.08,2.34,2.5Z"/>
    <path class="cls-5" d="M340.85,156.45l7,2.65-6.12,1.74c-2.04.57-3.66,2.13-4.32,4.15l-2.22,6.77-2.72-6.79c-.68-1.68-2.04-3-3.74-3.62l-6.19-2.25,6.7-2.76c1.62-.66,2.9-1.97,3.53-3.61l2.42-6.29,1.81,5.84c.56,1.92,1.98,3.46,3.85,4.17Z"/>
    <path class="cls-5" d="M36.29,187.73l7.05,2.65-6.12,1.74c-2.04.58-3.66,2.14-4.32,4.16l-2.22,6.77-2.68-6.77c-.68-1.68-2.04-3-3.74-3.62l-6.26-2.28,6.71-2.75c1.62-.67,2.9-1.97,3.53-3.61l2.42-6.3,1.74,5.86c.57,1.92,2.01,3.45,3.89,4.15Z"/>
    <path class="cls-5" d="M233.53,27.05l7.05,2.65-6.12,1.74c-2.04.58-3.66,2.13-4.32,4.15l-2.22,6.77-2.72-6.79c-.68-1.68-2.04-3-3.74-3.62l-6.19-2.25,6.7-2.75c1.62-.67,2.9-1.98,3.53-3.61l2.42-6.3,1.74,5.85c.57,1.92,2,3.46,3.87,4.16Z"/>
    <path class="cls-5" d="M446.9,104.62l9.61,3.61-8.34,2.37c-2.79.79-5,2.91-5.9,5.66l-3,9.22-3.73-9.2c-.92-2.3-2.77-4.09-5.1-4.93l-8.44-3.07,9.14-3.75c2.21-.91,3.95-2.69,4.81-4.92l3.31-8.58,2.36,8c.8,2.58,2.75,4.65,5.28,5.59Z"/>
    <path class="cls-5" d="M55,414.09l9.61,3.61-8.34,2.37c-2.78.79-4.99,2.91-5.89,5.66l-3,9.23-3.71-9.26c-.92-2.29-2.78-4.09-5.1-4.93l-8.44-3.07,9.14-3.75c2.21-.91,3.95-2.69,4.81-4.92l3.3-8.58,2.37,8c.78,2.6,2.72,4.68,5.25,5.64Z"/>
    <path class="cls-1" d="M394.05,322.98l-.28.16-.85.45-3.29,1.69-2.38,1.19c-.88.42-1.82.9-2.8,1.47l-6.75,3.74c-2.42,1.51-5.11,3.1-7.92,4.93l-4.29,2.95c-.73.52-1.5,1-2.23,1.56l-2.26,1.66c-6.54,4.93-12.6,10.45-18.11,16.5l-2.2,2.4c-.74.78-1.36,1.65-2,2.46l-2,2.46c-.67.79-1.3,1.61-1.89,2.46l-3.5,4.93-3,4.92c-3.42,5.73-6.33,11.76-8.69,18-.49,1.34-1,2.59-1.42,3.81s-.75,2.39-1.09,3.47-.65,2.09-.95,3-.45,1.8-.65,2.57c-.39,1.53-.69,2.72-.91,3.57-.1.38-.19.69-.25.92-.02.11-.06.22-.1.32,0-.11.02-.22.05-.33,0-.24.11-.54.2-.93.19-.86.46-2.06.81-3.6.19-.77.38-1.64.62-2.59s.58-1.95.9-3l1.05-3.49c.4-1.23.91-2.49,1.4-3.84,2.32-6.3,5.2-12.37,8.61-18.15,1-1.61,2-3.27,3.05-5l3.51-4.95c.57-.86,1.23-1.67,1.89-2.48l2-2.47c.68-.81,1.31-1.69,2.05-2.47l2.2-2.41c5.55-6.06,11.66-11.59,18.26-16.49l2.22-1.7c.74-.55,1.51-1,2.25-1.55l4.31-2.94c2.83-1.82,5.54-3.39,8-4.89l6.79-3.68c1-.56,1.94-1,2.83-1.43l2.4-1.15,3.33-1.57.87-.39c.07-.04.14-.07.21-.09Z"/>
    <path class="cls-1" d="M446.78,303.64c-.75.25-1.48.54-2.19.89-1.34.58-3.2,1.37-5.27,2.17s-4,1.46-5.37,1.93c-.76.22-1.5.49-2.22.81.79-.11,1.56-.29,2.31-.54,1.4-.41,3.33-1,5.42-1.83s3.93-1.64,5.24-2.28c.73-.31,1.43-.7,2.08-1.15Z"/>
    <path class="cls-5" d="M448,305.28c-1,.48-2.19.05-2.67-.94-.48-1-.05-2.19.94-2.67,1-.48,2.19-.05,2.67.94,0,0,0,.01,0,.02.46.99.04,2.18-.95,2.65Z"/>
    <path class="cls-1" d="M434.59,282.12c-.51.61-.97,1.25-1.39,1.92-.82,1.21-2,2.86-3.31,4.64s-2.6,3.35-3.52,4.48c-.53.58-1.02,1.21-1.45,1.87.6-.51,1.16-1.08,1.66-1.69,1-1.09,2.28-2.64,3.62-4.43s2.47-3.47,3.24-4.72c.45-.65.83-1.34,1.15-2.07Z"/>
    <path class="cls-5" d="M427.38,283.89c-1.77-4.39-6.53-6.79-11.11-5.6-3.15.93-5.57,3.49-7.26,6.3-5,8.4-4.87,19.57-11.41,26.86l2.46,7.53,18.58-16.78c2.68-2.42,5.39-4.88,7.24-8s2.74-6.92,1.5-10.31Z"/>
    <path class="cls-5" d="M441.81,309.49c3.1,3.58,3.07,8.91-.07,12.45-2.26,2.38-5.64,3.37-8.91,3.59-9.78.67-19.65-4.57-29.12-2.06l-5.58-5.61,23.4-8.92c3.37-1.28,6.79-2.58,10.39-2.82s7.44.73,9.89,3.37Z"/>
    <path class="cls-1" d="M450.3,290.97c-.72.32-1.42.69-2.09,1.11-1.27.71-3,1.69-5,2.7s-3.81,1.86-5.13,2.47c-.73.29-1.44.62-2.13,1,.77-.18,1.52-.45,2.24-.78,1.35-.54,3.21-1.36,5.2-2.37s3.74-2,5-2.81c.68-.38,1.31-.82,1.91-1.32Z"/>
    <path class="cls-5" d="M451.66,292.48c-.87.68-2.13.53-2.81-.34-.68-.87-.53-2.13.34-2.81.12-.1.26-.18.4-.25.87-.68,2.13-.53,2.81.34.68.87.53,2.13-.34,2.81-.12.1-.26.18-.4.25Z"/>
    <path class="cls-5" d="M436.57,291.02c4.25,2.1,6.28,7.02,4.75,11.51-1.16,3.07-3.89,5.29-6.82,6.76-8.75,4.41-23.77,5.57-31.53,11.55l-3.44-5.19,18.13-17.28c2.61-2.48,5.26-5,8.48-6.62s7.14-2.21,10.43-.73Z"/>
    <path class="cls-1" d="M384.29,327.77s8.71-12.34,13.38-17.49c0,0,9.11,4.62,8.28,13l-21.66,4.49Z"/>
    <path class="cls-5" d="M436.47,282.89c-.59.93-1.83,1.21-2.76.62-.93-.59-1.21-1.83-.62-2.76.59-.93,1.83-1.21,2.76-.62,0,0,.01,0,.02.01.92.6,1.19,1.82.6,2.75Z"/>
    <path class="cls-1" d="M422.61,294.57c-.32.19-.62.4-.9.65-.56.44-1.36,1.09-2.34,1.91-2,1.63-4.61,4-7.45,6.62s-5.31,5.18-7.06,7c-.88.93-1.58,1.69-2.05,2.23-.26.26-.5.55-.71.85.3-.22.57-.48.82-.75l2.13-2.13c1.8-1.81,4.31-4.28,7.14-6.94s5.45-5,7.36-6.7l2.26-2c.29-.22.56-.47.8-.74Z"/>
    <path class="cls-1" d="M414.12,311.43c-1.89.78-3.72,1.67-5.5,2.68-1.83.89-3.61,1.89-5.32,3,1.89-.77,3.73-1.66,5.5-2.68,1.84-.88,3.61-1.89,5.32-3Z"/>
    <path class="cls-1" d="M402.86,342.64c-.16,0-.32-.02-.48-.05l-1.37-.25c-.59-.11-1.31-.24-2.15-.37s-1.8-.29-2.87-.41c-2.13-.29-4.68-.48-7.51-.61s-6-.05-9.23.18-6.35.67-9.15,1.17-5.28,1.09-7.34,1.69c-1,.27-2,.57-2.78.82s-1.51.48-2.08.68l-1.31.44c-.15.05-.31.09-.47.12,0,0,.14-.09.43-.22l1.28-.53c.56-.23,1.25-.5,2.06-.76s1.73-.61,2.77-.9c2.42-.73,4.88-1.34,7.36-1.82,6.09-1.16,12.29-1.61,18.48-1.35,2.52.11,5.04.36,7.54.73,1.07.14,2,.33,2.87.49s1.56.31,2.14.46l1.35.33c.31.09.47.14.46.16Z"/>
    <path class="cls-1" d="M411.05,349.98c-.69-.88-1.57-1.58-2.58-2.06,1.28.11,2.57,0,3.81-.31,1.26-.35,2.25-1.33,2.6-2.59.18-1.46-.52-2.88-1.78-3.63-1.24-.72-2.62-1.17-4.05-1.31-7.21-1.2-14.53-1.59-21.53.5,6,5.46,12.43,11.13,20.38,12.85,1.01.35,2.12.21,3-.39.76-.86.83-2.13.15-3.06Z"/>
    <path class="cls-5" d="M46.36,292.53l-2.74,1.05c-.01,1.65-.2,3.29-.55,4.9-.41,1.27-.56,2.6-.43,3.93.16,1.34,1.03,2.49,2.28,3,1.03.24,2.12.16,3.1-.24,2.83-.86,5.51-2.12,7.98-3.74.78-.41,1.38-1.09,1.7-1.91.17-.74-.01-1.51-.48-2.1-.46-.59-1.03-1.09-1.68-1.47-2.77-1.81-5.9-2.98-9.18-3.42Z"/>
    <path class="cls-5" d="M58.33,264.22c-1.33.09-2.62.52-3.73,1.27-3.75,2.41-6.6,5.98-8.11,10.17-1.49,4.17-2.14,8.58-1.92,13l4.09,1.85c2.93-.45,5.63-1.83,7.7-3.95,2.05-2.11,3.78-4.52,5.13-7.13,1.08-1.81,1.91-3.76,2.44-5.8.53-2.05.32-4.23-.58-6.15-.94-1.93-2.87-3.18-5.02-3.26Z"/>
    <path class="cls-12" d="M33.66,262.38c-1.46.8-2.52,2.16-2.94,3.77-1.4,4.33,0,9.17,2.47,13s6.55,7.32,10.08,10.19l5.18-3.37c-.36-4.01-1.15-7.96-2.37-11.8-1.22-3.93-3-8.07-6.3-10.49-1.78-1.32-4.13-2.2-6.12-1.3Z"/>
    <path class="cls-12" d="M64.8,282.28c-.75.06-1.49.26-2.17.6-5.64,2.45-10.91,6.17-17,6.9l.74,2.72c2.78,1.25,5.67,2.22,8.63,2.92,1.81.56,3.73.63,5.57.2,1.96-.74,3.55-2.21,4.43-4.11.87-1.89,1.48-3.88,1.83-5.93.27-.77.24-1.62-.08-2.37-.44-.63-1.18-.98-1.95-.93Z"/>
    <path class="cls-12" d="M44.12,293.33c0,4.82-3.62,9.37-8,11.28-4.58,1.9-9.83.99-13.51-2.33-.84-.62-1.34-1.6-1.37-2.64.13-1.43,1.71-2.22,3.09-2.61,6-1.75,12.42-2.61,18-5.44"/>
    <path class="cls-5" d="M27.11,278.61c-1.72-.98-3.66-1.53-5.64-1.61-2.14,0-4.14,1.09-5.27,2.91-.71,1.39-.92,2.98-.6,4.51.77,3.83,3.43,7,7.07,8.43,3.48,1.46,7.47,1.49,11.33.93,2.85-.42,5.66-1.14,8.36-2.15l1.45-2.25c-5.16-4.19-10.76-7.8-16.7-10.77Z"/>
    <path class="cls-1" d="M38.75,285.5c.53.62,1.17,1.16,1.87,1.58.67.49,1.41.87,2.2,1.11,0-.07-.94-.57-2.06-1.31s-1.96-1.44-2.01-1.38Z"/>
    <path class="cls-1" d="M48.18,292.98c.31.24.64.44,1,.59.82.41,1.67.78,2.54,1.09.87.32,1.76.58,2.66.78.37.1.75.16,1.13.18-.35-.15-.72-.26-1.09-.35-.68-.19-1.61-.48-2.62-.84s-1.9-.74-2.55-1c-.34-.18-.7-.33-1.07-.45Z"/>
    <path class="cls-1" d="M59,284.63c-.52.23-1.03.48-1.52.76-1.22.62-2.47,1.17-3.76,1.64-1.28.47-2.59.86-3.92,1.18-1,.25-1.66.37-1.66.41.15.02.31.02.46,0,.3,0,.72-.1,1.24-.21,1.36-.27,2.7-.64,4-1.12,1.29-.48,2.55-1.05,3.75-1.72.46-.25.83-.48,1.07-.64.13-.08.24-.19.34-.3Z"/>
    <path class="cls-1" d="M44,294.03c-.37.73-.62,1.52-.74,2.33-.19.8-.26,1.62-.2,2.44.07,0,.18-1.08.44-2.39s.58-2.36.5-2.38Z"/>
    <path class="cls-1" d="M31.86,287.97c.41.27.84.49,1.3.66,1.08.46,2.19.83,3.33,1.11,1.14.29,2.29.49,3.46.59.48.05.97.05,1.45,0-.47-.1-.95-.17-1.43-.21-1.15-.15-2.29-.36-3.42-.64-1.13-.27-2.24-.61-3.33-1-.84-.32-1.35-.54-1.36-.51Z"/>
    <path class="cls-1" d="M39.45,276.91c0,.16.04.32.1.47.07.3.2.72.36,1.24.34,1.05.86,2.48,1.53,4,.57,1.31,1.21,2.59,1.91,3.84.27.48.5.86.66,1.12.08.14.18.27.28.39-.23-.54-.5-1.08-.79-1.59-.5-1-1.17-2.33-1.84-3.86s-1.21-2.93-1.58-4-.6-1.62-.63-1.61Z"/>
    <path class="cls-1" d="M53,278.15c-.11.11-.2.22-.29.35-.18.24-.42.59-.72,1-.59.87-1.38,2.09-2.19,3.47s-1.49,2.66-2,3.6c-.24.47-.42.86-.54,1.13-.08.13-.13.27-.16.42.32-.47.6-.96.85-1.47.51-.91,1.21-2.18,2-3.56s1.57-2.61,2.13-3.5c.34-.46.65-.94.92-1.44Z"/>
    <path class="cls-1" d="M58.07,290.87c-.5-.03-1-.03-1.5,0-1.21.03-2.41-.02-3.61-.15-1.2-.13-2.39-.34-3.57-.62-.9-.22-1.45-.38-1.46-.35s.13.08.37.17.6.21,1.05.34c2.35.67,4.79.94,7.23.78.46,0,.84-.07,1.1-.11s.4-.04.39-.06Z"/>
    <path class="cls-1" d="M49.53,300.6c-.25-.35-.51-.68-.8-1-.64-.81-1.21-1.67-1.73-2.56-.5-.89-.93-1.81-1.3-2.76-.13-.41-.29-.81-.46-1.2.04.43.15.85.3,1.26.33.99.75,1.94,1.26,2.84.51.91,1.12,1.76,1.8,2.54.27.33.59.63.93.88Z"/>
    <path class="cls-1" d="M34.66,297.28c.48-.07.95-.2,1.4-.38,1.1-.38,2.17-.85,3.2-1.4,1.03-.55,2.01-1.19,2.94-1.9.4-.29.76-.63,1.08-1-.41.25-.81.52-1.19.82-.94.68-1.92,1.3-2.94,1.86-1.02.54-2.07,1.03-3.15,1.46-.46.15-.91.33-1.34.54Z"/>
    <path class="cls-9" d="M47.09,287.46c1.79,1.03,2.4,3.32,1.37,5.11-1.03,1.79-3.32,2.4-5.11,1.37s-2.4-3.32-1.37-5.11c0-.01.01-.02.02-.03,1.04-1.77,3.31-2.36,5.09-1.34Z"/>
    <path class="cls-1" d="M46.2,274.96s0,.7.16,1.81.25,2.65.32,4.36.07,3.25.06,4.37,0,1.81,0,1.81c.05-.15.08-.32.08-.48,0-.31.07-.77.1-1.33.06-1.12.09-2.67,0-4.38s-.24-3.26-.4-4.37c-.07-.56-.15-1-.21-1.31-.01-.16-.05-.33-.11-.48Z"/>
    <path class="cls-5" d="M176.19,82.03l-3.42-.37c-.9,1.71-1.97,3.33-3.2,4.82-1.11,1.1-1.99,2.42-2.56,3.87-.56,1.49-.27,3.17.77,4.38.95.8,2.12,1.3,3.36,1.41,3.4.6,6.86.7,10.29.31,1.03-.01,2.03-.4,2.8-1.08.56-.68.79-1.58.63-2.45-.18-.87-.52-1.69-1-2.43-1.9-3.35-4.52-6.24-7.67-8.46Z"/>
    <path class="cls-5" d="M203.82,58.9c-1.44-.62-3.01-.85-4.57-.67-5.19.5-10.08,2.71-13.89,6.27-3.8,3.54-6.86,7.81-9,12.54l3.27,4.12c3.29,1.1,6.86,1.1,10.15,0,3.29-1.1,6.4-2.68,9.22-4.69,2.1-1.3,4-2.9,5.65-4.74,1.65-1.86,2.6-4.24,2.7-6.73.04-2.53-1.32-4.87-3.53-6.1Z"/>
    <path class="cls-12" d="M179.08,43.78c-1.95.05-3.79.9-5.08,2.36-3.78,3.77-5,9.54-4.36,14.84s2.92,11.14,5.06,16l7.2-.7c1.77-4.37,3.06-8.92,3.84-13.57.83-4.76,1.23-10-1-14.32-1.11-2.3-3.11-4.48-5.66-4.61Z"/>
    <path class="cls-12" d="M200.92,81.2c-.82-.35-1.7-.53-2.59-.53-7.2-.47-14.69.58-21.45-1.92l-.68,3.23c2.22,2.79,4.7,5.35,7.41,7.67,1.58,1.55,3.56,2.65,5.71,3.18,2.44.3,4.91-.38,6.85-1.89,1.92-1.5,3.63-3.25,5.09-5.2.69-.67,1.11-1.56,1.18-2.52-.12-.89-.69-1.66-1.52-2.02Z"/>
    <path class="cls-12" d="M173.42,81.67c-2.62,5-8.79,7.83-14.42,7.46-5.77-.46-10.76-4.19-12.83-9.6-.53-1.1-.53-2.39,0-3.49.91-1.42,3-1.39,4.63-1.07,7.23,1.42,14.35,3.94,21.72,4"/>
    <path class="cls-5" d="M163.56,57.21c-1.27-1.94-2.98-3.56-5-4.71-2.23-1.15-4.9-1.07-7.05.22-1.47,1.08-2.53,2.63-3,4.39-1.26,4.39-.21,9.13,2.79,12.57,2.85,3.39,7,5.56,11.33,7,3.2,1.09,6.51,1.84,9.87,2.23l2.71-1.57c-3.13-7.12-7.04-13.87-11.65-20.13Z"/>
    <path class="cls-1" d="M172,70.62c.22.94.6,1.84,1.12,2.66.43.86,1,1.64,1.69,2.32.07,0-.68-1.09-1.44-2.46s-1.28-2.55-1.37-2.52Z"/>
    <path class="cls-1" d="M177.84,83.48c.19.41.43.79.72,1.14.64.87,1.33,1.71,2.07,2.5.74.79,1.52,1.53,2.35,2.23.33.31.69.58,1.09.79-.29-.34-.61-.65-.95-.94-.6-.57-1.42-1.36-2.28-2.28s-1.59-1.79-2.12-2.43c-.26-.37-.55-.71-.88-1.01Z"/>
    <path class="cls-1" d="M193.63,80.56h-2c-1.6,0-3.21-.1-4.8-.29-1.59-.2-3.17-.49-4.73-.87-1.19-.29-1.93-.51-1.94-.47.15.1.32.17.5.22.32.12.8.27,1.39.44,1.55.46,3.14.79,4.75,1,1.6.19,3.22.27,4.83.22.62,0,1.12-.06,1.46-.1.19-.03.37-.08.54-.15Z"/>
    <path class="cls-1" d="M172.93,82.33c-1.5,1.21-2.71,2.74-3.53,4.48.07,0,.77-1,1.74-2.26s1.86-2.16,1.79-2.22Z"/>
    <path class="cls-1" d="M163.49,69.51c.28.49.62.96,1,1.38.87,1.08,1.84,2.08,2.88,3,1.03.91,2.14,1.73,3.3,2.46.47.33.97.6,1.5.81-.44-.36-.91-.69-1.39-1-1.12-.78-2.19-1.62-3.22-2.51-1.02-.9-2-1.86-2.92-2.86-.36-.45-.74-.88-1.15-1.28Z"/>
    <path class="cls-1" d="M177.34,62.04c-.08.17-.13.35-.15.54-.08.35-.18.86-.29,1.49-.21,1.27-.43,3-.55,5-.11,1.66-.13,3.33-.06,5,0,.64.06,1.16.09,1.52,0,.19.04.37.09.55v-2.08c0-1.28,0-3,.14-5s.32-3.72.48-5,.29-2.02.25-2.02Z"/>
    <path class="cls-1" d="M190.77,70.56c-.17.05-.34.12-.5.21-.31.15-.75.39-1.29.68-1.08.59-2.55,1.44-4.14,2.45s-3,2-4,2.71c-.49.36-.89.66-1.16.88-.15.1-.28.23-.4.36.6-.32,1.17-.68,1.72-1.08,1-.68,2.43-1.62,4-2.63s3-1.88,4.08-2.51c.59-.32,1.15-.68,1.69-1.07Z"/>
    <path class="cls-1" d="M189.29,86.57c-.51-.29-1.04-.55-1.58-.78-1.27-.62-2.51-1.31-3.69-2.09-1.18-.78-2.31-1.63-3.38-2.55-.43-.41-.88-.79-1.35-1.15.08.14.18.27.3.38.2.22.51.54.91.92,1.04.97,2.17,1.86,3.36,2.64,1.19.78,2.46,1.45,3.77,2,.39.18.79.33,1.2.47.14.08.3.13.46.16Z"/>
    <path class="cls-1" d="M175.17,92.14c-.06-.5-.15-.99-.28-1.48-.24-1.18-.38-2.38-.44-3.58-.05-1.2,0-2.41.13-3.6.08-.5.13-1,.15-1.5-.18.47-.3.97-.36,1.47-.19,1.2-.26,2.42-.21,3.64.05,1.22.23,2.43.53,3.62.1.49.26.98.48,1.43Z"/>
    <path class="cls-1" d="M161.44,80.72c.54.18,1.09.3,1.66.36,1.35.19,2.72.27,4.09.25,1.37-.03,2.73-.17,4.08-.42.56-.08,1.12-.22,1.65-.41-.56.03-1.13.1-1.68.21-2.69.39-5.41.44-8.11.16-.56-.08-1.12-.13-1.69-.15Z"/>
    <path class="cls-9" d="M179.66,77.13c1.32,2.03.74,4.74-1.29,6.06-2.03,1.32-4.74.74-6.06-1.29-1.32-2.03-.74-4.74,1.29-6.06.02-.01.04-.02.06-.04,2.03-1.27,4.7-.68,6,1.33Z"/>
    <path class="cls-1" d="M185.43,63.62c-.31.65-.58,1.32-.81,2-.47,1.22-1.16,2.9-2,4.72s-1.67,3.43-2.29,4.58c-.37.61-.7,1.25-1,1.9.13-.14.25-.3.34-.47.2-.3.48-.76.81-1.33.67-1.13,1.53-2.74,2.37-4.56s1.49-3.53,1.92-4.77c.22-.62.38-1.13.48-1.48.08-.19.14-.39.18-.59Z"/>
    <path class="cls-5" d="M419.34,238.16l-2.2-1.93c-1.47.75-3.01,1.35-4.6,1.79-1.31.22-2.57.71-3.68,1.45-1.12.76-1.74,2.07-1.62,3.42.27,1.03.85,1.95,1.66,2.64,2.07,2.08,4.43,3.86,7,5.27.73.49,1.61.71,2.48.62.73-.2,1.33-.72,1.64-1.41.3-.68.48-1.41.52-2.16.32-3.28-.09-6.59-1.2-9.69Z"/>
    <path class="cls-5" d="M450,235.58c-.7-1.14-1.68-2.07-2.86-2.7-3.87-2.2-8.36-3.06-12.77-2.45-4.38.62-8.6,2.1-12.41,4.35l.26,4.48c1.75,2.39,4.24,4.15,7.08,5,2.82.83,5.76,1.24,8.7,1.22,2.1.12,4.21-.06,6.26-.54,2.07-.48,3.9-1.68,5.18-3.37,1.28-1.74,1.5-4.04.56-5.99Z"/>
    <path class="cls-12" d="M440.13,212.9c-1.38-.92-3.09-1.23-4.71-.85-4.49.77-8.14,4.22-10.32,8.21s-3.43,9.2-4.33,13.66l5.39,3c3.38-2.18,6.51-4.72,9.34-7.58,2.91-2.91,5.77-6.38,6.36-10.46.31-2.14-.01-4.6-1.73-5.98Z"/>
    <path class="cls-12" d="M437,249.71c-.4-.64-.93-1.2-1.54-1.64-4.79-3.85-10.54-6.79-14-11.86l-2.07,1.93c.19,3.04.66,6.05,1.41,9,.35,1.85,1.19,3.58,2.42,5,1.56,1.39,3.62,2.11,5.71,2,2.08-.1,4.13-.48,6.11-1.13.8-.13,1.53-.54,2.05-1.17.34-.68.31-1.48-.09-2.13Z"/>
    <path class="cls-12" d="M417.59,236.55c-4.28,2.2-10,1.16-13.73-1.87-3.8-3.16-5.44-8.21-4.23-13,.16-1.03.78-1.93,1.69-2.44,1.33-.55,2.76.48,3.76,1.52,4.35,4.54,8.08,9.79,13.2,13.43"/>
    <path class="cls-5" d="M422.71,214.65c.07-1.99-.35-3.96-1.2-5.75-.99-1.89-2.87-3.14-5-3.31-1.56.02-3.07.57-4.27,1.57-3.05,2.45-4.65,6.29-4.24,10.18.33,3.76,2.16,7.3,4.46,10.46,1.69,2.33,3.64,4.48,5.79,6.4l2.66.24c1.33-6.51,1.93-13.15,1.8-19.79Z"/>
    <path class="cls-1" d="M422,228.15c-.31.77-.49,1.58-.54,2.4-.13.81-.11,1.64.05,2.45.07,0,.06-1.09.2-2.43s.39-2.4.29-2.42Z"/>
    <path class="cls-1" d="M419.79,239.98c-.08.38-.1.77-.06,1.15.02.92.09,1.85.22,2.76.13.91.31,1.82.54,2.71.08.38.2.74.37,1.09-.04-.38-.1-.76-.2-1.13-.14-.69-.32-1.64-.47-2.7s-.24-2-.29-2.74c0-.38-.04-.76-.11-1.14Z"/>
    <path class="cls-1" d="M432.23,245.69s-.53-.38-1.39-1c-1.11-.79-2.18-1.65-3.2-2.56-1.01-.92-1.97-1.89-2.87-2.92-.35-.45-.73-.88-1.13-1.28.07.14.15.27.24.39.17.24.43.59.76,1,1.74,2.14,3.8,4,6.11,5.51.44.29.8.51,1.06.65s.41.23.42.21Z"/>
    <path class="cls-1" d="M416.92,236.78c-.82,0-1.64.15-2.41.43-.8.21-1.56.55-2.25,1,0,.06,1-.34,2.32-.72s2.35-.64,2.34-.71Z"/>
    <path class="cls-1" d="M416.63,223.2c-.06.49-.06.97,0,1.46.19,2.34.75,4.63,1.66,6.8.16.46.38.9.65,1.3-.14-.46-.3-.92-.49-1.36-.39-1.09-.73-2.2-1-3.33-.27-1.13-.48-2.28-.63-3.43-.11-.89-.16-1.44-.19-1.44Z"/>
    <path class="cls-1" d="M430,224.78s-.14.09-.37.3l-.93.91c-1,1.02-1.95,2.09-2.84,3.21-1,1.31-1.91,2.55-2.51,3.48-.29.46-.52.84-.67,1.11-.09.13-.17.27-.22.42.36-.46.69-.94,1-1.44.63-.89,1.51-2.11,2.55-3.42s2-2.43,2.78-3.24c.43-.42.83-.87,1.21-1.33Z"/>
    <path class="cls-1" d="M435.14,237.28c-.14-.05-.3-.09-.45-.1-.29-.05-.71-.1-1.23-.16-1-.12-2.49-.25-4.09-.33s-3.05-.08-4.1-.06c-.53,0-.95,0-1.25.05-.15,0-.3.02-.45.05.56.06,1.13.09,1.7.08,1,0,2.49.06,4.09.13s3,.17,4.08.25c.56.06,1.13.09,1.7.09Z"/>
    <path class="cls-1" d="M426.26,247.76c-.22-.45-.46-.89-.72-1.32-.59-1.06-1.1-2.15-1.55-3.27-.44-1.12-.81-2.27-1.11-3.44-.1-.49-.23-.98-.38-1.46-.01.14-.01.27,0,.41,0,.26.09.63.18,1.09.25,1.19.6,2.36,1.05,3.49.44,1.14.99,2.23,1.63,3.27.24.39.45.71.61.92.08.12.18.22.29.31Z"/>
    <path class="cls-1" d="M413.67,244.72c.2-.38.38-.77.53-1.17.41-.94.9-1.85,1.45-2.71.55-.87,1.18-1.69,1.86-2.46.52-.59.86-.94.84-1-.37.23-.71.51-1,.84-.72.75-1.37,1.57-1.94,2.44-.56.88-1.03,1.81-1.4,2.78-.16.41-.28.84-.34,1.28Z"/>
    <path class="cls-1" d="M409.7,230.02c.29.39.62.75,1,1.06.85.79,1.77,1.52,2.73,2.18.95.65,1.96,1.22,3,1.71.43.22.88.39,1.35.52-.41-.26-.83-.48-1.27-.67-1.03-.53-2.04-1.12-3-1.77-.96-.64-1.88-1.35-2.75-2.1-.34-.33-.69-.64-1.06-.93Z"/>
    <path class="cls-9" d="M424.16,236.45c-.1,2.06-1.84,3.65-3.9,3.55-2.06-.1-3.65-1.84-3.55-3.9.1-2.05,1.84-3.64,3.89-3.55,2.06.09,3.65,1.83,3.56,3.89h0Z"/>
    <path class="cls-1" d="M434.82,229.85c-.53.31-1.04.64-1.53,1-.93.62-2.23,1.45-3.7,2.31s-2.85,1.58-3.85,2.08-1.62.81-1.61.84c.16-.03.32-.08.47-.15l1.22-.53c1-.47,2.41-1.16,3.89-2s2.77-1.72,3.68-2.38c.46-.32.82-.6,1.06-.8.14-.1.27-.23.37-.37Z"/>
    <path class="cls-1" d="M316,455.97c8.34-4.91,17.21-10.49,23.82-17.56s11.25-16.67,10.18-26.31c-16.89,8.41-30,25.42-34,43.87Z"/>
    <path class="cls-1" d="M137.14,451.64c-1.92-9.48-4.31-19.69-8.84-28.24s-12.09-16.06-21.56-18.19c2.45,18.71,14.26,36.65,30.4,46.43Z"/>
  </g>
  <g id="freepik--Table--inject-275">
    <path class="cls-6" d="M448.65,459.04c0,.15-95.22.26-212.64.26s-212.66-.11-212.66-.26,95.2-.26,212.66-.26,212.64.12,212.64.26Z"/>
  </g>
  <g id="freepik--Plants--inject-275">
    <path class="cls-13" d="M136.37,459.13c-8.5-17.98-25.82-30.18-45.61-32.14,9.56,17.35,26.6,29.31,46.17,32.39l-.56-.25Z"/>
    <path class="cls-6" d="M94.31,370.28l.3.12.88.4,3.33,1.57,2.4,1.14c.88.42,1.83.88,2.83,1.44l6.79,3.67c2.43,1.5,5.15,3.07,8,4.9l4.31,2.93c.74.52,1.5,1,2.24,1.56l2.23,1.7c6.59,4.93,12.7,10.47,18.23,16.57l2.2,2.4c.75.79,1.37,1.66,2.06,2.48l2,2.47c.66.81,1.32,1.61,1.89,2.47l3.5,5,3,4.95c3.42,5.78,6.3,11.86,8.62,18.16.49,1.34,1,2.61,1.39,3.83s.72,2.4,1,3.49.63,2.1.91,3,.43,1.81.61,2.59c.35,1.53.63,2.74.82,3.59.08.39.15.7.2.94.03.1.04.21.05.32-.04-.1-.08-.2-.1-.31-.07-.24-.15-.54-.25-.93-.22-.84-.52-2-.91-3.56l-.66-2.58c-.29-.93-.61-1.93-1-3l-1.08-3.47c-.41-1.22-.93-2.48-1.43-3.81-2.35-6.25-5.26-12.27-8.68-18l-3-4.93-3.5-4.92c-.57-.86-1.23-1.66-1.89-2.47l-2-2.45c-.68-.81-1.31-1.68-2.05-2.47l-2.19-2.39c-5.52-6.04-11.6-11.56-18.16-16.46l-2.21-1.7c-.74-.56-1.5-1.05-2.23-1.56l-4.29-2.95c-2.81-1.84-5.51-3.42-7.93-4.94l-6.63-3.79c-1-.56-1.93-1-2.8-1.46l-2.38-1.19-3.29-1.66-.85-.44c-.11-.07-.2-.15-.28-.25Z"/>
    <path class="cls-6" d="M41.58,350.98c.75.25,1.48.54,2.19.89,1.34.58,3.19,1.37,5.27,2.17s4,1.46,5.36,1.93c.76.22,1.51.49,2.23.81-.79-.11-1.56-.3-2.31-.55-1.41-.4-3.33-1-5.42-1.83s-3.93-1.63-5.25-2.28c-.73-.31-1.42-.69-2.07-1.14Z"/>
    <path class="cls-8" d="M40.38,352.63c.99.48,2.19.06,2.67-.93s.06-2.19-.93-2.67c-.99-.48-2.19-.06-2.67.93,0,0,0,.01-.01.02-.47.99-.05,2.17.94,2.65Z"/>
    <path class="cls-6" d="M53.77,329.46c.51.6.97,1.25,1.38,1.92.83,1.2,2,2.85,3.32,4.63s2.59,3.35,3.52,4.49c.53.59,1.01,1.21,1.45,1.86-.61-.5-1.17-1.07-1.66-1.69-1-1.08-2.28-2.64-3.62-4.42s-2.47-3.47-3.24-4.72c-.45-.65-.84-1.34-1.15-2.07Z"/>
    <path class="cls-8" d="M61,331.28c1.78-4.39,6.53-6.79,11.12-5.61,3.15.93,5.57,3.49,7.26,6.31,5,8.4,4.86,19.57,11.41,26.86l-2.49,7.44-18.59-16.75c-2.67-2.41-5.38-4.87-7.23-8s-2.75-6.92-1.48-10.25Z"/>
    <path class="cls-8" d="M46.55,356.82c-3.11,3.58-3.08,8.92.07,12.46,2.25,2.38,5.64,3.38,8.91,3.6,9.77.67,19.64-4.57,29.11-2.06l5.59-5.62-23.4-8.92c-3.37-1.28-6.8-2.58-10.39-2.82s-7.44.72-9.89,3.36Z"/>
    <path class="cls-6" d="M38.06,338.28c.72.33,1.42.7,2.09,1.12,1.27.71,3,1.68,5,2.69s3.8,1.87,5.13,2.47c.73.28,1.44.62,2.13,1-.77-.19-1.52-.45-2.24-.78-1.36-.55-3.21-1.37-5.2-2.38s-3.74-2-5-2.81c-.68-.37-1.32-.81-1.91-1.31Z"/>
    <path class="cls-8" d="M36.7,339.82c.94.58,2.17.28,2.75-.66s.28-2.17-.66-2.75c-.94-.58-2.17-.28-2.75.66,0,0,0,.01-.01.02-.56.94-.26,2.16.67,2.73Z"/>
    <path class="cls-8" d="M51.79,338.36c-4.26,2.09-6.31,7.01-4.79,11.5,1.16,3.07,3.9,5.3,6.83,6.77,8.75,4.4,23.77,5.56,31.53,11.55l3.43-5.19-18.09-17.28c-2.61-2.49-5.27-5-8.49-6.62s-7.14-2.22-10.42-.73Z"/>
    <path class="cls-13" d="M104.07,375.1s-8.68-12.34-13.38-17.46c0,0-9.12,4.62-8.28,13l21.66,4.49v-.03Z"/>
    <path class="cls-8" d="M51.88,330.22c.59.94,1.82,1.22,2.76.64.94-.59,1.22-1.82.64-2.76-.59-.94-1.82-1.22-2.76-.64,0,0-.02.01-.03.02-.92.59-1.19,1.81-.61,2.74Z"/>
    <path class="cls-6" d="M65.75,341.9c.31.2.61.42.89.66.57.43,1.37,1.09,2.35,1.9,2,1.64,4.61,4,7.44,6.63s5.32,5.18,7.07,7c.88.93,1.58,1.69,2,2.22.26.26.49.55.7.86-.29-.22-.57-.47-.81-.75l-2.09-2.14c-1.8-1.8-4.3-4.27-7.13-6.94s-5.46-5-7.36-6.7c-.92-.8-1.68-1.48-2.26-2-.29-.22-.56-.46-.8-.74Z"/>
    <path class="cls-6" d="M74.24,358.77c1.89.77,3.73,1.67,5.5,2.68,1.83.89,3.61,1.89,5.31,3-1.89-.78-3.72-1.68-5.5-2.68-1.83-.89-3.6-1.89-5.31-3Z"/>
    <path class="cls-6" d="M85.49,389.97c.14-.07.29-.12.45-.15l1.32-.33c.57-.15,1.27-.31,2.1-.46s1.75-.35,2.8-.49c2.44-.37,4.9-.62,7.36-.74,3.02-.13,6.05-.1,9.07.1,3.02.24,6.03.64,9,1.22,2.42.48,4.82,1.08,7.18,1.8,1,.29,1.91.62,2.7.89s1.46.53,2,.76l1.25.52c.15.05.29.12.42.21-.16-.01-.31-.05-.46-.11l-1.28-.43c-.56-.2-1.23-.43-2-.67s-1.7-.55-2.71-.81c-2-.59-4.45-1.17-7.17-1.69-2.96-.54-5.94-.93-8.94-1.17-3-.2-6-.25-9-.14-2.76.12-5.25.34-7.33.63-1,.11-2,.29-2.8.41s-1.53.25-2.11.37l-1.33.23c-.17.05-.35.06-.52.05Z"/>
    <path class="cls-8" d="M77.31,397.28c.69-.85,1.57-1.54,2.57-2-1.28.12-2.57.02-3.81-.31-1.79-.35-2.96-2.09-2.61-3.89.2-1.02.86-1.88,1.79-2.33,1.25-.71,2.63-1.16,4.06-1.31,7.21-1.2,14.52-1.58,21.53.5-6,5.47-12.44,11.14-20.39,12.86-1.01.35-2.12.21-3-.39-.79-.87-.85-2.19-.14-3.13Z"/>
    <path class="cls-13" d="M324.09,461.03c9.49-1.93,19.69-4.31,28.24-8.84s16.06-12.1,18.2-21.56c-18.72,2.45-36.66,14.26-46.44,30.4Z"/>
    <path class="cls-13" d="M351.31,365.84c-15.6,12.55-37.15,62-34.52,79.5,10.8-14.06,38.93-54.19,34.52-79.5Z"/>
    <path class="cls-13" d="M149.41,306.03s-3.34,29.05,18.4,43.56c1.1-16.61-5.73-32.76-18.4-43.56Z"/>
    <path class="cls-13" d="M217.81,368.44s-25.63,14.11-24.81,40.23c0,0,22-11.73,24.81-40.23Z"/>
    <path class="cls-13" d="M103.88,330.18s23.44,17.49,46.91,6c-13.81-9.3-31.2-11.53-46.91-6Z"/>
    <path class="cls-13" d="M151.67,360.71s11.64,26.84,37.72,28.53c0,.04-9.61-23.03-37.72-28.53Z"/>
    <path class="cls-13" d="M101.75,274.28s-3,29.1,18.95,43.32c0-.03,2.88-24.82-18.95-43.32Z"/>
    <path class="cls-13" d="M55.93,291.57s20.89,20.48,45.68,12.23c0,0-17.61-17.72-45.68-12.23Z"/>
    <path class="cls-13" d="M44.48,221.58s-.24,29.25,22.91,41.37c0,0,.55-24.95-22.91-41.37Z"/>
    <path class="cls-13" d="M72.54,157.51s-16.54,24.14-4.06,47.11c0,0,14.38-20.4,4.06-47.11Z"/>
    <path class="cls-13" d="M83.78,237.53s-16,24.46-3.13,47.18c0,0,13.97-20.68,3.13-47.18Z"/>
    <path class="cls-13" d="M89.11,193.28s-25.91,13.57-25.69,39.7c0-.02,22.27-11.29,25.69-39.7Z"/>
    <path class="cls-6" d="M95.58,165.14s-.23.21-.7.59l-2.09,1.71c-.92.74-2,1.77-3.26,2.92-.64.58-1.27,1.27-2,2s-1.44,1.47-2.17,2.33c-3.64,4.08-6.81,8.54-9.47,13.32-3.53,6.32-6.26,13.06-8.12,20.05-2.28,8.49-3.53,17.22-3.71,26-.11,4.88.1,9.77.62,14.62.49,5.15,1.65,10.21,3.45,15.06,1.99,5.06,4.54,9.88,7.62,14.36,3.23,4.66,6.88,9.01,10.91,13,8.15,8.22,18,15.21,28.31,21.8s20.77,12.59,30.36,19.12,18.37,13.59,25.5,21.55c6.77,7.51,12.05,16.23,15.56,25.71,2.97,8.29,5.07,16.86,6.26,25.58,1.77,12.61,2.16,25.38,1.15,38.07-.15,2.25-.38,4.24-.57,6-.1.86-.19,1.66-.27,2.38s-.21,1.38-.29,2c-.18,1.16-.32,2.05-.41,2.67s-.16.9-.16.9c0,0,0-.31.1-.91s.21-1.51.36-2.68l.27-2c.07-.73.15-1.53.24-2.39.18-1.72.4-3.71.53-5.95.93-12.68.49-25.42-1.31-38-1.22-8.69-3.33-17.22-6.29-25.48-3.49-9.45-8.75-18.15-15.49-25.64-7.1-7.91-15.85-15-25.43-21.45s-20-12.49-30.35-19.1-20.2-13.61-28.39-21.88c-4.06-4.02-7.74-8.4-11-13.09-3.09-4.52-5.66-9.37-7.64-14.47-1.82-4.89-2.98-9.99-3.46-15.18-.52-4.88-.72-9.78-.6-14.68.21-8.79,1.48-17.52,3.79-26,1.89-7.02,4.65-13.77,8.21-20.1,2.69-4.78,5.9-9.24,9.58-13.31.73-.86,1.48-1.62,2.19-2.32s1.35-1.39,2-2c1.31-1.15,2.37-2.16,3.3-2.89l2.13-1.67.74-.55Z"/>
    <path class="cls-13" d="M317.26,458.64c-.02-.09-.02-.18,0-.27l.11-.78.18-1.28.12-.81c.06-.29.13-.59.2-.92.77-3.67,2.01-7.22,3.68-10.57,2.5-4.98,5.65-9.59,9.37-13.73,4.54-5.05,9.55-9.67,14.95-13.79,5.7-4.44,11.39-8.3,16.56-11.81s9.82-6.67,13.64-9.45,6.82-5.13,8.85-6.82c1-.82,1.8-1.51,2.34-1.95l.61-.5c.14-.11.21-.17.22-.16l-.19.2-.58.54c-.51.46-1.25,1.17-2.27,2-2,1.73-5,4.14-8.77,7s-8.42,6-13.58,9.54-10.83,7.4-16.51,11.83c-5.37,4.1-10.36,8.69-14.91,13.69-3.7,4.09-6.86,8.65-9.39,13.56-1.69,3.32-2.97,6.83-3.81,10.46l-.23.9c-.05.29-.1.56-.14.81-.09.49-.17.91-.23,1.26l-.15.78c-.01.09-.03.18-.07.27Z"/>
    <path class="cls-8" d="M397.78,385.5l-3.63-2.07c-1.83,1.46-3.81,2.73-5.9,3.79-1.77.68-3.39,1.72-4.73,3.06-1.35,1.38-1.84,3.38-1.29,5.23.65,1.35,1.7,2.47,3,3.21,3.49,2.32,7.29,4.13,11.29,5.36,1.15.49,2.45.55,3.64.17.96-.49,1.66-1.38,1.89-2.43.23-1.04.27-2.11.11-3.16-.47-4.66-1.97-9.15-4.38-13.16Z"/>
    <path class="cls-8" d="M439.76,373.28c-1.29-1.41-2.93-2.44-4.75-3-6.02-1.97-12.52-1.91-18.5.19-5.94,2.1-11.41,5.35-16.09,9.57l1.63,6.17c3.12,2.84,7.09,4.58,11.29,4.95,4.17.37,8.37.11,12.47-.75,2.97-.42,5.86-1.27,8.59-2.52,2.74-1.26,4.96-3.44,6.27-6.16,1.27-2.77.92-6.01-.91-8.45Z"/>
    <path class="cls-8" d="M419.63,344.39c-2.09-1.05-4.63-.7-6.81.15-6,2.35-10.16,8.18-12.07,14.37s-2.19,13.8-2.19,20.27l8.37,2.69c4.1-3.99,7.75-8.42,10.89-13.21,3.24-4.88,6.25-10.53,5.91-16.38-.17-3.11-1.33-6.5-4.1-7.89Z"/>
    <g class="cls-11">
      <path class="cls-4" d="M419.63,344.39c-2.09-1.05-4.63-.7-6.81.15-6,2.35-10.16,8.18-12.07,14.37s-2.19,13.8-2.19,20.27l4.07,2.62c3.57-1.75,11.95-8.26,15.19-13.14s6.25-10.53,5.91-16.38c-.17-3.11-1.33-6.5-4.1-7.89Z"/>
    </g>
    <path class="cls-8" d="M425.66,396.63c-.74-.78-1.63-1.41-2.61-1.86-7.78-4-16.61-6.5-22.91-12.58l-2.33,3.27c1.11,4.18,2.62,8.24,4.5,12.13,1.17,2.41,2.56,4.84,4.79,6.32,2.57,1.52,5.64,1.96,8.54,1.23,2.86-.73,5.62-1.84,8.19-3.3,1.09-.4,2-1.19,2.54-2.22.31-1.05.04-2.19-.71-2.99Z"/>
    <g class="cls-11">
      <path class="cls-4" d="M425.66,396.63c-.74-.78-1.63-1.41-2.61-1.86-7.78-4-15.65-7-21.95-13.12l-3.29,3.81c1.11,4.18,2.62,8.24,4.5,12.13,1.17,2.41,2.56,4.84,4.79,6.32,2.57,1.52,5.64,1.96,8.54,1.23,2.86-.73,5.62-1.84,8.19-3.3,1.09-.4,2-1.19,2.54-2.22.31-1.05.04-2.19-.71-2.99Z"/>
    </g>
    <path class="cls-8" d="M394.88,383.75c-5.36,4.28-13.59,4.42-19.68,1.26-6.18-3.33-9.9-9.91-9.57-16.92.09-1.46.46-3.07,1.67-3.88,1.71-1.14,4-.11,5.67,1.06,7.35,5.1,14,11.37,22.2,15"/>
    <g class="cls-11">
      <path class="cls-4" d="M394.88,383.75c-5.36,4.28-13.59,4.42-19.68,1.26-6.18-3.33-9.9-9.91-9.57-16.92.09-1.46.46-3.07,1.67-3.88,1.71-1.14,4-.11,5.67,1.06,7.35,5.1,14,11.37,22.2,15"/>
    </g>
    <path class="cls-8" d="M395.83,351.75c-.47-2.78-1.6-5.42-3.29-7.68-1.93-2.38-4.96-3.59-8-3.19-2.17.47-4.12,1.66-5.52,3.39-3.53,4.29-4.64,10.08-2.95,15.38,1.52,5.14,5.07,9.58,9.17,13.34,3.03,2.77,6.34,5.21,9.88,7.29l3.78-.42c.01-9.45-1.02-18.88-3.07-28.11Z"/>
    <path class="cls-6" d="M398.69,370.78c-.22,1.15-.24,2.33-.07,3.49.06,1.17.32,2.33.76,3.42.1,0-.23-1.55-.41-3.45s-.17-3.45-.28-3.46Z"/>
    <path class="cls-6" d="M398.9,387.92c.02.54.11,1.08.25,1.61.28,1.28.64,2.55,1.08,3.79.43,1.24.94,2.45,1.53,3.63.21.5.49.98.82,1.41-.16-.52-.36-1.03-.6-1.52-.39-.92-.91-2.2-1.42-3.64s-.9-2.77-1.17-3.73c-.11-.53-.27-1.05-.49-1.55Z"/>
    <path class="cls-6" d="M417.87,392.37c-.72-.37-1.46-.71-2.21-1-1.78-.79-3.51-1.68-5.19-2.67-1.67-1-3.28-2.08-4.83-3.26-1.19-.91-1.9-1.51-1.93-1.47s.14.19.44.48.76.7,1.34,1.18c3.03,2.51,6.42,4.53,10.07,6,.7.28,1.28.48,1.68.6.2.07.41.12.63.14Z"/>
    <path class="cls-6" d="M394,384.28c-1.14.25-2.23.68-3.23,1.28-1.06.51-2.03,1.19-2.87,2,.06.09,1.35-.77,3-1.66s3.1-1.55,3.1-1.62Z"/>
    <path class="cls-6" d="M389.76,365.4c.08.68.23,1.35.45,2,.46,1.6,1.05,3.17,1.76,4.68.71,1.51,1.54,2.97,2.47,4.35.36.59.79,1.14,1.27,1.63-.32-.61-.67-1.2-1.06-1.77-.87-1.41-1.66-2.86-2.36-4.36-.7-1.5-1.32-3.03-1.85-4.6-.19-.66-.41-1.3-.68-1.93Z"/>
    <path class="cls-6" d="M408.79,363.83c-.16.16-.31.34-.43.53-.26.35-.61.88-1,1.53-.85,1.31-2,3.16-3.05,5.28s-1.95,4.11-2.52,5.56c-.28.73-.5,1.32-.63,1.74-.09.21-.15.43-.18.65.38-.75.71-1.51,1-2.3.62-1.42,1.51-3.38,2.6-5.49s2.15-4,2.95-5.31c.47-.7.89-1.43,1.26-2.19Z"/>
    <path class="cls-6" d="M419.57,379.86c-.22-.02-.43-.02-.65,0l-1.77.12c-1.49.13-3.54.36-5.8.71s-4.28.74-5.74,1.07c-.73.16-1.31.31-1.72.42-.21.04-.42.11-.62.2.8-.07,1.6-.2,2.39-.38,1.47-.26,3.5-.62,5.75-1s4.29-.61,5.77-.8c.8-.06,1.6-.18,2.39-.34Z"/>
    <path class="cls-6" d="M410.13,396.93c-.43-.57-.89-1.12-1.38-1.64-1.12-1.3-2.15-2.68-3.09-4.11-.93-1.44-1.77-2.94-2.51-4.49-.28-.66-.59-1.3-.94-1.93.02.19.07.38.15.56.11.35.31.86.56,1.47,1.37,3.19,3.28,6.12,5.64,8.67.46.48.84.86,1.12,1.11s.43.38.45.36Z"/>
    <path class="cls-6" d="M391.72,396.28c.17-.58.3-1.18.4-1.78.31-1.43.73-2.83,1.26-4.19.53-1.36,1.16-2.68,1.89-3.95.33-.51.63-1.04.91-1.58-.44.43-.82.92-1.12,1.46-.8,1.24-1.47,2.56-2,3.94-.53,1.38-.92,2.81-1.17,4.27-.13.6-.19,1.22-.17,1.83Z"/>
    <path class="cls-6" d="M382,376.86c.51.46,1.07.86,1.67,1.2,2.83,1.75,5.92,3.03,9.16,3.8.65.19,1.32.3,2,.34-.66-.23-1.32-.42-2-.58-3.17-.88-6.22-2.15-9.09-3.77-.56-.36-1.14-.69-1.74-.99Z"/>
    <path class="cls-9" d="M404,381.75c.45,2.9-1.53,5.61-4.43,6.06-2.9.45-5.61-1.53-6.06-4.43-.45-2.89,1.53-5.61,4.42-6.06,2.9-.45,5.61,1.53,6.07,4.42,0,0,0,0,0,0Z"/>
    <path class="cls-6" d="M417,369.54c-.65.56-1.27,1.16-1.85,1.8-1.13,1.12-2.7,2.65-4.52,4.27s-3.52,3-4.77,4c-.69.51-1.36,1.05-2,1.63.22-.09.43-.2.61-.35.37-.24.9-.61,1.55-1.08,1.29-.94,3-2.3,4.85-3.92s3.38-3.19,4.47-4.36c.54-.59,1-1.07,1.25-1.42.16-.17.3-.36.41-.57Z"/>
    <path class="cls-8" d="M104.42,149.28l-4.22-2c-1.92,1.79-4.02,3.37-6.26,4.73-1.92.91-3.62,2.21-5,3.82-1.41,1.66-1.8,3.97-1,6,.85,1.46,2.14,2.62,3.68,3.32,4.07,2.28,8.45,3.96,13,5,1.33.44,2.78.4,4.08-.12,1.03-.63,1.73-1.69,1.9-2.88.17-1.18.12-2.38-.14-3.54-.93-5.16-2.99-10.06-6.04-14.33Z"/>
    <path class="cls-8" d="M150.23,132.03c-1.56-1.45-3.47-2.46-5.55-2.91-6.89-1.69-14.14-1.06-20.63,1.79-6.45,2.86-12.27,6.95-17.14,12.06l2.35,6.74c3.72,2.9,8.28,4.51,13,4.57,4.69.05,9.36-.59,13.86-1.9,3.28-.73,6.43-1.93,9.37-3.55,2.95-1.65,5.24-4.27,6.48-7.41,1.2-3.21.53-6.82-1.74-9.39Z"/>
    <path class="cls-8" d="M125.3,101.53c-2.42-1-5.22-.39-7.58.74-6.53,3.14-10.65,10-12.25,17.07s-1.27,15.59-.71,22.82l9.57,2.28c4.23-4.81,7.91-10.06,11-15.67,3.21-5.73,6.08-12.29,5.21-18.79-.44-3.45-2.02-7.13-5.24-8.45Z"/>
    <g class="cls-11">
      <path class="cls-4" d="M125.3,101.53c-2.42-1-5.22-.39-7.58.74-6.53,3.14-10.65,10-12.25,17.07s-1.27,15.59-.71,22.82l4.76,2.57c3.84-2.26,12.63-10.24,15.83-16s6.08-12.29,5.21-18.79c-.46-3.41-2.04-7.09-5.26-8.41Z"/>
    </g>
    <path class="cls-8" d="M136.49,159.28c-.89-.81-1.94-1.43-3.07-1.84-9-3.84-19.1-5.84-26.64-12.1l-2.33,3.85c1.6,4.57,3.64,8.97,6.07,13.16,1.5,2.59,3.26,5.19,5.88,6.64,3,1.48,6.46,1.72,9.63.65,3.14-1.06,6.12-2.52,8.87-4.36,1.18-.54,2.12-1.5,2.64-2.7.26-1.21-.14-2.46-1.05-3.3Z"/>
    <g class="cls-11">
      <path class="cls-4" d="M136.49,159.28c-.89-.81-1.94-1.43-3.07-1.84-9-3.84-18.07-6.52-25.61-12.78l-3.36,4.53c1.6,4.57,3.64,8.97,6.07,13.16,1.5,2.59,3.26,5.19,5.88,6.64,3,1.48,6.46,1.72,9.63.65,3.14-1.06,6.12-2.52,8.87-4.36,1.18-.54,2.12-1.5,2.64-2.7.26-1.21-.14-2.46-1.05-3.3Z"/>
    </g>
    <path class="cls-8" d="M101,147.56c-5.62,5.24-14.79,6.1-21.85,3.09-7.16-3.2-11.86-10.23-12.09-18.07,0-1.64.25-3.46,1.54-4.47,1.8-1.42,4.43-.46,6.41.7,8.64,5.06,16.63,11.49,26.06,14.86"/>
    <g class="cls-11">
      <path class="cls-4" d="M101,147.56c-5.62,5.24-14.79,6.1-21.85,3.09-7.16-3.2-11.86-10.23-12.09-18.07,0-1.64.25-3.46,1.54-4.47,1.8-1.42,4.43-.46,6.41.7,8.64,5.06,16.63,11.49,26.06,14.86"/>
    </g>
    <path class="cls-8" d="M99.38,111.78c-.93-3-2.09-6-4.33-8.3-2.34-2.48-5.8-3.57-9.14-2.88-2.4.7-4.49,2.2-5.91,4.25-3.79,5.1-4.12,11.8-2,17.41s6.47,10.27,11.36,14.11c3.62,2.84,7.53,5.28,11.66,7.3l4.18-.8c-.79-10.55-2.74-20.97-5.82-31.09Z"/>
    <path class="cls-6" d="M104.19,132.77c-.16,2.62.3,5.24,1.35,7.65.11,0-.38-1.71-.74-3.82s-.49-3.84-.61-3.83Z"/>
    <path class="cls-6" d="M105.89,151.87c.06.61.2,1.21.41,1.78.42,1.41.93,2.79,1.53,4.14.59,1.35,1.25,2.65,2,3.92.27.54.61,1.05,1,1.51-.21-.57-.47-1.13-.79-1.65-.51-1-1.21-2.38-1.9-3.94s-1.23-3-1.62-4.06c-.17-.58-.38-1.15-.63-1.7Z"/>
    <path class="cls-6" d="M127.44,155.22c0-.06-1-.36-2.56-.92-2.05-.73-4.05-1.58-6-2.53-1.95-.98-3.84-2.06-5.67-3.24-1.4-.91-2.24-1.52-2.28-1.47s.18.2.54.5.9.71,1.59,1.2c3.59,2.53,7.56,4.49,11.75,5.8.81.25,1.46.43,1.92.54.23.07.47.11.71.12Z"/>
    <path class="cls-6" d="M100.1,148.2c-1.25.38-2.43.96-3.5,1.71-1.13.65-2.14,1.47-3,2.44.07.09,1.44-1,3.24-2.11s3.31-1.96,3.26-2.04Z"/>
    <path class="cls-6" d="M93.77,127.52c.13.76.35,1.51.66,2.22.65,1.75,1.45,3.45,2.37,5.07.92,1.63,1.96,3.18,3.13,4.64.45.63.97,1.2,1.55,1.72-.4-.66-.85-1.29-1.33-1.89-1.09-1.5-2.09-3.05-3-4.66-.91-1.62-1.73-3.29-2.45-5-.27-.72-.58-1.42-.93-2.1Z"/>
    <path class="cls-6" d="M114.87,124.15c-.17.19-.32.4-.43.63-.26.41-.62,1-1,1.79-.84,1.53-1.92,3.7-3,6.16s-1.82,4.74-2.33,6.42c-.25.83-.44,1.51-.56,2-.09.24-.13.49-.14.75.38-.87.71-1.76,1-2.66.58-1.64,1.41-3.9,2.43-6.35s2.07-4.62,2.85-6.18c.44-.83.83-1.69,1.18-2.56Z"/>
    <path class="cls-6" d="M128.26,141.12c-.24-.03-.49-.03-.73,0-.46.05-1.13.15-2,.28-1.65.27-3.92.7-6.41,1.28s-4.71,1.2-6.31,1.69c-.8.24-1.44.45-1.89.61-.23.07-.46.16-.67.28.89-.15,1.77-.36,2.63-.62,1.62-.43,3.85-1,6.33-1.58s4.74-1.05,6.37-1.38c.91-.12,1.8-.31,2.68-.56Z"/>
    <path class="cls-6" d="M119.18,160.98c-.53-.6-1.09-1.16-1.68-1.7-1.35-1.36-2.62-2.81-3.79-4.33-1.16-1.53-2.23-3.13-3.19-4.8-.36-.71-.77-1.4-1.21-2.07.04.21.11.42.21.61.16.38.42.93.76,1.59.9,1.72,1.94,3.36,3.12,4.9,1.17,1.55,2.48,2.98,3.91,4.3.55.5,1,.89,1.34,1.14.16.14.34.27.53.36Z"/>
    <path class="cls-6" d="M98.58,161.77c.14-.66.24-1.33.29-2,.45-3.24,1.41-6.39,2.83-9.34.33-.6.62-1.22.87-1.85-.45.52-.83,1.1-1.12,1.72-.79,1.46-1.42,2.99-1.9,4.58-.49,1.58-.83,3.21-1,4.86-.08.67-.07,1.36.03,2.03Z"/>
    <path class="cls-6" d="M86.1,140.97c.62.47,1.29.88,2,1.2,3.3,1.72,6.87,2.89,10.55,3.46.75.15,1.52.22,2.29.21-.74-.21-1.49-.37-2.25-.48-1.81-.36-3.59-.83-5.34-1.4-1.75-.57-3.46-1.24-5.13-2-.69-.37-1.4-.7-2.12-.99Z"/>
    <circle class="cls-9" cx="105.27" cy="145.9" r="5.95"/>
    <path class="cls-6" d="M124.53,129.82c-.68.68-1.32,1.4-1.91,2.16-1.16,1.35-2.8,3.2-4.68,5.15s-3.68,3.65-5,4.86c-.74.63-1.44,1.29-2.1,2,.23-.12.45-.27.64-.44.4-.31,1-.76,1.64-1.34,1.37-1.16,3.19-2.83,5.09-4.79s3.5-3.85,4.61-5.25c.56-.7,1-1.28,1.28-1.69.17-.2.31-.42.43-.66Z"/>
    <path class="cls-13" d="M338.14,197.68s-29.17-2.18-42.79,20.12c0,0,24.86,2.2,42.79-20.12Z"/>
    <path class="cls-6" d="M308.41,157.4c.09.21.15.42.19.64.1.48.24,1.1.41,1.88.09.41.19.86.29,1.36s.16,1,.25,1.63c.17,1.17.41,2.51.5,4,.06.74.13,1.52.2,2.33s.05,1.67.08,2.54c.09,1.76,0,3.64-.08,5.61-.47,8.58-2.46,17.01-5.88,24.89-.83,1.8-1.58,3.52-2.44,5-.42.77-.79,1.54-1.21,2.24s-.83,1.36-1.22,2c-.75,1.29-1.57,2.38-2.23,3.35-.35.49-.65,1-1,1.35l-.87,1.09-1.21,1.49c-.13.18-.28.34-.45.49.11-.2.23-.39.37-.56l1.13-1.55.83-1.1c.29-.42.59-.88.92-1.37.64-1,1.43-2.08,2.15-3.38l1.19-2c.41-.7.77-1.47,1.18-2.24.84-1.53,1.57-3.25,2.38-5,1.64-3.93,2.98-7.98,4-12.12.95-4.15,1.57-8.37,1.86-12.62.08-2,.2-3.83.13-5.58v-2.52c0-.8-.11-1.59-.17-2.33-.06-1.49-.28-2.82-.41-4-.08-.59-.13-1.13-.21-1.63s-.17-.95-.25-1.37c-.13-.77-.24-1.4-.32-1.89-.05-.21-.09-.42-.11-.63Z"/>
    <path class="cls-6" d="M337.87,171.58c-.12.1-.26.18-.4.25l-1.19.64c-.53.26-1.16.59-1.89,1s-1.57.85-2.46,1.4c-1.81,1.06-3.9,2.42-6.16,4-2.43,1.77-4.77,3.66-7,5.67-2.22,2.03-4.32,4.18-6.32,6.43-1.81,2.09-3.37,4.05-4.59,5.75-.64.83-1.16,1.63-1.64,2.31s-.87,1.29-1.18,1.78l-.75,1.13c-.17.26-.27.39-.29.38s.05-.16.2-.43.4-.72.67-1.18.65-1.14,1.11-1.84.95-1.51,1.58-2.37c1.19-1.73,2.72-3.72,4.53-5.85,3.95-4.59,8.45-8.68,13.4-12.17,2.02-1.44,4.11-2.78,6.26-4,.91-.54,1.76-.95,2.51-1.34s1.39-.7,1.93-.94l1.24-.54c.14-.05.29-.07.44-.08Z"/>
    <path class="cls-8" d="M348.85,172.28c-1.09-.26-2.21-.26-3.3,0,1.08-.69,2.02-1.57,2.8-2.59,1.2-1.38,1.06-3.47-.32-4.67-.79-.68-1.85-.96-2.87-.74-1.42.21-2.78.72-4,1.48-6.41,3.5-12.41,7.71-16.63,13.67,8.11.59,16.65,1.1,24-2.46.95-.46,2-1.12,2.14-2.17.07-1.17-.69-2.22-1.82-2.52Z"/>
  </g>
  <g id="freepik--Character--inject-275">
    <path class="cls-2" d="M409.94,190.77c2.29-13.57-2.53-106.73-2.53-106.73l-32.84-7.49-10.57,106.54-70.3,77.55,3.89,15.46,8.41,43.18s42.28-43.6,54.36-61c13.73-19.83,45.8-45.18,49.58-67.51Z"/>
    <path class="cls-2" d="M354.38,27.43l8.16,34,13.67,20.21,31.2,2.4.4-2.46c.51-3.18.25-6.43-.75-9.49-1.87-5.69-4.9-14.93-5.79-17.65-1.29-3.9-4.71-13.41-4.71-13.41l-24.72-10.32-7.29.86-10.17-4.14Z"/>
    <path class="cls-2" d="M392.37,52.28c-.79-.43-1.38-1.14-1.65-2-.5-1.46-.78-2.98-.83-4.52-.16-2.05-.33-4.1-.5-6.15-.22-1.09-.03-2.22.53-3.18.49-.56,1.16-.91,1.9-1,.73-.11,1.48-.11,2.21,0l1,.85c.98,2.13,1.56,4.43,1.7,6.78.41,2.05.41,4.16,0,6.21-.23.97-.76,1.85-1.51,2.51-.78.69-1.88.88-2.85.5Z"/>
    <path class="cls-7" d="M392.37,52.28c.47.11.97.11,1.44,0,.55-.12,1.05-.41,1.45-.81.52-.54.91-1.21,1.12-1.93.49-1.96.55-4.01.16-6-.31-2.27-.52-4.86-1.76-7.2l.06.08-1-.85.14.06h-.32c-.66-.11-1.34-.11-2,0-.63.13-1.19.49-1.57,1-.71,1-.46,2.43-.39,3.65.18,2.46.35,4.69.49,6.6.04,1.48.41,2.92,1.08,4.24.28.46.65.86,1.1,1.16-.15-.02-.28-.08-.4-.17-.35-.22-.65-.51-.88-.86-.76-1.32-1.2-2.79-1.28-4.31-.17-1.91-.38-4.14-.6-6.61,0-.62-.13-1.25-.12-1.93,0-.71.19-1.4.57-2,.46-.61,1.12-1.03,1.87-1.17.73-.12,1.48-.12,2.21,0h.4l.06.05,1,.85h0c1.3,2.47,1.48,5.12,1.77,7.39.36,2.04.26,4.13-.29,6.13-.25.76-.69,1.45-1.27,2-.44.42-1,.7-1.6.8-.38.07-.76.05-1.13-.06-.21-.02-.32-.11-.31-.11Z"/>
    <path class="cls-3" d="M271.09,65.44l70.7-32.91,39.43,74.39c-23.13,16.15-49.29,27.45-76.9,33.23l-33.23-74.71Z"/>
    <path class="cls-3" d="M247.78,86.34s79.22,29.81,79.22,30.51-16.09,15.55-16.09,15.55l-66.31-38.48-11.52,8.08,13.29-28.67,1.41,13.01Z"/>
    <g class="cls-10">
      <path class="cls-9" d="M350.72,49.63s-15.82,60.47-48.64,85.5l.88,2s32.9-18.15,49.18-84.62l-1.42-2.88Z"/>
    </g>
    <g class="cls-10">
      <path class="cls-9" d="M356.61,60.49s-15.73,51.87-42.73,77.39l19-5.48s19.27-19,29.35-61.34l-5.62-10.57Z"/>
    </g>
    <path class="cls-3" d="M287.71,63.14c-5.36-12.92-12-29.92-2.43-42.61,3.53-4.87,9.36-7.53,15.35-7,6.3.58,12,4.41,16.09,9.07,5.26,6,8.37,13.6,11.36,20.9.4,1.31,1.74,2.09,3.08,1.78,1.32-.38,2.1-1.75,1.75-3.08-3-7.34-6.09-14.74-11-21.07-4.56-5.89-11-10.68-18.38-12.15-7.21-1.52-14.7.71-19.9,5.92-5.65,5.58-8.13,13.48-8.15,21.29,0,9.94,3.64,19.29,7.39,28.32.43,1.31,1.8,2.05,3.13,1.7,1.32-.37,2.1-1.74,1.74-3.07h-.03Z"/>
    <path class="cls-3" d="M345.2,43.45c1.33-4.67,5.79-7.5,10.49-8.3,5.24-.9,10.46,1.36,14.34,5,8.93,8.38,11.9,22.3,10.06,34.08-1.07,7.09-3.81,13.83-8,19.65-.67,1.19-.27,2.7.91,3.4,1.2.66,2.7.26,3.42-.9,8.49-11.98,11.27-27.1,7.58-41.32-3.28-12.44-13.45-26.68-28-25-7,.82-13.6,5-15.6,12-.88,3.09,3.94,4.42,4.82,1.32l-.02.07Z"/>
    <path class="cls-2" d="M377,81.98s-15.87-18.47-16.11-19-5.54-13.7-5.54-13.7l-2.19-11.54s-2.47-8.57,2.1-8.05c4.46,2.16,7.86,6.03,9.44,10.72,2.44,7.74,3.48,8.8,3.48,8.8,0,0,4.59-.29,10.61,6.53"/>
    <path class="cls-7" d="M378.79,55.77s-.06,0-.17-.14l-.46-.46c-.39-.42-1-1-1.81-1.74-1-.88-2.08-1.67-3.22-2.36-.72-.42-1.46-.79-2.24-1.09-.86-.34-1.77-.54-2.7-.57h-.09c-.47-.69-.86-1.44-1.17-2.22-.34-.78-.66-1.6-1-2.45s-.62-1.75-.93-2.66-.61-1.86-1-2.8c-1.73-4.06-4.88-7.35-8.86-9.27h.07c-.71-.13-1.43.14-1.87.72-.39.66-.6,1.41-.6,2.17-.02,1.64.2,3.27.65,4.84h0l.44,2.3c.62,3.14,1.17,6.24,1.77,9.24h0l3.05,7.59,1.44,3.58c.24.58.47,1.16.69,1.73.11.28.23.56.36.83.14.19.34.44.53.67,3,3.68,5.79,6.92,8.07,9.63l5.37,6.38,1.42,1.73c.18.19.33.4.47.62-.19-.17-.37-.36-.54-.56l-1.46-1.73-5.48-6.28c-2.32-2.69-5.1-5.89-8.17-9.57-.19-.23-.38-.44-.59-.74-.13-.28-.25-.56-.36-.85l-.71-1.73-1.45-3.57c-1-2.44-2-5-3.09-7.6h0c-.57-3-1.16-6.08-1.76-9.25l-.44-2.29h0c-.47-1.62-.69-3.31-.66-5,0-.87.23-1.71.69-2.45.26-.37.64-.65,1.07-.8.41-.13.85-.17,1.28-.12h.07c4.09,1.98,7.32,5.39,9.07,9.58.37,1,.67,1.91,1,2.83s.6,1.8.9,2.65c.3.85.62,1.67.95,2.45.28.74.64,1.45,1.07,2.11h-.14c.97.04,1.93.26,2.83.63.79.31,1.55.7,2.27,1.15,1.15.71,2.22,1.53,3.2,2.45.62.57,1.21,1.18,1.76,1.81l.43.49s.04.08.05.12Z"/>
    <path class="cls-2" d="M359.62,32.44c-1.66-1.07-2.86-2.46-4.7-3.07l-.33-1.09c-.51-2,.24-4.1,1.9-5.33,1.65-1.09,3.76-1.2,5.52-.3,1.8.95,3.18,2.54,3.87,4.46.41.99.58,2.05.51,3.12-.09,1.04-.59,2.01-1.39,2.69-1.5,1.19-3.72.58-5.38-.48Z"/>
    <path class="cls-2" d="M366.63,35.13c-.57-1.66-.64-3.45-.2-5.15.46-1.71,1.64-3.14,3.23-3.92,1.62-.76,3.53-.53,4.92.6.87.88,1.53,1.96,1.91,3.14,1.61,3.88,3.23,7.86,3.48,12.06.18,1.63-.1,3.28-.8,4.77-.75,1.5-2.27,2.45-3.95,2.46-1.26-.14-2.4-.8-3.16-1.81-.89-.99-1.64-2.09-2.24-3.28-1.22-2.9-2.29-5.87-3.19-8.89"/>
    <path class="cls-7" d="M366.63,35.13c.11.17.19.36.24.55l.57,1.62c.5,1.41,1.17,3.46,2.23,5.9.56,1.34,1.35,2.56,2.33,3.63.46.63,1.05,1.16,1.73,1.56.7.41,1.53.55,2.33.41,1.74-.45,3.08-1.85,3.45-3.61.4-1.91.4-3.87,0-5.78-.84-3.71-2.08-7.32-3.69-10.77-.33-.77-.83-1.46-1.47-2-.62-.46-1.36-.74-2.13-.82-1.41-.13-2.81.36-3.83,1.35-.85.82-1.46,1.86-1.76,3-.23.86-.32,1.76-.25,2.65.08.77.19,1.53.35,2.28-.09-.18-.16-.37-.21-.57-.46-1.44-.52-2.97-.18-4.44.26-1.18.84-2.26,1.66-3.14,1.09-1.09,2.6-1.65,4.13-1.52.85.07,1.67.38,2.36.88.7.57,1.26,1.29,1.63,2.11.75,1.63,1.43,3.34,2.12,5.15.73,1.85,1.29,3.76,1.68,5.71.42,1.98.42,4.02,0,6-.4,1.96-1.88,3.51-3.82,4-.91.16-1.85,0-2.64-.48-.73-.43-1.36-1.01-1.85-1.69-.97-1.11-1.74-2.38-2.28-3.76-1-2.47-1.64-4.55-2.08-6-.2-.67-.36-1.22-.48-1.65-.07-.18-.12-.37-.14-.57Z"/>
    <path class="cls-2" d="M383.65,55.08c-1.11-.6-1.95-1.6-2.35-2.8-.71-2.08-1.11-4.25-1.18-6.45-.24-2.93-.47-5.86-.71-8.79-.13-1.56-.21-3.28.75-4.53.68-.82,1.65-1.35,2.71-1.49.66-.1,1.33-.12,2-.06.76.06,1.49.36,2.06.87h0c.36.31.65.68.86,1.1,1.17,2.87,1.88,5.91,2.11,9,.36,3,.72,6-.08,8.86-.33,1.39-1.08,2.64-2.15,3.58-1.1.97-2.65,1.24-4.02.71Z"/>
    <path class="cls-7" d="M383.65,55.08c.74.21,1.53.21,2.27,0,.86-.24,1.62-.74,2.2-1.42.76-.92,1.29-2,1.53-3.17.69-2.58.36-5.8-.12-9.31-.2-1.83-.54-3.65-1-5.44-.26-.94-.59-1.85-1-2.73-.43-.84-1.18-1.46-2.08-1.73-1.85-.37-4.12-.06-5.17,1.45-.48.77-.72,1.66-.7,2.57,0,.9.09,1.81.15,2.7.27,3.53.51,6.71.72,9.42.07,2.09.62,4.14,1.59,6,.4.66.95,1.21,1.61,1.61-.2-.05-.38-.13-.55-.25-.49-.33-.91-.75-1.23-1.25-1.07-1.87-1.68-3.97-1.79-6.12-.26-2.68-.52-5.87-.83-9.41-.1-.91-.15-1.83-.16-2.75-.04-1.01.23-2,.77-2.85.63-.85,1.55-1.44,2.59-1.65.51-.12,1.03-.17,1.55-.17.53-.02,1.07.03,1.59.16,1.06.33,1.94,1.09,2.41,2.1.41.91.75,1.85,1,2.81.47,1.81.81,3.66,1,5.52.46,3.51.76,6.81,0,9.46-.28,1.21-.86,2.33-1.67,3.27-.62.7-1.43,1.2-2.33,1.43-.58.14-1.18.14-1.76,0-.14-.04-.29-.09-.42-.16-.13-.06-.17-.08-.17-.09Z"/>
    <path class="cls-6" d="M299.63,125.28c1.15-1.26,2.11-2.67,2.86-4.2.77-1.67,1.21-3.47,1.3-5.31.3-4.56-1.85-8.94-5.64-11.49-1.51-1.06-3.21-1.82-5-2.24-1.67-.35-3.37-.45-5.07-.31,0,0,.11-.06.35-.1.33-.08.66-.13,1-.16,1.27-.12,2.54-.05,3.79.21,1.86.38,3.62,1.13,5.18,2.2,3.98,2.61,6.23,7.19,5.85,11.94-.12,1.89-.61,3.74-1.45,5.44-.55,1.14-1.28,2.2-2.15,3.12-.23.25-.48.49-.75.7-.15.11-.25.2-.27.2Z"/>
    <path class="cls-6" d="M341.88,33.16c-.19.19-.39.35-.61.5l-1.83,1.35c-.79.59-1.77,1.3-2.93,2.08s-2.46,1.71-3.95,2.66c-2.95,1.94-6.56,4.13-10.56,6.44s-8.61,4.67-13.48,7-9.62,4.26-14,5.93-8.35,3-11.72,4c-1.68.54-3.22,1-4.57,1.35s-2.51.69-3.47.93l-2.2.54c-.26.07-.52.12-.78.16.24-.11.49-.2.75-.26l2.18-.64c.95-.26,2.11-.59,3.44-1s2.87-.86,4.54-1.42c3.31-1.08,7.31-2.5,11.65-4.14s9.06-3.67,13.93-6,9.39-4.66,13.46-6.92,7.66-4.44,10.63-6.33c1.5-.93,2.81-1.83,4-2.59s2.17-1.44,3-2l1.88-1.27c.2-.14.42-.26.64-.37Z"/>
    <path class="cls-3" d="M245.93,72.79c1.23.55-.68,7.48-4.27,15.47s-7.49,14-8.72,13.48.68-7.48,4.27-15.48,7.49-13.98,8.72-13.47Z"/>
    <path class="cls-6" d="M245.48,72.82c.03.42.02.84-.05,1.26-.06.82-.21,2-.46,3.43-1.35,7.52-4.42,14.63-8.97,20.77-.88,1.17-1.63,2.08-2.19,2.68-.26.34-.56.64-.89.9.22-.36.46-.69.74-1,.5-.64,1.21-1.58,2-2.76,4.39-6.19,7.45-13.21,9-20.64.29-1.42.5-2.58.62-3.38.03-.43.09-.85.2-1.26Z"/>
    <path class="cls-6" d="M236.3,92.28c.14.06.13.39,0,.74s-.36.59-.5.54-.13-.38,0-.73.37-.55.5-.55Z"/>
    <path class="cls-6" d="M239.75,85.02c.13.06.06.46-.15.88s-.49.72-.62.65-.06-.46.15-.88.49-.71.62-.65Z"/>
    <path class="cls-6" d="M241.53,79.79c.14,0,.14.45,0,.9s-.37.8-.51.76-.13-.45,0-.91.38-.79.51-.75Z"/>
    <path class="cls-1" d="M216.13,93.81c-.46.93-.64,2.72.4,3.43,1.18.87,2.83.65,3.74-.5.84-1,.81-2.51,1.25-3.77.31-1.32,1.25-2.39,2.52-2.87-3.26-.57-6.31.49-7.91,3.71Z"/>
    <path class="cls-1" d="M224.07,94.84c-.46.93-.64,2.72.4,3.43,1.18.87,2.83.64,3.74-.5.84-1,.81-2.51,1.25-3.77.31-1.32,1.25-2.39,2.52-2.87-3.26-.57-6.31.49-7.91,3.71Z"/>
    <path class="cls-1" d="M224.82,83.99c-.46.93-.64,2.72.4,3.43,1.17.87,2.83.65,3.73-.5.85-1,.81-2.51,1.25-3.77.31-1.32,1.26-2.39,2.53-2.87-3.26-.57-6.31.49-7.91,3.71Z"/>
    <path class="cls-13" d="M387.23,220.18c-3.07,7.11-5,19.34-6.07,27,12.74-10.93,20.57-26.52,21.73-43.27-7.26,2.68-12.6,9.16-15.66,16.27Z"/>
    <path class="cls-6" d="M294,274.52c-15.86-39.09,2-75.91-15.67-125.07-10.91-30.17-56.71-36.17-56.71-36.17-55.51.27-62.66,39.65-65.77,75.29-1.46,16.76-20,79.78-20.92,104.94-1.13,25.13,4.48,27-12.57,49.63-3.5,4.64-9.9,9.65-5.83,19.19,2.2,5.15,12.08,15.09,18,16.32-5,7.81-2.61,18.33,4.11,24.81s16.93,9.3,26.78,9.14,19.46-3,28.64-6.34c31.6-11.61,60.48-30.49,80.39-55.78s36.69-42.36,19.55-75.96Z"/>
    <path class="cls-2" d="M224,125.58l-3.91-2.76-34.78,20.46c-5.32,1.07-8.93,6.04-8.31,11.43l15.43,71.31c1.17,8.19,13.87,65.14,13.87,65.14l4.97,11.12c14.18,13.9,38.39,9,45.22-9.66.43-1.06.71-2.17.85-3.31.1-.93.15-1.86.15-2.79-.34-9.87.59-10.06.59-10.06-.92-10.76-3.47-23.4-3.46-23.3s22.3-6,24.11-36c.9-14.94-2.63-34.78-6.4-54.27-5.21-26.98-26.47-40.61-48.33-37.31Z"/>
    <path class="cls-6" d="M225.89,190.4c.22,2.05-1.23,3.91-3.28,4.18-1.97.36-3.86-.94-4.23-2.92,0-.03-.01-.06-.01-.08-.22-2.05,1.23-3.9,3.27-4.18,1.98-.36,3.87.95,4.24,2.92,0,.03,0,.05.01.08Z"/>
    <path class="cls-6" d="M263.48,184.93c.22,2.05-1.23,3.91-3.28,4.18-1.98.36-3.88-.96-4.24-2.94,0-.02,0-.04,0-.06-.21-2.05,1.24-3.9,3.28-4.19,1.98-.36,3.88.96,4.24,2.95,0,.02,0,.04.01.06Z"/>
    <path class="cls-6" d="M269.61,171.21c-.42.54-3.5-1.31-7.58-.9s-6.88,2.74-7.37,2.29c-.24-.2.15-1.14,1.37-2.22,1.65-1.39,3.68-2.25,5.83-2.44,2.14-.22,4.29.25,6.14,1.34,1.31.83,1.82,1.68,1.61,1.93Z"/>
    <path class="cls-6" d="M228.56,177.73c-.48.49-3.36-1.66-7.46-1.67s-7.11,2-7.56,1.52c-.21-.23.27-1.12,1.59-2.07,1.78-1.22,3.89-1.85,6.05-1.83,2.13,0,4.21.68,5.93,1.95,1.25.98,1.68,1.88,1.45,2.1Z"/>
    <path class="cls-6" d="M247.09,205.12c0-.23,2.45-.91,6.51-1.84,1-.21,2-.51,2.11-1.24s-.38-1.86-1-3l-3.86-7.64c-5.38-10.88-9.39-19.87-9-20.08s5.16,8.43,10.55,19.31l3.73,7.7c.51,1.14,1.32,2.42.94,4-.24.77-.82,1.39-1.57,1.69-.56.21-1.15.35-1.74.42-4.07.64-6.63.91-6.67.68Z"/>
    <path class="cls-7" d="M254.62,253.14c-13.9,1.57-27.96-.74-40.62-6.69,0,0,12.61,19.46,41.94,13.8l-1.32-7.11Z"/>
    <path class="cls-7" d="M244,211.67c-2.26-1.22-4.94-1.38-7.33-.43l-.47.44c-.74,1.57-1.17,3.27-1.28,5-.09,1.74.58,3.43,1.84,4.64,2,1.74,5.23,1.37,7.42-.13,1.12-.71,1.98-1.76,2.46-3,.72-2.52-.37-5.21-2.64-6.52Z"/>
    <path class="cls-6" d="M235.35,209.12c.66-.11,1.1,4.32,5.2,7.1s8.77,1.82,8.87,2.44c.08.27-1,1-3,1.21-2.59.3-5.2-.34-7.37-1.79-2.09-1.39-3.55-3.55-4.08-6-.31-1.8.08-2.96.38-2.96Z"/>
    <path class="cls-6" d="M230.09,161.36c-.41,1.11-4.5.57-9.31,1.12s-8.72,1.85-9.35.85c-.28-.48.4-1.52,2-2.6,4.26-2.66,9.5-3.21,14.22-1.5,1.73.72,2.62,1.6,2.44,2.13Z"/>
    <path class="cls-6" d="M266.44,153.89c-.63,1-3.53.31-6.92.59s-6.18,1.23-6.93.33c-.34-.44,0-1.42,1.19-2.42,3.23-2.48,7.63-2.77,11.16-.74,1.29.84,1.77,1.75,1.5,2.24Z"/>
    <path class="cls-6" d="M185.42,206.1s21.7,3.38,25.84-49.57c1.42-18.11,20.26-32.88,20.26-32.88l-11.59-2.83s-39.21,17.61-39.82,18.23-7.18,22.69-7.18,22.69l12.49,44.36Z"/>
    <path class="cls-2" d="M194.22,202.85c-.23-2.2-3.28-7.15-5.49-7.28-5.89-.33-16.32,1.16-15,15.92,1.83,20.17,21.71,14.17,21.69,13.59s-.42-14.63-1.2-22.23Z"/>
    <path class="cls-7" d="M188.59,217.99c-.09-.05-.32.28-.89.61-.81.43-1.75.53-2.63.29-2.2-.59-4.3-3.81-4.73-7.44-.21-1.72-.03-3.47.52-5.12.27-1.31,1.17-2.41,2.4-2.94.82-.29,1.73.03,2.17.78.32.54.23,1,.34,1s.4-.37.16-1.19c-.16-.49-.48-.91-.91-1.19-.6-.37-1.31-.5-2-.34-1.55.25-2.82,1.81-3.39,3.46-.7,1.83-.94,3.8-.7,5.74.5,4,2.92,7.67,5.92,8.25,1.12.22,2.29-.09,3.16-.83.59-.59.66-1.05.58-1.08Z"/>
    <path class="cls-6" d="M194.2,202.7c.98-.28,1.95-.62,2.9-1,2.54-1.21,4.77-2.98,6.52-5.19,1.21-1.51,2.24-3.16,3.07-4.91.92-2.02,1.64-4.13,2.15-6.3,1.13-4.57,1.52-9.76,2.15-15.19.56-5.11,1.38-10.18,2.45-15.21.88-4.13,2.07-8.18,3.56-12.13,1-2.65,2.18-5.23,3.54-7.71.47-.88.9-1.53,1.17-2,.13-.24.28-.46.45-.67-.1.25-.22.49-.35.73-.24.47-.64,1.13-1.08,2-1.28,2.51-2.41,5.09-3.37,7.74-1.42,3.94-2.56,7.97-3.41,12.06-1,4.61-1.76,9.75-2.39,15.17s-1,10.62-2.21,15.24c-.53,2.19-1.27,4.33-2.23,6.37-.86,1.79-1.93,3.46-3.18,5-1.8,2.23-4.1,3.99-6.72,5.14-.96.43-1.98.72-3.02.86Z"/>
    <path class="cls-13" d="M163.44,300.08l.21-.44.66-1.29c.38-.69.71-1.39,1-2.12.18-.43.38-.89.58-1.38l.33-.76c.09-.27.18-.55.28-.84.37-1.15.85-2.4,1.18-3.84.17-.71.39-1.44.55-2.23s.3-1.59.45-2.43c.61-3.84.9-7.72.86-11.6-.3-10.12-1.98-20.16-5-29.83-1.54-5.49-3.83-11.04-5.43-17.04-.85-3.07-1.31-6.23-1.38-9.42-.01-1.64.13-3.27.43-4.88.34-1.62.81-3.21,1.41-4.75,2.48-6.21,6.7-11.29,10.76-16s8.07-9.18,11.64-13.64c6.34-7.89,12.28-16.1,17.77-24.61,4.7-7.26,8.16-13.34,10.51-17.57,1.18-2.11,2.07-3.77,2.66-4.89l.69-1.27c.16-.29.25-.43.25-.43,0,0-.06.15-.2.45l-.65,1.29c-.57,1.14-1.43,2.81-2.58,4.94-2.31,4.25-5.73,10.37-10.39,17.66-5.46,8.54-11.38,16.79-17.72,24.7-3.56,4.48-7.5,9-11.63,13.68s-8.22,9.74-10.68,15.82c-.6,1.51-1.06,3.07-1.39,4.66-.29,1.58-.43,3.18-.42,4.78.06,3.15.51,6.28,1.36,9.31,1.57,6,3.89,11.57,5.43,17.09,3,9.71,4.65,19.78,4.9,29.94.02,3.9-.29,7.8-.93,11.65-.17.85-.33,1.66-.48,2.45s-.39,1.52-.57,2.23c-.34,1.44-.84,2.7-1.22,3.85-.11.28-.2.56-.3.83l-.33.76-.61,1.38c-.31.72-.66,1.42-1.06,2.1-.3.55-.54,1-.71,1.27s-.23.42-.23.42Z"/>
    <polygon class="cls-2" points="116.86 459.04 136.71 343.74 176.96 363.52 161.95 459.39 116.86 459.04"/>
    <path class="cls-2" d="M181.85,284.28c1.34-.3,18.77-6.54,18.77-6.54l51.38-7.46,26.4.71-6.91,40.55-19.49,19.56-28.54,4s-36.2-11.09-35.05-11.37-6.56-39.45-6.56-39.45Z"/>
    <path class="cls-4" d="M306.59,267.99l-41,2.08s7.83,53.69-28.39,51.62-49-39.78-49-39.78c0,0-18.45,5.35-34.49,11s-33.12,65.71-33.12,65.71l43.51,14s1.75,21.56,9,41.74-.77,44.62-.77,44.62l145.93-.12c-3.23-15.53-3-31.57.68-47,2.58-10.83,4-17,5.47-25.37,6.05-35.02-17.82-118.5-17.82-118.5Z"/>
    <path class="cls-6" d="M161.77,346.28c.14,0,.89,6.92,1.68,15.48s1.33,15.5,1.19,15.52-.89-6.92-1.68-15.48-1.33-15.52-1.19-15.52Z"/>
    <path class="cls-6" d="M258.75,434.03c0,.13-15.42-2.27-34.38-5.36s-34.32-5.72-34.3-5.85,15.41,2.26,34.38,5.36,34.32,5.71,34.3,5.85Z"/>
    <g class="cls-11">
      <path d="M253.73,371.02c14.64,8.23,31.96,10.26,48.1,5.61-5-5.9-12.92-8.7-20.65-9.15s-15.41,1.2-23,2.83"/>
    </g>
    <g class="cls-11">
      <path d="M201.67,398.55c14.63,8.23,31.96,10.25,48.09,5.61-5-5.9-12.92-8.7-20.65-9.15s-15.4,1.19-23,2.82"/>
    </g>
    <g class="cls-11">
      <path d="M176,429.59c16.43,3.49,33.56.25,47.58-9-6.53-4.15-14.92-4.46-22.43-2.59s-14.35,5.72-21.09,9.53"/>
    </g>
    <g class="cls-11">
      <path d="M309.65,324.85s-27.79,9.12-31.87,34.94c0,0,23.82-7.46,31.87-34.94Z"/>
    </g>
    <g class="cls-11">
      <path d="M254.87,350.89s-27.79,9.12-31.87,34.93c0,0,23.82-7.45,31.87-34.93Z"/>
    </g>
    <g class="cls-11">
      <path d="M178.87,371.28s-14,25.65.63,47.28c7.27-14.97,7.04-32.5-.63-47.28Z"/>
    </g>
    <g class="cls-11">
      <path d="M175.15,422.11l.25-.24.79-.7,3.15-2.72h0c6.65-7.78,14.33-14.62,22.82-20.34,11.46-8,26.67-15.86,43.44-23.43,10.75-4.9,21.08-9.4,30.29-13.84s17.41-8.69,24.22-12.37,12.21-6.85,15.9-9.1l4.25-2.62,1.1-.68.39-.22-.36.27-1.08.72c-.94.64-2.36,1.55-4.19,2.7-3.67,2.3-9.05,5.53-15.84,9.25s-15,8-24.18,12.48-19.54,9-30.28,13.89c-16.77,7.56-32,15.4-43.42,23.3-8.48,5.68-16.19,12.44-22.92,20.11h0l-3.23,2.71-.82.65c-.09.07-.18.13-.28.18Z"/>
    </g>
    <path class="cls-4" d="M273.55,268.39l1.69-1c2.66-3.27,4.2-5.59,8.22-4.3h0l32.62-29.38,44.76,44.35-44.76,52.91-42.53-62.58Z"/>
    <path class="cls-6" d="M310.2,296.59c.27.48.51.98.7,1.5.42,1,1,2.4,1.68,4.18,1.36,3.55,3.1,8.51,4.73,14.08s2.84,10.69,3.61,14.42c.38,1.86.66,3.37.83,4.42.11.54.18,1.09.22,1.64-.19-.52-.33-1.06-.42-1.6-.25-1.12-.59-2.6-1-4.38-.86-3.7-2.12-8.79-3.75-14.35s-3.3-10.53-4.58-14.11l-1.52-4.23c-.21-.51-.38-1.03-.5-1.57Z"/>
    <path class="cls-6" d="M382.39,234.67v.84c0,.55-.1,1.37-.18,2.43-.22,2.13-.51,5.29-1.23,9.31-.86,4.88-2.06,9.7-3.58,14.42-2,6.26-4.59,12.31-7.72,18.09-6.9,12.87-18.26,26.47-33.33,38.51s-33.53,22.76-53.37,32.76c-9.91,5.06-19.82,9.54-29.38,13.83s-18.79,8.46-27.39,12.79c-17.19,8.61-32,18-42.31,28.33-.65.64-1.33,1.22-1.93,1.88s-1.18,1.31-1.77,1.95l-1.72,1.89c-.57.62-1.13,1.24-1.62,1.89-1.93,2.4-3.48,5.08-4.6,7.95-.96,2.5-1.54,5.13-1.71,7.81-.15,2.25-.03,4.51.34,6.73.54,3.09,1.43,6.11,2.66,9l1,2.21c.23.5.33.76.33.76,0,0-.14-.25-.38-.74s-.62-1.22-1.07-2.19c-1.28-2.88-2.21-5.9-2.77-9-.4-2.24-.53-4.51-.38-6.78.15-2.7.72-5.37,1.68-7.9,1.12-2.9,2.67-5.62,4.61-8.05.5-.67,1.04-1.3,1.62-1.91l1.73-1.91,1.76-2c.6-.66,1.28-1.25,1.93-1.89,10.35-10.36,25.15-19.85,42.36-28.5,8.61-4.35,17.83-8.52,27.39-12.83s19.45-8.77,29.35-13.83c19.84-10,38.3-20.58,53.31-32.66s26.39-25.51,33.31-38.32c3.14-5.74,5.74-11.77,7.76-18,1.54-4.7,2.77-9.5,3.66-14.37.75-4,1.07-7.15,1.33-9.28.1-1.06.17-1.87.22-2.43s.09-.79.09-.79Z"/>
    <path class="cls-13" d="M249.5,367.12c14.64,8.23,31.96,10.25,48.1,5.61-5-5.9-12.93-8.7-20.65-9.15s-15.41,1.19-23,2.82"/>
    <path class="cls-13" d="M196.78,394.65c14.63,8.24,31.95,10.26,48.09,5.63-5-5.9-12.92-8.7-20.65-9.15s-15.4,1.19-23,2.82"/>
    <path class="cls-13" d="M170.31,426.21c16.43,3.49,33.57.24,47.59-9-6.54-4.14-14.93-4.46-22.44-2.58s-14.35,5.72-21.09,9.53"/>
    <path class="cls-13" d="M310,335.71c14.64,8.21,31.95,10.21,48.08,5.57-5-5.91-12.92-8.71-20.65-9.15s-15.4,1.19-23,2.82"/>
    <path class="cls-13" d="M344.37,311.12c16.39,3.61,33.54.52,47.63-8.59-6.51-4.2-14.9-4.58-22.42-2.76s-14.4,5.61-21.16,9.36"/>
    <path class="cls-13" d="M381.89,269.03c-6.15,4.69-13.84,14.4-18.51,20.57,16.46-3.3,30.92-13.06,40.13-27.09-7.64-1.23-15.51,1.82-21.62,6.52Z"/>
    <path class="cls-13" d="M305.42,320.43s-27.79,9.13-31.87,34.94c0,0,23.82-7.46,31.87-34.94Z"/>
    <path class="cls-13" d="M349,278.96s-23.11,17.93-18.27,43.62c-.01,0,19.91-15.03,18.27-43.62Z"/>
    <path class="cls-13" d="M363.68,223.4s-8.33,28,10.56,46.09c0,0,7.44-23.82-10.56-46.09Z"/>
    <path class="cls-13" d="M249.76,346.99s-27.79,9.12-31.87,34.93c0,0,23.82-7.45,31.87-34.93Z"/>
    <path class="cls-13" d="M175.65,367.39s-14,25.66.63,47.29c0,0,12.28-21.73-.63-47.29Z"/>
    <path class="cls-13" d="M155.85,188.6l-.24.22-.73.63c-.67.52-1.57,1.38-2.73,2.5-3.19,3.24-5.88,6.92-8,10.94-1.47,2.76-2.66,5.66-3.54,8.66-1.02,3.44-1.52,7.01-1.49,10.59.1,3.96.79,7.88,2.05,11.64,1.38,4.02,3.29,7.85,5.67,11.37,4.65,6.8,10.63,12.59,17.59,17,5.68,3.61,11.71,6.62,18,9,5.36,2.07,9.81,3.46,12.88,4.41l3.55,1.07.92.28c.11.03.21.07.3.12-.11,0-.22-.03-.32-.06l-.93-.24c-.82-.21-2-.54-3.58-1-3.09-.89-7.56-2.22-12.95-4.26-6.34-2.36-12.42-5.37-18.13-9-7.03-4.44-13.07-10.28-17.76-17.15-2.4-3.56-4.32-7.43-5.71-11.5-1.25-3.81-1.93-7.78-2-11.79-.02-3.63.51-7.24,1.56-10.72.91-3.02,2.12-5.94,3.62-8.71,2.15-3.99,4.89-7.63,8.12-10.8.89-.86,1.82-1.67,2.8-2.43l.77-.59c.17-.13.27-.19.28-.18Z"/>
    <g class="cls-11">
      <path d="M170.13,231.86s1.59,29.21,25.46,39.85c0,0-1.02-24.93-25.46-39.85Z"/>
    </g>
    <g class="cls-11">
      <path d="M144,243.14l-2.66,11.73c7.39,2.52,15.36,2.79,22.9.76-5.66-5.71-12.6-9.99-20.24-12.49Z"/>
    </g>
    <path class="cls-13" d="M166.12,235.87s1.59,29.21,25.46,39.85c0,0-1.01-24.93-25.46-39.85Z"/>
    <path class="cls-13" d="M141.78,188.59s-14.24,25.55.27,47.28c0,0,12.45-21.59-.27-47.28Z"/>
    <path class="cls-13" d="M115.25,244.94s19.74,21.59,44.95,14.7c0,0-16.59-18.65-44.95-14.7Z"/>
  </g>
</svg>
