<?xml version="1.0" encoding="UTF-8"?>
<svg id="Layer_1" data-name="Layer 1" xmlns="http://www.w3.org/2000/svg" viewBox="0 0 695.84 450.79">
  <defs>
    <style>
      .cls-1 {
        fill: #e0e0e0;
      }

      .cls-2 {
        fill: #ae7461;
      }

      .cls-3 {
        isolation: isolate;
      }

      .cls-3, .cls-4 {
        opacity: .3;
      }

      .cls-5 {
        fill: #f0c808;
      }

      .cls-6 {
        fill: #2c6f00;
      }

      .cls-7 {
        fill: #ebebeb;
      }

      .cls-8 {
        fill: #263238;
      }

      .cls-9 {
        fill: #6f4439;
      }

      .cls-10 {
        fill: #21bdc8;
      }

      .cls-11 {
        fill: #fff;
      }

      .cls-12 {
        opacity: .6;
      }

      .cls-13 {
        fill: #ffbf9d;
      }

      .cls-14 {
        fill: #f5f5f5;
      }

      .cls-15 {
        fill: #086788;
      }

      .cls-16 {
        fill: #455a64;
      }

      .cls-17 {
        fill: #ff9a6c;
      }
    </style>
  </defs>
  <g id="freepik--background-complete--inject-293">
    <path class="cls-14" d="M535.88,201.6c3.55-1.8,7.33-3.11,11.23-3.91l3.05-10.6,18.21,1,1.83,10.91c3.79,1.24,7.39,2.98,10.72,5.17l9.64-5.34,12.14,13.61-6.4,9c1.8,3.54,3.11,7.32,3.9,11.21l10.6,3-1,18.22-10.88,1.82c-1.23,3.79-2.97,7.39-5.16,10.71l5.34,9.65-13.62,12.14-9-6.4c-3.55,1.8-7.33,3.12-11.23,3.92l-3.05,10.67-18.21-1-1.79-10.95c-3.79-1.24-7.39-2.97-10.72-5.17l-9.64,5.34-12.15-13.61,6.4-9c-1.79-3.55-3.1-7.32-3.89-11.21l-10.6-3,1-18.22,10.88-1.82c1.23-3.78,2.97-7.39,5.16-10.71l-5.35-9.65,13.62-12.15,9,6.4-.03-.03ZM543.77,226.6c-8.07,7.19-8.77,19.56-1.58,27.63s19.56,8.77,27.63,1.58c8.07-7.19,8.77-19.56,1.58-27.63,0,0,0,0,0,0-7.18-8.08-19.55-8.8-27.63-1.62,0,0,0,0,0,0v.04Z"/>
    <path class="cls-14" d="M381.71,180.53c3.55-1.8,7.33-3.11,11.23-3.91l3-10.6,18.22,1,1.82,10.88c3.79,1.24,7.39,2.97,10.71,5.17l9.65-5.34,12.18,13.65-6.4,9c1.8,3.56,3.12,7.34,3.92,11.24l10.59,3-1,18.22-10.88,1.82c-1.24,3.79-2.99,7.4-5.2,10.72l5.34,9.64-13.61,12.15-9-6.4c-3.56,1.8-7.34,3.11-11.24,3.91l-3,10.6-18.22-1-1.83-10.9c-3.78-1.24-7.38-2.98-10.71-5.17l-9.64,5.34-12.15-13.61,6.4-9c-1.8-3.55-3.11-7.33-3.91-11.23l-10.6-3,1-18.22,10.87-1.82c1.24-3.78,2.98-7.39,5.17-10.71l-5.34-9.65,13.61-12.14,9,6.4.02-.04ZM389.6,205.53c-8.06,7.2-8.76,19.57-1.57,27.63s19.57,8.76,27.63,1.57,8.76-19.57,1.57-27.63c-.01-.01-.02-.02-.03-.04-7.19-8.05-19.54-8.75-27.6-1.57v.04Z"/>
    <path class="cls-14" d="M162.81,249.64c3.55-1.8,7.33-3.11,11.23-3.91l3-10.6,18.22,1,1.82,10.87c3.78,1.24,7.39,2.98,10.71,5.17l9.65-5.34,12.14,13.61-6.4,9c1.8,3.55,3.12,7.33,3.92,11.23l10.6,3-1,18.22-10.88,1.82c-1.24,3.79-2.97,7.39-5.17,10.71l5.34,9.65-13.61,12.14-9-6.4c-3.53,1.82-7.29,3.15-11.18,3.98l-3,10.6-18.21-1-1.83-10.88c-3.78-1.24-7.39-2.98-10.71-5.17l-9.64,5.34-12.15-13.61,6.4-9c-1.8-3.56-3.11-7.34-3.91-11.24l-10.6-3,1-18.21,10.87-1.83c1.24-3.78,2.98-7.38,5.17-10.71l-5.39-9.7,13.61-12.15,9,6.4h0ZM170.7,274.64c-8.07,7.19-8.77,19.56-1.58,27.63s19.56,8.77,27.63,1.58c8.07-7.19,8.77-19.56,1.58-27.63,0,0,0,0,0,0-7.18-8.08-19.55-8.8-27.63-1.62,0,0,0,0,0,0v.04Z"/>
    <path class="cls-7" d="M616.75,156.2c1.87-.95,3.85-1.64,5.9-2.06l1.6-5.57,9.58.54,1,5.72c1.99.65,3.88,1.57,5.63,2.72l5.07-2.81,6.39,7.16-3.37,4.72c.95,1.87,1.64,3.85,2.06,5.9l5.57,1.61-.54,9.57-5.72,1c-.65,1.99-1.56,3.88-2.72,5.63l2.81,5.07-7.16,6.39-4.76-3.41c-1.87.94-3.85,1.63-5.9,2.05l-1.6,5.58-9.58-.55-1-5.72c-1.99-.65-3.88-1.56-5.63-2.71l-5.07,2.8-6.39-7.16,3.37-4.71c-.95-1.87-1.64-3.86-2.06-5.91l-5.58-1.6.55-9.58,5.72-1c.65-1.99,1.57-3.88,2.72-5.63l-2.81-5.07,7.16-6.39,4.72,3.37.04.05ZM620.89,169.32c-4.24,3.78-4.61,10.29-.83,14.53s10.29,4.61,14.53.83c4.24-3.78,4.61-10.29.83-14.53-3.78-4.24-10.29-4.61-14.53-.83,0,0,0,0,0,0Z"/>
    <path class="cls-7" d="M304.39,271.38c2.75-1.38,5.67-2.39,8.68-3l2.35-8.18,14.06.8,1.41,8.4c2.93.95,5.71,2.3,8.27,4l7.45-4.13,9.38,10.52-4.94,6.93c1.38,2.74,2.39,5.66,3,8.67l8.19,2.35-.81,14.07-8.4,1.41c-.95,2.92-2.3,5.71-4,8.27l4.13,7.45-10.51,9.38-6.93-5c-2.75,1.38-5.67,2.39-8.68,3l-2.35,8.18-14.07-.8-1.4-8.4c-2.92-.96-5.7-2.31-8.27-4l-7.42,4.08-9.33-10.47,4.94-6.93c-1.38-2.74-2.39-5.66-3-8.67l-8.19-2.35.8-14.07,8.4-1.41c.96-2.92,2.31-5.7,4-8.27l-4.12-7.45,10.43-9.38,6.93,4.95v.05ZM310.49,290.65c-6.23,5.56-6.77,15.11-1.21,21.33,5.56,6.23,15.11,6.77,21.33,1.21,6.22-5.55,6.77-15.1,1.22-21.33-5.54-6.24-15.09-6.82-21.33-1.28,0,0,0,0,0,0v.05Z"/>
    <path class="cls-7" d="M112.35,337.32c1.87-.94,3.86-1.64,5.91-2.06l1.6-5.57,9.58.55,1,5.72c1.99.65,3.88,1.56,5.63,2.71l5.07-2.81,6.39,7.16-3.37,4.72c.95,1.87,1.64,3.86,2.06,5.91l5.57,1.6-.54,9.58-5.72.95c-.65,1.99-1.57,3.89-2.72,5.64l2.81,5.07-7.16,6.38-4.72-3.36c-1.87.94-3.85,1.64-5.9,2.06l-1.6,5.57-9.58-.55-1-5.71c-1.99-.66-3.88-1.57-5.63-2.72l-5.07,2.81-6.39-7.16,3.37-4.72c-.95-1.87-1.64-3.86-2.06-5.91l-5.58-1.6.55-9.58,5.72-.95c.65-1.99,1.56-3.89,2.72-5.64l-2.81-5.03,7.16-6.38,4.71,3.36v-.04ZM116.5,350.45c-4.24,3.79-4.61,10.29-.82,14.53,3.79,4.24,10.29,4.61,14.53.82,4.24-3.79,4.61-10.29.82-14.53-3.79-4.23-10.29-4.6-14.53-.82h0Z"/>
    <path class="cls-7" d="M28.74,319.67c1.07-.54,2.21-.94,3.39-1.18l.92-3.2,5.5.31.55,3.29c1.14.37,2.23.9,3.24,1.56l2.91-1.62,3.66,4.11-1.93,2.71c.55,1.07.94,2.22,1.18,3.4l3.2.91-.31,5.5-3.28.55c-.38,1.14-.91,2.23-1.57,3.24l1.61,2.91-4.11,3.67-2.71-1.94c-1.07.55-2.21.95-3.39,1.19l-.92,3.2-5.5-.32-.55-3.28c-1.14-.37-2.23-.9-3.24-1.56l-2.91,1.61-3.66-4.11,1.93-2.71c-.55-1.07-.95-2.21-1.18-3.39l-3.2-.92.31-5.5,3.28-.55c.37-1.14.9-2.23,1.56-3.23l-1.6-2.94,4.11-3.67,2.71,1.93v.03ZM31.12,327.21c-2.43,2.18-2.64,5.91-.46,8.35,2.18,2.43,5.91,2.64,8.35.46,2.43-2.17,2.64-5.91.47-8.34-2.17-2.43-5.89-2.65-8.33-.49,0,0-.01.01-.02.02h0Z"/>
    <path class="cls-14" d="M72.09,163.75c1.07-.54,2.21-.94,3.39-1.19l.92-3.2,5.5.32.55,3.28c1.14.37,2.23.9,3.24,1.56l2.91-1.61,3.66,4.11-1.93,2.71c.55,1.07.94,2.21,1.18,3.39l3.2.92-.31,5.5-3.28.55c-.37,1.14-.9,2.23-1.56,3.23l1.61,2.92-4.11,3.66-2.71-1.93c-1.07.54-2.21.94-3.39,1.18l-.92,3.2-5.5-.31-.55-3.29c-1.14-.37-2.23-.89-3.23-1.56l-2.92,1.62-3.64-4.11,1.93-2.71c-.54-1.07-.94-2.21-1.18-3.39l-3.2-.92.31-5.5,3.28-.55c.37-1.15.89-2.24,1.54-3.25l-1.61-2.91,4.11-3.67,2.71,1.94h0ZM74.47,171.28c-2.44,2.17-2.65,5.91-.47,8.34s5.91,2.65,8.34.47c2.43-2.17,2.65-5.9.48-8.34-2.17-2.44-5.91-2.65-8.35-.48Z"/>
    <path class="cls-14" d="M638.83,220.44c1.07-.54,2.21-.94,3.39-1.18l.92-3.2,5.49.31.55,3.29c1.14.37,2.23.9,3.24,1.56l2.91-1.62,3.67,4.11-1.93,2.67c.54,1.07.94,2.21,1.18,3.39l3.2.92-.32,5.5-3.28.55c-.37,1.14-.9,2.23-1.56,3.24l1.61,2.91-4.11,3.67-2.71-1.94c-1.07.55-2.21.95-3.39,1.19l-.92,3.2-5.5-.32-.55-3.28c-1.14-.37-2.23-.9-3.23-1.56l-2.91,1.61-3.67-4.08,1.93-2.71c-.54-1.07-.94-2.21-1.18-3.39l-3.2-.92.31-5.5,3.29-.55c.37-1.14.9-2.23,1.56-3.23l-1.61-2.91,4.11-3.67,2.71,1.93h0ZM641.2,227.98c-2.44,2.17-2.65,5.91-.47,8.34,2.17,2.44,5.91,2.65,8.34.48s2.65-5.91.47-8.34c0,0,0,0,0,0-2.17-2.43-5.9-2.65-8.33-.48,0,0,0,0,0,0Z"/>
    <path class="cls-14" d="M188.49,186.76c1.6-.8,3.3-1.39,5.05-1.75l1.37-4.77,8.18.47.82,4.89c1.7.55,3.32,1.33,4.81,2.32l4.34-2.4,5.45,6.12-2.87,4c.8,1.58,1.4,3.26,1.76,5l4.8,1.44-.47,8.18-4.88.82c-.56,1.7-1.34,3.32-2.33,4.82l2.4,4.33-6.11,5.46-4-2.88c-1.58.8-3.26,1.4-5,1.76l-1.49,4.81-8.18-.47-.82-4.88c-1.7-.56-3.32-1.34-4.81-2.32l-4.34,2.4-5.45-6.12,2.87-4c-.81-1.6-1.4-3.3-1.76-5.05l-4.76-1.37.47-8.18,4.88-.82c.56-1.7,1.34-3.32,2.32-4.81l-2.39-4.38,6.11-5.46,4,2.87.03-.03ZM192.04,197.98c-3.62,3.23-3.94,8.79-.71,12.41,3.23,3.62,8.79,3.94,12.41.71,3.62-3.23,3.94-8.79.71-12.41,0,0,0,0,0,0-3.22-3.62-8.77-3.95-12.4-.72,0,0,0,0-.01.01Z"/>
    <path class="cls-7" d="M618.56,365.53c2.05.53,3.8,1.88,4.84,3.73,1.03,1.84,1.61,3.89,1.71,6,.32,4-1.16,8.47-3,12.1-3.89-2.26-5.64-7.18-6.37-9.74-1.15-4-.79-12,2.78-12.08"/>
    <path class="cls-7" d="M627.28,393.12c-.91-2.21-.56-4.74.91-6.62,1.49-1.84,3.65-3,6-3.24,1.08-.22,2.2.04,3.06.72.69.76.92,1.84.59,2.82-.34.96-.92,1.82-1.7,2.48-2.53,2.36-5.42,4.19-8.87,3.84"/>
    <path class="cls-1" d="M625.36,406.07c-.02-.28-.02-.55,0-.83v-2.28c-.1-2.52.2-5.03.9-7.45.75-2.42,2.13-4.61,4-6.32.57-.51,1.2-.95,1.88-1.31.18-.1.37-.18.56-.26.13-.06.2-.08.21-.07-.9.51-1.74,1.11-2.51,1.79-1.79,1.73-3.12,3.88-3.86,6.26-.69,2.39-1.03,4.88-1,7.37,0,1,0,1.73-.07,2.27-.01.28-.05.56-.11.83Z"/>
    <path class="cls-1" d="M618.82,371.64c.05.11.09.23.11.35.07.26.15.59.26,1,.22.87.52,2.14.88,3.72.71,3.15,1.64,7.51,2.56,12.35s1.64,9.24,2.12,12.44c.24,1.59.43,2.88.55,3.78,0,.42.09.76.12,1,.01.12.01.24,0,.36-.04-.11-.07-.23-.09-.35-.04-.26-.1-.59-.18-1-.15-.93-.37-2.21-.63-3.77-.54-3.18-1.3-7.58-2.21-12.42s-1.81-9.2-2.48-12.36c-.32-1.55-.59-2.82-.78-3.74-.08-.42-.15-.75-.21-1-.02-.12-.02-.24-.02-.36Z"/>
    <path class="cls-7" d="M621.99,396.64c-1.76-4.7-5.68-8.26-10.52-9.58-1.22-.32-2.74-.38-3.49.62s-.26,2.45.41,3.52c2.94,4.49,8.3,6.77,13.58,5.78"/>
    <path class="cls-1" d="M612.73,390.71c.26.03.52.09.77.17.3.07.59.16.88.27.34.13.73.24,1.14.44.46.19.9.41,1.33.65.5.26.99.56,1.46.88,1.07.75,2.05,1.61,2.93,2.57.86.98,1.61,2.05,2.23,3.2.27.54.52,1.05.71,1.55.19.46.34.93.47,1.41.12.39.22.78.29,1.18.07.3.12.6.15.91.05.26.07.53.06.79-.06,0-.16-1.11-.69-2.82-.15-.43-.29-.9-.51-1.38-.21-.52-.45-1.02-.72-1.51-.62-1.12-1.36-2.17-2.21-3.13-.84-.94-1.79-1.78-2.82-2.51-.46-.33-.93-.63-1.42-.9-.42-.25-.85-.47-1.3-.67-1.67-.78-2.76-1.04-2.75-1.1Z"/>
    <path class="cls-7" d="M417.97,400.18c2.05.53,3.8,1.88,4.84,3.73,1.02,1.84,1.6,3.9,1.71,6,.31,4-1.16,8.47-3,12.09-3.89-2.26-5.64-7.18-6.37-9.73-1.15-4-.78-12,2.79-12.08"/>
    <path class="cls-7" d="M426.68,427.77c-.91-2.21-.56-4.74.91-6.62,1.49-1.84,3.65-3,6-3.24,1.06-.21,2.15.05,3,.72.7.76.92,1.84.59,2.82-.33.96-.91,1.81-1.69,2.47-2.54,2.37-5.42,4.2-8.88,3.85"/>
    <path class="cls-1" d="M424.76,440.72c-.02-.28-.02-.56,0-.84v-2.27c-.1-2.52.21-5.03.91-7.45.75-2.43,2.13-4.61,4-6.33.57-.5,1.2-.94,1.87-1.3.18-.1.37-.19.57-.26.13-.06.2-.08.2-.07-.9.5-1.73,1.1-2.5,1.79-1.79,1.73-3.12,3.88-3.86,6.26-.7,2.39-1.04,4.87-1,7.36,0,1,0,1.74-.07,2.28-.01.28-.05.56-.12.83Z"/>
    <path class="cls-1" d="M418.2,406.29c.04.11.08.23.11.35.06.26.15.59.25,1,.22.88.52,2.15.88,3.73.72,3.14,1.64,7.51,2.56,12.35s1.64,9.24,2.13,12.43c.24,1.6.42,2.89.54,3.79.05.42.09.76.13,1,.01.12.01.24,0,.36-.04-.11-.07-.23-.08-.35-.05-.27-.11-.61-.18-1-.16-.92-.37-2.2-.64-3.77-.53-3.18-1.29-7.57-2.21-12.41s-1.81-9.2-2.47-12.36c-.33-1.55-.59-2.82-.79-3.74-.08-.42-.15-.76-.2-1-.02-.13-.03-.25-.03-.38Z"/>
    <path class="cls-7" d="M421.39,431.29c-1.75-4.71-5.67-8.28-10.52-9.58-1.21-.32-2.73-.39-3.49.62s-.26,2.45.41,3.52c2.95,4.49,8.3,6.77,13.58,5.78"/>
    <path class="cls-1" d="M412.14,425.38c.26.03.51.09.76.17.3.07.6.16.89.27.33.13.73.25,1.13.45.46.19.91.4,1.34.65.5.27.98.56,1.45.88,1.07.74,2.06,1.6,2.94,2.57.86.98,1.61,2.05,2.22,3.2.27.5.5,1.02.71,1.55.19.46.35.92.48,1.4.15.43.2.84.29,1.19.07.3.12.6.14.91.05.26.07.52.07.78-.07,0-.17-1.11-.7-2.82-.14-.47-.31-.92-.51-1.37-.21-.52-.44-1.02-.71-1.51-.62-1.12-1.36-2.18-2.21-3.14-.87-.94-1.83-1.8-2.87-2.54-.49-.33-1-.64-1.42-.89s-.9-.48-1.3-.68c-1.64-.77-2.72-1.07-2.7-1.07Z"/>
    <path class="cls-1" d="M514.96,393.85c-2.14-2.41-4.14-4.94-6-7.58-2.02-2.53-3.9-5.17-5.64-7.91,2.14,2.42,4.14,4.95,6,7.59,2.02,2.53,3.9,5.17,5.64,7.9Z"/>
    <path class="cls-1" d="M518.98,394.08c-1.27-2.7-2.38-5.47-3.32-8.3-1.1-2.77-2.05-5.6-2.83-8.48,1.27,2.7,2.38,5.47,3.32,8.3,1.11,2.77,2.05,5.6,2.83,8.48Z"/>
    <path class="cls-1" d="M525.47,379c.16.06-1.13,3.26-1.93,7.39s-.85,7.57-1,7.57c-.14-.74-.18-1.5-.11-2.25.05-1.82.26-3.63.61-5.42.35-1.78.85-3.54,1.49-5.24.22-.72.54-1.41.94-2.05Z"/>
    <path class="cls-1" d="M283.75,437.28c-.66-.61-1.26-1.28-1.8-2l-4.14-4.9-4.13-5c-.61-.65-1.16-1.36-1.64-2.12.7.56,1.34,1.19,1.91,1.88,1.13,1.2,2.65,2.91,4.26,4.85s3,3.72,4,5c.59.71,1.11,1.48,1.54,2.29Z"/>
    <path class="cls-1" d="M290.39,438.1c-1.73-2.7-3.32-5.5-4.74-8.38-1.58-2.79-3.01-5.67-4.27-8.62,3.3,5.5,6.3,11.18,9,17h0Z"/>
    <path class="cls-1" d="M298.89,421.79c-.23.85-.53,1.69-.89,2.5-.73,1.99-1.33,4.02-1.8,6.09-.45,2.07-.76,4.18-.94,6.29-.02.88-.1,1.77-.24,2.64-.16-.88-.2-1.77-.12-2.66.06-2.15.33-4.28.79-6.38.48-2.1,1.15-4.14,2-6.12.3-.83.7-1.63,1.2-2.36Z"/>
    <path class="cls-14" d="M136.2,83c.82-6-7.58-10.85-13.9-11.36-3-.25-6.14.21-9-.78-6.18-2.15-8.65-10.14-14.68-12.69-4.51-1.9-9.71-.2-14.08,2s-8.69,5-13.57,5.28c-4.25.27-8.87-1.31-12.58.77-2.77,1.55-4.22,4.74-6.78,6.62s-5.75,2.23-8.85,2.4-6.31.2-9.13,1.49-5.16,4.28-4.57,7.33l107.14-1.06Z"/>
    <path class="cls-14" d="M199.38,42.75c.47-3.4-4.33-6.2-7.94-6.49-1.72-.14-3.51.13-5.14-.44-3.53-1.23-4.94-5.79-8.39-7.25-2.57-1.08-5.54-.12-8,1.14s-5,2.84-7.75,3c-2.43.15-5.06-.75-7.19.44-1.58.88-2.41,2.71-3.87,3.78-1.51.94-3.27,1.41-5.05,1.37-1.78-.04-3.55.25-5.22.86-1.61.73-3,2.44-2.61,4.18l61.16-.59Z"/>
    <path class="cls-14" d="M538.68,18.99c.61-4.41-5.62-8-10.3-8.41-2.23-.18-4.54.16-6.66-.58-4.58-1.59-6.4-7.51-10.87-9.39-3.34-1.41-7.19-.16-10.43,1.47s-6.43,3.68-10.05,3.91c-3.15.2-6.57-1-9.32.57-2.05,1.15-3.12,3.51-5,4.91s-4.26,1.65-6.55,1.78-4.68.14-6.77,1.1-3.82,3.17-3.38,5.43l79.33-.79Z"/>
    <path class="cls-14" d="M668.94,113.51c.49-3.56-4.52-6.48-8.29-6.78-1.8-.15-3.67.13-5.37-.47-3.69-1.28-5.16-6-8.77-7.57-2.69-1.13-5.79-.12-8.4,1.19s-5.18,3-8.1,3.15c-2.54.16-5.29-.78-7.51.46-1.65.93-2.52,2.83-4,4-1.6.97-3.44,1.45-5.3,1.39-1.86-.05-3.7.26-5.45.89-1.68.77-3.07,2.55-2.72,4.37l63.91-.63Z"/>
    <path class="cls-14" d="M407.2,111.02c.84-6.09-7.77-11.11-14.23-11.63-3.09-.25-6.29.22-9.21-.79-6.33-2.21-8.86-10.39-15-13-4.62-2-9.93-.22-14.41,2s-8.9,5.08-13.9,5.4c-4.35.28-9.07-1.33-12.88.79-2.83,1.59-4.32,4.86-6.93,6.78s-5.89,2.29-9.07,2.46-6.45.21-9.34,1.53-5.28,4.38-4.68,7.5l109.65-1.04Z"/>
  </g>
  <g id="freepik--Floor--inject-293">
    <path class="cls-8" d="M695.84,275.9c0,.14-155.72,39.4-347.84,87.69S.05,450.93,0,450.79s155.68-39.4,347.87-87.7c192.19-48.3,347.93-87.33,347.97-87.19Z"/>
  </g>
  <g id="freepik--Plants--inject-293">
    <path class="cls-8" d="M371.2,357.61c-2.49-3.83-5.91-6.96-9.95-9.09.67.14,1.3.39,1.89.73,1.45.75,2.8,1.69,4,2.79,1.21,1.1,2.27,2.36,3.14,3.75.41.55.72,1.16.92,1.82Z"/>
    <path class="cls-8" d="M373.55,336.93c.08,0-.22,1.09-.45,2.86-.62,4.62.16,9.31,2.24,13.48.79,1.6,1.43,2.51,1.35,2.56s-.21-.19-.52-.59c-.43-.57-.81-1.17-1.16-1.79-2.3-4.18-3.1-9.02-2.28-13.72.12-.7.3-1.39.52-2.07.16-.48.26-.74.3-.73Z"/>
    <path class="cls-8" d="M383.2,343.38c-.2.53-.45,1.04-.73,1.53-.55,1.22-.89,2.53-1,3.86-.11,1.34.01,2.7.37,4,.2.53.36,1.08.47,1.63-.39-.43-.67-.95-.82-1.51-.47-1.33-.66-2.74-.54-4.14.11-1.4.52-2.77,1.2-4,.25-.53.6-1,1.05-1.37Z"/>
    <path class="cls-8" d="M652.59,286.69c-1.24-1.89-2.64-3.66-4.19-5.31-1.68-1.53-3.49-2.91-5.41-4.12.66.16,1.29.43,1.86.8,2.87,1.61,5.26,3.96,6.91,6.81.37.56.65,1.17.83,1.82Z"/>
    <path class="cls-8" d="M655.77,266.12c.09,0-.26,1.08-.56,2.84-.38,2.28-.43,4.61-.15,6.91.3,2.3.93,4.54,1.88,6.65.73,1.62,1.33,2.56,1.25,2.61s-.2-.2-.49-.61c-.41-.59-.77-1.2-1.09-1.84-1.07-2.11-1.77-4.4-2.06-6.75-.3-2.33-.19-4.7.3-7,.15-.7.35-1.39.59-2.06.07-.27.18-.52.33-.75Z"/>
    <path class="cls-8" d="M665.2,272.92c-.23.51-.49,1.01-.79,1.49-1.22,2.42-1.56,5.18-.95,7.82.18.53.32,1.08.41,1.64-.37-.45-.63-.98-.76-1.54-.42-1.34-.55-2.76-.38-4.16.17-1.39.63-2.74,1.36-3.94.26-.52.64-.97,1.11-1.31Z"/>
    <path class="cls-8" d="M78.82,430.78c-1.17-1.94-2.51-3.77-4-5.48-1.63-1.58-3.4-3.01-5.28-4.28.66.18,1.28.47,1.84.86,1.4.84,2.69,1.87,3.81,3.06,1.13,1.2,2.1,2.54,2.87,4,.36.56.61,1.19.76,1.84Z"/>
    <path class="cls-8" d="M82.48,410.32c.08,0-.3,1.07-.66,2.82-.93,4.56-.48,9.3,1.29,13.61.68,1.64,1.25,2.6,1.17,2.64s-.19-.2-.47-.62c-.38-.6-.72-1.23-1-1.88-2-4.33-2.47-9.21-1.31-13.84.16-.68.39-1.35.66-2,.16-.5.28-.75.32-.73Z"/>
    <path class="cls-8" d="M91.48,417.13c-.24.52-.52,1.01-.84,1.48-.64,1.18-1.07,2.46-1.28,3.78-.2,1.33-.17,2.68.09,4,.15.54.27,1.09.36,1.65-.37-.46-.61-1-.72-1.57-.75-2.72-.3-5.63,1.24-8,.28-.53.67-.98,1.15-1.34Z"/>
    <path class="cls-10" d="M403.13,313.45c1.81-.01,3.54.71,4.8,2,1.25,1.3,2.19,2.87,2.75,4.59,1.18,3.28,1,7.29.31,10.71-3.69-1-6.23-4.68-7.41-6.63-1.85-3.09-3.36-9.81-.45-10.67"/>
    <path class="cls-10" d="M416.5,334.38c-1.24-1.63-1.53-3.8-.75-5.7.79-1.86,2.3-3.33,4.18-4.06.83-.43,1.8-.47,2.66-.1.75.48,1.18,1.32,1.13,2.21-.06.87-.34,1.71-.83,2.44-1.54,2.54-3.49,4.72-6.39,5.21"/>
    <path class="cls-8" d="M417.86,345.58c-.09-.22-.17-.45-.22-.69-.14-.49-.32-1.12-.53-1.88-.67-2.07-1.01-4.23-1-6.4.07-2.18.7-4.3,1.84-6.16.35-.55.77-1.06,1.24-1.51.16-.16.31-.27.4-.35l.15-.1c-.61.63-1.16,1.32-1.64,2.06-1.08,1.85-1.68,3.94-1.74,6.08-.02,2.14.27,4.27.87,6.33.19.81.35,1.46.45,1.91.08.23.15.47.18.71Z"/>
    <path class="cls-8" d="M404.72,318.47s.07.08.17.26l.44.78c.37.68.91,1.66,1.56,2.89,1.29,2.45,3,5.86,4.89,9.68s3.43,7.3,4.55,9.84c.56,1.27,1,2.3,1.3,3l.34.83c.05.09.08.19.1.29,0,0-.06-.09-.15-.27s-.22-.48-.38-.81l-1.37-3c-1.16-2.52-2.77-6-4.62-9.8s-3.56-7.23-4.82-9.71l-1.53-2.89-.4-.8c-.03-.09-.06-.19-.08-.29Z"/>
    <path class="cls-10" d="M412.97,338.51c-2.48-3.49-6.49-5.57-10.77-5.57-1.06,0-2.32.31-2.71,1.31s.34,2.1,1.13,2.83c3.4,3.06,8.32,3.74,12.42,1.72"/>
    <path class="cls-8" d="M404.06,335.68c.22-.01.44-.01.66,0,.26-.01.52-.01.78,0,.31,0,.66,0,1,.1s.8.12,1.24.24c.47.1.94.24,1.39.41,1.06.36,2.06.85,3,1.46.93.61,1.79,1.34,2.55,2.15.33.36.64.74.93,1.13.28.36.5.73.71,1.06.19.3.35.6.5.92.13.23.24.47.33.72.09.2.17.42.23.63-.05,0-.39-.88-1.21-2.18-.22-.35-.46-.68-.72-1-.27-.37-.6-.72-.94-1.1-.76-.79-1.6-1.49-2.51-2.1-.92-.59-1.9-1.07-2.92-1.46-.48-.16-.93-.32-1.37-.42s-.84-.19-1.21-.26c-1.49-.27-2.45-.24-2.44-.3Z"/>
  </g>
  <g id="freepik--Birds--inject-293">
    <path class="cls-8" d="M325.72,52.65s-.75-.24-2.12-.5c-1.94-.37-3.94-.39-5.89-.07-2.89.47-5.6,1.73-7.82,3.64-2.72,2.34-4.6,5.5-5.35,9v.1l-.15.64-.26-.6c-1.45-3.27-3.86-6.03-6.91-7.9-2.49-1.52-5.33-2.38-8.25-2.5-1.97-.08-3.94.15-5.83.7-1.33.39-2,.73-2.05.69.15-.11.32-.2.5-.26.49-.23.99-.43,1.51-.59,1.9-.61,3.89-.9,5.88-.84,2.98.08,5.89.93,8.44,2.47,3.14,1.89,5.62,4.71,7.11,8.06h-.41v-.1c.77-3.59,2.71-6.83,5.51-9.21,2.27-1.94,5.05-3.2,8-3.63,1.99-.31,4.03-.25,6,.19.53.12,1.05.27,1.56.45.19.07.36.15.53.26Z"/>
    <path class="cls-8" d="M383.68,22.02s-.42-.1-1.18-.24c-1.06-.18-2.15-.18-3.21,0-1.58.26-3.05.95-4.26,2-1.48,1.28-2.5,3.01-2.9,4.92h0l-.14.64-.26-.6c-.79-1.78-2.1-3.28-3.76-4.3-1.36-.84-2.91-1.31-4.5-1.38-1.08-.05-2.15.06-3.19.35-.73.2-1.13.37-1.14.34s.09-.07.27-.16c.26-.14.54-.25.82-.34,2.64-.89,5.55-.58,7.94.85,1.74,1.05,3.12,2.61,3.95,4.47h-.4v-.06c.43-2,1.5-3.8,3.06-5.13,2.15-1.81,5.03-2.5,7.77-1.86.29.07.58.16.86.27.1.06.19.14.27.23Z"/>
    <path class="cls-8" d="M344.9,9.89s-.39.47-1.1,1.31c-.99,1.19-1.87,2.46-2.65,3.8-2.59,4.42-3.88,9.48-3.7,14.6v.18l-.42.05c-.48-2.74-1.44-5.37-2.83-7.77-1.14-1.97-2.54-3.77-4.18-5.34-1.1-1.07-2.3-2.03-3.58-2.87-.91-.59-1.43-.89-1.42-.92s.15,0,.4.17c.38.18.75.39,1.11.61,1.33.8,2.57,1.73,3.7,2.79,1.69,1.57,3.14,3.38,4.31,5.36,1.45,2.43,2.45,5.11,2.95,7.9h-.42v-.18c-.18-5.2,1.16-10.34,3.87-14.78.81-1.34,1.74-2.59,2.79-3.75.36-.42.68-.7.88-.91s.27-.26.29-.25Z"/>
  </g>
  <g id="freepik--speech-bubble-2--inject-293">
    <path class="cls-11" d="M496.44,79.21l-.46-5.83c7.32-10.03,5.13-24.09-4.9-31.41-10.03-7.32-24.09-5.13-31.41,4.9s-5.13,24.09,4.9,31.41c7.56,5.52,17.74,5.78,25.57.65h0l6.3.28Z"/>
    <path class="cls-8" d="M496.44,79.21c-.13,0-.26,0-.39,0h-1.2l-4.72-.19s-.08-.04-.08-.08c0,0,0,0,0-.01,0-.02,0-.03,0-.05h0l.11.13c-3.06,2.03-6.57,3.28-10.22,3.64-2.4.22-4.82.08-7.17-.44-2.67-.61-5.21-1.71-7.49-3.23-2.51-1.7-4.67-3.87-6.34-6.4-1.84-2.73-3.04-5.84-3.51-9.1-.49-3.46-.2-7,.86-10.33,1.13-3.5,3.11-6.66,5.76-9.21,1.34-1.3,2.84-2.44,4.45-3.38.82-.43,1.63-.87,2.47-1.23l1.28-.49.64-.23.65-.18c3.41-.96,6.99-1.13,10.47-.49,3.25.62,6.33,1.96,9,3.92,2.48,1.79,4.58,4.04,6.19,6.64,1.42,2.37,2.4,4.97,2.88,7.69.09.64.17,1.27.25,1.89s0,1.24.07,1.84c.03,1.16-.04,2.31-.2,3.46-.54,3.62-1.96,7.05-4.13,10h0l.3,4.39c0,.48.05.85.07,1.12,0,.12,0,.25,0,.37v-.39c0-.25-.06-.66-.11-1.14-.09-1-.22-2.47-.39-4.33,0-.02,0-.04,0-.06,2.12-2.94,3.49-6.35,4-9.94.16-1.14.23-2.28.21-3.43,0-.59,0-1.2-.09-1.81s-.16-1.24-.25-1.87c-.49-2.67-1.47-5.24-2.88-7.56-1.57-2.56-3.63-4.79-6.07-6.55-2.63-1.93-5.66-3.25-8.87-3.84-3.42-.62-6.93-.45-10.27.5l-.64.17-.63.23-1.25.48c-.83.35-1.62.79-2.43,1.21-1.58.93-3.05,2.04-4.36,3.32-2.6,2.49-4.54,5.58-5.65,9-1.06,3.27-1.36,6.73-.9,10.13.46,3.2,1.63,6.25,3.43,8.94,1.64,2.5,3.75,4.65,6.22,6.33,2.24,1.51,4.74,2.59,7.37,3.2,2.31.53,4.7.7,7.06.49,3.62-.33,7.1-1.54,10.15-3.52.04-.03.1-.03.13.01s.03.1-.01.13h0l-.06-.14,4.66.29,1.21.08.42.02Z"/>
    <path class="cls-10" d="M483.11,67.28l6.92-10.69-12-4.54s.58,1.77,1.34,4l-12.71,4.33,2.5,7.16,12.65-4.16c.75,2.22,1.3,3.9,1.3,3.9Z"/>
  </g>
  <g id="freepik--speech-bubble-1--inject-293">
    <path class="cls-11" d="M253.1,145.31l-.64-5.87c7.01-10.25,4.38-24.24-5.86-31.25s-24.24-4.38-31.25,5.86c-7.01,10.25-4.38,24.24,5.86,31.25,7.72,5.28,17.91,5.23,25.58-.13h0l6.31.14Z"/>
    <path class="cls-8" d="M253.1,145.31h-6.32s-.09,0-.09-.09c0-.02,0-.04,0-.06h0l.12.13c-2.99,2.14-6.47,3.52-10.12,4-2.39.3-4.81.21-7.18-.24-2.69-.53-5.27-1.55-7.6-3-2.57-1.62-4.79-3.74-6.55-6.22-1.92-2.68-3.21-5.76-3.78-9-.6-3.48-.39-7.06.62-10.45,1.02-3.54,2.9-6.77,5.48-9.4,1.3-1.34,2.77-2.52,4.35-3.52.81-.45,1.61-.92,2.44-1.3l1.27-.53.63-.26.65-.19c3.37-1.07,6.95-1.35,10.45-.81,3.28.52,6.41,1.76,9.15,3.65,2.53,1.73,4.69,3.94,6.36,6.51,1.49,2.32,2.55,4.9,3.12,7.6.1.67.2,1.3.3,1.89.08.62.09,1.24.13,1.84.06,1.16.02,2.33-.12,3.48-.43,3.64-1.75,7.12-3.84,10.14v-.06c.18,1.89.33,3.36.43,4.38,0,.48.07.85.1,1.13.01.12.01.25,0,.37l-.06-.4c0-.28-.08-.66-.14-1.14-.12-1-.3-2.46-.52-4.32,0-.02,0-.04,0-.06,2.03-3.01,3.3-6.46,3.7-10.07.14-1.14.17-2.29.11-3.44-.05-.59-.06-1.2-.14-1.81s-.21-1.23-.31-1.86c-.57-2.66-1.63-5.2-3.11-7.48-1.65-2.52-3.78-4.69-6.28-6.38-2.7-1.85-5.77-3.06-9-3.56-3.44-.52-6.95-.25-10.26.8l-.64.19-.62.26-1.24.51c-.82.38-1.6.84-2.39,1.28-1.56.98-2.99,2.14-4.27,3.46-2.53,2.58-4.38,5.74-5.38,9.21-.95,3.31-1.15,6.79-.56,10.18.56,3.19,1.83,6.2,3.7,8.84,1.72,2.45,3.9,4.53,6.42,6.14,2.29,1.45,4.82,2.46,7.47,3,2.33.46,4.72.55,7.08.27,3.61-.43,7.07-1.74,10.06-3.82.03-.03.08-.04.11,0,0,0,0,0,0,0,.02.03.02.07,0,.1h0l-.07-.14,4.67.15h1.23l.43.1Z"/>
    <polygon class="cls-10" points="221.97 126.89 225.6 123.76 231.68 130.04 245.39 118.69 248.28 122.3 230.71 136.52 221.97 126.89"/>
  </g>
  <g id="freepik--character-3--inject-293">
    <path class="cls-2" d="M584.54,140.28c.28,0,3.64-.23,4.34-1.15.4-.66.45-1.47.14-2.17.68-.52,1.16-1.25,1.38-2.07.04-.86-.19-1.71-.66-2.43l.35-1.06c.37-.75.28-1.64-.22-2.3-.67-.5-1.18-1.2-1.43-2-.3-1.18-4-1.78-5.73-2.19s-4.15-1-6,1.19c-2.54,2.9-6.83,7.47-6.83,7.47l3.21,9.64s1.53,1,5,.22c2.34-.6,4.54-1.67,6.45-3.15Z"/>
    <path class="cls-6" d="M660.69,59.06c-5.63,1.49-11.41,2.31-17.23,2.46-8.25,0-16.8-2.22-23.22-8-7.08-6.4-11-16.53-18.71-22-6.88-4.92-17.13-4.2-24.1.43l2.14,47.28c3.5-3,10-9,20.41-4.46,4.15,1.81,7.89,3.81,11.9,6,11.24,6.08,22.5,5,33.79-.63,4.21-2.11,10-6.2,16.94-14.8,3.18-3.96.42-6.84-1.92-6.28Z"/>
    <path class="cls-8" d="M587.14,235.89l-.27-6.06c-.24-5.17-.47-10.33-.7-15.5l-1-22.52c-.42-9.14-.83-18.28-1.24-27.43-.46-10-.91-19.98-1.36-29.95-.45-9.97-.9-19.98-1.37-30.05-.42-9.33-.84-18.7-1.27-28.1-.36-7.9-.72-15.8-1.07-23.71-.26-5.66-.52-11.33-.77-17-.12-2.69-.19-5.39-.37-8.07v-.35c-.06-.34-.38-.58-.72-.52-.29.05-.51.29-.53.58.08,1.85.16,3.69.25,5.54.22,5.03.45,10.06.68,15.09.33,7.41.67,14.81,1,22.22l1.23,27.25,1.35,29.89c.45,10,.91,20.03,1.36,30.09.43,9.42.85,18.84,1.28,28.26.36,8,.72,16,1.09,24l.78,17.36c.13,2.85.22,5.71.39,8.56v.49c.06.34.38.58.72.52.29-.05.51-.29.53-.58h.01Z"/>
    <path class="cls-2" d="M588.75,132.63c-1.2.38-2.44.63-3.69.72-.58.05-1.17.06-1.74.16-.58.08-1.14.3-1.62.63-.48.35-.78.88-.84,1.47-.04.6.31,1.16.86,1.4-.57.27-.86.91-.69,1.52.17.6.62,1.08,1.2,1.31.57.22,1.18.34,1.79.35.91.06,1.81.02,2.71-.13.79-.09,1.52-.44,2.08-1,.57-.58.63-1.5.14-2.15.52-.37.88-.93,1-1.56"/>
    <path class="cls-2" d="M581.27,133c-.66-.32-1.06-1-1-1.73.13-.81.95-1.31,1.72-1.59,1.88-.55,3.85-.77,5.81-.65l.93.59c.21.39.35.81.42,1.24.08.44-.04.88-.33,1.22-.32.26-.71.44-1.12.5-1.22.38-2.48.62-3.75.72-.9.08-1.82-.02-2.68-.3Z"/>
    <path class="cls-9" d="M589.02,136.96c-.66-.11-1.33-.16-2-.14-1.22,0-2.92-.06-4.79-.06h-.69c-.07,0-.14,0-.21,0-.09.02-.17.07-.24.13-.11.1-.18.23-.22.37-.11.45-.11.91,0,1.36.09.42.32.79.67,1.05.3.21.64.36,1,.45.48.14.97.21,1.46.21.35,0,.54,0,.54-.06-.64-.11-1.28-.25-1.91-.43-.65-.15-1.17-.65-1.34-1.3-.08-.38-.08-.77,0-1.15.02-.07.06-.14.11-.19.06-.05,0,0,.19,0h.69c1.87,0,3.56,0,4.78-.07.66.01,1.31-.04,1.96-.17Z"/>
    <path class="cls-9" d="M589.74,132.46c-.56-.03-1.12,0-1.67.11-1,.11-2.43.3-4,.53h-.14c-.8-.01-1.59.19-2.29.59-.58.36-.94,1-.94,1.69.02.44.15.87.4,1.24.17.26.31.37.33.35s-.07-.16-.19-.43c-.17-.36-.25-.75-.25-1.15.03-.58.35-1.1.86-1.38.65-.33,1.36-.5,2.09-.49h.19c1.57-.24,3-.48,4-.67.55-.06,1.09-.19,1.61-.39Z"/>
    <path class="cls-9" d="M589.87,129.1c-.81.21-1.59.49-2.35.84h.06c-1.33-.06-3.13-.12-5.1-.15h-1.37l-.06.06c-.32.34-.58.73-.76,1.15-.18.41-.21.87-.1,1.3.12.39.4.72.78.88.3.13.62.22.94.25.45.06.9.06,1.35,0,.17,0,.33-.04.48-.11,0-.07-.7,0-1.79-.14-.51-.09-1.25-.29-1.41-1-.08-.76.22-1.5.8-2l-.15.06h1.28c2,0,3.77.05,5.11.05h0c.8-.32,1.57-.72,2.29-1.19Z"/>
    <path class="cls-2" d="M572.61,133.18s4.67-6.55,4.89-6.65,7.4-.81,9-.05,3.6,1.9,3.6,1.9c0,0,.18,1.85-2.66,1.9s-5.82-.11-5.82-.11l-1.63,2.21s.46,6.12-5,7.67"/>
    <path class="cls-9" d="M574.99,140.04c.23-.04.46-.1.68-.19.28-.08.54-.2.79-.34.35-.17.69-.38,1-.62.83-.66,1.49-1.52,1.93-2.49.55-1.26.81-2.63.77-4v.1c.53-.7,1.07-1.45,1.65-2.22l-.16.07c1.38.08,2.84.13,4.36.14.79.03,1.58,0,2.36-.1.42-.07.83-.23,1.18-.47.38-.26.64-.65.74-1.09.04-.15.05-.31.05-.46v-.1h-.09l-2-1-1-.49c-.32-.19-.65-.34-1-.46-.68-.17-1.38-.25-2.08-.25h-2c-1.28,0-2.5.14-3.63.26l-.84.09h-.34l-.12.1-.26.33-.91,1.22c-1.13,1.57-2,2.85-2.63,3.74l-.69,1c-.16.24-.24.36-.22.37.11-.1.2-.21.28-.33l.75-1c.68-.9,1.6-2.14,2.73-3.66.3-.38.6-.78.92-1.2l.24-.29h0v-.07c0,.09,0,.06,0,.06h.19l.83-.09c1.13-.1,2.34-.17,3.61-.21h2c.67,0,1.34.08,2,.24.32.12.63.27.92.44l1,.5,1.94,1-.1-.15c.01.11.01.22,0,.33-.22.72-.86,1.22-1.61,1.27-.76.09-1.52.13-2.28.1-1.52,0-3-.05-4.35-.11h-.09l-.06.07-1.62,2.24v.05h0c.06,1.35-.18,2.68-.69,3.92-.4.95-1.02,1.79-1.8,2.46-.72.53-1.51.97-2.35,1.29Z"/>
    <path class="cls-10" d="M570.45,131.74l-26.57,3.17-8.53-25.53-8,37.5,5.31,3.86c3.32,2.43,7.55,3.25,11.54,2.23l30.33-7.28-4.08-13.95Z"/>
    <path class="cls-10" d="M531,108.1l2.51.36,1.38.72c3.68,8.35,5.38,17.44,4.95,26.55l-.5,9.75-6,61.2-20.5-4.85-.92-18,19.08-75.73Z"/>
    <path class="cls-3" d="M533.2,202.26s2-20.4,2.83-28.13,1.19-36,1.19-36c0,0-14.18,56.25-13.87,56.39s9.85,7.74,9.85,7.74Z"/>
    <path class="cls-8" d="M538.09,122.38c.06.14.1.29.11.45.06.35.14.78.23,1.3.17,1.14.34,2.79.44,4.84.23,4.1.11,9.77-.19,16s-.7,11.89-.93,16c-.1,2-.18,3.63-.24,4.84,0,.53,0,1-.06,1.32,0,.16-.02.31-.06.46-.02-.15-.02-.31,0-.46v-1.32c0-1.15,0-2.81.09-4.86.14-4.09.48-9.74.79-16s.47-11.9.33-16c-.06-2.05-.18-3.7-.29-4.83-.06-.53-.1-1-.14-1.31-.04-.14-.07-.28-.08-.43Z"/>
    <path class="cls-8" d="M483.2,306.53l-2.52,11.14.05,1.46s17.87,5.3,18.28,8.51l-33.7,2.25-.56-7.73,3.55-18.41,14.9,2.78Z"/>
    <path class="cls-1" d="M470.2,318.38c-.66.25-1.02.96-.85,1.64.23.67.94,1.04,1.62.85.7-.27,1.08-1.02.88-1.74-.31-.67-1.09-.98-1.77-.7"/>
    <path class="cls-16" d="M465.29,329.89l-.09-2.73,32.35-1.14s1.54.55,1.44,1.62l-33.7,2.25Z"/>
    <path class="cls-11" d="M481.2,318.93c0,.16-.81.29-1.58.87s-1.16,1.31-1.32,1.25,0-1,1-1.71,1.97-.57,1.9-.41Z"/>
    <path class="cls-11" d="M484.88,320.15c.05.16-.65.49-1.16,1.22s-.63,1.48-.79,1.48-.33-.92.32-1.82,1.61-1.03,1.63-.88Z"/>
    <path class="cls-11" d="M487.2,324.25c-.15,0-.43-.76-.07-1.69s1.11-1.34,1.19-1.21-.37.65-.65,1.41-.34,1.46-.47,1.49Z"/>
    <path class="cls-8" d="M571.81,284.38l-1,11.37.24,1.45s18.42,2.84,19.27,6l-33.12,6.79-1.59-7.6,1-18.71,15.2.7Z"/>
    <path class="cls-1" d="M560.54,297.91c-.62.33-.89,1.08-.62,1.73.31.63,1.06.9,1.71.63.65-.36.94-1.15.65-1.84-.4-.62-1.22-.83-1.86-.46"/>
    <path class="cls-16" d="M557.2,309.99l-.45-2.7,31.9-5.5s1.6.34,1.65,1.41l-33.1,6.79Z"/>
    <path class="cls-11" d="M571.57,296.96c0,.17-.77.41-1.46,1.09s-1,1.45-1.13,1.41-.12-1,.73-1.82,1.86-.83,1.86-.68Z"/>
    <path class="cls-11" d="M575.33,297.69c.07.15-.57.57-1,1.36s-.42,1.55-.58,1.58-.46-.87.07-1.85,1.48-1.24,1.51-1.09Z"/>
    <path class="cls-11" d="M578.2,301.44c-.14.06-.53-.7-.29-1.67s.91-1.48,1-1.35-.27.68-.45,1.48-.15,1.48-.26,1.54Z"/>
    <path class="cls-8" d="M544.35,70.65c2.04.39,4.02-.94,4.42-2.99.34-1.77-.62-3.54-2.3-4.21,1.62-1.44,1.77-3.91.34-5.53-.82-.93-2.04-1.41-3.28-1.31.08-2.59-1.95-4.76-4.53-4.84-.78-.03-1.55.14-2.25.49-1.77-1.66-4.43-1.9-6.47-.59-2-.52-4.05.68-4.58,2.68-.32,1.21,0,2.49.82,3.43"/>
    <path class="cls-2" d="M529.2,55.32l.83.06c8.31.61,14.76,7.5,14.83,15.83.06,7.76,0,16.32-.33,20.45-.73,8.56-9.39,9.27-9.39,9.27v10.34l-20.73-2.16.88-37.45c-.09-8.94,4.96-16.47,13.91-16.34Z"/>
    <path class="cls-9" d="M535.2,100.93c-3.99-.28-7.8-1.71-11-4.11,0,0,2.3,6.5,10.9,6.36l.1-2.25Z"/>
    <path class="cls-8" d="M540.28,78.92c-.04.66-.61,1.17-1.27,1.14-.65,0-1.17-.51-1.18-1.16,0-.01,0-.02,0-.03.04-.66.61-1.17,1.27-1.15.65,0,1.17.51,1.18,1.16,0,.01,0,.03,0,.04Z"/>
    <path class="cls-8" d="M542.71,75.27c-.16.15-1-.61-2.35-.7s-2.33.5-2.46.32.11-.35.55-.62c.6-.36,1.3-.52,2-.46.68.05,1.33.31,1.86.75.37.34.48.64.4.71Z"/>
    <path class="cls-8" d="M527.86,78.17c-.04.67-.6,1.18-1.27,1.15-.66,0-1.19-.54-1.18-1.2h0c.04-.67.6-1.18,1.27-1.15.65,0,1.18.53,1.18,1.18,0,0,0,.01,0,.02Z"/>
    <path class="cls-8" d="M529.76,74.57c-.16.15-1-.61-2.35-.7s-2.33.5-2.46.32.11-.35.55-.62c.6-.36,1.3-.52,2-.46.68.05,1.33.31,1.86.75.36.34.48.64.4.71Z"/>
    <path class="cls-8" d="M533.82,84.68c.71-.17,1.44-.25,2.17-.23.34,0,.66-.06.73-.28.05-.34,0-.69-.15-1l-.8-2.63c-.77-2.23-1.35-4.52-1.75-6.85.94,2.17,1.71,4.41,2.29,6.7.27.92.53,1.8.77,2.64.2.42.24.9.12,1.35-.11.23-.33.4-.59.45-.19.02-.39.02-.58,0-.74.04-1.48,0-2.21-.15Z"/>
    <path class="cls-8" d="M531.27,69.59c-.2.32-1.3-.12-2.68-.27s-2.57,0-2.67-.36c-.05-.17.22-.45.74-.68.67-.28,1.4-.37,2.12-.28.72.06,1.42.33,2,.76.42.34.58.68.49.83Z"/>
    <path class="cls-8" d="M543.2,69.85c-.3.27-1.36-.11-2.66-.22s-2.43,0-2.66-.31c-.1-.16.09-.45.6-.7.69-.3,1.45-.41,2.2-.33.75.06,1.47.32,2.09.76.43.33.54.66.43.8Z"/>
    <path class="cls-8" d="M544.32,67.23s-1.86-5.53-4.36-7c-3-1.74-4.62,1.59-7.54.54s-5.8-2.72-9-.64c-3.52,2.28-2.09,4.17-2.57,8-2,15.34-5.09,19.49-5.36,12.18,0-.8-2.19-1.6-2.27-5-.11-4.38.11-9.68,1.31-12.7,1-2.55,2.62-4.24,5.43-6,4.43-2.82,10.21-2.47,14.11-1.79s11.13,5.72,10.25,12.41Z"/>
    <path class="cls-2" d="M516.03,80.1c.06-1.29-.94-2.37-2.23-2.43-.04,0-.07,0-.11,0-1.61,0-3.46.82-3.59,4.12-.24,5.87,5.7,4.9,5.72,4.73s.13-3.97.21-6.42Z"/>
    <path class="cls-9" d="M514.63,84.26s-.11.07-.28.14c-.25.1-.52.1-.77,0-.75-.52-1.16-1.41-1.07-2.32,0-.5.12-1,.34-1.45.13-.37.43-.65.8-.75.25-.06.5.07.6.3.07.17,0,.28.06.3s.13-.1.09-.34c-.03-.15-.1-.28-.22-.38-.16-.13-.36-.19-.56-.17-.49.08-.91.4-1.1.86-.27.5-.42,1.05-.42,1.62-.1,1.06.44,2.09,1.38,2.6.33.12.7.07,1-.12.13-.17.17-.27.15-.29Z"/>
    <path class="cls-8" d="M516.97,68.76c.68.64,1.5,1.09,2.4,1.33.93.22,1.88-.29,2.22-1.19.1-.4,0-.88.32-1.18s.93-.19,1.42-.1c1.68.3,3.81-1.43,4.36-3.06.42.68,1.28.94,2,.58.56-.3,1.07-.69,1.5-1.15.5-.62,1.29-.94,2.08-.86.4.17.82.29,1.25.37.78,0,1.22-.88,1.39-1.64s.33-1.64,1-2c.69-.22,1.43-.19,2.1.09.7.16,1.62.06,1.85-.62.1-.37.03-.76-.18-1.08-.87-1.53-2.68-2.26-4.37-1.76-.6-2.78-3.34-4.55-6.12-3.95-1.34.29-2.51,1.1-3.25,2.26-2-2.09-5.32-2.17-7.41-.17-.44.42-.8.91-1.07,1.46-1.98-.68-4.14.38-4.81,2.36-.32.93-.26,1.94.15,2.83-1.14.47-1.97,1.49-2.18,2.71-.11,1.21,1,2.51,2.17,2.27-.61.98-.31,2.28.67,2.89.93.58,2.14.35,2.8-.53"/>
    <path class="cls-16" d="M536.65,58.24s0,.07,0,.11c0,.07,0,.17-.06.31-.11.39-.28.76-.51,1.09-.36.54-.84.98-1.4,1.29-.74.44-1.6.62-2.45.51l.11-.12c.14.55.06,1.12-.23,1.61-.31.5-.69.95-1.12,1.34-.21.24-.44.45-.7.63-.3.18-.65.27-1,.27-.71.05-1.39-.25-1.83-.81h.22c-.24,1.21-.98,2.27-2.04,2.91-.6.37-1.3.55-2,.49-.65-.08-1.28-.27-1.86-.56l.16-.06c-.36.69-.88,1.27-1.52,1.71-.6.44-1.36.59-2.08.41-1.24-.37-2.14-1.43-2.3-2.71l.13.07c-.63.28-1.34.33-2,.15-.51-.13-.97-.38-1.36-.73-.25-.21-.46-.48-.61-.77-.06-.1-.1-.2-.13-.31.2.38.47.72.79,1,.39.32.84.55,1.33.66.64.16,1.32.1,1.92-.17h.12v.12c.15,1.2,1.01,2.19,2.18,2.51.66.17,1.35.03,1.89-.39.6-.41,1.09-.97,1.43-1.62l.05-.1.11.05c.56.27,1.16.44,1.78.52.64.05,1.28-.11,1.82-.45,1.02-.59,1.75-1.59,2-2.74l.06-.27.16.23c.39.49,1,.75,1.62.71.3,0,.59-.09.85-.24.24-.17.46-.37.66-.58.42-.38.78-.82,1.08-1.31.27-.43.35-.96.23-1.45v-.14h.14c.81.1,1.63-.06,2.35-.45.54-.3,1.01-.72,1.38-1.22.3-.46.51-.97.63-1.5Z"/>
    <path class="cls-8" d="M533.42,89.38c0-.22-1.48,0-2.69-1.13s-1.26-2.69-1.46-2.67-.24.38-.17,1c.1.86.51,1.65,1.14,2.24.61.57,1.41.87,2.24.86.62.05.96-.17.94-.3Z"/>
    <path class="cls-8" d="M488.36,212.15l-10.66,41.23s-13.61,51-14.83,61.47l22.33,2.53s11.21-48.73,16.17-55.58,19.67-63.82,19.67-63.82l-32.68,14.17Z"/>
    <path class="cls-8" d="M523.85,193.94s42.73,28.31,45.7,34.39,4.23,66.54,4.23,66.54l-20.79,5.24-4.79-55.6-46.75-22.66s-12.49-6.45-18-13-2.8-17.3-2.8-17.3l4.7-5,41.6-3.24-3.1,10.63Z"/>
    <path class="cls-16" d="M491.67,217.61c.18.12.37.22.56.31l1.63.81,6,2.91,19.82,9.67c7.74,3.78,14.77,7.16,19.89,9.54,2.56,1.19,4.64,2.14,6.08,2.78l1.66.72c.19.1.39.17.6.23-.17-.13-.35-.23-.55-.31l-1.63-.81-6-2.92-19.83-9.66c-7.74-3.78-14.77-7.16-19.88-9.54-2.56-1.19-4.64-2.14-6.08-2.78l-1.67-.73c-.19-.1-.39-.17-.6-.22Z"/>
    <path class="cls-16" d="M524.07,194.13c0,.12-2.38-.8-5.28-1.82s-5.3-1.68-5.28-1.81c1.87.2,3.7.66,5.44,1.36,1.79.56,3.51,1.32,5.12,2.27Z"/>
    <path class="cls-7" d="M535.97,111.48l-1.38-4.62-.87,1.05-.59-1.22-18.45-10.47-2,3.85-6.48,1.83c-4.17,1.15-7.44,4.4-8.62,8.57l-5.05,28.16-.38,4.6-2.16,15.6c.51,1.09-8.58,12.2-9.22,16.4s3.31,8.11,3.31,8.11l42.12,7.25s2.11.52,4.26-3.25c1.87-3.28,4-26.83,4-26.83,0,0,1.3-12.65,2.54-21.19.52-5.18.58-10.41.15-15.6l-1.18-12.24Z"/>
    <path class="cls-10" d="M511.89,99.61l2-2.63s8.06,6.87,9.69,13.25-1,33.66-2.86,41.13c-2,8.07-3.65,17.75-17.93,30.23-16.43,14.35-12.46,31.45-15.55,32.36,0,0-22.23-9.53-21.62-12.07,3-12.49,21.43-39.36,21.6-39.72l4.72-25.2,2.59-30.12h0c3.81-2.09,5.92-3.91,9.38-4.7l7.98-2.53Z"/>
    <polygon class="cls-3" points="511.17 125.8 489.06 151.95 490.83 142.5 511.17 125.8"/>
    <path class="cls-8" d="M516.48,163.18c.05-.23.11-.45.2-.67.15-.48.34-1.12.59-1.91.5-1.66,1.19-4.08,1.79-7.12.3-1.52.59-3.19.78-5,.18-1.93.26-3.87.23-5.81,0-4.11,0-8.62.07-13.36,0-3.6.06-7.06.09-10.3v-.12l2.41-3.73.1.31-2.16-.78h-.07v-.06c-2.51-4.54-4.63-8.31-6.14-10.93-.76-1.31-1.35-2.34-1.78-3-.21-.34-.39-.6-.5-.77s-.2-.25-.19-.26,1.12,1.34,2.68,3.94,3.74,6.33,6.29,10.85l-.11-.1,2.17.77.25.09-.14.23-2.39,3.74v-.12c0,3.24,0,6.71-.06,10.3,0,4.74-.08,9.25-.11,13.37.02,1.95-.08,3.9-.29,5.84-.2,1.82-.51,3.5-.83,5-.51,2.4-1.16,4.78-1.94,7.11-.28.82-.51,1.45-.68,1.88-.07.21-.16.41-.26.61Z"/>
    <path class="cls-8" d="M487.01,174.02s-.13.12-.38.3l-1.09.75-4,2.64v-.31l11.79,4.73h-.23l.08-.06,5.56-4v.38l-8.41-3.07-2.44-.95c-.3-.11-.59-.24-.88-.39.3.05.59.13.87.24l2.45.83c2.11.72,5.09,1.76,8.58,3l.4.14-.34.25c-1.72,1.23-3.59,2.58-5.54,4h-.08l-.11.08-.12-.05-11.75-4.84-.32-.14.3-.18,4.14-2.53c.49-.31.99-.58,1.52-.82Z"/>
    <path class="cls-8" d="M536.35,114.64s-.27-.59-.85-1.52l-1.06-1.67c-.47-.72-.85-1.49-1.13-2.3l.37.09-2.33,2.54-1.74,1.89-.13.13-.16-.09c-1.78-1-3.31-1.94-4.39-2.61-.6-.32-1.16-.69-1.68-1.13.63.24,1.24.53,1.82.88,1.12.6,2.69,1.46,4.48,2.47h-.28l1.74-1.89,2.35-2.53.25-.28.12.36c.55,1.39,1.22,2.73,2,4,.32.51.53,1.07.62,1.66Z"/>
    <polygon class="cls-16" points="530.47 112.37 532.23 115.4 534.84 115.65 535.54 113.42 533.46 109.39 530.47 112.37"/>
    <path class="cls-16" d="M534.96,115.05l-3.06-.67c.41,1.09-.09,2.31-1.14,2.81-1.12.52-2.39.59-3.56.19-1.15-.4-2.23-1.01-3.17-1.78-3.56-2.7-6.31-6.11-9.39-9.24s-6.68-6.08-11.11-7.36c-3.58-.91-7.32-1-10.94-.24-6.47,1.12-12.49,4.02-17.39,8.38l-4.31,3.94-1.12,8,10.62.19s16-15.73,22.07-13,15.8,14.13,22.91,15.52c4.27.96,8.5-1.73,9.46-6,.06-.25.1-.49.13-.74Z"/>
    <path class="cls-8" d="M533.57,109.25c0,.07,0,.14,0,.21l.11.63c.08.55.19,1.37.32,2.43.24,2.11.54,5.18.8,9,.13,1.9.25,4,.35,6.22,0,1.11.11,2.27.09,3.47s-.09,2.42-.19,3.68c-.19,2.51-.49,5.14-.83,7.85s-.72,5.53-1.2,8.39c-1,5.74-2.18,11.14-3.29,16s-2.18,9.31-3.33,13-2.27,6.5-3.07,8.47c-.4,1-.72,1.75-.95,2.26l-.18.52c-.03.07-.06.13-.1.19,0,0,0-.07.06-.21s.13-.36.21-.6c.22-.56.51-1.32.87-2.29.75-2,1.83-4.86,2.92-8.5s2.15-8,3.23-13,2.3-10.29,3.24-16c.48-2.86.87-5.66,1.21-8.38s.65-5.32.86-7.82c.1-1.25.18-2.47.21-3.66s0-2.33-.07-3.45c-.09-2.23-.19-4.31-.3-6.21-.21-3.79-.46-6.86-.65-9-.09-1-.17-1.84-.23-2.44,0-.25-.02-.46-.06-.63-.04-.06-.04-.13-.03-.13Z"/>
    <path class="cls-2" d="M462.9,198.44c.1,1.22.06,2.45-.13,3.66-.82,1.9-1.77,3.75-2.86,5.51,0,0-1.2,0-.59-3,.26-1.43.64-2.84,1.16-4.2l2.42-1.97Z"/>
    <path class="cls-16" d="M441.66,219.58s1.27-18.4,5.48-20.61,10.1-3.78,11.83-1.1c2.14,3.4,3.63,7.16,4.4,11.1.53,3.67.77,7.37.72,11.07l-4.91-.35s-.48-18.31-2.08-20.91-9-.17-9.73,3.11-1.92,18-1.92,18l-3.79-.31Z"/>
    <path class="cls-16" d="M425.65,246.08c-.07-7.56,0-24.25,0-31.59,0-2,1.6-3.64,3.6-3.71l44.95-1.51c2.01-.07,3.71,1.47,3.84,3.47l2.11,31c.15,2.05-1.39,3.84-3.45,3.99-.03,0-.07,0-.1,0l-47.09,2.05c-2.05.08-3.78-1.52-3.86-3.58,0-.04,0-.09,0-.13Z"/>
    <path class="cls-2" d="M458.38,206.47l4.52-7.89.77-10-11-2.38-5,8.8s-.82,4.93-.56,6.09,1.94,1.32,1.94,1.32c.11,1.55,2.37,2.23,2.37,2.23.35,1.72,2.5,1.45,2.5,1.45,0,0,.68,2,1.35,2.23.29.08.6.06.88-.06.94-.3,1.74-.93,2.23-1.79Z"/>
    <path class="cls-9" d="M449.52,199.92c.11,0,.11.57,0,1.24s-.29,1.18-.4,1.16-.11-.57,0-1.23.29-1.18.4-1.17Z"/>
    <path class="cls-9" d="M452.12,201.18c-.15,1.18-.4,2.35-.75,3.49-.19-1.22.08-2.46.75-3.49Z"/>
    <path class="cls-9" d="M454.86,203.01c.1.05-.15.7-.41,1.51s-.44,1.49-.56,1.47c-.11-.54-.05-1.09.18-1.59.27-.85.7-1.44.79-1.39Z"/>
    <path class="cls-9" d="M461.42,201.02c-.38,1.1-.89,2.14-1.51,3.12-.5,1.04-1.13,2.01-1.86,2.9.38-1.09.89-2.13,1.51-3.11.51-1.04,1.13-2.01,1.86-2.91Z"/>
    <path class="cls-9" d="M450.25,198.24c0,.06-.12.14-.35.15-.31,0-.6-.1-.84-.3-.23-.2-.38-.48-.43-.78,0-.23,0-.37.09-.37s.19.49.6.84.88.35.93.46Z"/>
    <path class="cls-9" d="M452.94,200.38c0,.05-.14.11-.39.1-.66-.05-1.22-.52-1.39-1.16-.06-.24,0-.4,0-.4,0,0,.26.5.74.89s1.03.4,1.04.57Z"/>
    <path class="cls-9" d="M458.9,202.8c.06,0,.11.34-.3.56-.49.18-1.04.15-1.51-.07-.47-.2-.86-.55-1.11-1-.19-.34-.2-.58-.15-.6s.46.81,1.42,1.22c.39.18.82.24,1.24.18.29-.07.36-.29.41-.29Z"/>
    <path class="cls-8" d="M476.87,243.07c-.03-.09-.05-.18-.05-.27,0-.2-.03-.46-.09-.78-.08-.73-.18-1.74-.31-3-.26-2.66-.62-6.45-1.06-11.13-.22-2.35-.46-4.93-.71-7.69-.13-1.38-.26-2.81-.4-4.28,0-.37-.06-.74-.1-1.11l-.05-.56c-.02-.15-.08-.3-.17-.42-.19-.25-.49-.4-.81-.4h-1.16l-20.29.7-20.3.67c-.36-.02-.72.02-1.07.11-.29.14-.49.41-.55.72,0,.69,0,1.49-.06,2.21,0,1.48-.07,2.92-.1,4.31-.07,2.77-.14,5.35-.2,7.72-.13,4.69-.23,8.5-.31,11.17,0,1.3-.08,2.31-.1,3v1.06c-.02-.09-.02-.18,0-.27v-3.79c0-2.68.09-6.49.16-11.18,0-2.37.09-5,.14-7.72,0-1.39.05-2.83.07-4.3,0-.76,0-1.46.06-2.28.09-.44.38-.81.79-1,.2-.09.43-.13.65-.13h.58l20.3-.71,20.29-.67h1.17c.46-.02.9.2,1.16.58.14.18.22.4.25.62l.05.57c0,.37.07.74.1,1.11.12,1.47.25,2.9.37,4.29.23,2.76.45,5.34.65,7.69.38,4.68.69,8.48.91,11.15.09,1.29.17,2.3.22,3l.05.79c-.02.08-.04.15-.08.22Z"/>
    <rect class="cls-8" x="446.67" y="218.85" width="11.52" height="2.91" rx=".52" ry=".52" transform="translate(-5.9 12.56) rotate(-1.58)"/>
    <path class="cls-10" d="M506.55,129.49l-29.35,24.14-10.81,36.91-16-3.48,9.47-36.44c1.49-5.76,4.35-11.07,8.32-15.5l22.72-25.3c3.07-3.67,7.66-5.7,12.44-5.5,2.78.23,5.37,1.51,7.24,3.58,3.64,4.76,2.75,10.5,2.43,12.25"/>
    <path class="cls-8" d="M512.95,120.15c.17-.72.28-1.45.33-2.19.19-2.12-.03-4.26-.67-6.29-.48-1.45-1.22-2.8-2.17-4-1.26-1.36-2.85-2.36-4.61-2.91-2.02-.64-4.18-.73-6.25-.27-2.32.47-4.5,1.45-6.38,2.89-1,.78-1.92,1.66-2.74,2.63l-2.64,2.94-5.62,6.21-12.35,13.73c-1.08,1.21-2.22,2.41-3.27,3.72-1.06,1.32-2.03,2.71-2.89,4.17-1.8,3-3.17,6.25-4.07,9.63-1.78,6.85-3.63,13.95-5.52,21.21-1.35,5.23-2.69,10.37-4,15.38l-.06.24h.24l16,3.48h.21l.06-.2c4-13.85,7.69-26.39,10.77-36.93l-.06.09,21.43-17.7c2.52-2.1,4.49-3.73,5.83-4.86l1.52-1.27.5-.45s-.19.13-.54.41l-1.54,1.23-5.9,4.78-21.53,17.58h0c-3.1,10.53-6.79,23.06-10.86,36.9l.27-.16-16-3.49.18.29c1.3-5,2.64-10.15,4-15.38,1.89-7.26,3.73-14.36,5.51-21.21,1.32-4.97,3.65-9.61,6.85-13.64,1-1.29,2.17-2.49,3.25-3.71l12.26-13.62,5.59-6.24,2.63-2.94c.8-.96,1.7-1.83,2.68-2.6,1.83-1.43,3.97-2.43,6.25-2.9,2.02-.47,4.13-.39,6.11.22,1.72.53,3.27,1.5,4.51,2.81.96,1.19,1.7,2.55,2.17,4,.65,2.01.91,4.12.75,6.23,0,.72-.11,1.27-.16,1.63s-.07.56-.07.56Z"/>
  </g>
  <g id="freepik--character-2--inject-293">
    <path class="cls-8" d="M262.2,280.21c1.64,1.19,48.7,27.39,48.7,27.39,0,0-9.7,16.69-15.5,30.39s-7.26,20.49-7.26,20.49c0,0,13.92,9,13.64,7.75s36.2-52.24,37.09-61.53-18.53-27.06-18.53-27.06l-19.75-18.05,2.22-7.67s-36-19.39-37.29-19.1l-6.32,10.75s-13.63,24.58,3,36.64Z"/>
    <path class="cls-8" d="M262.08,264.32c-2.24,1.24-18.64,51.05-18.64,51.05-10.85,11.19-29.77,50.49-29.77,50.49.75,1,15.71,11.21,15.71,11.21l35-48.82c2.13-2.4,3.78-5.19,4.85-8.22l23.19-37.77-30.34-17.94Z"/>
    <path class="cls-16" d="M293.54,297.71c-.53-.18-1.05-.41-1.54-.68l-4.11-2c-3.44-1.78-8.19-4.26-13.28-7.26-4.37-2.55-8.6-5.36-12.65-8.39-1.22-.94-2.4-1.94-3.51-3-.43-.36-.81-.79-1.12-1.26.12.08.23.18.33.28.21.2.51.48.92.83.82.71,2,1.68,3.6,2.82,3.12,2.27,7.61,5.18,12.69,8.17s9.8,5.52,13.19,7.38l4,2.18c.52.27,1.01.58,1.48.93Z"/>
    <path class="cls-16" d="M320.11,303.91c0,.15-2.19.57-4.76,1.56s-4.51,2.14-4.59,2c1.28-1.12,2.78-1.97,4.4-2.5,1.56-.68,3.25-1.04,4.95-1.06Z"/>
    <path class="cls-8" d="M303.2,358.97l-4.53,8.41s17,3.63,17.62,6.59l-31.19,4.53-1.07-7.12,5.1-16.55,14.07,4.14Z"/>
    <g class="cls-12">
      <path class="cls-16" d="M285.1,378.54l-.28-2.54,30-3.4s1.47.41,1.46,1.41l-31.18,4.53Z"/>
    </g>
    <path class="cls-11" d="M299.2,367.18c0,.16-.73.34-1.41.94s-1,1.29-1.13,1.25-.05-.95.78-1.66,1.76-.67,1.76-.53Z"/>
    <path class="cls-11" d="M302.62,368.06c.06.14-.57.5-1,1.22s-.47,1.42-.63,1.44-.37-.84.17-1.72,1.44-1.08,1.46-.94Z"/>
    <path class="cls-11" d="M305.05,371.71c-.14.05-.46-.68-.19-1.57s.93-1.33,1-1.21-.3.63-.51,1.36-.15,1.38-.3,1.42Z"/>
    <path class="cls-8" d="M298.34,363.55c0,.15-.77,0-1.62.22s-1.49.55-1.58.44.46-.76,1.47-1,1.79.17,1.73.34Z"/>
    <path class="cls-8" d="M235.84,364.84l-9.12,13.44s10.61,13.79,9.17,16.43l-26.69-16.74,13.35-21.53,13.29,8.4Z"/>
    <g class="cls-12">
      <path class="cls-16" d="M209.2,377.97l1.43-2.11,25.07,16.84s.86,1.26.21,2l-26.71-16.73Z"/>
    </g>
    <path class="cls-11" d="M227.2,378.38c-.08.13-.77-.22-1.68-.21s-1.59.36-1.68.23.58-.76,1.68-.76,1.82.68,1.68.74Z"/>
    <path class="cls-11" d="M229.32,381.38c-.05.15-.76,0-1.55.29s-1.28.78-1.4.69.25-.88,1.24-1.2,1.78.05,1.71.22Z"/>
    <path class="cls-11" d="M228.81,385.68c-.14,0,.09-.81.87-1.31s1.57-.41,1.56-.27-.63.29-1.27.72-1.03.93-1.16.86Z"/>
    <path class="cls-8" d="M228.98,375.12c-.13.09-.62-.47-1.38-.88s-1.49-.54-1.49-.69.85-.27,1.74.22c.89.49,1.26,1.29,1.13,1.35Z"/>
    <path class="cls-16" d="M287.52,249.85c2.32,1.41,4.56,2.97,6.69,4.66,2.23,1.56,4.36,3.25,6.38,5.08-2.33-1.41-4.56-2.97-6.69-4.66-2.23-1.55-4.37-3.25-6.38-5.08Z"/>
    <path class="cls-16" d="M287.14,361.31c2.51.58,4.98,1.32,7.4,2.22,2.47.74,4.89,1.65,7.24,2.7-2.52-.57-4.99-1.3-7.41-2.21-2.47-.74-4.88-1.64-7.23-2.71Z"/>
    <path class="cls-16" d="M229.38,377.07c-2.76-1.66-5.43-3.46-8-5.4-2.67-1.79-5.24-3.73-7.7-5.81,2.76,1.65,5.43,3.45,8,5.39,2.67,1.8,5.24,3.74,7.7,5.82Z"/>
    <path class="cls-8" d="M294.93,128.91c0,.05-.41.27-1.09.81-.97.77-1.87,1.61-2.7,2.53-1.07,1.14-2.28,2.57-3.8,4-.79.77-1.65,1.47-2.58,2.07-1.01.62-2.06,1.16-3.15,1.62-2.1.79-4.16,1.69-6.17,2.7-1.6.89-3.11,1.93-4.52,3.09-1.28,1.11-2.43,2.35-3.43,3.71.17-.43.39-.84.68-1.2.73-1.02,1.57-1.95,2.51-2.78,1.39-1.23,2.91-2.31,4.52-3.23,2.01-1.05,4.08-1.97,6.2-2.77,4.55-1.68,7.24-5.31,9.48-7.49.86-.91,1.81-1.72,2.84-2.44.28-.19.57-.36.88-.51.21-.08.32-.13.33-.11Z"/>
    <path class="cls-8" d="M292.06,166.94c9.82-7.93,8.32-22.4,18.14-30.34l1.34-1.29c.6-4.47-5.4-8-9.17-8.49-3.46-.33-6.9.89-9.37,3.34-2.41,2.2-4.21,5-6.47,7.32-5.43,5.66-13.59,9-16.55,16.51l9,7.52,5.22-3.93-2.74,4.73,10.6,4.63Z"/>
    <path class="cls-16" d="M298.2,135.38c.39-1.51,1.01-2.95,1.84-4.27.85-1.34,2.26-2.21,3.84-2.36.74-.08,1.47.23,1.93.82.38.51.28,1.24-.23,1.62-.11.08-.24.15-.38.19l-.12.16c-1.26,1.77-2.55,3.52-3.87,5.24-.31.45-.7.84-1.15,1.15-.48.29-1.08.29-1.56,0-.71-.55-.53-1.65-.3-2.55Z"/>
    <path class="cls-8" d="M301.77,132.29c4.54-4.77,11.01-7.23,17.57-6.67,3.81.31,5.31,1.26,8,2.27,2.68.93,4.94,2.78,6.4,5.21,1.79,2.89,2.82,6.19,3,9.58.14,3.48-.03,6.96-.53,10.41-.51,3.46-1.97,6.71-4.2,9.4l-8.93.66c-4.87-.32-9.8-.65-14.42-2.22s-8.95-4.58-11.07-9c-2.96-6.07-.61-14.85,4.18-19.64Z"/>
    <path class="cls-13" d="M309.59,133.01l12.17-3.49,3,.66c6.88.71,10.87,8.77,10.37,14.35-.57,6.19-1.5,13.74-2.94,18.2-2.89,9-10.8,9-10.8,9l-.65,4-1.11,8.16-6.64,5.74-16.22-2.73,5.9-12.59,3.53-38.47c.23-1.68,1.7-2.9,3.39-2.83Z"/>
    <path class="cls-17" d="M318.65,159.22c.28-1.07,1.38-1.7,2.45-1.42.29.08.56.22.79.42.71.67,1,1.67.76,2.61h0c-.46.54-1.13.84-1.84.84h-.33c-.54-.06-1.05-.32-1.41-.73-.4-.48-.56-1.11-.42-1.72Z"/>
    <path class="cls-8" d="M331.51,151.69c-.1.64-.69,1.08-1.33,1-.63-.05-1.1-.59-1.05-1.22,0,0,0-.02,0-.03.1-.64.68-1.08,1.32-1,.63.04,1.1.58,1.06,1.21,0,.01,0,.03,0,.04Z"/>
    <path class="cls-8" d="M332.74,147.38c-.17.13-1-.67-2.23-.86s-2.3.3-2.42.12.14-.33.59-.57c.62-.3,1.32-.4,2-.28.66.1,1.28.41,1.75.88.3.39.39.71.31.71Z"/>
    <path class="cls-8" d="M323.53,156.62c.7-.1,1.41-.12,2.12-.05.33,0,.65,0,.74-.22.08-.33.06-.68-.07-1l-.57-2.62c-.57-2.23-.95-4.51-1.16-6.8.74,2.18,1.31,4.42,1.7,6.69.19.92.37,1.79.53,2.63.15.42.15.88,0,1.3-.13.22-.36.36-.61.39-.19.03-.37.03-.56,0-.72-.02-1.43-.13-2.12-.32Z"/>
    <path class="cls-17" d="M321.42,171.69c-4.35-.61-8.44-2.41-11.82-5.2,0,0,2.1,6.88,11.45,7.45l.37-2.25Z"/>
    <path class="cls-8" d="M319.66,156.92c.21,0,0,1.4,1,2.56s2.52,1.24,2.5,1.43-.36.22-1,.14c-.81-.11-1.55-.51-2.1-1.12-.53-.58-.8-1.35-.77-2.13.07-.59.27-.9.37-.88Z"/>
    <path class="cls-8" d="M332.75,142.9c-.26.27-1.2-.09-2.35-.17s-2.14.07-2.35-.24.08-.44.52-.69c.6-.31,1.28-.44,1.95-.37.67.05,1.31.29,1.84.7.39.32.51.63.39.77Z"/>
    <path class="cls-8" d="M317.49,150.25c-.09.64.36,1.24,1,1.33.62.12,1.23-.29,1.35-.91,0,0,0,0,0-.01.08-.64-.36-1.23-1-1.34-.62-.12-1.23.29-1.35.91,0,0,0,.01,0,.02Z"/>
    <path class="cls-8" d="M315.5,145.2c.13.17,1.1-.39,2.38-.23s2.14.9,2.3.76-.05-.36-.42-.71c-.51-.45-1.14-.72-1.81-.8-.66-.08-1.34.05-1.92.38-.43.26-.6.52-.53.6Z"/>
    <path class="cls-8" d="M316.67,141.18c.22.32,1.24.14,2.43.26s2.16.45,2.43.18,0-.45-.41-.77c-.56-.42-1.23-.66-1.92-.71-.69-.07-1.38.05-2,.36-.45.25-.62.53-.53.68Z"/>
    <path class="cls-13" d="M306.2,151.56c.1-.68-.44-2.42-1.1-2.63-1.77-.57-5.05-.93-5.79,3.66-1,6.27,5.49,6,5.53,5.82s1.02-4.48,1.36-6.85Z"/>
    <path class="cls-17" d="M303.51,155.84s-.12.06-.32.11c-.28.07-.57.03-.82-.11-.74-.66-1.07-1.66-.86-2.63.08-.54.27-1.06.56-1.52.19-.39.57-.65,1-.7.27-.03.52.14.6.4.05.19,0,.31,0,.33s.15-.09.15-.35c-.01-.16-.08-.32-.19-.44-.15-.16-.36-.25-.58-.25-.54.01-1.03.31-1.3.78-.35.51-.57,1.08-.66,1.69-.26,1.14.2,2.33,1.16,3,.32.15.68.15,1,0,.22-.16.28-.3.26-.31Z"/>
    <path class="cls-8" d="M304.87,148.92l1.44,1.82c7.58-5.94,22.76-21.19,21.91-20.27-3.04-1.5-6.41-2.21-9.79-2.06-5.23.36-15.26,2-15.71,8.06s2.15,12.45,2.15,12.45Z"/>
    <path class="cls-16" d="M298.98,154.38c-.17-.17-.32-.37-.44-.58-.37-.54-.7-1.11-1-1.69-.47-.87-.81-1.81-1-2.79-.23-1.18-.36-2.38-.39-3.59-.05-2.21.37-4.4,1.25-6.42.25-.62.54-1.21.87-1.79.11-.22.25-.42.41-.6.06,0-.44.94-1,2.49-.78,2.01-1.16,4.15-1.11,6.3-.04,2.15.38,4.29,1.24,6.27.68,1.47,1.24,2.4,1.17,2.4Z"/>
    <path class="cls-13" d="M361.81,257.38c.22.15,2.7,1.94,3.73,1.69.66-.23,1.16-.77,1.35-1.44.78.02,1.54-.22,2.16-.68.52-.58.85-1.31.93-2.09l.87-.55c1.26-.8,1.16-1.75,1.16-1.75-.16-.73-.09-1.49.19-2.18.48-1-1.76-3.54-2.78-4.85s-2.36-3.08-4.94-2.64c-3.47.58-9.13,1.34-9.13,1.34l-2.73,7.2s-.38,1.82,2.55,3.29c2.16,1.03,4.37,1.91,6.64,2.66Z"/>
    <path class="cls-13" d="M369.2,254.38c-1.06-.42-2.07-.96-3-1.61-.44-.31-.86-.63-1.32-.9-.45-.28-.97-.44-1.5-.48-.54-.03-1.07.17-1.45.55-.37.41-.44,1-.19,1.48-.56-.14-1.14.15-1.37.68-.22.52-.18,1.11.09,1.61.28.49.64.92,1.07,1.28.61.56,1.28,1.06,2,1.47.61.39,1.33.57,2.05.5.73-.09,1.29-.69,1.33-1.43.58.02,1.14-.17,1.58-.55"/>
    <path class="cls-17" d="M366.89,257.63c-.39-.46-.84-.88-1.32-1.25-.84-.73-2-1.72-3.34-2.8l-.49-.39c-.06,0-.05-.05-.16-.12-.07-.04-.16-.05-.24-.05-.13.01-.26.06-.37.14-.33.27-.59.61-.76,1-.18.35-.23.75-.13,1.13.08.31.22.61.41.87.26.37.56.71.91,1,.24.2.4.28.41.26-.39-.45-.76-.91-1.1-1.4-.37-.48-.44-1.13-.19-1.68.15-.32.37-.61.65-.83.05-.04.12-.07.19-.07.06,0,0,0,.14.08l.49.4c1.32,1.08,2.53,2,3.41,2.71.46.39.96.72,1.49,1Z"/>
    <path class="cls-17" d="M369.98,254.86c-.37-.35-.78-.65-1.23-.89-.79-.5-1.9-1.18-3.13-1.92h0l-.13-.1c-.56-.47-1.23-.79-1.95-.91-.63-.09-1.25.16-1.65.65-.24.32-.39.71-.43,1.11v.43s.05-.14.12-.4c.08-.37.25-.71.49-1,.35-.39.87-.57,1.39-.48.65.13,1.26.43,1.76.86l.11.09h0c1.24.73,2.37,1.37,3.19,1.82.45.31.94.56,1.46.74Z"/>
    <path class="cls-17" d="M372.01,252.56c-.69-.31-1.41-.57-2.14-.76h.05c-.9-.81-2.14-1.88-3.51-3.05-.31-.25-.6-.5-.89-.75h-.14c-.42.05-.83.17-1.2.37-.36.18-.65.49-.82.86-.15.34-.15.73,0,1.07.14.27.32.51.53.72.3.3.64.55,1,.76.24.15.39.22.4.2s-.51-.38-1.18-1.13c-.31-.36-.72-.93-.44-1.5.38-.6,1.03-.98,1.74-1h-.13l.88.75c1.37,1.17,2.63,2.21,3.58,3h0c.74.23,1.5.39,2.27.46Z"/>
    <path class="cls-1" d="M305.91,201.68c.16,4.13,11.09,33,14.08,38.43s33.36,14.66,33.36,14.66l6-11.63-27.44-14-4.3-36.51c-.19-1.69-1.18-3.18-2.66-4-4.47-2.5-14-7.22-16.44-3.85-4.78,6.5-2.6,16.9-2.6,16.9Z"/>
    <path class="cls-1" d="M301.92,254.43l-37.25-20.15c.24-1.64.63-2.73,1.78-2.93l8.3-10.94,4.16-25.16,12-24.75,9,.28,3.48-3.43,15.81,14.83,1.3-4.21,1.76,5.63,4.19,6c.74,1.13.39,2.33.27,3.91l-.53,4.34c-.4,9-.73,17.89-3.05,22.95-1.14,2.5-7.13,10.53-7.13,10.53l-8.55,12.76-3.07,5.61c.75,3.94-.5,3.81-2.47,4.73Z"/>
    <g class="cls-4">
      <path d="M319.74,186.09c-2.84,6.59-5.9,13.46-11.59,17.85-4.08,3.15-9.15,4.7-14.12,6.1-5.76,1.62-12.19,3.05-18.14,2.44l-1.14,7.9c5.82-1.81,12.45-2.09,18.27-3.86,8.06-2.44,12.65-4.18,18.37-10,5.4-5.37,8.77-12.43,9.57-20-.68-.14-.54-.25-1.22-.43Z"/>
    </g>
    <path class="cls-8" d="M326.14,197.87c.05.19.07.39.06.59,0,.44,0,1,.07,1.69.07,1.46.09,3.59,0,6.21-.09,3.08-.44,6.15-1.06,9.17-.75,3.73-2.28,7.26-4.49,10.36-1.45,2.07-3.08,3.89-4.56,5.63h0c-3.35,5.23-6.27,9.79-8.4,13.1l-2.49,3.8-.68,1c-.07.12-.16.23-.26.33,0,0,.05-.13.18-.38l.62-1c.58-1,1.38-2.27,2.36-3.88l8.25-13.2h0c1.47-1.74,3.09-3.56,4.52-5.6,1.13-1.55,2.07-3.23,2.82-5,.39-.85.64-1.74.95-2.58s.51-1.71.67-2.55c.64-2.99,1.03-6.03,1.16-9.09.15-2.61.18-4.73.18-6.19v-1.69c0-.24.03-.49.1-.72Z"/>
    <path class="cls-13" d="M243.54,245.49c.29,1.12.44,2.28.45,3.44-.47,1.91-1.07,3.78-1.81,5.6,0,0-1.14.16-1-2.7.02-1.38.16-2.76.43-4.11l1.93-2.23Z"/>
    <path class="cls-13" d="M240.57,253.71l3-8.09-.84-9.48-10.61-.51-3.27,9s0,4.74.42,5.78,2,.93,2,.93c.35,1.44,2.56,1.72,2.56,1.72.6,1.55,2.57,1,2.57,1,0,0,.94,1.75,1.61,1.88.28.03.57-.04.81-.19.82-.44,1.44-1.17,1.75-2.04Z"/>
    <path class="cls-17" d="M231.25,248.97c.11,0,.19.51.19,1.15s-.09,1.15-.2,1.15-.18-.52-.18-1.15.14-1.15.19-1.15Z"/>
    <path class="cls-17" d="M233.88,249.74c.09.56.09,1.13,0,1.69.03.57-.02,1.14-.15,1.69-.24-.53-.32-1.12-.24-1.7-.03-.59.1-1.17.39-1.68Z"/>
    <path class="cls-17" d="M236.73,251.02c.11,0,0,.68-.15,1.48-.02.5-.11.99-.28,1.46-.11,0-.22-.68-.09-1.52.02-.52.2-1.01.52-1.42Z"/>
    <path class="cls-17" d="M242.56,248.14c-.19,1.08-.5,2.14-.93,3.15-.32,1.04-.75,2.05-1.28,3,.18-1.08.49-2.14.92-3.15.31-1.05.75-2.05,1.29-3Z"/>
    <path class="cls-17" d="M231.67,247.28s-.08.14-.3.19c-.29.06-.58,0-.83-.15-.25-.15-.43-.38-.52-.66-.06-.21,0-.35,0-.36s.26.43.7.69.92.19.95.29Z"/>
    <path class="cls-17" d="M234.51,248.81s-.11.13-.34.16c-.63.04-1.21-.3-1.48-.87-.09-.22-.08-.37,0-.38s.32.43.83.72.97.27.99.37Z"/>
    <path class="cls-17" d="M240.48,250.2s.16.3-.2.57c-.43.24-.94.3-1.42.16-.47-.11-.89-.37-1.19-.75-.23-.28-.28-.51-.24-.53s.56.68,1.52.91c.39.12.8.12,1.19,0,.26-.18.29-.36.34-.36Z"/>
    <path class="cls-1" d="M273.97,175.55c-3.86,1.18-30.86,15.56-34.29,20.55-4.84,7.07-9.16,39.42-9.16,39.42l11.89,3.14,8.62-32.82,32.77-12.46s13.86-20.55,8.84-22.53c-7.32-2.84-18.67,4.7-18.67,4.7Z"/>
    <path class="cls-8" d="M284.14,193.23c-.39.25-.81.46-1.24.63-.82.37-2,.88-3.49,1.51-3,1.24-7.08,2.88-11.66,4.59s-8.76,3.2-11.79,4.26l-3.59,1.23c-.43.17-.88.3-1.34.39.4-.24.83-.43,1.27-.58.83-.34,2-.82,3.54-1.39l11.73-4.4,11.7-4.45,3.55-1.35c.42-.19.87-.34,1.32-.44Z"/>
    <path class="cls-8" d="M291.2,183.24c.43-1.75.54-3.56.33-5.35-.36-1.77-1.04-3.47-2-5,0,0,.53.37,1.11,1.21,1.48,2.25,1.94,5.02,1.26,7.62-.11.55-.35,1.07-.7,1.52Z"/>
    <polygon class="cls-10" points="316.12 186.4 317.24 187.95 320.49 188.27 320.96 186.54 318.98 182.48 316.12 186.4"/>
    <g class="cls-4">
      <path d="M300.63,172.28c2.72,4.84,5.87,9.41,9.43,13.67.93,1.11,2,2.27,3.44,2.47,1.34.1,2.64-.49,3.45-1.56.79-1.06,1.33-2.3,1.57-3.6-.93,1.53-2.29,3.29-4.07,3-.92-.25-1.73-.78-2.33-1.52-4-4-7.82-8.16-11.46-12.48"/>
    </g>
    <path class="cls-8" d="M322.2,183.6s.09.32-.07.86c-.1.34-.21.67-.35,1-.17.44-.42.86-.73,1.22l-.12.13-.1-.17c-.68-1.12-1-2.74-1.87-4.32h.37c-.36.64-.74,1.31-1.16,2-.42.75-.93,1.45-1.53,2.07-.78.64-1.85.79-2.77.38-.44-.23-.83-.54-1.15-.92-.32-.34-.64-.69-1-1-3.46-3.66-6.46-7.1-8.58-9.63-1.06-1.27-1.89-2.31-2.46-3-.32-.36-.6-.75-.84-1.17.36.3.7.64,1,1l2.59,2.92c2.19,2.47,5.22,5.86,8.68,9.51.32.35.65.69,1,1,.27.34.61.61,1,.81.74.33,1.61.22,2.24-.3.56-.58,1.05-1.22,1.45-1.92.42-.68.82-1.34,1.18-2l.21-.35.17.34c.85,1.72,1.15,3.3,1.75,4.39h-.22c.29-.33.53-.69.71-1.09.18-.35.31-.67.41-.92.09-.27.15-.55.19-.84Z"/>
    <path class="cls-5" d="M317.04,187.8c-2.41,7.26-8.09,12.96-15.33,15.42-9.06,3-19.07.4-28.43,2.27-7,1.4-14.64,5.49-19.06,11l-3.77,9.55,10.64,1.64c.79-.44,1.51-1.02,2.11-1.7,2.16-2.24,4.64-4.15,7.36-5.67,6.46-3.63,13.93-4.91,21.13-6.68s14.59-4.29,19.67-9.7c4.14-4.51,7.26-9.85,9.17-15.66l-3.49-.47Z"/>
    <path class="cls-8" d="M314.86,226.19c0,.14-7.56,2-17,4.11s-17,3.73-17.08,3.59,7.57-2,17-4.1,17.05-3.74,17.08-3.6Z"/>
    <path class="cls-8" d="M316.57,203.9c0,.17-.04.35-.1.51-.11.39-.24.87-.39,1.44-.35,1.26-.92,3.05-1.7,5.24s-1.8,4.76-3.05,7.56-2.78,5.82-4.53,8.91c-1.75,3.09-3.6,5.91-5.36,8.43s-3.47,4.7-5,6.48-2.74,3.19-3.65,4.12l-1,1.07c-.24.24-.37.36-.39.35.09-.15.19-.29.31-.42l1-1.14c.86-1,2.06-2.41,3.51-4.21s3.1-4,4.85-6.52,3.55-5.36,5.31-8.42,3.25-6.07,4.55-8.85,2.33-5.32,3.14-7.49,1.44-3.93,1.84-5.17c.2-.56.36-1,.49-1.41.03-.17.09-.33.17-.48Z"/>
    <path class="cls-17" d="M368.14,244.38s.24.21.56.66c.45.63.85,1.3,1.19,2,.5,1.06.89,2.17,1.16,3.31.12.36.14.75.06,1.12-.16.46-.62.74-1.1.66-.4-.06-.78-.22-1.11-.46-.31-.21-.61-.44-.91-.69-.57-.49-1.09-1.03-1.54-1.63-.43-.56-.9-.95-1.49-.87s-1.21.31-1.8.37c-.55.07-1.11.09-1.66.06-.79-.05-1.58-.21-2.32-.5-.28-.08-.54-.21-.77-.4,1.02.28,2.06.46,3.11.53.53,0,1.05-.03,1.57-.12.57-.07,1.1-.3,1.82-.41.39-.05.79.03,1.12.24.31.21.58.47.81.77.44.57.94,1.09,1.49,1.56.49.47,1.09.81,1.74,1,.24.06.48-.07.56-.3.06-.29.04-.58-.05-.86-.23-1.12-.56-2.22-1-3.27-.8-1.77-1.51-2.77-1.44-2.77Z"/>
    <g class="cls-4">
      <path d="M316.12,232.04c8.67-4.44,12.7-14.62,9.42-23.79.07,8.87-3.59,17.35-10.09,23.38"/>
    </g>
    <g class="cls-4">
      <path d="M278.69,195.58c3.67.89,7.53-.3,10.05-3.11.11-.1.18-.24.2-.39-.03-.21-.2-.37-.41-.38-.2,0-.41.04-.59.13l-7.81,3"/>
    </g>
  </g>
  <g id="freepik--character-1--inject-293">
    <path class="cls-8" d="M48.4,411.54l-5.62,10.33-.37,1.51s16.22,10.28,15.73,13.57l-34-7.24,1.62-7.83,8.7-17.24,13.94,6.9Z"/>
    <path class="cls-1" d="M32.2,419.63c-.72.06-1.28.66-1.3,1.38.03.73.63,1.3,1.36,1.3.76-.07,1.35-.7,1.37-1.47-.12-.76-.81-1.28-1.57-1.2"/>
    <path class="cls-16" d="M24.1,429.67l.68-2.74,32.38,8s1.38,1,1,2l-34.06-7.26Z"/>
    <path class="cls-11" d="M43,423.29c0,.16-.89.06-1.82.42s-1.52,1-1.66.87.32-1,1.45-1.42,2.1-.02,2.03.13Z"/>
    <path class="cls-11" d="M46.26,425.52c0,.17-.78.3-1.49.88s-1,1.3-1.2,1.25-.07-1,.83-1.71,1.89-.56,1.86-.42Z"/>
    <path class="cls-11" d="M47.37,430.23c-.15,0-.21-.88.41-1.7s1.48-1,1.52-.86-.55.54-1,1.22-.76,1.36-.93,1.34Z"/>
    <path class="cls-8" d="M146.68,390.97l-.86,11.73.27,1.49s19,2.68,19.92,5.89l-34,7.42-1.75-7.8.82-19.29,15.6.56Z"/>
    <path class="cls-1" d="M135.25,405.01c-.63.36-.89,1.13-.61,1.8.33.65,1.11.92,1.77.62.67-.38.94-1.2.64-1.9-.41-.64-1.26-.84-1.92-.45"/>
    <path class="cls-16" d="M132.01,417.5l-.51-2.77,32.79-6.09s1.66.33,1.72,1.44l-34,7.42Z"/>
    <path class="cls-11" d="M146.6,403.9c0,.16-.78.42-1.48,1.13s-1,1.51-1.15,1.48-.13-1.05.73-1.9,1.9-.87,1.9-.71Z"/>
    <path class="cls-11" d="M150.49,404.59c.07.16-.59.6-1,1.42s-.41,1.61-.57,1.63-.48-.88.05-1.9,1.48-1.3,1.52-1.15Z"/>
    <path class="cls-11" d="M153.45,408.38c-.15.07-.56-.71-.33-1.71s.92-1.54,1-1.41-.27.71-.44,1.54-.07,1.58-.23,1.58Z"/>
    <path class="cls-8" d="M64.13,306.17l-15.51,47.68s-19.42,52.09-22.88,62.35l22,7.31s16.52-50.23,23-56.09,33.34-60.19,33.34-60.19l-39.95-1.06Z"/>
    <path class="cls-8" d="M101.62,295.83s42.85,30.86,45.68,37.24,1.69,68.67,1.69,68.67l-21.62,4.57-2.73-57.44-47.23-25.2s-19.82,8.88-19,.13c1.1-12-.45-11.5-2.41-20.16-3.48-15.35,6.41-26.74,6.41-26.74l3.62-2.25,39.17,10.4-3.58,10.78Z"/>
    <path class="cls-16" d="M100.97,297.69c-.04.51-.12,1.02-.24,1.52-.18,1-.47,2.37-.85,4.1-.77,3.45-1.88,8.21-3.37,13.4-1.25,4.43-2.72,8.8-4.41,13.09-.66,1.64-1.23,3-1.65,3.85-.19.48-.42.94-.7,1.37.13-.5.3-.98.51-1.45.37-.91.88-2.25,1.49-3.9,1.23-3.31,2.78-7.93,4.26-13.11s2.65-9.91,3.51-13.33l1-4.06c.1-.51.26-1,.45-1.48Z"/>
    <path class="cls-16" d="M133.47,339c.1.12-2.28,2-4.67,4.87s-3.88,5.51-4,5.43c.18-.65.46-1.26.84-1.82.81-1.41,1.74-2.75,2.78-4,1.04-1.23,2.19-2.37,3.43-3.4.48-.45,1.02-.81,1.62-1.08Z"/>
    <path class="cls-13" d="M167.67,274c.29.05,3.68.76,4.62,0,.58-.54.85-1.33.74-2.11.82-.33,1.5-.93,1.93-1.69.27-.84.27-1.74,0-2.58l.65-1c.56-.64.71-1.55.39-2.34-.53-.68-.83-1.52-.87-2.38,0-1.25-3.44-2.85-5.1-3.73s-3.85-2.11-6.32-.47c-3.32,2.19-8.83,5.57-8.83,5.57l.57,10.45s1.26,1.41,5,1.59c2.47.06,4.93-.39,7.22-1.31Z"/>
    <path class="cls-13" d="M173.93,267.54c-1.29.06-2.59-.04-3.86-.28-.58-.14-1.17-.24-1.77-.32-.6-.09-1.21-.02-1.78.19-.57.21-1.03.66-1.24,1.23-.19.59,0,1.23.48,1.62-.64.11-1.11.67-1.11,1.32.02.64.33,1.24.84,1.63.51.37,1.07.66,1.68.83.88.31,1.8.52,2.73.61.81.13,1.63-.01,2.35-.41.71-.44,1.02-1.32.72-2.1.61-.24,1.1-.7,1.38-1.29"/>
    <path class="cls-13" d="M166.4,265.87c-.58-.49-.78-1.29-.51-2,.46-.73,1.28-1.15,2.14-1.12,2.02-.03,4.04.29,5.95.94l.77.84c.09.44.12.89.08,1.34-.04.46-.29.87-.67,1.12-.39.18-.82.25-1.25.2-1.31.04-2.63-.07-3.92-.31-.92-.15-1.81-.5-2.59-1.01Z"/>
    <path class="cls-17" d="M173.03,271.92c-.62-.29-1.27-.52-1.93-.68-1.21-.37-2.89-.86-4.74-1.36l-.69-.19c-.07-.02-.15-.04-.22-.05-.09,0-.18.02-.26.06-.14.07-.25.18-.33.31-.22.42-.34.89-.34,1.36-.03.44.1.88.38,1.23.23.28.51.52.82.71.44.26.91.47,1.4.6.17.07.36.1.55.09,0-.07-.76-.27-1.78-.95-.61-.33-.99-.96-1-1.65.01-.4.12-.8.3-1.16.04-.06.1-.12.16-.16h.19l.69.19c1.85.51,3.54.94,4.77,1.24.66.21,1.34.35,2.03.41Z"/>
    <path class="cls-17" d="M174.96,267.65c-.54-.19-1.11-.31-1.68-.35-1.05-.17-2.5-.37-4.12-.56h0l-.18-.05c-.8-.22-1.63-.22-2.43,0-.66.2-1.17.73-1.35,1.39-.1.45-.07.91.07,1.35.1.3.2.44.23.43s0-.18-.07-.47c-.07-.41-.05-.82.06-1.22.19-.56.65-.99,1.23-1.13.73-.16,1.49-.14,2.21.07h.16c1.62.19,3.08.34,4.13.42.57.11,1.16.15,1.74.12Z"/>
    <path class="cls-17" d="M176,264.38c-.86,0-1.71.06-2.56.19h.07c-1.31-.42-3.08-1-5-1.54l-1.26-.37h-.17c-.41.24-.77.56-1.06.93-.29.35-.46.8-.46,1.26,0,.42.2.82.53,1.09.26.22.55.39.87.5.43.17.89.3,1.35.36h.5s-.7-.15-1.74-.62c-.48-.24-1.16-.64-1.14-1.35.12-.79.63-1.47,1.36-1.81h-.16l1.26.37c2,.57,3.73,1.08,5.06,1.43h.07c.84-.08,1.67-.22,2.48-.44Z"/>
    <path class="cls-13" d="M157.74,263.69s6.43-5.24,6.68-5.28,7.58,1.22,9,2.42,3,2.83,3,2.83c0,0-.32,1.89-3.16,1.16s-5.75-1.7-5.75-1.7l-2.23,1.78s-1.21,6.21-7.06,6.26"/>
    <path class="cls-17" d="M158.2,271.16c.25.03.49.03.74,0,.29-.01.59-.05.87-.13.4-.07.79-.19,1.16-.34,1.01-.45,1.9-1.14,2.59-2,.9-1.11,1.54-2.41,1.87-3.8l-.06.1,2.24-1.76h-.17c1.34.45,2.78.89,4.29,1.32.77.25,1.57.43,2.37.55.44.04.88,0,1.3-.15.43-.16.78-.48,1-.88.07-.14.13-.29.16-.45v-.1l-.08-.07-1.66-1.55-.81-.75c-.26-.26-.55-.5-.85-.72-.63-.35-1.3-.62-2-.82-.67-.2-1.33-.36-2-.52-1.29-.3-2.52-.55-3.68-.74l-.86-.13h-.36l-.14.07-.35.25-1.23,1c-1.55,1.25-2.79,2.28-3.64,3l-1,.83c-.12.09-.22.2-.32.31.14-.06.26-.15.37-.25l1-.77,3.71-2.9,1.24-.94.32-.23h0s0,.05,0-.08c0,.11,0,.08,0,.08h.25l.85.14c1.14.21,2.37.46,3.65.77.63.17,1.28.33,1.94.54.66.18,1.3.44,1.9.78.29.2.56.43.8.69l.8.75c.55.5,1.1,1.01,1.65,1.53v-.18c-.03.12-.07.23-.13.33-.43.64-1.19.96-1.95.82-.78-.12-1.54-.3-2.29-.53-1.51-.42-3-.85-4.29-1.29h-.09l-.08.06-2.03,1.76h-.05v.06c-.31,1.35-.91,2.61-1.75,3.7-.66.83-1.5,1.49-2.46,1.95-.88.36-1.8.59-2.74.69Z"/>
    <path class="cls-13" d="M106.32,210.38l7.88-36.69c1.65-9.2,8.38-15.91,17.53-14l.84.22c8.38,2.29,13.61,10.62,12.03,19.17-1.48,8-3.21,16.75-4.39,20.92-2.45,8.63-11.47,7.64-11.47,7.64,0,0-1.26,5.3-1.83,7.87l-1.22,6.19-4.88-3.11-14.49-8.21Z"/>
    <path class="cls-17" d="M128.74,207.64c-3.99-1.09-7.59-3.31-10.37-6.38,0,0,1,7.24,9.8,8.79l.57-2.41Z"/>
    <path class="cls-8" d="M139.78,185.88c-.18.67-.85,1.08-1.53.93-.67-.11-1.12-.75-1.01-1.42,0-.01,0-.03,0-.04.18-.67.85-1.08,1.53-.93.67.11,1.12.75,1.01,1.42,0,.01,0,.03,0,.04Z"/>
    <path class="cls-8" d="M141.72,182.38c-.19.12-.94-.83-2.28-1.18s-2.48.05-2.58-.16.18-.34.69-.53c.68-.24,1.42-.27,2.12-.08.7.18,1.31.59,1.76,1.15.33.45.39.8.29.8Z"/>
    <path class="cls-8" d="M127.55,182.89c-.18.67-.85,1.08-1.53.93-.67-.11-1.12-.73-1.01-1.4,0-.02,0-.04.01-.06.17-.67.85-1.09,1.53-.93.67.11,1.12.75,1.01,1.42,0,.01,0,.03,0,.04Z"/>
    <path class="cls-8" d="M128.6,179.2c-.2.12-1-.83-2.28-1.18s-2.49,0-2.59-.16.18-.34.7-.53c.68-.25,1.42-.28,2.12-.08.69.18,1.31.58,1.76,1.14.32.43.38.76.29.81Z"/>
    <path class="cls-8" d="M130.61,190.71c.76-.03,1.52.03,2.27.19.35.06.69.08.81-.14.11-.35.11-.72,0-1.07-.1-.9-.2-1.86-.31-2.85-.34-2.44-.48-4.91-.43-7.38.17,0,.63,3.26,1,7.32.09,1,.17,2,.26,2.87.1.47.03.96-.19,1.38-.16.21-.42.34-.69.34-.2,0-.4-.02-.6-.07-.73-.11-1.44-.3-2.12-.59Z"/>
    <path class="cls-8" d="M130.2,175.15c-.27.29-1.47-.41-3-.87s-2.94-.57-3-1c0-.19.32-.42,1-.55,1.67-.26,3.36.25,4.6,1.4.32.49.48.88.4,1.02Z"/>
    <path class="cls-8" d="M142.84,178.52c-.36.23-1.36-.36-2.67-.71s-2.46-.41-2.64-.79c-.07-.18.18-.44.74-.61.76-.18,1.55-.16,2.3.06.76.19,1.45.59,2,1.15.36.43.43.76.27.9Z"/>
    <path class="cls-13" d="M113.13,180.29c-.13-.11-5.47-3.37-6.88,2.6s4.87,6.16,4.92,6,1.96-8.6,1.96-8.6Z"/>
    <path class="cls-17" d="M109.88,186.18s-.12,0-.31.09c-.27.05-.55-.01-.78-.17-.67-.68-.92-1.67-.65-2.59.11-.51.33-1,.64-1.42.21-.36.59-.59,1-.61.26-.01.5.17.55.43v.31s.16-.07.17-.32c0-.16-.05-.31-.15-.43-.14-.16-.33-.27-.54-.29-.52-.02-1.02.23-1.31.67-.37.46-.63,1-.75,1.58-.31,1.07.05,2.22.91,2.93.3.18.67.2,1,.07.18-.05.24-.23.22-.25Z"/>
    <path class="cls-8" d="M126.2,190.59c.21,0-.09,1.41.87,2.64s2.46,1.41,2.43,1.61-.39.19-1,.07c-.79-.17-1.5-.62-2-1.26-.5-.62-.73-1.41-.64-2.2.02-.58.25-.89.34-.86Z"/>
    <path class="cls-8" d="M158.45,173.94c-.02-.38-.19-.74-.47-1-.62-.49-1.36-.79-2.14-.89-1.89-.49-3.65-1.41-5.14-2.67.66-.14,1.3-.39,1.88-.74,1.26-.69,2.04-2.03,2-3.47,0-.27-.12-.52-.33-.68-.36-.21-.79.09-1.13.33-.93.78-2.21,1-3.34.56-.79-.24-1.51-.65-2.11-1.21l-.06-.1c-.23-.4-.46-.78-.69-1.14h0c-1.28-2.31-3.01-4.35-5.07-6-3.17-2.1-6.85-3.3-10.65-3.46-3.22.08-6.54,1.89-7.7,4.9-1.36-1.84-3.92-2.44-6.2-2.1h0c-2.51.28-4.4,2.41-5.65,4.6l-.19.36c-1.08,1.07-2.39,1.85-3.84,2.3-.25.08-.54.18-.63.43s.08.51.25.71c.47.52,1.04.94,1.68,1.22-.34.51-.73.99-1.15,1.44-.37.38-.8.83-.68,1.35.13.4.49.67.91.69.41,0,.81-.08,1.19-.24l-1.21,1.67c.8.35,1.68.49,2.55.43,0,2.32-.63,6.49-.42,8.12,1.57.4,2,.32,2.74.78.95.59.12,2.32,1.59,2.12.74-.1,2.41-2.44,2.81-3.08,2.62-4.29,4.3-9.09,4.91-14.08,1.21-.8,2.57-1.35,4-1.63l-.12.07c2.64-.27,5.59-.45,7.64,1.25,1.58,1.32,2.19,3.43,3.18,5.24,1.64,3.29,4.61,5.72,8.15,6.68-.28,2.71-1.21,7.05-1.66,9.54l3.27-4.43h0c.23-.24.45-.49.65-.76l.07-.08h0c.33-.41.65-.83,1-1.23h0c.53.69,1.53.82,2.22.28.55-.42.76-1.16.51-1.8-.14-.34-.33-.65-.56-.93.47.74,1.29,1.18,2.17,1.15.88-.05,1.62-.69,1.79-1.56.07-.59-.18-1.17-.65-1.53,1.06.35,2.21.36,3.28.05.63-.2,1.37-.63,1.35-1.46Z"/>
    <path class="cls-16" d="M125.99,160.03c-.37.17-.73.37-1.07.59-.88.68-1.56,1.56-2,2.58-.33.7-.58,1.42-.75,2.17-.2.8-.34,1.68-.49,2.6-.15.97-.35,1.93-.62,2.88-.15.5-.33.99-.55,1.46-.21.52-.56.97-1,1.32-.39.28-.9.32-1.33.12-.43-.17-.78-.49-1-.89-.32-.76-.43-1.6-.31-2.42l.18.07c-.42.59-.93,1.12-1.5,1.57-.55.42-1.24.6-1.92.52-.32-.04-.62-.17-.86-.37-.23-.19-.4-.46-.47-.75-.08-.26-.08-.55,0-.81.07-.25.22-.47.44-.62l.07.11c-.66.48-1.41.82-2.21,1-.21.04-.43.07-.64.09h-.22c.07,0,.15,0,.22,0,.21-.03.42-.07.63-.12.78-.19,1.51-.53,2.15-1l.07.11c-.39.3-.53.82-.37,1.28.07.26.22.5.43.67.23.18.5.29.78.33.64.07,1.28-.12,1.79-.51.55-.44,1.04-.96,1.45-1.54l.19-.25v.31c-.11.78-.01,1.58.29,2.31.19.35.49.63.86.8.37.17.8.14,1.13-.1.4-.33.71-.76.9-1.24.22-.46.4-.94.55-1.43.26-.94.47-1.89.62-2.85.16-.92.31-1.8.51-2.61.19-.76.45-1.49.79-2.19.46-1.04,1.19-1.93,2.12-2.59.34-.27.73-.47,1.14-.6Z"/>
    <path class="cls-16" d="M150.98,174.96h-.08l-.26.11c-.14.06-.28.11-.43.15-.19.06-.39.11-.59.15-1.3.25-2.64.18-3.9-.22-1.88-.58-3.55-1.69-4.81-3.2-1.51-1.85-2.63-4-3.28-6.3-.39-1.2-.65-2.41-1-3.55-.29-1.1-.73-2.15-1.32-3.12-.53-.88-1.27-1.61-2.15-2.13-.4-.22-.84-.38-1.29-.47-.42-.06-.85-.06-1.27,0-.73.07-1.44.29-2.08.66-.48.26-.92.6-1.29,1-.3.37-.56.78-.77,1.21,0-.03,0-.06,0-.09l.11-.26c.15-.32.34-.63.56-.91.37-.43.81-.8,1.3-1.09.65-.39,1.37-.63,2.12-.71.44-.05.88-.05,1.32,0,.47.09.92.25,1.34.48.92.52,1.69,1.27,2.24,2.17.59.99,1.05,2.06,1.35,3.17.34,1.15.6,2.35,1,3.55.64,2.28,1.74,4.4,3.23,6.24,1.23,1.48,2.86,2.59,4.7,3.18,1.24.4,2.56.5,3.84.28.48-.07.95-.17,1.41-.3Z"/>
    <path class="cls-16" d="M152.69,171.31l-.36.14c-.33.11-.66.2-1,.25-.52.09-1.06.14-1.59.14-.65-.01-1.29-.08-1.93-.2-.64-.13-1.26-.33-1.86-.58-.49-.21-.96-.45-1.41-.74-.3-.19-.59-.41-.86-.64-.19-.17-.29-.27-.28-.28s.45.34,1.22.79c.45.27.92.5,1.4.69.59.24,1.21.42,1.83.55.62.13,1.25.2,1.89.21.52.01,1.04-.01,1.56-.08.9-.12,1.38-.29,1.39-.25Z"/>
    <path class="cls-13" d="M40.45,289.64c-.14,1.26-.43,2.49-.86,3.68-1.21,1.76-2.55,3.43-4,5,0,0-1.21-.27,0-3.13.54-1.39,1.21-2.73,2-4l2.86-1.55Z"/>
    <path class="cls-13" d="M34.28,296.86l6.14-7.07,2.78-10-10.59-4.59-6.78,7.91s-1.81,4.82-1.78,6,1.7,1.72,1.7,1.72c-.2,1.59,2,2.73,2,2.73,0,1.81,2.24,2,2.24,2,0,0,.29,2.13.91,2.53.28.14.6.18.91.11.96-.13,1.84-.61,2.47-1.34Z"/>
    <path class="cls-17" d="M26.63,288.47c.11,0,0,.6-.25,1.25s-.54,1.13-.64,1.09,0-.6.25-1.24.53-1.14.64-1.1Z"/>
    <path class="cls-17" d="M29,290.27c-.13.6-.35,1.18-.65,1.71-.4.92-.68,1.69-.8,1.66-.04-.63.11-1.27.42-1.82.41-.95.94-1.62,1.03-1.55Z"/>
    <path class="cls-17" d="M31.41,292.66c.09.07-.29.68-.72,1.45s-.74,1.41-.85,1.37,0-.77.49-1.57,1-1.32,1.08-1.25Z"/>
    <path class="cls-17" d="M38.44,291.96c-.6,1.03-1.33,1.99-2.15,2.85-.72.95-1.55,1.81-2.46,2.57.6-1.03,1.32-1.99,2.15-2.85.72-.95,1.55-1.81,2.46-2.57Z"/>
    <path class="cls-17" d="M27.7,286.92s-.14.11-.38.07c-.31-.05-.59-.22-.78-.47-.2-.24-.3-.55-.28-.87,0-.24.1-.36.16-.35s.09.53.44,1,.85.51.84.62Z"/>
    <path class="cls-17" d="M30,289.56c0,.06-.16.09-.41,0-.65-.19-1.12-.77-1.17-1.45,0-.26.06-.4.11-.4s.16.56.57,1.05.92.69.9.8Z"/>
    <path class="cls-17" d="M35.54,293.26c.06,0,0,.36-.42.5-.53.09-1.08-.05-1.51-.37-.43-.3-.76-.72-.93-1.22-.12-.38-.08-.63,0-.64s.31.91,1.2,1.51c.35.26.77.42,1.21.43.29-.02.4-.23.45-.21Z"/>
    <path class="cls-10" d="M155.99,261.67l-27.85-4.16,1.57-30.61-2.51-8.21-18.15,46.33,4.23,5.27c2.64,3.31,6.63,5.26,10.86,5.33l32.12,1-.27-14.95Z"/>
    <path class="cls-15" d="M127.39,219.45l.35-5.83-1.79,1.76-.22-2.7-16.63-15.3-3.25,3.35-10.2,1.4c-4.48.29-4,2.51-6,6.33l-10.75,26.54-4.76,1-6.66,16c.29,1.17-6.36,12.54-7.85,16.53s3.92,7.41,3.92,7.41l38.65,15.44c1.83.94,4.07.38,5.24-1.31,1.78-2.24-.06-6.27-.06-6.27,0,0,13.3-30.87,16.27-39,1.58-4.97,2.69-10.08,3.31-15.26l.43-10.09Z"/>
    <path class="cls-10" d="M106.46,207.68c-1.45-2.46-3.78-4.27-6.51-5.08-4.74-1.19-9.77-.11-13.6,2.92l-28,20.52c-4.89,3.59-8.85,8.3-11.54,13.74l-17,34.38,13,5.76,20.77-33.54,34.44-18,8.34-8c.68-1.66,2.76-7.2.1-12.7Z"/>
    <path class="cls-8" d="M92.34,231.46c-.33.27-.7.5-1.08.69-.71.41-1.75,1-3,1.68-2.58,1.4-6.17,3.26-10.16,5.29l-10.21,5.18-3.1,1.56c-.37.21-.76.38-1.17.52.33-.28.69-.51,1.07-.7.71-.41,1.74-1,3-1.7,2.57-1.41,6.16-3.3,10.14-5.32l10.23-5.16,3.12-1.53c.37-.21.76-.38,1.16-.51Z"/>
    <path class="cls-8" d="M98.92,224.09c.16-.33.36-.65.6-.93.41-.58,1-1.41,1.68-2.48.77-1.25,1.33-2.62,1.66-4.05.42-1.74.42-3.57,0-5.31-.34-1.75-1.15-3.38-2.33-4.72-1.04-1.03-2.28-1.84-3.63-2.4-1.27-.52-2.63-.79-4-.79.36-.12.73-.16,1.11-.14,1.03.02,2.04.21,3,.58,1.43.53,2.73,1.35,3.83,2.41,1.28,1.4,2.14,3.13,2.49,5,.44,1.82.42,3.72-.06,5.53-.37,1.47-.98,2.87-1.82,4.14-.56.83-1.17,1.64-1.83,2.4-.21.28-.44.53-.7.76Z"/>
    <path class="cls-8" d="M127.84,230.98c-.1.58-.25,1.15-.44,1.71-.31,1.09-.78,2.66-1.39,4.6-1.22,3.86-3,9.18-5.2,15s-4.44,10.93-6.13,14.62c-.84,1.84-1.54,3.32-2,4.34-.24.54-.51,1.06-.82,1.56.16-.56.37-1.11.63-1.64.49-1.12,1.12-2.61,1.9-4.41,1.6-3.73,3.77-8.88,6-14.66s4-11.06,5.34-14.9l1.55-4.54c.14-.57.33-1.14.56-1.68Z"/>
    <path class="cls-8" d="M125.73,212.71c-.11.32-.27.62-.48.88-.23.33-.5.63-.8.89-.39.37-.85.66-1.35.85-.64.26-1.35.27-2,.05-.69-.3-1.31-.73-1.82-1.28l-3.51-3.45c-2.49-2.46-4.71-4.71-6.31-6.35l-1.87-2c-.24-.23-.46-.49-.63-.77.29.17.55.38.78.62l2,1.85c1.66,1.58,3.93,3.79,6.41,6.25l3.49,3.47c.45.52,1.01.93,1.63,1.22.55.2,1.15.2,1.7,0,.82-.32,1.55-.84,2.11-1.51.2-.26.41-.5.65-.72Z"/>
    <path class="cls-8" d="M125.2,217.67c-.01.26-.05.52-.11.77-.11.54-.26,1.26-.44,2.17-.36,1.88-1,4.59-1.85,7.92-2.28,8.66-5.13,17.16-8.53,25.45-3.39,8.29-7.31,16.36-11.75,24.14-.85,1.49-1.63,2.84-2.35,4s-1.32,2.17-1.85,3l-1.21,1.85c-.13.22-.28.43-.45.63.1-.24.22-.47.36-.68l1.18-1.94c.5-.81,1.08-1.83,1.77-3s1.45-2.53,2.28-4c4.34-7.82,8.21-15.89,11.59-24.16,3.39-8.27,6.28-16.73,8.65-25.35.89-3.31,1.59-6,2-7.87.22-.89.39-1.61.52-2.15.04-.26.11-.53.19-.78Z"/>
    <path class="cls-8" d="M127.2,219.48c-.13.05-.53-.66-.88-1.59s-.54-1.73-.4-1.78.53.66.88,1.59.55,1.73.4,1.78Z"/>
    <polygon class="cls-3" points="71.28 242.82 67.48 251.92 88.7 233.51 71.28 242.82"/>
    <path class="cls-3" d="M124.91,240.02l-11.66,30.27s11.95-13.63,11.66-30.27Z"/>
  </g>
</svg>
