<?xml version="1.0" encoding="UTF-8"?>
<svg id="Layer_1" data-name="Layer 1" xmlns="http://www.w3.org/2000/svg" viewBox="0 0 464.92 439.22">
  <defs>
    <style>
      .cls-1 {
        fill: #e0e0e0;
      }

      .cls-2 {
        fill: #ae7461;
      }

      .cls-3 {
        isolation: isolate;
      }

      .cls-3, .cls-4 {
        opacity: .3;
      }

      .cls-5 {
        fill: #f0c808;
      }

      .cls-6 {
        fill: #ebebeb;
      }

      .cls-7 {
        fill: #263238;
      }

      .cls-8 {
        fill: #6f4439;
      }

      .cls-9 {
        fill: #21bdc8;
      }

      .cls-10 {
        fill: #fff;
      }

      .cls-11 {
        fill: #ffbf9d;
      }

      .cls-12 {
        fill: #f5f5f5;
      }

      .cls-13 {
        fill: #455a64;
      }

      .cls-14 {
        fill: #ff9a6c;
      }
    </style>
  </defs>
  <g id="freepik--background-complete--inject-220">
    <circle class="cls-1" cx="229.93" cy="48.12" r="48.12"/>
    <circle class="cls-10" cx="230.41" cy="47.64" r="43.54"/>
    <path class="cls-6" d="M186.42,45.02v4.33c0,.53.1,1.18.15,1.85s.13,1.38.2,2.15c.1.81.23,1.62.41,2.42.74,4.16,2.11,8.17,4.06,11.92,2.55,4.98,6.03,9.42,10.26,13.08l1.79,1.52c.63.48,1.3.92,2,1.39s1.31,1,2,1.37l2.19,1.23c.37.21.74.42,1.12.62l1.17.52,2.39,1.06c.82.32,1.68.56,2.52.85.85.31,1.72.57,2.6.77,1.79.45,3.61.79,5.45,1,.94.09,1.88.25,2.83.29h4.35l1.46-.13c1-.1,2-.15,3-.29,1.98-.29,3.94-.71,5.87-1.27l1.48-.43.74-.22.72-.29,2.9-1.17c.95-.44,1.86-1,2.81-1.44.46-.26.95-.47,1.4-.76l1.34-.88c1.82-1.17,3.56-2.47,5.21-3.87l2.37-2.29.59-.57.55-.63,1.08-1.27,1.11-1.28,1-1.37,1-1.38.48-.7c.15-.24.28-.49.42-.73l1.68-3c.46-1,.93-2.09,1.39-3.14,1.72-4.34,2.78-8.91,3.14-13.57.23-4.65-.24-9.31-1.41-13.82-.32-1.11-.65-2.21-1-3.3-.43-1.06-.85-2.11-1.28-3.16l-.32-.79-.39-.75-.78-1.5-.78-1.49-.91-1.4-.91-1.4-.46-.69-.51-.65-2-2.58c-1.45-1.61-3.01-3.12-4.66-4.52l-1.22-1c-.4-.35-.86-.62-1.29-.94-.87-.59-1.71-1.23-2.6-1.79l-2.72-1.54-.67-.38c-.23-.12-.47-.22-.71-.32l-1.41-.63c-1.85-.82-3.74-1.51-5.68-2.08-1-.26-1.94-.44-2.9-.66l-1.43-.32c-.48-.1-1-.13-1.45-.19l-2.87-.34c-1-.08-1.9,0-2.84-.08-1.85-.03-3.71.06-5.55.28-.9.08-1.79.22-2.67.42-.87.18-1.76.3-2.61.52l-2.5.73-1.24.36-1.18.47-2.33.94c-.75.33-1.49.69-2.21,1.09-.71.38-1.44.73-2.13,1.12l-2,1.28c-4.67,3.07-8.71,7.02-11.88,11.63-2.43,3.45-4.32,7.26-5.6,11.28-.25.83-.58,1.59-.73,2.35s-.32,1.45-.47,2.1-.3,1.25-.4,1.81-.13,1.07-.18,1.52c-.12.9-.21,1.59-.27,2.07-.06.46-.11.7-.11.7,0,0,0-.24.06-.71s.12-1.17.22-2.07c0-.46.1-1,.16-1.53s.24-1.16.38-1.82l.45-2.12c.2-.8.43-1.59.71-2.36,1.26-4.05,3.13-7.89,5.55-11.38,3.18-4.65,7.23-8.64,11.92-11.76l2-1.29c.7-.4,1.43-.76,2.15-1.14s1.43-.81,2.22-1.11l2.34-1,1.2-.47,1.24-.37,2.53-.75c.86-.22,1.75-.35,2.63-.53.89-.19,1.79-.34,2.7-.43,1.85-.22,3.72-.32,5.59-.29.95,0,1.91,0,2.87.07l2.9.33c.48.07,1,.1,1.46.19l1.45.32c1,.22,1.95.4,2.93.67,1.96.57,3.88,1.27,5.75,2.09l1.43.63.71.32.68.39,2.75,1.55c.9.56,1.75,1.21,2.64,1.81.43.32.89.59,1.3.95l1.23,1.05c1.67,1.42,3.24,2.94,4.7,4.57l2.08,2.61.52.65.46.7.92,1.41.92,1.42.79,1.51.79,1.51.4.76.32.79,1.29,3.2c.33,1.11.66,2.22,1,3.33,1.15,4.57,1.61,9.29,1.36,14-.37,4.71-1.44,9.33-3.18,13.72l-1.41,3.18-1.7,3c-.14.25-.27.5-.42.74l-.49.7-1,1.4-1,1.39-1.1,1.28-1.09,1.28-.55.64-.6.58-2.4,2.31c-1.67,1.42-3.43,2.72-5.27,3.9l-1.36.88c-.44.3-.94.51-1.41.77-.95.49-1.88,1-2.85,1.45l-2.93,1.18-.72.29c-.25.09-.5.15-.75.23l-1.49.44c-1.97.57-3.97,1.01-6,1.32-1,.14-2,.18-3,.28l-1.48.13h-4.39c-1-.06-1.91-.21-2.86-.31-1.85-.21-3.69-.54-5.5-1-.89-.21-1.76-.47-2.62-.78-.85-.3-1.72-.54-2.54-.87l-2.41-1.07-1.18-.53-1.13-.63-2.2-1.25c-.69-.43-1.36-.89-2-1.38-.67-.48-1.34-.93-2-1.41l-1.8-1.54c-4.25-3.7-7.74-8.19-10.28-13.22-1.94-3.77-3.28-7.82-4-12-.17-.8-.31-1.61-.4-2.43-.06-.77-.12-1.49-.17-2.16s-.12-1.29-.13-1.86,0-1.07,0-1.53c0-.91,0-1.6.06-2.09s.08-.77.08-.77Z"/>
    <path class="cls-1" d="M250.24,48.83c-.51.08-1.03.11-1.55.1l-4.25.09c-3.62,0-8.65.08-14.33.09h-.28v-3.12c0-6.35,0-12.09.08-16.25,0-2,.07-3.66.09-4.92-.02-.61.02-1.21.11-1.81.09.6.13,1.2.11,1.81,0,1.26.05,2.92.09,4.92.05,4.16.08,9.9.08,16.25v2.84l-.28-.28c5.68,0,10.71,0,14.33.09l4.25.09c.52-.02,1.04.02,1.55.1Z"/>
    <path class="cls-1" d="M230.24,10.87c.29,1.2.38,2.45.29,3.68.1,1.23,0,2.48-.29,3.68-.28-1.21-.37-2.45-.28-3.68-.09-1.23,0-2.47.28-3.68Z"/>
    <path class="cls-1" d="M250.24,16.78c-.65,1.06-1.46,2.01-2.4,2.82-.8.92-1.73,1.72-2.77,2.36.64-1.04,1.44-1.97,2.37-2.76.8-.95,1.75-1.77,2.8-2.42Z"/>
    <path class="cls-1" d="M261.87,29.53c-.92.78-1.93,1.45-3,2-.99.71-2.05,1.3-3.18,1.75.81-.92,1.79-1.68,2.89-2.24.99-.71,2.11-1.22,3.29-1.51Z"/>
    <path class="cls-1" d="M268.71,48.45c-3.32.37-6.68.37-10,0,3.32-.38,6.68-.38,10,0Z"/>
    <path class="cls-1" d="M199.14,47.78c-1.56.28-3.15.38-4.74.28-1.59.1-3.18,0-4.74-.28,1.56-.28,3.15-.38,4.74-.28,1.59-.1,3.18,0,4.74.28Z"/>
    <path class="cls-1" d="M204.06,61.86c-1.06,1.22-2.26,2.31-3.58,3.25-1.2,1.09-2.52,2.03-3.94,2.81,1.06-1.22,2.27-2.31,3.58-3.25,1.2-1.09,2.52-2.03,3.94-2.81Z"/>
    <path class="cls-1" d="M216.24,72.75c-.7,1.47-1.52,2.88-2.44,4.23-.76,1.44-1.62,2.82-2.59,4.13.47-1.57,1.18-3.06,2.1-4.42.77-1.46,1.75-2.79,2.93-3.94Z"/>
    <path class="cls-1" d="M230.24,86.8c-.28-1.65-.37-3.33-.28-5-.09-1.67,0-3.35.28-5,.29,1.65.38,3.33.29,5,.1,1.67,0,3.35-.29,5Z"/>
    <path class="cls-1" d="M251.87,80.12c-1.53-.7-2.93-1.66-4.14-2.84-1.33-1.03-2.47-2.29-3.37-3.71,1.31,1.03,2.56,2.12,3.75,3.29,1.31,1.02,2.57,2.1,3.76,3.26Z"/>
    <path class="cls-1" d="M262.02,69.19c-1.23-.83-2.34-1.82-3.32-2.93-1.11-.98-2.09-2.09-2.92-3.32,1.22.83,2.34,1.81,3.32,2.92,1.11.98,2.09,2.1,2.92,3.33Z"/>
    <path class="cls-1" d="M203.6,34.29c-1.1-.7-2.09-1.55-2.94-2.53-.98-.85-1.83-1.84-2.53-2.94,1.09.7,2.08,1.56,2.93,2.54.98.85,1.84,1.84,2.54,2.93Z"/>
    <path class="cls-1" d="M216.12,21.09c-1.08-.68-2.05-1.52-2.88-2.49-.96-.83-1.8-1.8-2.48-2.87,1.07.68,2.05,1.51,2.88,2.47.96.84,1.8,1.81,2.48,2.89Z"/>
    <path class="cls-12" d="M191.42,48.06c0-23.04,17.95-42.09,40.95-43.46-.85,0-1.72-.08-2.59-.08-24.05.36-43.25,20.16-42.89,44.2.36,23.54,19.35,42.53,42.89,42.89.87,0,1.74,0,2.59-.09-23-1.37-40.95-20.42-40.95-43.46Z"/>
    <rect class="cls-1" x="320.34" y="76.4" width="132.83" height="209.92"/>
    <rect class="cls-12" x="323.92" y="80.34" width="125.22" height="202.53"/>
    <rect class="cls-10" x="386.53" y="92.14" width="49.93" height="77.48"/>
    <path class="cls-1" d="M414.15,98.99c0,1.03-.83,1.87-1.86,1.88-1.03,0-1.87-.83-1.88-1.86,0-1.03.83-1.87,1.86-1.88,0,0,.01,0,.02,0,1.03,0,1.86.83,1.86,1.86Z"/>
    <rect class="cls-10" x="336.21" y="191.19" width="49.93" height="77.48"/>
    <path class="cls-1" d="M363.83,198.04c0,1.03-.84,1.87-1.87,1.87s-1.87-.84-1.87-1.87c0-1.03.84-1.87,1.87-1.87,0,0,0,0,0,0,1.03,0,1.86.83,1.86,1.86,0,0,0,0,0,.01Z"/>
    <rect class="cls-10" x="335.53" y="92.14" width="42.64" height="60.5"/>
    <path class="cls-1" d="M358.4,97.6c0,.86-.69,1.55-1.55,1.55-.86,0-1.55-.69-1.55-1.55s.69-1.55,1.55-1.55h0c.85,0,1.54.68,1.55,1.53,0,0,0,.01,0,.02Z"/>
    <rect class="cls-10" x="393.79" y="194.71" width="45.9" height="25.43" transform="translate(-20.64 48.05) rotate(-6.44)"/>
    <circle class="cls-1" cx="415.84" cy="199.62" r="1.58"/>
    <path class="cls-1" d="M379.48,208.86c0,.2-7.84.37-17.51.37s-17.51-.17-17.51-.37,7.83-.37,17.51-.37,17.51.16,17.51.37Z"/>
    <path class="cls-1" d="M379.48,214.4c0,.21-7.84.37-17.51.37s-17.51-.16-17.51-.37,7.83-.37,17.51-.37,17.51.17,17.51.37Z"/>
    <path class="cls-1" d="M379.48,219.95c0,.2-7.84.37-17.51.37s-17.51-.17-17.51-.37,7.83-.38,17.51-.38,17.51.17,17.51.38Z"/>
    <path class="cls-1" d="M379.48,225.49c0,.2-7.84.37-17.51.37s-17.51-.17-17.51-.37,7.83-.37,17.51-.37,17.51.16,17.51.37Z"/>
    <path class="cls-1" d="M379.48,231.03c0,.21-7.84.38-17.51.38s-17.51-.17-17.51-.38,7.83-.37,17.51-.37,17.51.17,17.51.37Z"/>
    <path class="cls-1" d="M379.48,236.6c0,.2-7.84.37-17.51.37s-17.51-.17-17.51-.37,7.83-.38,17.51-.38,17.51.15,17.51.38Z"/>
    <path class="cls-1" d="M379.48,242.12c0,.21-7.84.37-17.51.37s-17.51-.16-17.51-.37,7.83-.37,17.51-.37,17.51.16,17.51.37Z"/>
    <path class="cls-1" d="M433.83,202.92c0,.2-7.71,1.46-17.29,2.82s-17.36,2.28-17.39,2.07,7.71-1.46,17.29-2.81,17.36-2.28,17.39-2.08Z"/>
    <path class="cls-1" d="M434.53,206.39c0,.2-7.72,1.46-17.29,2.81s-17.37,2.28-17.39,2.08,7.71-1.46,17.28-2.81,17.37-2.29,17.4-2.08Z"/>
    <path class="cls-1" d="M435.16,209.6c0,.2-7.71,1.46-17.29,2.81s-17.36,2.29-17.39,2.08,7.71-1.46,17.29-2.81,17.36-2.29,17.39-2.08Z"/>
    <path class="cls-1" d="M432.07,108.35c0,.21-8.86.37-19.78.37s-19.79-.16-19.79-.37,8.86-.37,19.79-.37,19.78.16,19.78.37Z"/>
    <path class="cls-1" d="M432.07,111.65c0,.2-8.86.37-19.78.37s-19.79-.17-19.79-.37,8.86-.38,19.79-.38,19.78.17,19.78.38Z"/>
    <path class="cls-1" d="M432.07,114.94c0,.21-8.86.37-19.78.37s-19.79-.16-19.79-.37,8.86-.37,19.79-.37,19.78.17,19.78.37Z"/>
    <path class="cls-1" d="M432.07,118.24c0,.2-8.86.37-19.78.37s-19.79-.17-19.79-.37,8.86-.37,19.79-.37,19.78.16,19.78.37Z"/>
    <path class="cls-1" d="M432.07,121.53c0,.21-8.86.38-19.78.38s-19.79-.17-19.79-.38,8.86-.37,19.79-.37,19.78.17,19.78.37Z"/>
    <path class="cls-1" d="M432.07,124.83c0,.21-8.86.37-19.78.37s-19.79-.16-19.79-.37,8.86-.37,19.79-.37,19.78.14,19.78.37Z"/>
    <path class="cls-1" d="M432.07,128.13c0,.2-8.86.37-19.78.37s-19.79-.17-19.79-.37,8.86-.38,19.79-.38,19.78.17,19.78.38Z"/>
    <path class="cls-1" d="M432.07,137.91c0,.2-8.86.37-19.78.37s-19.79-.17-19.79-.37,8.86-.37,19.79-.37,19.78.16,19.78.37Z"/>
    <path class="cls-1" d="M432.35,141.39c0,.2-8.86.37-19.78.37s-19.79-.17-19.79-.37,8.86-.37,19.79-.37,19.78.16,19.78.37Z"/>
    <path class="cls-1" d="M432.63,144.87c0,.21-8.86.37-19.78.37s-19.79-.16-19.79-.37,8.86-.37,19.79-.37,19.78.17,19.78.37Z"/>
    <path class="cls-1" d="M432.91,148.35c0,.21-8.86.37-19.79.37s-19.78-.16-19.78-.37,8.86-.37,19.78-.37,19.79.17,19.79.37Z"/>
    <path class="cls-1" d="M433.24,151.83c0,.21-8.86.38-19.79.38s-19.78-.17-19.78-.38,8.85-.37,19.78-.37,19.79.14,19.79.37Z"/>
    <path class="cls-1" d="M433.46,155.32c0,.2-8.85.37-19.78.37s-19.78-.17-19.78-.37,8.85-.38,19.78-.38,19.78.17,19.78.38Z"/>
    <rect class="cls-1" x="21.43" y="44.35" width="125.06" height="181.27"/>
    <rect class="cls-12" x="15.17" y="44.35" width="125.06" height="181.27"/>
    <rect class="cls-10" x="30.71" y="63.98" width="93.99" height="142.01"/>
    <path class="cls-1" d="M124.69,205.99v-10.48c0-6.8,0-16.72-.09-29.25,0-25-.09-60.5-.15-102.26l.31.32H30.76l.34-.34c0,53.58-.05,103-.07,142l-.27-.27,68.4.14,18.9.07h6.71-6.57l-18.84.07-68.57.14h-.28v-.27c0-39,0-88.43-.06-142v-.26h94.67v.31c-.06,41.85-.11,77.38-.15,102.47,0,12.49-.06,22.39-.08,29.18v9.72c0,.48-.2.71-.2.71Z"/>
    <path class="cls-1" d="M140.58,44.35c-.64,1.15-1.39,2.24-2.23,3.25-1.45,1.94-3.51,4.59-5.87,7.44s-4.55,5.39-6.18,7.19c-.83,1.02-1.75,1.96-2.75,2.81.71-1.11,1.51-2.15,2.39-3.12,1.67-2,3.74-4.54,6-7.31l6-7.31c.79-1.06,1.68-2.04,2.64-2.95Z"/>
    <path class="cls-10" d="M125.17,205.53c4.67,7.43,10.17,14.31,16.39,20.5"/>
    <path class="cls-1" d="M141.56,226.03c-1.04-.76-2-1.64-2.86-2.6-4.36-4.44-8.25-9.31-11.62-14.54-.75-1.05-1.39-2.18-1.91-3.36.84.97,1.61,2.01,2.31,3.09,1.37,1.94,3.31,4.59,5.57,7.42s4.42,5.29,6,7.07c.91.91,1.75,1.89,2.51,2.92Z"/>
    <path class="cls-10" d="M15.15,225.48l16.38-20.21"/>
    <path class="cls-1" d="M31.53,205.27c.15.12-3.4,4.74-7.93,10.32s-8.3,10-8.45,9.89,3.4-4.74,7.93-10.32,8.3-10.01,8.45-9.89Z"/>
    <path class="cls-1" d="M15.17,44.35c.14-.11,3.7,4.14,8,9.51s7.56,9.81,7.42,9.92-3.71-4.13-8-9.5-7.57-9.81-7.42-9.93Z"/>
    <rect class="cls-1" x="63.94" y="92.82" width="31.47" height="89.35"/>
    <path class="cls-1" d="M209.81,399.71s-5.71-39.25-5.24-62.08,0-48.53,0-48.53h2.64s-1.79,45.33.15,72.67,7,37.94,7,37.94h-4.57"/>
    <path class="cls-6" d="M226.81,244.94c-.41-1.39-1.25-2.62-2.4-3.51-1.66-1.06-3.85-.62-5.71,0-8,2.81-15,17.63-18.21,25.43l10.55,35.55c19.05-17.63,22.35-40.81,15.77-57.47Z"/>
    <path class="cls-1" d="M223.8,242.87c-.04.16-.09.31-.15.46l-.52,1.3c-.46,1.12-1.11,2.74-1.89,4.76-1.55,4-3.53,9.69-5.3,16s-3,12.22-3.73,16.48c-.37,2.13-.66,3.86-.84,5.06-.09.55-.16,1-.22,1.37-.02.16-.05.33-.11.48-.02-.16-.02-.33,0-.49,0-.36.09-.82.15-1.39.12-1.2.36-2.94.7-5.08.89-5.58,2.1-11.11,3.61-16.55,1.51-5.43,3.33-10.77,5.44-16,.81-2,1.5-3.62,2-4.72l.6-1.26c.07-.15.16-.29.26-.42Z"/>
    <path class="cls-1" d="M206.35,310.98c-9.89-5.47-15.72-15.75-16.26-27-.39-7.89,2-15.63,4.79-23,.17-.67.56-1.26,1.11-1.67.91-.33,1.93-.17,2.7.42,7.19,4.09,11.54,11.9,13.86,19.84,1.66,5.27,2.22,10.82,1.63,16.31-.91,5.77-3.66,11.09-7.83,15.18"/>
    <path class="cls-6" d="M206.35,310.98c-.02-.16-.02-.32,0-.48v-1.36c0-1.19-.06-2.9-.15-5-.28-5.51-.9-11-1.84-16.43-1.1-6.37-2.43-12.07-3.41-16.19-.48-2-.88-3.67-1.17-4.89l-.3-1.33c-.05-.15-.08-.31-.08-.47.07.14.12.29.16.45l.38,1.31c.33,1.14.78,2.8,1.31,4.85,1.06,4.11,2.44,9.81,3.54,16.2.95,5.45,1.52,10.95,1.71,16.48.06,2.13.06,3.84,0,5,0,.55,0,1-.05,1.36-.02.17-.05.34-.1.5Z"/>
    <path class="cls-6" d="M217.51,371.03c9.74,2.14,17.75,9,27.14,12.35,6.22,2.21,13.24,3,18.2,7.33-1.19-3-4-5-6.75-6.72-7.73-4.83-15.98-8.77-24.6-11.74-4.42-1.53-9.21-2.8-13.72-1.54"/>
    <path class="cls-6" d="M203.43,379.71c-12.19-.2-25-10.58-37.16-11.2,12.7-4.1,30.88-.75,37.16,11.2"/>
    <path class="cls-6" d="M208.24,350.46c6.19-2.23,13-2.34,19.49-1.33s12.78,3.1,19,5.18c-.63-4.23-4.05-7.41-7.27-10.23-2.35-2.2-4.91-4.16-7.64-5.87-2.75-1.73-5.93-2.63-9.18-2.61-3.92.26-7.57,2.1-10.11,5.1-2.46,2.69-3.98,6.11-4.33,9.74"/>
    <path class="cls-6" d="M183.18,337c-7.68-6.55-19.3-5.91-29.39-5.68,16.21,7.72,31.5,17.25,45.57,28.4.41-7.12-6.49-14.44-16.18-22.72Z"/>
    <path class="cls-6" d="M211.65,327.95c3.75-2.6,7.69-4.89,11.8-6.86,4-1.83,7.81-4.75,11.71-6.87,5.06-2.74,9.44-6.54,14.09-9.94s9.74-6.46,15.42-7.36c-4.67-.83-9.46-.55-14,.81-4.53,1.37-8.95,3.09-13.21,5.14-6,2.7-12.08,5.46-17,9.84s-9.32,8.7-8.8,15.24"/>
    <path class="cls-1" d="M244.43,379.71c-.14-.04-.27-.1-.39-.17l-1.06-.55c-.92-.49-2.24-1.21-3.9-2.05-.82-.43-1.73-.88-2.72-1.35s-2-1-3.16-1.45c-2.43-1.08-4.94-1.96-7.51-2.62-2.55-.7-5.24-.77-7.82-.19-1.13.25-2.23.58-3.31,1-.93.37-1.83.83-2.68,1.37-1.23.78-2.36,1.71-3.36,2.78-.71.75-1.05,1.22-1.08,1.19.06-.13.13-.25.22-.35.23-.35.47-.68.73-1,.97-1.12,2.08-2.11,3.32-2.92.86-.57,1.76-1.05,2.71-1.45,1.09-.42,2.22-.76,3.36-1,2.64-.61,5.39-.56,8,.16,2.6.66,5.13,1.56,7.57,2.67,1.13.5,2.19,1,3.16,1.5s1.89.95,2.71,1.4c1.64.87,2.94,1.64,3.83,2.17l1,.62c.27.13.39.22.38.24Z"/>
    <path class="cls-1" d="M194.34,373.67c.26.03.52.11.76.22.68.24,1.35.53,2,.86,4.28,2.18,7.81,5.59,10.14,9.79.36.63.67,1.28.94,1.95.12.24.21.49.25.75-.07,0-.52-1-1.46-2.55-2.46-4.04-5.92-7.37-10.06-9.67-1.55-.87-2.6-1.28-2.57-1.35Z"/>
    <path class="cls-1" d="M167.37,336.39c.18.03.35.08.52.15l1.46.52,2.31.85c.9.34,1.87.83,3,1.32,5.72,2.64,11.06,6.04,15.87,10.11,2.63,2.26,5.1,4.7,7.4,7.29,1.86,2.12,3.62,4.34,5.25,6.65,1.4,2,2.45,3.62,3.17,4.75.35.54.62,1,.84,1.31.11.15.2.3.27.47-.13-.13-.24-.27-.34-.42-.22-.28-.53-.71-.91-1.26-.76-1.11-1.86-2.72-3.28-4.67s-3.2-4.18-5.3-6.57c-2.31-2.56-4.77-4.97-7.38-7.22-4.79-4.04-10.07-7.45-15.72-10.16-1.1-.51-2.06-1-3-1.37l-2.27-.92-1.43-.6c-.16-.06-.31-.14-.46-.23Z"/>
    <path class="cls-1" d="M226.49,343.6c-.34,0-.67-.05-1-.13l-1.12-.2c-.44-.09-.94-.09-1.5-.15-4.52-.4-8.98,1.25-12.16,4.48-.93.9-1.75,1.91-2.45,3-.63,1.03-1.19,2.09-1.68,3.19.05-.33.13-.64.25-.95.31-.84.7-1.65,1.17-2.41.68-1.15,1.49-2.2,2.43-3.15,3.22-3.39,7.86-5.06,12.5-4.5.51.04,1.01.11,1.51.21l1.12.28c.32.07.63.18.93.33Z"/>
    <path class="cls-1" d="M238.74,305.6c-.14.11-.3.2-.46.28l-1.36.74c-1.18.64-2.88,1.58-5,2.79s-4.48,2.76-7.06,4.6c-2.82,1.97-5.46,4.18-7.89,6.61-1.26,1.24-2.34,2.64-3.22,4.17-.8,1.54-1.57,3-2.27,4.44-1.27,2.51-2.39,5.08-3.38,7.71-.66,1.77-1.21,3.59-1.65,5.43-.31,1.31-.43,2-.47,2,0-.18.02-.36.05-.54,0-.36.12-.87.25-1.53.38-1.87.89-3.71,1.53-5.5.95-2.66,2.06-5.26,3.31-7.79.7-1.43,1.45-2.92,2.25-4.45.9-1.57,2.01-3.01,3.29-4.29,2.46-2.45,5.14-4.67,8-6.63,2.6-1.83,5.05-3.33,7.14-4.53s3.82-2.09,5-2.68l1.39-.67c.17-.08.36-.13.55-.16Z"/>
    <path class="cls-1" d="M204.56,342.51c-.12-.32-.2-.66-.24-1-.15-.75-.32-1.69-.54-2.81-.58-3.09-1.35-6.15-2.3-9.15-.99-2.99-2.15-5.92-3.48-8.77-.48-1-.88-1.92-1.19-2.61-.17-.32-.3-.65-.39-1,.21.28.39.58.54.9.32.6.78,1.47,1.31,2.55,2.87,5.66,4.84,11.73,5.82,18,.19,1.2.32,2.17.39,2.85.06.34.09.69.08,1.04Z"/>
    <path class="cls-6" d="M203.68,314.77c-.4-4.62-1.76-9.1-4-13.16-6.08-11.33-16.86-19.38-29.45-22l27.27,40.64,3.52,7.25c2.43-3.9,2.96-8.12,2.66-12.73Z"/>
    <rect class="cls-6" x="179.39" y="394.86" width="63.4" height="11.24"/>
    <polygon class="cls-6" points="184.12 403.87 189.52 438.73 231.61 438.73 238.05 403.87 184.12 403.87"/>
    <path class="cls-1" d="M242.75,406.11c0,.12-14.3.22-31.94.22s-31.94-.1-31.94-.22,14.3-.22,31.94-.22,31.94.1,31.94.22Z"/>
  </g>
  <g id="freepik--Table--inject-220">
    <path class="cls-7" d="M0,438.96c0-.14,100.81-.26,225.14-.26s225.16.12,225.16.26-100.79.26-225.16.26-225.14-.11-225.14-.26Z"/>
  </g>
  <g id="freepik--Lines--inject-220">
    <path class="cls-7" d="M227.65,159.74c-.15,0-.19-5.5-.1-12.28s.28-12.27.42-12.27.19,5.5.1,12.28-.28,12.27-.42,12.27Z"/>
    <path class="cls-7" d="M192.98,166.71c-1.84-2.17-3.54-4.45-5.1-6.82-1.7-2.28-3.25-4.65-4.66-7.12,1.83,2.17,3.53,4.44,5.09,6.82,1.7,2.27,3.26,4.65,4.67,7.12Z"/>
    <path class="cls-7" d="M264.31,165.02c-.64.73-1.34,1.4-2.1,2-1.34,1.18-3.24,2.77-5.38,4.46s-4.12,3.18-5.57,4.22c-.76.6-1.57,1.13-2.43,1.58.69-.68,1.42-1.31,2.21-1.87l5.47-4.33,5.46-4.34c.73-.64,1.51-1.22,2.34-1.72Z"/>
  </g>
  <g id="freepik--Stars--inject-220">
    <path class="cls-9" d="M208.17,142.85l.41.83c.04.09.12.15.22.16l.92.14c.16.02.28.16.26.32,0,.07-.04.13-.09.18l-.67.65c-.07.07-.1.17-.08.26l.15.92c.03.16-.07.31-.22.34-.07.01-.14,0-.21-.03l-.82-.43c-.09-.04-.19-.04-.28,0l-.82.43c-.14.08-.32.03-.4-.1-.04-.06-.05-.14-.03-.21l.16-.92c.01-.1-.02-.19-.09-.26l-.66-.65c-.12-.11-.12-.29-.01-.41.05-.05.11-.08.18-.09l.92-.14c.1,0,.18-.07.22-.16l.41-.83c.07-.15.25-.21.4-.14.06.03.11.08.14.14Z"/>
    <path class="cls-9" d="M270.99,180.28l.41.83c.05.09.13.15.23.17l.92.13c.16.03.27.18.25.35-.01.06-.04.12-.09.16l-.66.65c-.07.07-.1.16-.09.26l.16.91c.03.16-.08.32-.24.35-.06.01-.13,0-.19-.03l-.82-.44c-.09-.04-.19-.04-.28,0l-.82.44c-.15.07-.33.01-.4-.13-.03-.06-.04-.12-.03-.19l.15-.91c.02-.09,0-.19-.08-.26l-.67-.65c-.12-.12-.12-.31,0-.42.05-.05.11-.08.17-.09l.92-.13c.1-.02.18-.08.22-.17l.41-.83c.08-.15.26-.2.41-.12.05.03.1.07.12.12Z"/>
    <path class="cls-9" d="M250.57,146.15l.75,1.52c.08.16.23.27.41.3l1.67.24c.3.04.5.32.46.61-.02.12-.07.22-.16.31l-1.21,1.18c-.13.13-.18.31-.15.48l.28,1.67c.05.29-.15.57-.44.62-.12.02-.23,0-.34-.05l-1.5-.79c-.16-.08-.34-.08-.5,0l-1.5.79c-.26.14-.59.05-.73-.22-.06-.11-.08-.23-.06-.35l.29-1.67c.03-.18-.03-.36-.16-.48l-1.21-1.18c-.21-.21-.22-.55,0-.76.08-.08.19-.14.31-.16l1.68-.24c.17-.03.32-.14.4-.3l.75-1.52c.13-.27.45-.38.72-.25.11.05.19.14.25.25Z"/>
    <path class="cls-9" d="M172.98,185.46l.75,1.51c.08.16.23.27.4.3l1.68.24c.3.04.5.32.46.61-.02.12-.07.22-.16.31l-1.21,1.17c-.13.12-.19.3-.16.47l.29,1.67c.05.29-.14.57-.44.63-.12.02-.25,0-.35-.06l-1.49-.79c-.16-.08-.35-.08-.51,0l-1.5.79c-.27.14-.59.03-.73-.23-.05-.1-.07-.22-.05-.34l.29-1.67c.03-.17-.03-.35-.16-.47l-1.21-1.19c-.21-.21-.22-.55,0-.76.08-.08.19-.14.31-.16l1.67-.24c.18-.03.33-.14.41-.3l.75-1.51c.14-.27.46-.37.73-.23.11.05.19.14.24.25Z"/>
    <path class="cls-9" d="M259.99,211.45l.75,1.51c.08.16.23.27.41.3l1.67.24c.3.04.5.32.46.61-.02.12-.07.22-.16.31l-1.21,1.18c-.13.12-.19.3-.16.47l.29,1.67c.05.29-.14.57-.44.63-.12.02-.25,0-.35-.06l-1.49-.79c-.16-.08-.35-.08-.51,0l-1.49.79c-.26.14-.59.05-.73-.22-.06-.11-.08-.23-.06-.35l.29-1.67c.03-.17-.03-.35-.16-.47l-1.21-1.19c-.21-.21-.22-.55,0-.76.08-.08.19-.14.31-.16l1.67-.24c.18-.03.33-.14.41-.3l.75-1.51c.13-.27.46-.37.72-.24.11.05.19.14.25.25Z"/>
  </g>
  <g id="freepik--speech-bubble--inject-220">
    <polygon class="cls-10" points="307.47 93.27 323.97 80.51 325.56 101.23 347.62 99.76 333.01 118.85 346.58 132.22 323.55 135.98 328.77 161.36 311.9 142.74 291.45 154.67 291.68 133.88 269.68 127.61 286.54 115.07 274.11 98.09 292.19 100.98 292.64 80.65 307.47 93.27"/>
    <path class="cls-7" d="M269.58,127.48l-.27.2.32.09,22,6.28-.12-.17c-.08,6.61-.16,13.62-.24,20.79v.32l.28-.16,20.45-11.93h-.23l4.6,5.08,12.27,13.55.45.5-.13-.66c-1.79-8.67-3.53-17.13-5.23-25.39l-.14.21,23-3.76h.33l-.24-.24-13.58-13.36v.21l14.6-19.1.19-.25h-.31l-22.06,1.49.12.11c-.63-8.16-1.17-15-1.61-20.72v-.16l-.13.1-12.23,9.51-3.15,2.46-1.07.85,1.07-.8,3.16-2.42,12.35-9.51-.14-.06c.42,5.7.94,12.56,1.55,20.73v.12h.11l22.07-1.45-.13-.23c-4.54,5.93-9.43,12.32-14.62,19.08l-.09.12.1.09c4.35,4.3,8.88,8.76,13.57,13.38l.09-.28-23,3.74h-.18v.18c1.68,8.23,3.42,16.7,5.21,25.39l.31-.16-12.24-13.56c-1.58-1.73-3.15-3.47-4.6-5.08l-.1-.11-.13.08-20.45,11.94.27.16c.08-7.17.15-14.19.23-20.79v-.14h-.13l-22-6.26.06.3,16.85-12.56.12-.09-.09-.13-12.44-17-.13.22,18.08,2.86h.13v-.13c.17-7.89.31-14.75.43-20.33l-.14.06,11,9.34,2.87,2.41c.64.54,1,.8,1,.8l-1-.85-2.85-2.45-11-9.38-.13-.11v.18c-.13,5.57-.3,12.44-.49,20.32l.14-.11-18.08-2.9h-.33l.2.26,12.41,17v-.22"/>
    <path class="cls-13" d="M305.55,107.4l1.53,14.2c.12,1.16,1.09,2.05,2.26,2.07h0c1.23.02,2.27-.93,2.35-2.16l1-14.41c.06-1.01-.71-1.88-1.71-1.94-.07,0-.14,0-.21,0l-3.48.21c-1,.03-1.78.87-1.75,1.87,0,.05,0,.11.01.16Z"/>
    <path class="cls-13" d="M312.78,130.3c-.53,1.85-2.46,2.91-4.31,2.38-1.85-.53-2.91-2.46-2.38-4.31.53-1.84,2.45-2.91,4.29-2.39,1.85.52,2.93,2.44,2.4,4.29,0,0,0,.01,0,.02Z"/>
  </g>
  <g id="freepik--character-2--inject-220">
    <path class="cls-7" d="M461.62,297.85c-4.57-5.23-12.31-6.33-17.78-10.61-7.37-5.77-9.24-16.09-9.5-25.46s.46-19.19-3.61-27.63c-4.96-9.81-15.38-15.63-26.34-14.69l-12.33,12c5.61,6.24,8.85,15.91,7.52,24.2s-8.5,24.08-9.18,32.45c-1.47,18.22,5.69,31.47,22.34,39,4.11,1.86,8.66,3.11,13.12,2.48s8.82-3.47,10.29-7.74c7.33,3.67,16.89,3.3,23.11-2s7.76-15.83,2.36-22Z"/>
    <path class="cls-2" d="M222.87,210.93s5.33-10.3,6.66-11.39,3.27-.85,3.15,1-2.42,7-2.42,7c0,0,4-11.74,7.14-14.05,3.14-2.31,3.52-.48,3.52,1.22,0,0,2.3-7.6,5.33-6.23s.6,6.1.6,6.1c0,0,3.27-5.93,5.69-3.81s-4.11,13.38-4.11,13.38c0,0,2.42-1.09,1.69,3.27s-1.57,10.54-3.63,14.17-6.78,12.36-10.42,17.57-4.83,51.34-4.83,51.34c0,0-15.75,9.33-23.38,8.12l-3-.49,9.81-55.83s-2.12-3.88-1.66-10.66,9.86-20.71,9.86-20.71Z"/>
    <path class="cls-8" d="M243.24,208.96c-.9.15-1.81.23-2.72.24-1.69.12-4,.33-6.54.73s-4.81.91-6.45,1.3c-.88.27-1.77.46-2.68.58.82-.41,1.69-.72,2.59-.93,2.12-.63,4.28-1.12,6.46-1.47,2.18-.34,4.39-.53,6.6-.58.92-.07,1.83-.02,2.74.13Z"/>
    <path class="cls-8" d="M241.24,194.07c-.18.85-.46,1.68-.84,2.47-.6,1.49-1.51,3.52-2.63,5.71s-2.22,4.11-3.08,5.47c-.42.76-.92,1.48-1.49,2.13.32-.81.71-1.58,1.18-2.31.77-1.41,1.82-3.35,2.93-5.53s2.06-4.17,2.75-5.62c.33-.8.72-1.58,1.18-2.32Z"/>
    <path class="cls-8" d="M247.42,193.43c-.35.8-.77,1.56-1.26,2.28l-3.21,5.39-3.16,5.43c-.39.78-.85,1.52-1.38,2.21.27-.83.62-1.63,1.06-2.39.73-1.44,1.78-3.39,3-5.51s2.44-4,3.35-5.33c.45-.75.99-1.45,1.6-2.08Z"/>
    <path class="cls-8" d="M226.46,231.16s0-.13.05-.37.15-.59.29-1c.42-1.25,1-2.44,1.72-3.55,1.07-1.64,2.43-3.08,4-4.24,1.77-1.32,3.94-2.42,5.68-4.18,3.59-3.57,3.91-8.59,6.17-11.2.8-1.08,1.88-1.9,3.13-2.39.34-.12.7-.19,1.06-.21.12-.02.25-.02.37,0-.46.09-.92.21-1.36.37-1.17.54-2.17,1.38-2.91,2.43-1.06,1.6-1.87,3.34-2.42,5.18-.77,2.29-2.02,4.39-3.66,6.16-1.83,1.84-4,2.92-5.76,4.2-1.56,1.11-2.91,2.48-4,4.06-.97,1.48-1.76,3.07-2.36,4.74Z"/>
    <path class="cls-7" d="M409.65,197.71c-5.57-14.07-15.79-24.4-30.13-29.23-8.09-2.72-12-2.1-18.35-2.39s-12.65,1.17-17.73,5c-6,4.57-11.61,10.05-14.68,17-3.15,7.1-6.31,14.25-8.11,21.81s-2.16,15.63.28,23l17.74,9.24c10.26,3.66,20.67,7.35,31.53,8.2s22.41-1.45,30.64-8.59c11.4-9.91,14.4-29.97,8.81-44.04Z"/>
    <path class="cls-2" d="M392.98,192.27l-21.87-17.93-6.78-1.33c-14.73-4.63-30.06,8.37-33.95,20.26-4.32,13.2-9.09,29.5-10.09,39.93-2,21,14.21,27.95,14.21,27.95,0,0-1.14,3.1-3.37,9.65l-2.45,1.86c1.34,11.5,18.24,16.64,36.28,9.71l.76-.63,31.74-80.64c1.03-3.66-.92-7.5-4.48-8.83Z"/>
    <path class="cls-7" d="M330.94,210.6c-.37,1.4.43,2.84,1.82,3.25,1.33.46,2.78-.24,3.25-1.57,0-.02.02-.05.02-.07.37-1.39-.43-2.83-1.81-3.25-1.34-.46-2.79.24-3.26,1.58,0,.02-.01.04-.02.06Z"/>
    <path class="cls-7" d="M332.76,201.32c.23.42,2.56-.53,5.34.2s4.46,2.65,4.85,2.39c.19-.12,0-.81-.7-1.69-.99-1.14-2.3-1.95-3.77-2.32-1.45-.38-2.98-.29-4.37.25-1.02.45-1.47.97-1.35,1.17Z"/>
    <path class="cls-7" d="M343.49,228.34c.06-.15-1.6-.9-4.3-2-.69-.26-1.33-.58-1.32-1.09.12-.76.47-1.45,1-2,1.11-1.55,2.27-3.17,3.5-4.87,4.91-6.94,8.66-12.72,8.38-12.91s-4.49,5.27-9.4,12.21c-1.2,1.72-2.34,3.35-3.42,4.92-.67.74-1.06,1.69-1.09,2.69.07.56.4,1.05.89,1.34.37.21.76.37,1.17.48,2.8.92,4.54,1.39,4.59,1.23Z"/>
    <path class="cls-8" d="M334.47,261.12c9.45,2.6,19.44,2.53,28.85-.21,0,0-10.81,12.1-30.48,5l1.63-4.79Z"/>
    <path class="cls-7" d="M336.74,192.04c.29.8,2.54.9,5,1.75s4.32,2,5,1.57c.32-.23.22-1-.46-1.87-.96-1.16-2.23-2.02-3.67-2.47-1.41-.5-2.94-.57-4.39-.21-1.09.32-1.6.85-1.48,1.23Z"/>
    <path class="cls-7" d="M360.53,218.83c-.39,1.39-1.83,2.21-3.23,1.84-1.37-.29-2.26-1.63-1.97-3,0-.03.01-.06.02-.09.4-1.39,1.84-2.21,3.24-1.84,1.37.29,2.25,1.64,1.96,3.01,0,.03-.01.05-.02.08Z"/>
    <path class="cls-7" d="M370.08,212.04c-.42.24-1.93-1.78-4.68-2.59s-5.18,0-5.38-.47c-.1-.2.4-.7,1.47-1.08,1.44-.46,2.99-.46,4.43,0,1.43.43,2.69,1.3,3.6,2.48.65.87.72,1.56.56,1.66Z"/>
    <path class="cls-7" d="M371.24,202.76c-.73.46-2.66-.82-5.2-1.62s-4.84-1-5.14-1.79c-.12-.38.4-.91,1.53-1.22,3.07-.65,6.25.4,8.33,2.75.69.91.79,1.65.48,1.88Z"/>
    <path class="cls-2" d="M383.46,233.29c.39-1.5,3-4.59,4.58-4.44,4.12.41,11.17,2.58,8.63,12.64-3.47,13.76-19.69,7-19.62,6.6s5.05-9.63,6.41-14.8Z"/>
    <path class="cls-8" d="M385.24,244.46c.07,0,.2.23.56.52.51.38,1.15.56,1.78.49,1.59-.17,3.39-2.17,4.09-4.63.33-1.17.4-2.4.19-3.6-.04-.94-.54-1.8-1.34-2.3-.53-.29-1.19-.16-1.58.3-.28.34-.26.64-.34.64s-.24-.3,0-.84c.16-.32.42-.58.75-.73.46-.18.96-.18,1.42,0,1.11.51,1.86,1.56,2,2.77.28,1.32.24,2.7-.13,4-.79,2.75-2.86,5-5,5.06-.8.03-1.57-.3-2.1-.91-.36-.43-.3-.76-.3-.77Z"/>
    <path class="cls-7" d="M388.58,229.07l-4.56,2.46c-10.29-18.89-27.93-63.59-27-61,0,0,11.47-.94,21.88,4.44s29.54,17.54,25.08,30.43-15.4,23.67-15.4,23.67Z"/>
    <path class="cls-13" d="M408.49,230.54c.03-.27.03-.55,0-.82-.02-.79-.11-1.57-.25-2.35-.61-2.86-1.83-5.56-3.59-7.9-2.61-3.47-5.79-6.47-9.41-8.87-4-2.83-8.63-5.53-12.87-9.17-4.02-3.37-7.65-7.19-10.8-11.39-2.56-3.43-4.8-7.08-6.71-10.91-1.27-2.58-2.39-5.24-3.35-7.95l-.76-2.22c-.07-.27-.18-.53-.31-.77.03.27.09.55.17.81.14.52.33,1.29.63,2.27.87,2.76,1.93,5.45,3.17,8.07,1.86,3.89,4.08,7.6,6.63,11.08,3.16,4.26,6.8,8.14,10.87,11.55,4.3,3.68,9,6.37,13,9.16,3.6,2.33,6.79,5.23,9.44,8.6,1.76,2.27,3.02,4.88,3.72,7.67.38,2,.34,3.14.42,3.14Z"/>
    <path class="cls-13" d="M404.54,233.21c.35-1,.49-2.06.41-3.12-.17-2.91-1.22-5.7-3-8-2.14-3-5.75-5.58-9.85-8-4.51-2.49-8.73-5.48-12.58-8.9-3.8-3.46-7.16-7.38-10-11.67-2.32-3.51-4.29-7.24-5.88-11.14-1.06-2.63-1.95-5.33-2.68-8.07l-.54-2.25c-.04-.27-.12-.53-.24-.78,0,.27.04.54.1.8.1.61.24,1.36.41,2.3.62,2.79,1.44,5.53,2.47,8.19,3.43,8.85,8.87,16.78,15.89,23.16,3.89,3.45,8.16,6.45,12.73,8.93,4.1,2.38,7.65,4.87,9.78,7.74,1.78,2.2,2.89,4.87,3.18,7.68.03,1.05-.04,2.09-.2,3.13Z"/>
    <path class="cls-8" d="M351.48,232.42c.42-.15.88-.17,1.31-.06.37.18.68.47.86.84,1.35,2.32.56,5.29-1.76,6.64-1.15.67-2.53.84-3.8.47-1.85-.54-3.75-2.23-3.89-5.91,2.27-.57,5.04-1.42,7.28-1.98Z"/>
    <path class="cls-7" d="M347.92,240.44c1.02.09,2.04-.04,3-.39,1.01-.41,1.83-1.16,2.33-2.13.59-1.19.66-2.57.19-3.81-.26-.63-.63-1.28-1.13-1.34-.63.02-1.25.13-1.85.33l-3.33.83c-1.01.31-2.06.51-3.12.6.96-.47,1.96-.84,3-1.08l3.3-1c.68-.26,1.4-.39,2.12-.39.44.09.83.34,1.09.71.24.33.43.68.57,1.06.54,1.42.44,3.01-.27,4.35-.58,1.08-1.55,1.91-2.72,2.3-1.98.69-3.24,0-3.18-.04Z"/>
    <path class="cls-13" d="M412.31,212.53c.07.49.11.99.1,1.49.03.59.03,1.17,0,1.76,0,.69-.06,1.47-.18,2.33,0,.43-.1.88-.15,1.34s-.17,1-.26,1.45c-.15,1-.45,2.06-.71,3.17-.66,2.4-1.51,4.74-2.54,7-1.06,2.24-2.33,4.39-3.77,6.41-.73.89-1.35,1.79-2.06,2.51l-1,1.09-1,.93c-.57.53-1.16,1.03-1.79,1.49-.27.21-.53.4-.76.59l-.69.42c-.41.29-.85.54-1.3.75-.07-.11,1.81-1.15,4.28-3.52l1-.94,1-1.09c.7-.73,1.3-1.63,2-2.51,1.4-2.01,2.63-4.14,3.69-6.35,1.02-2.23,1.88-4.54,2.55-6.9.27-1.09.58-2.13.75-3.12.09-.49.19-1,.28-1.43s.13-.9.19-1.33c.14-.85.19-1.62.25-2.3.07-.58.1-1.16.11-1.74-.04-.5-.04-1,.01-1.5Z"/>
    <path class="cls-5" d="M203.96,292.3l-4.86,13.92c-2.18,3.43-3.07,7.52-2.52,11.55,1,6.46,1.27,16.62,13.78,18.94s69.47-2.58,69.47-2.58c0,0,34-63,33.74-62.23-6.55.15-13.02,1.45-19.12,3.83-3.79,1.65-7.4,3.68-10.78,6.06-8.37,5.66-17.79,9.59-27.7,11.56-11.19,2.25-23.69,4.78-23.26,4.78l1.26-11.43-30.01,5.6Z"/>
    <path class="cls-5" d="M375.67,399.76l21.88-110.93-25.76-9.39-1.77-9.21-34,12.18-3.78-14.9-7.53,4.28-11.28.11s-32.84,45.41-35.74,72.48c-1.49,13.93,4.9,47,4.9,47l-1.26,27.22-4.35,11.63c-1.43,3.84-.58,6.5,2.81,8.8l106-.25c3.59-4.86,4.11-11.34,1.35-16.71l-11.47-22.31Z"/>
    <path class="cls-3" d="M322.35,273.92s-5.91,13.15,0,21.45l11.89-7.72,2.66,14.15s26.14-5.2,33.84-20.88h0s-18.34,17-33.55,17.21h0l-1.72-13.63-11.8,7s-1.22-11.43-1.32-17.58Z"/>
    <g class="cls-4">
      <path d="M386.76,421.33l-64.59,15.32c-4.19.99-8.4-1.6-9.39-5.79,0,0,0,0,0,0l-23-96.93c-.99-4.19,1.6-8.39,5.79-9.39,0,0,0,0,0,0l67.56-16c4.19-.99,8.4,1.6,9.4,5.79l8.08,95.1c1.4,2.61,6.14,11.9,6.14,11.9Z"/>
    </g>
    <rect class="cls-1" x="303.27" y="308.52" width="85.05" height="115.22" rx="8.14" ry="8.14" transform="translate(-75.19 89.74) rotate(-13.35)"/>
    <path class="cls-7" d="M392.53,414.29l.24-.08c.16-.06.41-.11.71-.24,2.42-.92,4.26-2.95,4.94-5.45.27-.98.35-1.99.23-3-.13-1.06-.46-2.18-.73-3.37l-9.68-40.26-6.64-27.83-3.65-15.46c-.63-2.66-1.28-5.37-1.93-8.11-.24-1.38-.64-2.72-1.2-4-1.32-2.55-3.94-4.18-6.81-4.24-1.45.07-2.88.32-4.27.74l-8.74,2.08-18,4.28-37.89,9c-3.22.77-5.61,3.46-6,6.75-.09,1.61.13,3.23.63,4.76.38,1.59.76,3.18,1.13,4.76l4.37,18.64c2.9,12.24,5.7,24,8.36,35.31l7.64,31.95c.29,1.25.59,2.49.88,3.71.93,3.62,4.26,6.1,8,5.95,1.16-.12,2.31-.34,3.43-.66l3.38-.8,6.53-1.54,40.32-9.48,11-2.55,2.86-.65c.64-.15,1-.21,1-.21,0,0-.32.1-1,.26l-2.84.7-10.95,2.65-40.28,9.64-6.53,1.56-3.38.8c-1.15.33-2.32.56-3.51.68-2.53.1-4.97-.95-6.64-2.86-.84-.98-1.45-2.13-1.78-3.38-.3-1.23-.59-2.47-.89-3.72-2.39-10-4.93-20.69-7.61-31.94s-5.48-23.06-8.39-35.3c-1.45-6.13-2.92-12.35-4.43-18.68-.38-1.58-.75-3.17-1.13-4.76-.18-.8-.39-1.58-.55-2.41-.17-.83-.2-1.69-.1-2.53.2-1.71.92-3.31,2.06-4.6.58-.64,1.26-1.19,2-1.63.74-.45,1.54-.79,2.38-1l37.9-9,18-4.27,8.74-2.07,2.15-.51c.73-.18,1.49-.26,2.24-.24,3.05.07,5.81,1.8,7.22,4.5.33.65.58,1.34.75,2.05.16.69.33,1.38.49,2.07l1.92,8.11,3.66,15.5c2.37,10,4.57,19.33,6.57,27.84,4,17,7.24,30.79,9.49,40.33.26,1.19.58,2.3.71,3.39.1,1.01.01,2.02-.26,3-.44,1.55-1.32,2.94-2.54,4-.74.64-1.6,1.14-2.53,1.47-.34.14-.69.26-1.05.35Z"/>
    <circle class="cls-10" cx="345.77" cy="364.46" r="8.34"/>
    <path class="cls-3" d="M306.24,389.95c-.19-.07,1.89,4.76,8.6,6.54s21.51,1.77,24.28,2.76,58.41,11.7,58.41,11.7c0,0,1.33-.69,1.61-6.26s-92.9-14.74-92.9-14.74Z"/>
    <path class="cls-2" d="M323.01,338.03c-.17-.82-.98-1.34-1.79-1.16-.15.03-.29.09-.43.16-2.08,1.2-5,4.09-4.48,10,.22,3.57,1.25,7.04,3,10.16l-17,1.89s-6,1.68-5.12,5.31,1.69,3.37,1.69,3.37c-2.2.18-3.84,2.11-3.66,4.32.01.12.03.24.05.36.2,2.52,3.17,4.34,3.17,4.34,0,0-.94,4.34-.28,5.28s4.71,2.7,4.71,2.7c0,0-.81,2.8.94,4.13s10.88,3.54,10.88,3.54c0,0,19.57,1,23.73,1l19.73,4.53v-23.28s-16.18-3-17.07-4c-1.89-2.17-12.36-17-12.36-17,0,0-4.05-5-4.89-8.78-.39-2.27-.67-4.57-.82-6.87Z"/>
    <path class="cls-8" d="M308.84,367.47c-3.37.22-6.75.19-10.12-.1,1.68-.17,3.37-.21,5.06-.14,1.69-.04,3.38.04,5.06.24Z"/>
    <path class="cls-8" d="M310.64,377.6c-.6.09-1.2.11-1.8.06-1.11,0-2.65-.09-4.35-.23s-3.23-.32-4.33-.48c-.6-.05-1.2-.17-1.78-.35.6-.04,1.2-.01,1.8.08l4.33.37,4.33.34c.61,0,1.21.08,1.8.21Z"/>
    <path class="cls-8" d="M309.55,385.91c-1.12-.04-2.24-.21-3.33-.49-1.11-.17-2.2-.46-3.25-.86,1.12.03,2.24.19,3.32.49,1.12.16,2.21.45,3.26.86Z"/>
    <path class="cls-5" d="M396.91,288.6s3.05.08,8.56,8.35,22.77,79.27,23.77,86.85c1.36,9.55-3,24.25-12.83,25.47-13.04,1.63-75.34-12.67-75.34-12.67l8.12-26,41.87,2.31s-5.62-26.28-7.85-33c-3.66-11.18-1.31-46.79,13.7-51.31Z"/>
    <path class="cls-7" d="M294.12,299.03c-.03.16-.09.3-.17.44l-.58,1.24c-.55,1.14-1.29,2.67-2.18,4.53-1.81,3.83-4.23,9.17-6.59,15.19s-4.23,11.58-5.39,15.65c-.57,2-1,3.71-1.27,4.86-.12.53-.23,1-.32,1.33-.02.16-.07.31-.14.45-.03-.16-.03-.31,0-.47.06-.37.13-.82.22-1.35.22-1.17.59-2.86,1.12-4.91,1.44-5.35,3.2-10.61,5.25-15.75,2.37-6,4.85-11.36,6.75-15.16,1-1.9,1.75-3.43,2.33-4.46.26-.48.49-.87.67-1.19.08-.14.18-.28.3-.4Z"/>
    <path class="cls-7" d="M371.44,280.07c-.14.23-.3.44-.48.64-.33.39-.78,1-1.47,1.74-1.89,2.08-3.99,3.98-6.25,5.65-3.4,2.53-7.09,4.63-11,6.27-4.8,2.06-9.88,3.41-15.07,4h-.25v-.25l-.41-3.22c-.45-3.59-.88-7.08-1.3-10.41l.38.19-11.82,6.94-.25.15-.07-.29c-1.04-4.44-1.44-9-1.17-13.55.1-1.63.26-2.91.39-3.77.07-.43.13-.76.17-1,.01-.11.04-.22.08-.33.02.11.02.23,0,.34,0,.26-.07.58-.11,1-.09.86-.21,2.13-.27,3.76-.18,4.52.27,9.04,1.34,13.44l-.32-.13,11.78-7,.34-.19v.38c.42,3.32.87,6.81,1.32,10.41.14,1.1.28,2.19.4,3.21l-.28-.22c9.33-1.09,18.22-4.53,25.85-10,2.27-1.64,4.39-3.48,6.34-5.5.71-.69,1.17-1.31,1.54-1.68.18-.21.38-.4.59-.58Z"/>
    <path class="cls-7" d="M226.38,319.18c-.02-.3,0-.6.05-.9.06-.58.18-1.42.36-2.44.48-2.68,1.13-5.32,1.93-7.92.8-2.6,1.76-5.14,2.88-7.62.43-.94.8-1.7,1.07-2.22.12-.28.28-.54.48-.77-.34,1.07-.75,2.12-1.21,3.14-.78,1.92-1.78,4.61-2.72,7.63s-1.62,5.8-2.06,7.83c-.19,1.11-.45,2.2-.78,3.27Z"/>
  </g>
  <g id="freepik--character-1--inject-220">
    <rect class="cls-10" x="131.28" y="334.14" width="43.26" height="73.71"/>
    <path class="cls-7" d="M174.54,407.85v-5.49c0-3.56,0-8.73-.07-15.24,0-13-.07-31.41-.11-53l.24.24h-43.26l.26-.26c0,28.1-.05,53.88-.06,73.71l-.2-.2,31.52.1,8.67.05h3.07-11.62l-31.64.11h-.2v-.2c0-19.83,0-45.61-.06-73.71v-.26h43.66v.24c0,21.63-.09,40.08-.12,53.14,0,6.49,0,11.64-.06,15.18v5c-.01.48-.02.59-.02.59Z"/>
    <rect class="cls-13" x="69.7" y="337.74" width="100.89" height="80.56" rx="2.8" ry="2.8"/>
    <path class="cls-11" d="M55.04,234.6l-1-83.61c-.93-20.78,10.39-38.65,31.2-39l1.92.08c19.37.8,34.88,16.34,35.64,35.71.71,18,1.26,37.94.74,47.57-1.09,19.95-21.17,22.25-21.17,22.25,0,0-.12,12.14-.94,18.35l4.69,13.65-30.66,7.36-20.42-22.36Z"/>
    <path class="cls-14" d="M102.37,217.6s-12.61.22-25.66-8.75c0,0,5.63,15.26,25.61,14.28l.05-5.53Z"/>
    <path class="cls-7" d="M98.12,179.9c0-.17,1.91-.42,5-.69.78-.05,1.53-.17,1.68-.7.1-.8-.05-1.62-.42-2.34l-2.07-6.06c-2.87-8.62-4.9-15.7-4.56-15.81s3,6.78,5.82,15.41c.69,2.12,1.34,4.15,2,6.08.45.96.55,2.06.28,3.09-.26.55-.75.95-1.34,1.09-.43.11-.88.15-1.33.13-3.13.04-5.06-.02-5.06-.2Z"/>
    <path class="cls-11" d="M55.04,165.85c-.34-.16-13.54-4.62-13.67,9s13.61,11,13.64,10.58.03-19.58.03-19.58Z"/>
    <path class="cls-14" d="M50.88,180.25c-.06,0-.24.17-.64.35-.57.23-1.21.23-1.78,0-1.44-.54-2.63-2.85-2.67-5.31-.03-1.17.21-2.33.69-3.4.27-.86.95-1.54,1.81-1.81.57-.14,1.15.14,1.4.67.18.38.09.65.16.68s.3-.23.19-.79c-.07-.34-.26-.65-.53-.86-.37-.29-.84-.42-1.31-.36-1.14.22-2.09,1.01-2.51,2.09-.59,1.18-.88,2.48-.86,3.8.07,2.75,1.45,5.34,3.42,5.93.74.22,1.54.1,2.18-.34.42-.3.5-.62.45-.65Z"/>
    <path class="cls-7" d="M130.97,141.67c-8.57,1.32-17.35.69-24.19-4.63-1.98-1.55-3.82-3.29-5.48-5.18-3-3.44-5.4-7.73-9.49-9.81-5.27-2.68-11.61-.85-17.21,1l.24-.21c-2.93,1.32-5.58,3.18-7.81,5.5,1.35,13.23-.71,26.59-6,38.8-.43,1.01-1.23,1.8-2.24,2.22-3.2,1.27-2.21-3-4.59-3.8-1.82-.63-2.7-.24-6.33-.35-1.26-3.43-2-12.78-3.06-17.83-3-3.17-5.76-9-5.87-13.63s2.44-10.43,2.44-10.43c3.46-6.57,5.47-9.93,10.78-11.75l.12.05c4.77-1.86,10.62-1.82,14.48,1.52,1-7.11,7.36-12.68,14.33-14.42s18.11-.53,24.75,2.23c4.53,1.88,8.91,5.46,14,10.62h0c.67.68,1.36,1.39,2.06,2.13l.17.19c1.58.92,3.35,1.46,5.17,1.6,3,.34,4.92-.61,7-2.86.63-.69,1.42-1.55,2.3-1.27.54.25.93.74,1.06,1.32,1,3-.33,6.32-2.57,8.5-1.09,1.04-2.34,1.89-3.7,2.53,1.44,1.61,3.37,2.69,5.5,3.07,1.88.31,3.55,1.37,4.62,2.95.55.78.86,1.71.88,2.67-.04,5.79-5.78,8.41-11.36,9.27Z"/>
    <path class="cls-13" d="M134.63,135.69l-.16.14-.51.35c-.27.2-.55.38-.85.54-.39.23-.8.44-1.22.62-2.7,1.19-5.64,1.68-8.58,1.45-4.36-.34-8.53-1.94-12-4.6-4.2-3.28-7.68-7.39-10.23-12.06-1.42-2.44-2.58-4.93-3.86-7.24-1.17-2.24-2.65-4.31-4.4-6.13-1.58-1.65-3.54-2.87-5.72-3.56-.97-.29-1.99-.42-3-.39-.95.04-1.89.21-2.79.5-2.75.92-5.07,2.83-6.48,5.37-.47.96-.83,1.96-1.07,3v-.21c0-.14.06-.36.1-.61.18-.78.44-1.53.79-2.25.58-1.12,1.35-2.13,2.27-3,1.22-1.15,2.68-2.03,4.27-2.58.93-.31,1.9-.5,2.88-.55,1.06-.04,2.12.09,3.15.37,2.25.69,4.28,1.94,5.92,3.63,1.78,1.85,3.3,3.94,4.49,6.22,1.3,2.32,2.45,4.81,3.87,7.23,2.52,4.62,5.95,8.68,10.08,11.95,3.41,2.63,7.49,4.23,11.78,4.61,2.89.26,5.79-.18,8.47-1.28,1.86-.85,2.76-1.61,2.8-1.52Z"/>
    <path class="cls-13" d="M136.55,126.93c-.22.19-.47.36-.73.49-.68.41-1.39.76-2.13,1.05-1.09.46-2.22.81-3.37,1.07-1.42.31-2.86.48-4.31.52-1.45.02-2.89-.1-4.32-.34-1.16-.21-2.31-.52-3.42-.93-.75-.28-1.47-.61-2.17-1-.5-.27-.76-.43-.74-.46s1.13.5,3,1.11c1.11.35,2.24.62,3.38.81,1.4.22,2.82.32,4.24.3,1.42-.04,2.84-.2,4.23-.47,1.14-.26,2.25-.59,3.34-1,1.88-.6,2.95-1.23,3-1.15Z"/>
    <path class="cls-13" d="M60.14,137.32c.13.42.19.85.18,1.29.07,1.19.04,2.38-.07,3.57-.05.85-.19,1.7-.41,2.52-.19.6-.74,1-1.37,1-.58-.07-1.11-.33-1.52-.75l-4.88-4.52.72-.42c.22,1,.46,1.93.7,2.93.65,2.76,1.26,5.38,1.82,7.77l.3,1.31-1-.92c-2.08-1.97-3.89-4.22-5.37-6.67-.64-.92-1.13-1.93-1.47-3,.2-.14,2.31,4.38,7.43,9.06l-.66.39c-.58-2.39-1.22-5-1.89-7.75-.24-1-.47-2-.7-2.94l-.33-1.42,1,1,4.8,4.58c.27.29.61.5,1,.6.33,0,.62-.22.71-.54.23-.76.38-1.54.47-2.33.49-2.93.41-4.75.54-4.76Z"/>
    <path class="cls-14" d="M97.51,187.75c-.23,0-10.45-4-10.45-4,0,0-3,5.91.62,8.62s7.94,1,8.63-.61c.5-1.3.91-2.64,1.2-4.01Z"/>
    <path class="cls-7" d="M95.24,192.9c-.47.18-.95.33-1.44.45-1.34.18-2.7.1-4-.24h0c-2.63-.68-4.21-3.37-3.52-6,.04-.17.1-.34.16-.51.22-.92.56-1.8,1-2.63l-.52.19c3.1,1.16,5.83,2.15,7.79,2.82,1.03.43,2.1.75,3.2.93-.94-.59-1.95-1.08-3-1.44-1.91-.81-4.6-1.9-7.69-3.11l-.34-.13-.18.32c-.49.9-.85,1.86-1.09,2.85-.5,1.65-.31,3.42.52,4.93.84,1.2,2.06,2.06,3.47,2.45h0c1.4.31,2.86.29,4.25-.05,1.02-.29,1.39-.81,1.39-.83Z"/>
    <path class="cls-7" d="M115.07,166.3c-.04,1.57-1.33,2.82-2.9,2.82-1.53.04-2.8-1.16-2.85-2.69,0-.02,0-.04,0-.06.04-1.57,1.32-2.83,2.89-2.83,1.53-.05,2.81,1.15,2.86,2.68,0,.03,0,.05,0,.08Z"/>
    <path class="cls-7" d="M116.85,156.4c-.37.36-2.48-1.36-5.58-1.48s-5.43,1.35-5.75,1c-.16-.17.23-.85,1.25-1.53,1.37-.89,2.99-1.32,4.62-1.24,1.62.06,3.17.65,4.43,1.66.92.73,1.21,1.43,1.03,1.59Z"/>
    <path class="cls-7" d="M86.57,165c-.04,1.57-1.32,2.82-2.89,2.82-1.53.05-2.81-1.15-2.86-2.68,0-.02,0-.05,0-.07.04-1.57,1.32-2.83,2.89-2.83,1.53-.04,2.81,1.16,2.86,2.7,0,.02,0,.04,0,.06Z"/>
    <path class="cls-7" d="M86.48,155.86c-.38.36-2.49-1.36-5.59-1.48s-5.42,1.35-5.74.95c-.16-.18.23-.85,1.25-1.54,1.38-.87,2.99-1.28,4.62-1.19,1.61.06,3.16.64,4.42,1.65.92.74,1.22,1.44,1.04,1.61Z"/>
    <path class="cls-7" d="M87.88,146.09c-.46.78-3.42-.18-7.08-.42s-6.72.22-7.06-.62c-.15-.4.5-1.1,1.81-1.69,1.73-.73,3.61-1.03,5.48-.87,1.87.12,3.69.69,5.3,1.66,1.21.78,1.75,1.57,1.55,1.94Z"/>
    <path class="cls-7" d="M117.37,147.19c-.66.69-3.17-.12-6.2-.23s-5.61.33-6.18-.43c-.25-.37.17-1.08,1.31-1.72,1.57-.79,3.32-1.13,5.07-1,1.75.06,3.45.6,4.91,1.56,1.05.73,1.38,1.48,1.09,1.82Z"/>
    <path class="cls-9" d="M66.32,287.7c6.86,6.55,60.91,32.94,87.8,31.31s60.7-74.14,60.7-74.14l-25.67-14.67-6.52,9.4-37.48,37s-39.91-29.29-48.48-34.59-22.81-21.59-43.18-4.07-1.18,36.39,12.83,49.76Z"/>
    <path class="cls-11" d="M193.88,225.7s-5.82-4.64-6.22-7.4.2-5.52-.69-7.2,3.16-2.56,5.23,0,3.75,4.44,3.75,4.44c0,0,2.17-13.61,3.15-17.55s2.57-13.71,3-17,1.38-7.89,3.25-7.89h.5s2.17.2,1.77,2.07c0,0,.89-9.17,5.33-8.87,0,0,2.76,0,2.36,4.44s-1.18,10.15-1.18,10.15l3-10.75s.29-3.35,3.25-2.86,2.57,3.16,2,7.69-2.46,15.09-2.46,15.09c0,0,3.94-13.7,5.52-14.69s4.34-1.09,3.45,3.94-3.15,15.88-3.15,15.88c0,0-.6,17.35-1.38,21.1s-12,27.19-12,27.19l-20.02-11.35s3.61-4.07,3.31-4.36-1.77-2.07-1.77-2.07Z"/>
    <path class="cls-14" d="M195.77,215.45c-.01,1-.1,2.01-.25,3,0,1-.06,2.01-.21,3-.37-.97-.47-2.02-.31-3.05,0-1.03.26-2.05.77-2.95Z"/>
    <path class="cls-14" d="M204.54,193.83c-.08-.98-.06-1.97.07-2.95.13-1.82.4-4.33.87-7.07s1-5.2,1.51-7c.21-.96.52-1.9.91-2.81-.11.98-.3,1.95-.55,2.9-.38,1.77-.89,4.23-1.36,7s-.79,5.21-1,7c-.08.99-.23,1.97-.45,2.93Z"/>
    <path class="cls-14" d="M211.82,193.83c-.1-.79-.1-1.58,0-2.37.14-1.9.39-3.78.73-5.65.34-1.87.77-3.73,1.29-5.56.17-.77.44-1.52.8-2.22-.08.79-.22,1.56-.44,2.32-.32,1.41-.74,3.37-1.14,5.55s-.68,4.16-.88,5.6c-.05.79-.17,1.57-.36,2.33Z"/>
    <path class="cls-14" d="M218.88,196.14c-.04-2.85.58-5.66,1.81-8.23-.2,1.39-.49,2.77-.87,4.12-.23,1.39-.54,2.76-.94,4.11Z"/>
    <path class="cls-7" d="M149.6,291.14c-.05-.1-.09-.2-.11-.31l-.25-.94c-.21-.85-.51-2.06-.88-3.6-.42-1.91-1-3.78-1.72-5.59-.47-1.12-1.06-2.18-1.76-3.17-.81-1.09-1.78-2.05-2.88-2.84-4.55-3.52-10.11-7.55-16.35-11.93s-13.14-9.12-20.27-14.28c-3.56-2.58-7-5.08-10.47-7.42s-6.82-4.45-10-6.49c-1.55-1-3.19-1.85-4.9-2.54-.81-.32-1.66-.52-2.53-.58l-1.29-.14h-1.27c-3.13-.07-6.25.32-9.27,1.14-4.37,1.2-8.55,3.01-12.41,5.38-1.38.83-2.42,1.53-3.12,2l-.8.54c-.09.07-.19.13-.29.17.08-.08.16-.15.25-.21l.78-.58c.68-.51,1.7-1.23,3.07-2.09,3.85-2.48,8.04-4.37,12.44-5.62,3.05-.86,6.2-1.27,9.37-1.21h1.29l1.31.13c.9.07,1.79.27,2.64.6,1.74.69,3.42,1.55,5,2.56,3.23,2,6.62,4.14,10.06,6.48s6.93,4.84,10.5,7.42c7.12,5.15,14,9.9,20.24,14.31s11.76,8.46,16.3,12c1.12.82,2.11,1.81,2.92,2.94.71,1.01,1.3,2.1,1.76,3.25.7,1.83,1.26,3.72,1.65,5.65.33,1.55.59,2.77.78,3.63.08.39.15.7.2.94.02.13.03.27.01.4Z"/>
    <polygon class="cls-7" points="32.14 438.96 35.8 423.63 143.38 425.57 148.36 438.96 32.14 438.96"/>
    <path class="cls-9" d="M50.77,221.79c-2.6.87-30.25,27.06-29.09,57.62s15.85,124.24,15.85,124.24c0,0-12.68,5.19-8.94,17s116,8,116,8c0,0,1.07,1,1.55-8.07.67-12.49-18.62-134-18.62-134,0,0-16.82-33.88-24-49.79l-1.09-8.9-48.47-16.46-3.19,10.36Z"/>
    <path class="cls-3" d="M71.62,291.14s37.46,31.67,61.79,33.76l-1.81-11.79-59.98-21.97Z"/>
    <path class="cls-7" d="M62.24,284.85c.25.12.49.26.71.43l2,1.3c.84.58,1.88,1.28,3.12,2s2.6,1.7,4.18,2.63,3.27,2,5.15,3,3.9,2.15,6,3.29c4.3,2.23,9.08,4.55,14.21,6.76s10.1,4.09,14.66,5.7,8.73,2.9,12.25,3.9c1.75.53,3.35.94,4.75,1.33s2.62.7,3.61.94l2.28.6c.27.06.53.14.79.24-.27-.02-.54-.07-.81-.14l-2.31-.5c-1-.21-2.22-.5-3.63-.86s-3-.75-4.78-1.26c-3.54-.95-7.71-2.24-12.31-3.79s-9.57-3.47-14.71-5.68-9.93-4.56-14.22-6.81c-2.13-1.16-4.16-2.24-6-3.35s-3.64-1.98-5.19-2.98-2.93-1.89-4.14-2.69-2.25-1.52-3.07-2.13l-1.91-1.39c-.22-.17-.43-.35-.63-.54Z"/>
    <path class="cls-7" d="M102.02,227.94c.08.27.13.54.15.82.1.59.23,1.37.39,2.35.49,2.87,1.14,5.72,1.94,8.52l.11.4-.38-.16c-5.44-2.39-12.73-5.42-20.83-8.34-8.94-3.24-17.16-5.75-23.16-7.43l-7.12-1.95-1.95-.55c-.23-.05-.46-.12-.67-.22.23.01.47.05.69.12l2,.43c1.7.39,4.15,1,7.17,1.78,6,1.6,14.3,4.05,23.25,7.3,8.13,2.93,15.4,6,20.82,8.47l-.27.23c-.77-2.82-1.37-5.69-1.78-8.59-.14-1-.23-1.83-.28-2.38-.05-.26-.08-.53-.08-.8Z"/>
    <path class="cls-7" d="M46.08,402.97c-1.5.46-3.04.76-4.6.89-1.54.3-3.1.42-4.67.38,1.49-.47,3.04-.77,4.6-.89,1.54-.3,3.1-.42,4.67-.38Z"/>
  </g>
</svg>
