<?xml version="1.0" encoding="UTF-8"?>
<svg id="Layer_1" data-name="Layer 1" xmlns="http://www.w3.org/2000/svg" xmlns:xlink="http://www.w3.org/1999/xlink" viewBox="0 0 1185.92 329.2">
  <defs>
    <style>
      .cls-1 {
        fill: #f0c808;
      }

      .cls-2 {
        fill: url(#linear-gradient);
      }

      .cls-3 {
        fill: #21bdc8;
      }

      .cls-4 {
        fill: #086788;
      }
    </style>
    <linearGradient id="linear-gradient" x1="123.87" y1="292.52" x2="123.87" y2="87.86" gradientUnits="userSpaceOnUse">
      <stop offset="0" stop-color="#086788"/>
      <stop offset="1" stop-color="#21bdc8"/>
    </linearGradient>
  </defs>
  <g>
    <path class="cls-4" d="M422.72,40.56h-40.64v107.14h-33.5V40.56h-40.64v-24.15h114.78v24.15Z"/>
    <path class="cls-4" d="M465.04,62.46c3.7-2.88,7.71-5.21,12.04-6.98,4.33-1.77,9.5-2.66,15.51-2.66,5.62,0,10.59.89,14.92,2.66,4.33,1.77,7.98,4.24,10.95,7.39s5.22,6.91,6.74,11.26c1.52,4.36,2.28,9.09,2.28,14.19v59.38h-30.73v-59.38c0-4.56-1.16-8.12-3.47-10.68-2.31-2.55-5.72-3.83-10.21-3.83-3.37,0-6.53.65-9.47,1.94-2.94,1.29-5.8,3.05-8.57,5.27v66.68h-30.73V12.81h30.73v49.65Z"/>
    <path class="cls-4" d="M581.9,28.66c0,2.22-.5,4.31-1.49,6.26-.99,1.95-2.35,3.66-4.06,5.14-1.72,1.47-3.72,2.64-6,3.51-2.28.87-4.71,1.31-7.29,1.31s-4.86-.43-7.04-1.31c-2.18-.87-4.11-2.04-5.8-3.51-1.68-1.47-3.01-3.18-3.96-5.14-.96-1.95-1.44-4.04-1.44-6.26s.48-4.42,1.44-6.4c.96-1.98,2.28-3.72,3.96-5.23,1.68-1.5,3.62-2.67,5.8-3.51,2.18-.84,4.53-1.26,7.04-1.26s5.01.42,7.29,1.26c2.28.84,4.28,2.01,6,3.51,1.72,1.5,3.07,3.24,4.06,5.23s1.49,4.12,1.49,6.4ZM578.73,54.26v93.44h-30.73V54.26h30.73Z"/>
    <path class="cls-4" d="M628.59,64.35c1.98-1.68,4.03-3.24,6.15-4.69,2.11-1.44,4.38-2.66,6.79-3.65,2.41-.99,5.02-1.77,7.83-2.34,2.81-.57,5.86-.86,9.17-.86,5.62,0,10.59.89,14.92,2.66,4.33,1.77,7.98,4.24,10.95,7.39,2.97,3.15,5.22,6.91,6.74,11.26,1.52,4.36,2.28,9.09,2.28,14.19v59.38h-30.73v-59.38c0-4.56-1.16-8.12-3.47-10.68-2.31-2.55-5.72-3.83-10.21-3.83-3.37,0-6.53.65-9.47,1.94-2.94,1.29-5.8,3.05-8.57,5.27v66.68h-30.73V54.26h19.03c3.83,0,6.34,1.56,7.53,4.69l1.78,5.41Z"/>
    <path class="cls-4" d="M743.96,12.81v75.6h4.56c1.92,0,3.37-.25,4.36-.77.99-.51,1.98-1.37,2.97-2.57l19.43-26.31c1.19-1.5,2.54-2.63,4.06-3.38,1.52-.75,3.47-1.13,5.85-1.13h28.15l-26.56,33.25c-2.51,3-5.49,5.47-8.92,7.39,1.52,1.02,2.91,2.21,4.16,3.56,1.25,1.35,2.44,2.87,3.57,4.55l28.94,44.69h-27.75c-2.31,0-4.3-.34-5.95-1.04-1.65-.69-3.04-1.91-4.16-3.65l-19.43-33.07c-.93-1.5-1.88-2.48-2.87-2.93-.99-.45-2.48-.68-4.46-.68h-5.95v41.36h-30.73V12.81h30.73Z"/>
    <path class="cls-4" d="M880.64,16.41c9.98,0,18.47.84,25.47,2.52,7,1.68,12.72,4.05,17.15,7.12,4.43,3.06,7.65,6.79,9.66,11.17,2.02,4.39,3.02,9.28,3.02,14.69,0,2.94-.46,5.78-1.39,8.51-.93,2.73-2.38,5.29-4.36,7.66-1.98,2.37-4.53,4.55-7.63,6.53-3.11,1.98-6.84,3.69-11.2,5.14,9.52,2.1,16.55,5.5,21.11,10.18s6.84,10.75,6.84,18.2c0,5.59-1.19,10.78-3.57,15.59-2.38,4.81-5.86,9-10.46,12.57-4.59,3.57-10.26,6.37-17,8.38-6.74,2.01-14.44,3.02-23.09,3.02h-57.69V16.41h53.13ZM861.01,39.21v32.44h17.44c3.7,0,7.04-.24,10.01-.72,2.97-.48,5.5-1.32,7.58-2.52,2.08-1.2,3.67-2.85,4.76-4.96,1.09-2.1,1.64-4.74,1.64-7.93s-.43-5.72-1.29-7.79-2.18-3.74-3.96-5-4.05-2.16-6.79-2.7c-2.74-.54-6-.81-9.76-.81h-19.63ZM884.6,124.72c4.43,0,8.04-.51,10.85-1.53,2.81-1.02,5-2.34,6.59-3.96,1.59-1.62,2.68-3.45,3.27-5.5.59-2.04.89-4.11.89-6.22,0-2.4-.35-4.56-1.04-6.49-.69-1.92-1.88-3.54-3.57-4.87-1.68-1.32-3.92-2.34-6.69-3.06-2.78-.72-6.28-1.08-10.51-1.08h-23.39v32.71h23.59Z"/>
    <path class="cls-4" d="M989.67,28.66c0,2.22-.5,4.31-1.49,6.26-.99,1.95-2.35,3.66-4.06,5.14-1.72,1.47-3.72,2.64-6,3.51-2.28.87-4.71,1.31-7.29,1.31s-4.86-.43-7.04-1.31c-2.18-.87-4.11-2.04-5.8-3.51-1.68-1.47-3.01-3.18-3.96-5.14-.96-1.95-1.44-4.04-1.44-6.26s.48-4.42,1.44-6.4c.96-1.98,2.28-3.72,3.96-5.23,1.68-1.5,3.62-2.67,5.8-3.51,2.18-.84,4.53-1.26,7.04-1.26s5,.42,7.29,1.26c2.28.84,4.28,2.01,6,3.51,1.72,1.5,3.07,3.24,4.06,5.23.99,1.98,1.49,4.12,1.49,6.4ZM986.5,54.26v93.44h-30.73V54.26h30.73Z"/>
    <path class="cls-4" d="M1084.42,65.43c0,1.92-.36,3.78-1.09,5.59-.73,1.8-1.68,3.28-2.87,4.42l-42.92,51.54h45.89v20.72h-81.28v-11.35c0-1.14.33-2.58.99-4.32.66-1.74,1.65-3.36,2.97-4.87l43.31-52.17h-44.5v-20.72h79.49v11.17Z"/>
    <path class="cls-3" d="M311.21,313.01c0-2.16.45-4.17,1.34-6.04.89-1.86,2.11-3.48,3.67-4.87,1.55-1.38,3.39-2.48,5.5-3.29,2.11-.81,4.43-1.22,6.94-1.22s4.72.41,6.84,1.22c2.11.81,3.96,1.91,5.55,3.29,1.59,1.38,2.83,3,3.72,4.87.89,1.86,1.34,3.87,1.34,6.04s-.45,4.19-1.34,6.08-2.13,3.53-3.72,4.91c-1.59,1.38-3.44,2.46-5.55,3.24-2.12.78-4.4,1.17-6.84,1.17s-4.82-.39-6.94-1.17c-2.12-.78-3.95-1.86-5.5-3.24-1.55-1.38-2.78-3.02-3.67-4.91s-1.34-3.92-1.34-6.08Z"/>
    <path class="cls-4" d="M446.11,222.54c-.99,1.44-2.03,2.52-3.12,3.24-1.09.72-2.5,1.08-4.21,1.08-1.52,0-3.16-.44-4.91-1.31-1.75-.87-3.73-1.85-5.95-2.93-2.22-1.08-4.74-2.06-7.58-2.93-2.84-.87-6.08-1.31-9.71-1.31-6.28,0-10.95,1.22-14.03,3.65-3.07,2.43-4.61,5.72-4.61,9.87,0,2.64.92,4.84,2.78,6.58,1.85,1.74,4.28,3.24,7.29,4.5,3.01,1.26,6.44,2.42,10.31,3.47,3.87,1.05,7.81,2.22,11.84,3.51,4.03,1.29,7.98,2.81,11.84,4.55,3.87,1.74,7.3,3.96,10.31,6.67,3.01,2.7,5.43,5.99,7.29,9.87,1.85,3.87,2.78,8.55,2.78,14.01,0,6.07-1.16,11.74-3.47,17.03-2.31,5.29-5.67,9.9-10.06,13.83-4.4,3.93-9.81,7.03-16.26,9.28s-13.76,3.38-21.95,3.38c-4.49,0-9.07-.42-13.73-1.26-4.66-.84-9.17-2.03-13.53-3.56-4.36-1.53-8.46-3.35-12.29-5.45-3.83-2.1-7.17-4.44-10.01-7.03l9.91-14.24c.79-1.02,1.83-1.88,3.12-2.57,1.29-.69,2.69-1.04,4.21-1.04,1.98,0,3.98.57,6,1.71,2.01,1.14,4.29,2.4,6.84,3.78,2.54,1.38,5.47,2.64,8.77,3.78,3.3,1.14,7.2,1.71,11.7,1.71,6.08,0,10.8-1.22,14.17-3.65,3.37-2.43,5.05-6.29,5.05-11.58,0-3.06-.93-5.56-2.78-7.48-1.85-1.92-4.28-3.51-7.29-4.78-3.01-1.26-6.43-2.37-10.26-3.33-3.83-.96-7.77-2.03-11.8-3.2-4.03-1.17-7.96-2.61-11.79-4.32-3.83-1.71-7.25-3.96-10.26-6.76-3.01-2.79-5.44-6.28-7.29-10.45-1.85-4.17-2.78-9.33-2.78-15.45,0-4.93,1.09-9.73,3.27-14.42,2.18-4.69,5.38-8.86,9.61-12.53,4.23-3.66,9.42-6.59,15.56-8.79,6.15-2.19,13.18-3.29,21.11-3.29,4.43,0,8.74.32,12.93.95,4.2.63,8.18,1.56,11.94,2.79,3.77,1.23,7.29,2.7,10.56,4.42,3.27,1.71,6.19,3.65,8.77,5.81l-8.33,14.15Z"/>
    <path class="cls-4" d="M519.95,232.28c7.8,0,14.9,1.11,21.31,3.33,6.41,2.22,11.91,5.41,16.5,9.55,4.59,4.15,8.16,9.18,10.71,15.09,2.54,5.92,3.82,12.57,3.82,19.96s-1.27,14.16-3.82,20.14c-2.54,5.98-6.11,11.05-10.71,15.23-4.59,4.18-10.09,7.39-16.5,9.64-6.41,2.25-13.51,3.38-21.31,3.38s-15.02-1.13-21.46-3.38-11.99-5.47-16.65-9.64c-4.66-4.17-8.26-9.25-10.8-15.23-2.54-5.98-3.82-12.69-3.82-20.14s1.27-14.04,3.82-19.96c2.54-5.92,6.15-10.95,10.8-15.09,4.66-4.14,10.21-7.33,16.65-9.55,6.44-2.22,13.59-3.33,21.46-3.33ZM519.95,307.88c7.07,0,12.27-2.27,15.61-6.8,3.34-4.54,5.01-11.43,5.01-20.68s-1.67-16.13-5.01-20.64c-3.34-4.51-8.54-6.76-15.61-6.76s-12.59,2.25-15.96,6.76-5.05,11.39-5.05,20.64,1.68,16.14,5.05,20.68c3.37,4.54,8.69,6.8,15.96,6.8Z"/>
    <path class="cls-4" d="M618.47,192.27v134.89h-30.73v-134.89h30.73Z"/>
    <path class="cls-4" d="M731.46,233.72v93.44h-19.03c-3.83,0-6.34-1.56-7.53-4.69l-1.78-5.41c-1.98,1.74-4.03,3.32-6.15,4.73-2.12,1.41-4.38,2.61-6.79,3.6-2.41.99-5.02,1.77-7.83,2.34-2.81.57-5.87.86-9.17.86-5.62,0-10.59-.89-14.92-2.66-4.33-1.77-7.98-4.25-10.95-7.43-2.97-3.18-5.22-6.94-6.74-11.26-1.52-4.32-2.28-9.07-2.28-14.24v-59.29h30.73v59.29c0,4.63,1.16,8.2,3.47,10.72,2.31,2.52,5.72,3.78,10.21,3.78,3.37,0,6.52-.64,9.47-1.94,2.94-1.29,5.8-3.05,8.57-5.27v-66.59h30.73Z"/>
    <path class="cls-4" d="M863.39,327.16h-30.73v-74.16h-43.02v46.4c0,2.16.58,3.95,1.73,5.36,1.16,1.41,2.82,2.12,5.01,2.12,1.12,0,2.06-.1,2.82-.32.76-.21,1.42-.45,1.98-.72.56-.27,1.09-.51,1.59-.72.5-.21,1.07-.32,1.73-.32.92,0,1.67.2,2.23.59.56.39,1.14,1.01,1.74,1.85l9.32,13.25c-3.96,2.7-8.42,4.73-13.38,6.08-4.96,1.35-10.08,2.03-15.36,2.03-4.89,0-9.2-.65-12.93-1.94-3.73-1.29-6.87-3.12-9.42-5.5-2.54-2.37-4.48-5.24-5.8-8.61-1.32-3.36-1.98-7.12-1.98-11.26v-48.3h-8.72c-1.59,0-2.94-.46-4.06-1.4-1.12-.93-1.68-2.3-1.68-4.1v-10.9l16.35-2.97,6.05-22.71c.79-2.88,3.04-4.32,6.74-4.32h16.06v27.3h73.74v93.26ZM867.65,208.04c0,2.22-.5,4.33-1.49,6.31-.99,1.98-2.35,3.71-4.06,5.18-1.72,1.47-3.72,2.63-6,3.47-2.28.84-4.71,1.26-7.29,1.26s-4.86-.42-7.04-1.26c-2.18-.84-4.11-2-5.8-3.47-1.68-1.47-3.01-3.2-3.96-5.18-.96-1.98-1.44-4.08-1.44-6.31s.48-4.34,1.44-6.35c.96-2.01,2.28-3.75,3.96-5.23,1.68-1.47,3.62-2.64,5.8-3.51,2.18-.87,4.53-1.31,7.04-1.31s5.01.44,7.29,1.31c2.28.87,4.28,2.04,6,3.51,1.72,1.47,3.07,3.21,4.06,5.23.99,2.01,1.49,4.13,1.49,6.35Z"/>
    <path class="cls-4" d="M932.27,232.28c7.8,0,14.9,1.11,21.31,3.33,6.41,2.22,11.91,5.41,16.5,9.55,4.59,4.15,8.16,9.18,10.7,15.09,2.54,5.92,3.82,12.57,3.82,19.96s-1.27,14.16-3.82,20.14c-2.54,5.98-6.11,11.05-10.7,15.23-4.59,4.18-10.1,7.39-16.5,9.64-6.41,2.25-13.51,3.38-21.31,3.38s-15.02-1.13-21.46-3.38c-6.44-2.25-11.99-5.47-16.65-9.64-4.66-4.17-8.26-9.25-10.8-15.23-2.54-5.98-3.82-12.69-3.82-20.14s1.27-14.04,3.82-19.96c2.54-5.92,6.15-10.95,10.8-15.09,4.66-4.14,10.21-7.33,16.65-9.55,6.44-2.22,13.59-3.33,21.46-3.33ZM932.27,307.88c7.07,0,12.27-2.27,15.61-6.8,3.34-4.54,5.01-11.43,5.01-20.68s-1.67-16.13-5.01-20.64c-3.34-4.51-8.54-6.76-15.61-6.76s-12.59,2.25-15.96,6.76c-3.37,4.51-5.06,11.39-5.06,20.64s1.68,16.14,5.06,20.68c3.37,4.54,8.69,6.8,15.96,6.8Z"/>
    <path class="cls-4" d="M1028.42,243.81c1.98-1.68,4.03-3.24,6.15-4.69,2.11-1.44,4.38-2.66,6.79-3.65,2.41-.99,5.02-1.77,7.83-2.34,2.81-.57,5.86-.86,9.17-.86,5.62,0,10.59.89,14.92,2.66,4.33,1.77,7.98,4.24,10.95,7.39,2.97,3.15,5.22,6.91,6.74,11.26,1.52,4.36,2.28,9.09,2.28,14.19v59.38h-30.73v-59.38c0-4.56-1.16-8.12-3.47-10.68-2.31-2.55-5.72-3.83-10.21-3.83-3.37,0-6.53.65-9.47,1.94-2.94,1.29-5.8,3.05-8.57,5.27v66.68h-30.73v-93.44h19.03c3.83,0,6.34,1.56,7.53,4.69l1.78,5.41Z"/>
    <path class="cls-4" d="M1178.38,254.17c-.79,1.14-1.63,1.95-2.53,2.43-.89.48-2.03.72-3.42.72s-2.91-.28-4.36-.86c-1.45-.57-3.02-1.19-4.71-1.85-1.68-.66-3.59-1.28-5.7-1.85-2.12-.57-4.53-.86-7.24-.86-3.9,0-6.89.68-8.97,2.03-2.08,1.35-3.12,3.23-3.12,5.63,0,1.74.68,3.18,2.03,4.32,1.35,1.14,3.15,2.15,5.4,3.02,2.25.87,4.79,1.7,7.63,2.48,2.84.78,5.75,1.65,8.72,2.61,2.97.96,5.88,2.09,8.72,3.38,2.84,1.29,5.38,2.88,7.63,4.78,2.25,1.89,4.05,4.19,5.4,6.89,1.35,2.7,2.03,5.95,2.03,9.73,0,4.63-.93,8.89-2.77,12.8-1.85,3.91-4.61,7.27-8.28,10.09-3.67,2.82-8.19,5.02-13.58,6.58-5.39,1.56-11.58,2.34-18.58,2.34-3.5,0-7.01-.3-10.51-.9-3.5-.6-6.89-1.41-10.16-2.43-3.27-1.02-6.29-2.24-9.07-3.65-2.78-1.41-5.15-2.93-7.14-4.55l7.14-10.27c.79-1.2,1.8-2.15,3.02-2.84,1.22-.69,2.79-1.04,4.71-1.04,1.78,0,3.39.36,4.81,1.08,1.42.72,2.96,1.5,4.61,2.34,1.65.84,3.58,1.62,5.8,2.34,2.21.72,5.01,1.08,8.38,1.08,2.38,0,4.39-.22,6.05-.68,1.65-.45,2.97-1.07,3.96-1.85.99-.78,1.72-1.65,2.18-2.61.46-.96.69-1.95.69-2.97,0-1.86-.69-3.39-2.08-4.6-1.39-1.2-3.21-2.24-5.45-3.11-2.25-.87-4.81-1.68-7.68-2.43-2.87-.75-5.8-1.61-8.77-2.57-2.97-.96-5.9-2.12-8.77-3.47-2.87-1.35-5.44-3.06-7.68-5.14-2.25-2.07-4.06-4.61-5.45-7.61-1.39-3-2.08-6.64-2.08-10.9,0-3.97.84-7.73,2.53-11.31,1.68-3.57,4.21-6.71,7.58-9.42,3.37-2.7,7.6-4.85,12.69-6.44,5.09-1.59,11.03-2.39,17.84-2.39,3.7,0,7.29.3,10.75.9,3.47.6,6.72,1.44,9.76,2.52,3.04,1.08,5.81,2.36,8.33,3.83,2.51,1.47,4.72,3.08,6.64,4.82l-6.94,9.82Z"/>
  </g>
  <g>
    <path class="cls-2" d="M105.49,292.52c-12.01,0-24.31-.41-36.84-1.22-1.14-.07-2.01-1.06-1.93-2.2.07-1.14,1.06-2.02,2.2-1.93,27.7,1.79,54.26,1.59,78.94-.61,5.82-.52,9.64-.99,12.14-1.38-5.27-.99-14.49-2.17-25.26-3.56-3.23-.41-6.7-.86-10.39-1.34-21.38-2.79-35.06-4.59-44.69-6.1-14.59-2.29-16.65-3.3-16.6-5.83.07-3.6,4.68-5.13,56.04-8.09,14.89-.86,26.8-1.25,35.5-1.54,1.3-.04,2.57-.09,3.79-.13-15.56-2.43-44.17-5.76-71.72-7.96l-1.36-.11c-24.32-1.93-28.01-3.12-28.06-6.23-.04-2.57,3.2-3.46,7.45-4.36,16.09-3.41,38.86-4.04,60.88-4.65,10.01-.28,19.47-.54,28.13-1.05,7.74-.46,11.65-.94,13.62-1.32-5.76-2.94-24.95-7.91-43.98-10.6-2.47-.35-4.99-.66-7.48-.94-1.01-.11-1.79-.94-1.84-1.96-.43-8.86-2.43-17.2-5.92-24.8-3.1-6.74-5.16-9.26-11.98-17.59-1.5-1.83-3.22-3.94-5.23-6.42-12.1-14.98-21.65-26.81-18.88-38.63.79-3.35,3.59-8.48,8.33-15.29-2.29-.96-4.47-2.18-6.44-3.71-4.72-3.66-6.8-10.51-4.95-16.28,1.55-4.83,5.61-7.83,10.84-8.03,3.53-.13,7.01,1.21,9.54,3.68,2.3,2.25,3.53,5.19,3.48,8.29-.09,5.23-2.91,9.76-5.78,13.82,5.51,1.27,11.38,1.27,16.12.4,1.98-.36,3.85-1.06,5.82-1.81,1.28-.48,2.6-.98,3.97-1.38-2.53-1.3-4.81-3.09-6.08-5.88-1.85-4.07-1.42-8.44,1.18-12,2.99-4.08,8.28-6.43,13.15-5.84,4.27.52,7.6,3.16,9.36,7.43,2.49,6.05.35,12.62-5.21,16.36,5.85,1.86,11.66,3.34,17.66,3.42,3.32.04,7.23-.46,10.87-1.59-3.5-1.92-6.15-4.73-7.77-8.29-1.94-4.25-1.42-8.68,1.43-12.15,3.28-4,9.01-5.99,13.92-4.84,4.33,1.02,7.33,4.21,8.42,8.98,1.1,4.8.15,9.23-2.75,12.83-.63.78-1.34,1.51-2.11,2.19,5.37.22,11.1-1.19,15.2-3.95,3.8-2.55,5.82-5.24,6.52-6.28.64-.95,1.92-1.21,2.87-.57.95.64,1.21,1.92.57,2.87-.83,1.24-3.24,4.45-7.65,7.42-6.24,4.19-15.27,5.73-22.84,3.96-5.2,2.51-11.44,3.61-16.71,3.56-7.86-.11-15.19-2.35-22.63-4.85l-.62-.2c-1.05.3-2.09.54-3.12.78-.45.1-.9.21-1.35.32-1.61.39-3.16.97-4.8,1.59-2.06.77-4.19,1.58-6.54,2-5.38.98-12.63,1.05-19.47-.85-6.03,8.52-7.89,12.77-8.37,14.83-2.31,9.85,6.24,20.44,18.07,35.08,2,2.48,3.72,4.57,5.21,6.4,6.89,8.42,9.21,11.25,12.54,18.48,3.49,7.57,5.57,15.83,6.19,24.57,1.97.23,3.94.48,5.88.76,10.68,1.51,22.68,3.94,32.11,6.5,16,4.36,17.09,6.83,16.84,9-.29,2.53-2.09,3.67-18.92,4.66-8.72.51-18.21.78-28.26,1.06-21.84.61-44.42,1.23-60.14,4.56-.3.06-.58.12-.84.18,5.79,1.02,16.26,1.85,20.92,2.22l1.37.11c18.62,1.49,39.93,3.69,57.01,5.88,8.31,1.07,15.23,2.09,20.01,2.95,7.47,1.35,9.47,2.03,9.38,4.26-.1,2.36-2.79,2.53-6.2,2.76-2.83.19-7.08.33-12.46.5-8.68.28-20.56.68-35.4,1.53-13.29.77-38.53,2.22-48.58,4,8.61,1.84,29.29,4.54,54.13,7.77,3.69.48,7.16.93,10.39,1.34,29.69,3.81,32.95,4.35,32.88,7.78-.05,2.58-1.87,3.79-19.92,5.39-13.72,1.22-28,1.83-42.74,1.83ZM80.25,92.8c-.1,0-.21,0-.31,0-4.76.18-6.46,3.31-7.06,5.15-1.32,4.1.21,9.15,3.54,11.74,1.89,1.47,4.07,2.62,6.39,3.5,2.78-3.85,5.76-8.17,5.84-12.63.03-1.95-.76-3.82-2.24-5.26-1.62-1.58-3.9-2.51-6.17-2.51ZM158.57,92.11c-2.9,0-5.98,1.38-7.84,3.65-1.3,1.58-2.5,4.22-.86,7.8,2.12,4.64,6.14,6.78,9.32,7.77,1.86-1.05,3.48-2.32,4.7-3.83,2.13-2.64,2.77-5.68,1.94-9.3-.73-3.2-2.58-5.23-5.33-5.88-.62-.15-1.27-.22-1.92-.22ZM119.68,92c-3.11,0-6.41,1.65-8.3,4.24-1.22,1.66-2.34,4.37-.76,7.84,1.44,3.16,5.41,4.61,9.1,5.82.88-.3,1.73-.66,2.55-1.13,4.51-2.57,6.3-7.31,4.45-11.81-1.5-3.63-4.1-4.67-6.03-4.9-.33-.04-.67-.06-1.01-.06Z"/>
    <path class="cls-4" d="M115.55,329.2c-13.54,0-25.34-10.06-27.61-23.66-.19-1.13.57-2.2,1.7-2.38,1.13-.18,2.2.57,2.38,1.7,1.97,11.82,12.34,20.48,24.12,20.19,11.15-.29,20.74-8.59,22.8-19.75.21-1.12,1.29-1.86,2.41-1.66,1.13.21,1.87,1.29,1.66,2.41-2.41,13.07-13.67,22.8-26.77,23.14-.24,0-.47,0-.71,0Z"/>
    <path class="cls-1" d="M41.33,208.76c-4.73,0-9.47-.37-14.14-1.12-.7-.11-1.29-.61-1.52-1.28-.23-.67-.07-1.42.42-1.94,6.26-6.63,10.56-14.64,12.44-23.15.92-4.18-1.11-8.81-5.56-12.7C11.71,149.95,0,125.58,0,99.94,0,44.83,54.19,0,120.8,0s120.8,44.83,120.8,99.94-54.19,99.94-120.8,99.94h-.16c-7.73,0-15.52-.62-23.14-1.86-5.1-.82-7.91-1.28-9.53-1.07-1.62.21-4.4,1.49-9.45,3.8-11.5,5.27-24.33,8-37.17,8ZM31.31,204.33c15.54,1.82,31.59-.65,45.6-7.06,5.56-2.55,8.35-3.83,10.55-4.12,2.19-.29,5.02.17,10.65,1.08,7.42,1.2,15,1.81,22.53,1.81h.16c64.49,0,116.95-43.11,116.95-96.09S185.28,3.85,120.8,3.85,3.85,46.95,3.85,99.94c0,24.51,11.25,47.86,31.66,65.73,5.53,4.84,8.01,10.83,6.78,16.42-1.78,8.05-5.55,15.67-10.98,22.24Z"/>
  </g>
</svg>
