<?xml version="1.0" encoding="UTF-8"?>
<svg id="Layer_1" data-name="Layer 1" xmlns="http://www.w3.org/2000/svg" xmlns:xlink="http://www.w3.org/1999/xlink" viewBox="0 0 1080 953.61">
  <defs>
    <style>
      .cls-1 {
        stroke: #086788;
      }

      .cls-1, .cls-2, .cls-3 {
        fill: none;
        stroke-linecap: round;
        stroke-linejoin: round;
      }

      .cls-1, .cls-3 {
        stroke-width: 5.61px;
      }

      .cls-4 {
        fill: #21bdc8;
      }

      .cls-2 {
        stroke: #f0c808;
        stroke-width: 5.21px;
      }

      .cls-3 {
        stroke: url(#linear-gradient);
      }

      .cls-5 {
        fill: #086788;
      }
    </style>
    <linearGradient id="linear-gradient" x1="543.81" y1="362.53" x2="543.81" y2="108.73" gradientUnits="userSpaceOnUse">
      <stop offset="0" stop-color="#086788"/>
      <stop offset="1" stop-color="#21bdc8"/>
    </linearGradient>
  </defs>
  <g>
    <path class="cls-5" d="M205.09,538.47h-49.54v130.6h-40.84v-130.6h-49.54v-29.44h139.91v29.44Z"/>
    <path class="cls-5" d="M256.68,565.16c4.51-3.52,9.4-6.35,14.68-8.51,5.27-2.16,11.58-3.24,18.91-3.24,6.85,0,12.91,1.08,18.18,3.24,5.27,2.16,9.73,5.16,13.35,9.01,3.62,3.84,6.36,8.42,8.22,13.73,1.85,5.31,2.78,11.08,2.78,17.3v72.38h-37.45v-72.38c0-5.56-1.41-9.9-4.23-13.02-2.82-3.11-6.97-4.67-12.44-4.67-4.11,0-7.96.79-11.54,2.36-3.58,1.58-7.07,3.72-10.45,6.43v81.28h-37.45v-164.43h37.45v60.52Z"/>
    <path class="cls-5" d="M399.13,523.97c0,2.71-.6,5.25-1.81,7.63-1.21,2.38-2.86,4.47-4.95,6.26-2.1,1.79-4.53,3.22-7.31,4.28-2.78,1.06-5.74,1.59-8.88,1.59s-5.92-.53-8.58-1.59c-2.66-1.06-5.01-2.49-7.07-4.28-2.05-1.79-3.67-3.88-4.83-6.26-1.17-2.38-1.75-4.92-1.75-7.63s.58-5.38,1.75-7.8c1.17-2.42,2.78-4.54,4.83-6.37,2.05-1.83,4.41-3.26,7.07-4.28,2.66-1.03,5.52-1.54,8.58-1.54s6.1.51,8.88,1.54c2.78,1.03,5.21,2.45,7.31,4.28,2.09,1.83,3.75,3.95,4.95,6.37,1.21,2.42,1.81,5.02,1.81,7.8ZM395.26,555.16v113.9h-37.45v-113.9h37.45Z"/>
    <path class="cls-5" d="M456.03,567.47c2.42-2.05,4.91-3.95,7.49-5.71,2.58-1.76,5.33-3.24,8.28-4.45,2.94-1.21,6.12-2.16,9.54-2.86,3.42-.69,7.15-1.04,11.18-1.04,6.85,0,12.91,1.08,18.18,3.24,5.27,2.16,9.73,5.16,13.35,9.01,3.62,3.84,6.36,8.42,8.22,13.73,1.85,5.31,2.78,11.08,2.78,17.3v72.38h-37.45v-72.38c0-5.56-1.41-9.9-4.23-13.02-2.82-3.11-6.97-4.67-12.44-4.67-4.11,0-7.96.79-11.54,2.36-3.58,1.58-7.07,3.72-10.45,6.43v81.28h-37.45v-113.9h23.2c4.67,0,7.73,1.91,9.18,5.71l2.17,6.59Z"/>
    <path class="cls-5" d="M596.67,504.64v92.15h5.56c2.33,0,4.11-.31,5.32-.93,1.21-.62,2.42-1.67,3.62-3.13l23.68-32.07c1.45-1.83,3.1-3.2,4.95-4.12,1.85-.91,4.23-1.37,7.13-1.37h34.31l-32.38,40.53c-3.06,3.66-6.69,6.66-10.87,9.01,1.85,1.25,3.54,2.69,5.08,4.34,1.53,1.65,2.98,3.5,4.35,5.55l35.28,54.48h-33.83c-2.82,0-5.24-.42-7.25-1.26-2.01-.84-3.71-2.32-5.07-4.45l-23.68-40.31c-1.13-1.83-2.29-3.02-3.5-3.57-1.21-.55-3.02-.82-5.44-.82h-7.25v50.42h-37.45v-164.43h37.45Z"/>
    <path class="cls-5" d="M763.28,509.03c12.16,0,22.51,1.03,31.05,3.08,8.54,2.05,15.5,4.94,20.9,8.68,5.4,3.74,9.32,8.28,11.78,13.62,2.46,5.35,3.69,11.31,3.69,17.9,0,3.59-.56,7.05-1.69,10.38-1.13,3.33-2.9,6.44-5.32,9.34-2.42,2.89-5.52,5.55-9.3,7.96-3.79,2.42-8.34,4.5-13.65,6.26,11.6,2.56,20.18,6.7,25.73,12.41,5.56,5.71,8.34,13.11,8.34,22.19,0,6.81-1.45,13.14-4.35,19-2.9,5.86-7.15,10.97-12.75,15.32-5.6,4.36-12.5,7.76-20.72,10.21-8.22,2.45-17.6,3.68-28.15,3.68h-70.32v-160.03h64.76ZM739.35,536.82v39.54h21.26c4.51,0,8.58-.29,12.2-.88,3.62-.58,6.71-1.61,9.24-3.08,2.54-1.46,4.47-3.48,5.8-6.04,1.33-2.56,1.99-5.78,1.99-9.67s-.52-6.97-1.57-9.5c-1.05-2.53-2.66-4.56-4.83-6.1s-4.93-2.64-8.28-3.29c-3.34-.66-7.31-.99-11.9-.99h-23.92ZM768.11,641.06c5.4,0,9.81-.62,13.23-1.87,3.42-1.24,6.1-2.86,8.03-4.83,1.93-1.98,3.26-4.21,3.99-6.7.72-2.49,1.09-5.01,1.09-7.58,0-2.93-.42-5.56-1.27-7.91-.85-2.34-2.29-4.32-4.35-5.93-2.05-1.61-4.77-2.86-8.16-3.73-3.38-.88-7.65-1.32-12.81-1.32h-28.51v39.87h28.75Z"/>
    <path class="cls-5" d="M896.18,523.97c0,2.71-.6,5.25-1.81,7.63-1.21,2.38-2.86,4.47-4.95,6.26-2.1,1.79-4.53,3.22-7.31,4.28-2.78,1.06-5.74,1.59-8.88,1.59s-5.92-.53-8.58-1.59c-2.66-1.06-5.01-2.49-7.07-4.28-2.05-1.79-3.67-3.88-4.83-6.26-1.17-2.38-1.75-4.92-1.75-7.63s.58-5.38,1.75-7.8c1.17-2.42,2.78-4.54,4.83-6.37,2.05-1.83,4.41-3.26,7.07-4.28,2.66-1.03,5.52-1.54,8.58-1.54s6.1.51,8.88,1.54c2.78,1.03,5.21,2.45,7.31,4.28,2.09,1.83,3.75,3.95,4.95,6.37,1.21,2.42,1.81,5.02,1.81,7.8ZM892.31,555.16v113.9h-37.45v-113.9h37.45Z"/>
    <path class="cls-5" d="M1011.68,568.78c0,2.34-.44,4.61-1.33,6.81-.89,2.2-2.05,3.99-3.5,5.38l-52.32,62.83h55.94v25.26h-99.07v-13.84c0-1.39.4-3.15,1.21-5.27.8-2.12,2.01-4.1,3.62-5.93l52.8-63.6h-54.25v-25.26h96.9v13.62Z"/>
    <path class="cls-4" d="M7.61,870.58c0-2.64.54-5.09,1.63-7.36,1.09-2.27,2.58-4.25,4.47-5.93,1.89-1.68,4.13-3.02,6.71-4.01,2.58-.99,5.4-1.48,8.46-1.48s5.76.49,8.34,1.48c2.58.99,4.83,2.33,6.77,4.01,1.93,1.69,3.44,3.66,4.53,5.93,1.09,2.27,1.63,4.72,1.63,7.36s-.54,5.11-1.63,7.41-2.6,4.3-4.53,5.99c-1.93,1.69-4.19,3-6.77,3.95-2.58.95-5.36,1.43-8.34,1.43s-5.88-.48-8.46-1.43c-2.58-.95-4.81-2.27-6.71-3.95-1.89-1.68-3.38-3.68-4.47-5.99s-1.63-4.78-1.63-7.41Z"/>
    <path class="cls-5" d="M172.05,760.3c-1.21,1.76-2.48,3.08-3.81,3.95-1.33.88-3.04,1.32-5.13,1.32-1.85,0-3.85-.53-5.98-1.59-2.14-1.06-4.55-2.25-7.25-3.57-2.7-1.32-5.78-2.51-9.24-3.57-3.46-1.06-7.41-1.59-11.84-1.59-7.65,0-13.35,1.48-17.1,4.45-3.75,2.97-5.62,6.97-5.62,12.03,0,3.22,1.13,5.9,3.38,8.02,2.25,2.12,5.21,3.95,8.88,5.49,3.66,1.54,7.85,2.95,12.57,4.23,4.71,1.28,9.52,2.71,14.44,4.28,4.91,1.58,9.73,3.42,14.44,5.55,4.71,2.12,8.9,4.83,12.56,8.13,3.66,3.29,6.62,7.3,8.88,12.03,2.25,4.72,3.38,10.42,3.38,17.08,0,7.4-1.41,14.32-4.23,20.76-2.82,6.45-6.91,12.07-12.26,16.86-5.36,4.8-11.96,8.57-19.81,11.31-7.85,2.75-16.78,4.12-26.76,4.12-5.48,0-11.06-.51-16.73-1.54s-11.18-2.47-16.49-4.34c-5.32-1.87-10.31-4.08-14.98-6.64-4.67-2.56-8.74-5.42-12.2-8.57l12.08-17.35c.97-1.24,2.24-2.29,3.81-3.13s3.28-1.26,5.13-1.26c2.42,0,4.85.7,7.31,2.09,2.46,1.39,5.23,2.93,8.34,4.61,3.1,1.69,6.66,3.22,10.69,4.61,4.03,1.39,8.78,2.09,14.26,2.09,7.41,0,13.17-1.48,17.28-4.45,4.11-2.97,6.16-7.67,6.16-14.11,0-3.73-1.13-6.77-3.38-9.12-2.26-2.34-5.22-4.28-8.88-5.82-3.67-1.54-7.83-2.89-12.5-4.06-4.67-1.17-9.47-2.47-14.38-3.9-4.91-1.43-9.71-3.18-14.38-5.27-4.67-2.09-8.84-4.83-12.5-8.24-3.67-3.41-6.63-7.65-8.88-12.74-2.26-5.09-3.38-11.37-3.38-18.84,0-6,1.33-11.86,3.99-17.57,2.66-5.71,6.56-10.8,11.72-15.27,5.15-4.47,11.48-8.04,18.97-10.71,7.49-2.67,16.07-4.01,25.73-4.01,5.4,0,10.65.38,15.77,1.15,5.11.77,9.97,1.91,14.56,3.41,4.59,1.5,8.88,3.29,12.87,5.38,3.99,2.09,7.55,4.45,10.69,7.08l-10.15,17.24Z"/>
    <path class="cls-5" d="M262.06,772.16c9.5,0,18.16,1.36,25.98,4.06,7.81,2.71,14.52,6.59,20.12,11.64,5.6,5.05,9.95,11.19,13.05,18.4,3.1,7.21,4.65,15.32,4.65,24.33s-1.55,17.26-4.65,24.55c-3.1,7.29-7.45,13.47-13.05,18.56-5.6,5.09-12.31,9.01-20.12,11.75-7.81,2.75-16.47,4.12-25.98,4.12s-18.3-1.37-26.16-4.12-14.62-6.66-20.3-11.75c-5.68-5.09-10.07-11.28-13.17-18.56-3.1-7.29-4.65-15.47-4.65-24.55s1.55-17.12,4.65-24.33c3.1-7.21,7.49-13.35,13.17-18.4,5.68-5.05,12.44-8.93,20.3-11.64,7.85-2.71,16.57-4.06,26.16-4.06ZM262.06,864.32c8.62,0,14.96-2.76,19.03-8.29,4.07-5.53,6.1-13.93,6.1-25.21s-2.04-19.66-6.1-25.15c-4.07-5.49-10.41-8.24-19.03-8.24s-15.34,2.75-19.45,8.24c-4.11,5.49-6.16,13.88-6.16,25.15s2.05,19.68,6.16,25.21c4.11,5.53,10.59,8.29,19.45,8.29Z"/>
    <path class="cls-5" d="M382.15,723.4v164.43h-37.45v-164.43h37.45Z"/>
    <path class="cls-5" d="M519.88,773.92v113.9h-23.2c-4.67,0-7.73-1.9-9.18-5.71l-2.17-6.59c-2.42,2.12-4.91,4.05-7.49,5.77-2.58,1.72-5.34,3.19-8.28,4.39-2.94,1.21-6.12,2.16-9.54,2.86-3.42.7-7.15,1.04-11.18,1.04-6.85,0-12.91-1.08-18.18-3.24-5.28-2.16-9.73-5.18-13.35-9.06-3.62-3.88-6.36-8.46-8.22-13.73-1.85-5.27-2.78-11.06-2.78-17.35v-72.27h37.45v72.27c0,5.64,1.41,10,4.23,13.07,2.82,3.08,6.97,4.61,12.44,4.61,4.11,0,7.95-.79,11.54-2.36,3.58-1.57,7.07-3.72,10.45-6.43v-81.17h37.45Z"/>
    <path class="cls-5" d="M680.7,887.82h-37.46v-90.4h-52.44v56.57c0,2.64.7,4.82,2.11,6.54,1.41,1.72,3.44,2.58,6.1,2.58,1.37,0,2.52-.13,3.44-.38.93-.26,1.73-.55,2.42-.88.68-.33,1.33-.62,1.93-.88.61-.26,1.31-.38,2.12-.38,1.13,0,2.03.24,2.72.71.68.48,1.39,1.23,2.11,2.25l11.36,16.15c-4.83,3.29-10.27,5.77-16.31,7.41s-12.28,2.47-18.73,2.47c-5.96,0-11.22-.79-15.77-2.36-4.55-1.57-8.38-3.81-11.48-6.7-3.1-2.89-5.46-6.39-7.07-10.49-1.61-4.1-2.42-8.68-2.42-13.73v-58.87h-10.63c-1.93,0-3.59-.57-4.95-1.7-1.37-1.13-2.05-2.8-2.05-5v-13.29l19.94-3.62,7.37-27.68c.97-3.51,3.7-5.27,8.22-5.27h19.57v33.28h89.89v113.68ZM685.89,742.62c0,2.71-.61,5.27-1.81,7.69-1.21,2.42-2.86,4.52-4.95,6.32-2.1,1.79-4.53,3.2-7.31,4.23-2.78,1.03-5.74,1.54-8.88,1.54s-5.92-.51-8.58-1.54c-2.66-1.02-5.01-2.43-7.07-4.23-2.05-1.79-3.67-3.9-4.83-6.32-1.17-2.42-1.75-4.98-1.75-7.69s.58-5.29,1.75-7.74c1.17-2.45,2.78-4.58,4.83-6.37,2.05-1.79,4.41-3.22,7.07-4.28,2.66-1.06,5.52-1.59,8.58-1.59s6.1.53,8.88,1.59c2.78,1.06,5.21,2.49,7.31,4.28,2.09,1.79,3.74,3.92,4.95,6.37,1.21,2.45,1.81,5.04,1.81,7.74Z"/>
    <path class="cls-5" d="M764.66,772.16c9.5,0,18.16,1.36,25.98,4.06,7.81,2.71,14.52,6.59,20.12,11.64,5.6,5.05,9.95,11.19,13.05,18.4,3.1,7.21,4.65,15.32,4.65,24.33s-1.55,17.26-4.65,24.55c-3.1,7.29-7.45,13.47-13.05,18.56-5.6,5.09-12.3,9.01-20.12,11.75-7.81,2.75-16.47,4.12-25.98,4.12s-18.3-1.37-26.16-4.12c-7.85-2.75-14.62-6.66-20.3-11.75-5.68-5.09-10.07-11.28-13.17-18.56-3.1-7.29-4.65-15.47-4.65-24.55s1.55-17.12,4.65-24.33c3.1-7.21,7.49-13.35,13.17-18.4,5.68-5.05,12.45-8.93,20.3-11.64,7.85-2.71,16.57-4.06,26.16-4.06ZM764.66,864.32c8.62,0,14.96-2.76,19.03-8.29,4.07-5.53,6.1-13.93,6.1-25.21s-2.04-19.66-6.1-25.15c-4.07-5.49-10.41-8.24-19.03-8.24s-15.34,2.75-19.45,8.24c-4.11,5.49-6.16,13.88-6.16,25.15s2.05,19.68,6.16,25.21c4.11,5.53,10.59,8.29,19.45,8.29Z"/>
    <path class="cls-5" d="M881.86,786.22c2.42-2.05,4.91-3.95,7.49-5.71,2.58-1.76,5.33-3.24,8.28-4.45,2.94-1.21,6.12-2.16,9.54-2.86,3.42-.69,7.15-1.04,11.18-1.04,6.85,0,12.91,1.08,18.18,3.24,5.27,2.16,9.73,5.16,13.35,9.01,3.62,3.84,6.36,8.42,8.22,13.73,1.85,5.31,2.78,11.08,2.78,17.3v72.38h-37.46v-72.38c0-5.56-1.41-9.9-4.23-13.02-2.82-3.11-6.97-4.67-12.44-4.67-4.11,0-7.96.79-11.54,2.36-3.58,1.58-7.07,3.72-10.45,6.43v81.28h-37.45v-113.9h23.2c4.67,0,7.73,1.91,9.18,5.71l2.17,6.59Z"/>
    <path class="cls-5" d="M1064.66,798.85c-.97,1.39-1.99,2.38-3.08,2.97-1.09.59-2.48.88-4.17.88s-3.54-.35-5.32-1.04c-1.77-.7-3.68-1.45-5.74-2.25-2.05-.8-4.37-1.55-6.95-2.25-2.58-.7-5.52-1.04-8.82-1.04-4.75,0-8.4.82-10.93,2.47-2.54,1.65-3.81,3.94-3.81,6.86,0,2.12.83,3.88,2.48,5.27,1.65,1.39,3.84,2.62,6.58,3.68,2.74,1.06,5.84,2.07,9.3,3.02,3.46.95,7.01,2.01,10.63,3.19,3.62,1.17,7.17,2.54,10.63,4.12,3.46,1.58,6.56,3.51,9.3,5.82,2.74,2.31,4.93,5.11,6.58,8.4,1.65,3.29,2.48,7.25,2.48,11.86,0,5.64-1.13,10.84-3.38,15.6-2.26,4.76-5.62,8.86-10.09,12.3-4.47,3.44-9.99,6.11-16.55,8.02-6.57,1.9-14.12,2.86-22.65,2.86-4.27,0-8.54-.37-12.81-1.1-4.27-.73-8.4-1.72-12.38-2.97-3.99-1.24-7.67-2.73-11.05-4.45-3.38-1.72-6.28-3.57-8.7-5.55l8.7-12.52c.97-1.46,2.19-2.62,3.68-3.46,1.49-.84,3.4-1.26,5.74-1.26,2.17,0,4.13.44,5.86,1.32,1.73.88,3.6,1.83,5.62,2.86,2.01,1.03,4.37,1.98,7.07,2.86,2.7.88,6.1,1.32,10.21,1.32,2.9,0,5.36-.27,7.37-.82,2.01-.55,3.62-1.3,4.83-2.25,1.21-.95,2.09-2.01,2.66-3.18.56-1.17.85-2.38.85-3.62,0-2.27-.85-4.14-2.54-5.6-1.69-1.46-3.91-2.73-6.65-3.79-2.74-1.06-5.86-2.05-9.36-2.97-3.5-.92-7.07-1.96-10.69-3.13-3.62-1.17-7.19-2.58-10.69-4.23s-6.63-3.73-9.36-6.26c-2.74-2.53-4.95-5.62-6.64-9.28-1.69-3.66-2.54-8.09-2.54-13.29,0-4.83,1.03-9.43,3.08-13.78,2.05-4.36,5.14-8.18,9.24-11.48,4.11-3.29,9.26-5.91,15.46-7.85,6.2-1.94,13.45-2.91,21.75-2.91,4.51,0,8.88.37,13.11,1.1,4.23.73,8.19,1.76,11.9,3.08,3.7,1.32,7.09,2.88,10.15,4.67,3.06,1.79,5.76,3.75,8.1,5.88l-8.46,11.97Z"/>
  </g>
  <g>
    <path class="cls-3" d="M475.62,358.21c42.39,2.75,75.2,1.28,98.1-.75,13.09-1.17,22.29-2.46,22.32-4.18.05-2.42-18.18-4.38-51.32-8.7-49.12-6.4-73.68-9.66-73.63-12.18.07-3.65,39.68-5.93,66.94-7.5,41.5-2.39,64.43-1.86,64.5-3.48.11-2.54-56.28-9.69-104.58-13.54-11.45-.91-34.01-2.57-34.06-5.33-.02-1.19,4.11-2.19,7.19-2.84,28.6-6.06,75.29-4.97,109.78-7.01,18.08-1.07,20.88-2.29,21.02-3.5.5-4.28-31.63-12.57-58.4-16.35-3.84-.54-7.06-.92-9.34-1.17-.37-7.66-1.85-19.22-7.56-31.64-4.85-10.54-7.84-13.18-21.63-30.26-14.82-18.35-26.01-32.2-22.86-45.62.78-3.31,3.66-9.31,11.32-20.02,4.02-5.63,9.25-12.11,9.37-19.39.12-7.16-6.53-12.47-13.45-12.21-13.86.53-15.07,18.31-5.82,25.49,9.33,7.24,23.78,8.94,35.09,6.88,4.89-.89,9.14-3.27,13.9-4.41,3.71-.89,7.23-1.49,10.6-3.42,6.42-3.66,9.51-10.76,6.6-17.82-6.66-16.17-31.49-4.23-24.63,10.84,2.59,5.69,9.75,7.55,15.14,9.35,8.88,2.97,17.77,5.74,27.23,5.87,13.33.18,34.8-6.59,30.78-24.12-4.15-18.08-31.85-7.67-24.58,8.26,6.89,15.1,29.41,14.97,41.3,6.99,4.31-2.9,7.23-6.18,8.77-8.48"/>
    <path class="cls-1" d="M564.99,378.57c-2.79,15.08-15.74,26.16-30.68,26.55-15.74.41-29.78-11.17-32.45-27.14"/>
    <path class="cls-2" d="M687.13,123.92c0,67-65.88,121.32-147.13,121.32-9.55.01-19.08-.75-28.46-2.27-6.75-1.09-10.13-1.64-12.49-1.33-2.36.31-5.7,1.84-12.38,4.91-18.9,8.67-40.95,11.73-62.15,8.33,8.06-8.54,13.56-18.79,15.99-29.78,1.47-6.72-2.17-13.25-7.63-18.03-24.8-21.71-40-50.95-40-83.14,0-67,65.88-121.32,147.13-121.32s147.13,54.32,147.13,121.32Z"/>
  </g>
</svg>
