<?xml version="1.0" encoding="UTF-8"?>
<svg id="Layer_1" data-name="Layer 1" xmlns="http://www.w3.org/2000/svg" viewBox="0 0 1052.95 929.79">
  <defs>
    <style>
      .cls-1 {
        fill: #fff;
      }

      .cls-2 {
        stroke-width: 5.61px;
      }

      .cls-2, .cls-3 {
        fill: none;
        stroke: #fff;
        stroke-linecap: round;
        stroke-linejoin: round;
      }

      .cls-3 {
        stroke-width: 5.21px;
      }
    </style>
  </defs>
  <g>
    <path class="cls-1" d="M199.95,525.05h-48.3v127.33h-39.81v-127.33h-48.3v-28.7h136.41v28.7Z"/>
    <path class="cls-1" d="M250.25,551.07c4.4-3.43,9.17-6.19,14.31-8.3,5.14-2.1,11.29-3.16,18.43-3.16,6.67,0,12.58,1.05,17.73,3.16,5.14,2.11,9.48,5.03,13.02,8.78,3.53,3.75,6.2,8.21,8.01,13.39,1.8,5.18,2.71,10.8,2.71,16.87v70.57h-36.52v-70.57c0-5.42-1.38-9.65-4.12-12.69-2.75-3.03-6.79-4.55-12.13-4.55-4,0-7.76.77-11.25,2.3-3.5,1.54-6.89,3.62-10.19,6.26v79.24h-36.52v-160.31h36.52v59Z"/>
    <path class="cls-1" d="M389.13,510.91c0,2.64-.59,5.12-1.77,7.44-1.18,2.32-2.79,4.35-4.83,6.1-2.04,1.75-4.42,3.14-7.13,4.18-2.71,1.04-5.6,1.55-8.66,1.55s-5.77-.52-8.36-1.55c-2.59-1.03-4.89-2.43-6.89-4.18-2-1.75-3.57-3.78-4.71-6.1-1.14-2.32-1.71-4.8-1.71-7.44s.57-5.25,1.71-7.6c1.14-2.36,2.71-4.43,4.71-6.21,2-1.78,4.3-3.18,6.89-4.18,2.59-1,5.38-1.5,8.36-1.5s5.95.5,8.66,1.5c2.71,1,5.08,2.39,7.13,4.18,2.04,1.79,3.65,3.85,4.83,6.21,1.18,2.36,1.77,4.89,1.77,7.6ZM385.36,541.32v111.05h-36.52v-111.05h36.52Z"/>
    <path class="cls-1" d="M444.61,553.32c2.36-2,4.79-3.85,7.3-5.57,2.51-1.71,5.2-3.16,8.07-4.34,2.87-1.18,5.97-2.1,9.31-2.78,3.34-.68,6.97-1.02,10.9-1.02,6.67,0,12.58,1.05,17.73,3.16,5.14,2.11,9.48,5.03,13.02,8.78,3.53,3.75,6.2,8.21,8.01,13.39,1.8,5.18,2.71,10.8,2.71,16.87v70.57h-36.52v-70.57c0-5.42-1.38-9.65-4.12-12.69-2.75-3.03-6.79-4.55-12.13-4.55-4,0-7.76.77-11.25,2.3-3.5,1.54-6.89,3.62-10.19,6.26v79.24h-36.52v-111.05h22.62c4.55,0,7.54,1.86,8.95,5.57l2.12,6.42Z"/>
    <path class="cls-1" d="M581.72,492.07v89.84h5.42c2.28,0,4-.3,5.18-.91,1.18-.61,2.36-1.62,3.53-3.05l23.09-31.27c1.41-1.78,3.02-3.12,4.83-4.02,1.81-.89,4.12-1.34,6.95-1.34h33.45l-31.57,39.51c-2.99,3.57-6.52,6.5-10.6,8.78,1.8,1.21,3.45,2.62,4.95,4.23,1.49,1.61,2.9,3.41,4.24,5.41l34.4,53.11h-32.98c-2.75,0-5.11-.41-7.07-1.23-1.96-.82-3.61-2.27-4.95-4.34l-23.09-39.3c-1.1-1.78-2.24-2.94-3.42-3.48-1.18-.54-2.94-.8-5.3-.8h-7.07v49.15h-36.52v-160.31h36.52Z"/>
    <path class="cls-1" d="M744.16,496.35c11.86,0,21.95,1,30.27,3,8.32,2,15.12,4.82,20.38,8.46,5.26,3.64,9.09,8.07,11.49,13.28,2.39,5.21,3.59,11.03,3.59,17.46,0,3.5-.55,6.87-1.65,10.12-1.1,3.25-2.83,6.28-5.18,9.1-2.36,2.82-5.38,5.41-9.07,7.76-3.69,2.36-8.13,4.39-13.31,6.1,11.31,2.5,19.67,6.53,25.09,12.1,5.42,5.57,8.13,12.78,8.13,21.63,0,6.64-1.41,12.82-4.24,18.53-2.83,5.71-6.97,10.69-12.43,14.94-5.46,4.25-12.19,7.57-20.2,9.96-8.01,2.39-17.16,3.59-27.45,3.59h-68.56v-156.02h63.14ZM720.84,523.44v38.55h20.73c4.4,0,8.36-.28,11.9-.86,3.53-.57,6.54-1.57,9.01-3,2.47-1.43,4.36-3.39,5.65-5.89,1.3-2.5,1.94-5.64,1.94-9.42s-.51-6.8-1.53-9.26c-1.02-2.46-2.59-4.44-4.71-5.94-2.12-1.5-4.81-2.57-8.07-3.21-3.26-.64-7.13-.96-11.6-.96h-23.32ZM748.87,625.07c5.26,0,9.56-.61,12.9-1.82,3.34-1.21,5.95-2.78,7.83-4.71s3.18-4.1,3.89-6.53c.71-2.43,1.06-4.89,1.06-7.39,0-2.85-.41-5.42-1.24-7.71-.83-2.28-2.24-4.21-4.24-5.78-2-1.57-4.65-2.78-7.95-3.64-3.3-.86-7.46-1.28-12.49-1.28h-27.8v38.87h28.04Z"/>
    <path class="cls-1" d="M873.73,510.91c0,2.64-.59,5.12-1.77,7.44-1.18,2.32-2.79,4.35-4.83,6.1-2.04,1.75-4.42,3.14-7.13,4.18-2.71,1.04-5.6,1.55-8.66,1.55s-5.77-.52-8.36-1.55c-2.59-1.03-4.89-2.43-6.89-4.18-2-1.75-3.58-3.78-4.71-6.1-1.14-2.32-1.71-4.8-1.71-7.44s.57-5.25,1.71-7.6c1.14-2.36,2.71-4.43,4.71-6.21,2-1.78,4.3-3.18,6.89-4.18,2.59-1,5.38-1.5,8.36-1.5s5.95.5,8.66,1.5c2.71,1,5.08,2.39,7.13,4.18,2.04,1.79,3.65,3.85,4.83,6.21,1.18,2.36,1.77,4.89,1.77,7.6ZM869.96,541.32v111.05h-36.52v-111.05h36.52Z"/>
    <path class="cls-1" d="M986.34,554.6c0,2.29-.43,4.5-1.3,6.64-.87,2.14-2,3.89-3.42,5.25l-51,61.25h54.54v24.63h-96.59v-13.49c0-1.35.39-3.07,1.18-5.14.78-2.07,1.96-4,3.53-5.78l51.48-62h-52.89v-24.63h94.47v13.28Z"/>
    <path class="cls-1" d="M7.42,848.84c0-2.57.53-4.96,1.59-7.17,1.06-2.21,2.51-4.14,4.36-5.78,1.84-1.64,4.02-2.95,6.54-3.91,2.51-.96,5.26-1.45,8.25-1.45s5.61.48,8.13,1.45c2.51.96,4.71,2.27,6.6,3.91,1.88,1.64,3.36,3.57,4.42,5.78,1.06,2.21,1.59,4.6,1.59,7.17s-.53,4.98-1.59,7.23c-1.06,2.25-2.53,4.19-4.42,5.84-1.88,1.64-4.08,2.93-6.6,3.86-2.51.93-5.22,1.39-8.13,1.39s-5.73-.46-8.25-1.39c-2.51-.93-4.69-2.21-6.54-3.86-1.85-1.64-3.3-3.59-4.36-5.84-1.06-2.25-1.59-4.66-1.59-7.23Z"/>
    <path class="cls-1" d="M167.74,741.32c-1.18,1.71-2.42,3-3.71,3.86s-2.96,1.29-5.01,1.29c-1.81,0-3.75-.52-5.83-1.55-2.08-1.03-4.44-2.2-7.07-3.48-2.63-1.29-5.64-2.44-9.01-3.48-3.38-1.03-7.23-1.55-11.54-1.55-7.46,0-13.02,1.45-16.67,4.34-3.65,2.89-5.48,6.8-5.48,11.73,0,3.14,1.1,5.75,3.3,7.82,2.2,2.07,5.08,3.86,8.66,5.35,3.57,1.5,7.66,2.88,12.25,4.12,4.59,1.25,9.29,2.64,14.08,4.18,4.79,1.54,9.48,3.34,14.08,5.41,4.59,2.07,8.68,4.71,12.25,7.92,3.57,3.21,6.46,7.12,8.66,11.73,2.2,4.6,3.3,10.16,3.3,16.65,0,7.21-1.37,13.96-4.12,20.24-2.75,6.28-6.73,11.76-11.96,16.44-5.22,4.68-11.66,8.35-19.32,11.03-7.66,2.68-16.36,4.02-26.09,4.02-5.34,0-10.78-.5-16.31-1.5s-10.9-2.41-16.08-4.23-10.05-3.98-14.61-6.48c-4.56-2.5-8.52-5.28-11.9-8.35l11.78-16.92c.94-1.21,2.18-2.23,3.71-3.05,1.53-.82,3.2-1.23,5.01-1.23,2.36,0,4.73.68,7.13,2.03,2.39,1.36,5.1,2.86,8.13,4.5,3.02,1.64,6.5,3.14,10.42,4.5,3.93,1.36,8.56,2.04,13.9,2.04,7.22,0,12.84-1.45,16.84-4.34,4-2.89,6.01-7.48,6.01-13.76,0-3.64-1.1-6.6-3.3-8.89-2.2-2.28-5.08-4.18-8.66-5.67-3.57-1.5-7.64-2.82-12.19-3.96-4.55-1.14-9.23-2.41-14.02-3.8-4.79-1.39-9.46-3.11-14.02-5.14-4.55-2.03-8.62-4.71-12.19-8.03-3.57-3.32-6.46-7.46-8.66-12.42-2.2-4.96-3.3-11.08-3.3-18.37,0-5.85,1.3-11.57,3.89-17.13,2.59-5.57,6.4-10.53,11.43-14.88,5.02-4.35,11.19-7.83,18.49-10.44,7.3-2.61,15.67-3.91,25.09-3.91,5.26,0,10.38.38,15.37,1.12,4.99.75,9.72,1.86,14.19,3.32,4.48,1.46,8.66,3.21,12.54,5.25,3.89,2.03,7.36,4.34,10.42,6.91l-9.89,16.81Z"/>
    <path class="cls-1" d="M255.49,752.89c9.26,0,17.71,1.32,25.33,3.96,7.62,2.64,14.15,6.42,19.61,11.35,5.46,4.93,9.7,10.91,12.72,17.94,3.02,7.03,4.54,14.94,4.54,23.72s-1.51,16.83-4.54,23.93c-3.02,7.1-7.26,13.14-12.72,18.1-5.46,4.96-12,8.78-19.61,11.46-7.62,2.68-16.06,4.02-25.33,4.02s-17.85-1.34-25.5-4.02c-7.66-2.68-14.25-6.5-19.79-11.46-5.54-4.96-9.82-10.99-12.84-18.1-3.02-7.1-4.54-15.08-4.54-23.93s1.51-16.69,4.54-23.72c3.02-7.03,7.3-13.01,12.84-17.94,5.54-4.93,12.13-8.71,19.79-11.35,7.66-2.64,16.16-3.96,25.5-3.96ZM255.49,842.73c8.4,0,14.59-2.69,18.55-8.08,3.96-5.39,5.95-13.58,5.95-24.58s-1.98-19.17-5.95-24.52c-3.97-5.35-10.15-8.03-18.55-8.03s-14.96,2.68-18.96,8.03c-4.01,5.35-6.01,13.53-6.01,24.52s2,19.19,6.01,24.58c4,5.39,10.33,8.08,18.96,8.08Z"/>
    <path class="cls-1" d="M372.58,705.34v160.31h-36.52v-160.31h36.52Z"/>
    <path class="cls-1" d="M506.86,754.6v111.05h-22.62c-4.56,0-7.54-1.86-8.95-5.57l-2.12-6.42c-2.36,2.07-4.79,3.95-7.3,5.62-2.51,1.68-5.2,3.11-8.07,4.28-2.87,1.18-5.97,2.1-9.31,2.78-3.34.68-6.97,1.02-10.9,1.02-6.68,0-12.59-1.05-17.73-3.16-5.14-2.11-9.48-5.05-13.02-8.83-3.53-3.78-6.2-8.25-8.01-13.39-1.81-5.14-2.71-10.78-2.71-16.92v-70.46h36.52v70.46c0,5.5,1.37,9.75,4.12,12.74,2.75,3,6.79,4.5,12.13,4.5,4,0,7.75-.77,11.25-2.3,3.49-1.53,6.89-3.62,10.19-6.26v-79.14h36.52Z"/>
    <path class="cls-1" d="M663.65,865.65h-36.52v-88.13h-51.12v55.15c0,2.57.69,4.7,2.06,6.37,1.37,1.68,3.36,2.52,5.95,2.52,1.33,0,2.45-.12,3.36-.37.9-.25,1.69-.54,2.36-.86.67-.32,1.3-.61,1.88-.86.59-.25,1.28-.38,2.06-.38,1.1,0,1.98.23,2.65.7.67.46,1.35,1.2,2.06,2.2l11.07,15.74c-4.71,3.21-10.01,5.62-15.9,7.23s-11.98,2.41-18.26,2.41c-5.81,0-10.94-.77-15.37-2.3-4.44-1.53-8.17-3.71-11.19-6.53-3.02-2.82-5.32-6.23-6.89-10.23-1.57-4-2.36-8.46-2.36-13.39v-57.4h-10.37c-1.88,0-3.5-.55-4.83-1.66-1.34-1.11-2-2.73-2-4.87v-12.96l19.44-3.53,7.19-26.99c.94-3.43,3.61-5.14,8.01-5.14h19.08v32.45h87.64v110.83ZM668.71,724.08c0,2.64-.59,5.14-1.77,7.5-1.18,2.36-2.79,4.41-4.83,6.16-2.04,1.75-4.42,3.12-7.13,4.12-2.71,1-5.59,1.5-8.66,1.5s-5.77-.5-8.36-1.5c-2.59-1-4.89-2.37-6.89-4.12-2-1.75-3.57-3.8-4.71-6.16-1.14-2.36-1.71-4.85-1.71-7.5s.57-5.16,1.71-7.55c1.14-2.39,2.71-4.46,4.71-6.21,2-1.75,4.3-3.14,6.89-4.18,2.59-1.03,5.38-1.55,8.36-1.55s5.95.52,8.66,1.55c2.71,1.04,5.08,2.43,7.13,4.18,2.04,1.75,3.65,3.82,4.83,6.21,1.18,2.39,1.77,4.91,1.77,7.55Z"/>
    <path class="cls-1" d="M745.51,752.89c9.27,0,17.71,1.32,25.33,3.96,7.62,2.64,14.15,6.42,19.61,11.35,5.46,4.93,9.7,10.91,12.72,17.94,3.02,7.03,4.54,14.94,4.54,23.72s-1.51,16.83-4.54,23.93c-3.02,7.1-7.26,13.14-12.72,18.1-5.46,4.96-12,8.78-19.61,11.46-7.62,2.68-16.06,4.02-25.33,4.02s-17.85-1.34-25.5-4.02c-7.66-2.68-14.25-6.5-19.79-11.46-5.54-4.96-9.82-10.99-12.84-18.1-3.02-7.1-4.54-15.08-4.54-23.93s1.51-16.69,4.54-23.72c3.02-7.03,7.3-13.01,12.84-17.94,5.54-4.93,12.13-8.71,19.79-11.35,7.66-2.64,16.16-3.96,25.5-3.96ZM745.51,842.73c8.4,0,14.59-2.69,18.55-8.08,3.96-5.39,5.95-13.58,5.95-24.58s-1.98-19.17-5.95-24.52c-3.97-5.35-10.15-8.03-18.55-8.03s-14.96,2.68-18.96,8.03c-4,5.35-6.01,13.53-6.01,24.52s2,19.19,6.01,24.58c4,5.39,10.33,8.08,18.96,8.08Z"/>
    <path class="cls-1" d="M859.77,766.6c2.36-2,4.79-3.85,7.3-5.57,2.51-1.71,5.2-3.16,8.07-4.34,2.87-1.18,5.97-2.1,9.31-2.78,3.34-.68,6.97-1.02,10.9-1.02,6.67,0,12.58,1.05,17.73,3.16,5.14,2.11,9.48,5.03,13.02,8.78s6.2,8.21,8.01,13.39c1.81,5.18,2.71,10.8,2.71,16.87v70.57h-36.52v-70.57c0-5.42-1.38-9.65-4.12-12.69-2.75-3.03-6.79-4.55-12.13-4.55-4,0-7.76.77-11.25,2.3-3.5,1.54-6.89,3.62-10.19,6.26v79.24h-36.52v-111.05h22.62c4.55,0,7.54,1.86,8.95,5.57l2.12,6.42Z"/>
    <path class="cls-1" d="M1037.99,778.91c-.94,1.36-1.94,2.32-3,2.89-1.06.57-2.42.86-4.06.86s-3.46-.34-5.18-1.02c-1.73-.68-3.59-1.41-5.59-2.2-2-.79-4.26-1.52-6.77-2.2-2.51-.68-5.38-1.02-8.6-1.02-4.63,0-8.19.8-10.66,2.41-2.47,1.61-3.71,3.84-3.71,6.69,0,2.07.8,3.79,2.42,5.14,1.61,1.36,3.75,2.55,6.42,3.59,2.67,1.04,5.69,2.02,9.07,2.95,3.38.93,6.83,1.96,10.37,3.11,3.53,1.14,6.99,2.48,10.37,4.02,3.38,1.54,6.4,3.43,9.07,5.67,2.67,2.25,4.81,4.98,6.42,8.19,1.61,3.21,2.42,7.07,2.42,11.57,0,5.5-1.1,10.57-3.3,15.21-2.2,4.64-5.48,8.64-9.84,11.99-4.36,3.36-9.74,5.96-16.14,7.82-6.4,1.86-13.76,2.78-22.09,2.78-4.16,0-8.32-.36-12.49-1.07-4.16-.71-8.19-1.68-12.07-2.89-3.89-1.21-7.48-2.66-10.78-4.34-3.3-1.68-6.13-3.48-8.48-5.41l8.48-12.21c.94-1.43,2.14-2.55,3.59-3.37,1.45-.82,3.32-1.23,5.59-1.23,2.12,0,4.02.43,5.71,1.28,1.69.86,3.51,1.79,5.48,2.78,1.96,1,4.26,1.93,6.89,2.79,2.63.86,5.95,1.28,9.95,1.28,2.83,0,5.22-.27,7.19-.8,1.96-.54,3.53-1.27,4.71-2.2,1.18-.93,2.04-1.96,2.59-3.11.55-1.14.82-2.32.82-3.53,0-2.21-.82-4.03-2.47-5.46-1.65-1.43-3.81-2.66-6.48-3.69-2.67-1.03-5.71-2-9.13-2.89-3.42-.89-6.89-1.91-10.42-3.05-3.53-1.14-7.01-2.52-10.42-4.12s-6.46-3.64-9.13-6.1c-2.67-2.46-4.83-5.48-6.48-9.05-1.65-3.57-2.47-7.89-2.47-12.96,0-4.71,1-9.19,3-13.44,2-4.25,5.01-7.98,9.01-11.19,4.01-3.21,9.03-5.76,15.08-7.66,6.05-1.89,13.11-2.84,21.2-2.84,4.4,0,8.66.36,12.78,1.07,4.12.71,7.99,1.71,11.6,3,3.61,1.29,6.91,2.8,9.89,4.55,2.98,1.75,5.61,3.66,7.89,5.73l-8.25,11.67Z"/>
  </g>
  <g>
    <path class="cls-2" d="M463.7,349.31c41.33,2.68,73.32,1.25,95.65-.74,12.76-1.14,21.73-2.4,21.76-4.07.05-2.36-17.73-4.27-50.04-8.48-47.89-6.24-71.83-9.42-71.78-11.87.07-3.56,38.69-5.78,65.27-7.32,40.46-2.33,62.81-1.81,62.88-3.39.1-2.48-54.87-9.45-101.96-13.21-11.17-.89-33.16-2.5-33.2-5.2-.02-1.16,4.01-2.13,7.01-2.77,27.88-5.91,73.41-4.85,107.03-6.83,17.63-1.04,20.36-2.23,20.5-3.42.48-4.18-30.84-12.26-56.93-15.94-3.74-.53-6.88-.9-9.11-1.14-.36-7.47-1.8-18.74-7.37-30.85-4.73-10.27-7.64-12.85-21.09-29.5-14.45-17.89-25.36-31.4-22.29-44.48.76-3.23,3.57-9.07,11.03-19.52,3.92-5.49,9.02-11.81,9.14-18.9.11-6.98-6.36-12.16-13.12-11.9-13.52.51-14.7,17.86-5.68,24.85,9.1,7.06,23.19,8.71,34.21,6.71,4.77-.87,8.91-3.19,13.55-4.3,3.62-.87,7.05-1.45,10.34-3.33,6.26-3.57,9.28-10.49,6.44-17.37-6.5-15.76-30.7-4.12-24.01,10.57,2.52,5.54,9.5,7.36,14.76,9.12,8.65,2.9,17.33,5.59,26.55,5.72,12.99.18,33.93-6.43,30.01-23.52-4.05-17.62-31.05-7.48-23.97,8.06,6.71,14.72,28.67,14.6,40.27,6.81,4.21-2.83,7.05-6.02,8.55-8.26"/>
    <path class="cls-2" d="M550.84,369.15c-2.72,14.7-15.35,25.51-29.91,25.88-15.35.4-29.04-10.89-31.63-26.46"/>
    <path class="cls-3" d="M669.92,120.88c0,65.32-64.23,118.28-143.45,118.28-9.31.01-18.6-.73-27.75-2.21-6.59-1.07-9.88-1.6-12.18-1.3-2.3.3-5.56,1.8-12.07,4.78-18.43,8.45-39.92,11.43-60.59,8.12,7.86-8.33,13.22-18.32,15.59-29.03,1.43-6.55-2.12-12.92-7.44-17.58-24.18-21.16-39-49.68-39-81.06,0-65.32,64.23-118.28,143.45-118.28s143.45,52.96,143.45,118.28Z"/>
  </g>
</svg>
