<?xml version="1.0" encoding="UTF-8"?>
<svg id="Layer_1" data-name="Layer 1" xmlns="http://www.w3.org/2000/svg" xmlns:xlink="http://www.w3.org/1999/xlink" viewBox="0 0 793.72 1080">
  <defs>
    <style>
      .cls-1 {
        fill: #f0c808;
      }

      .cls-2 {
        fill: url(#linear-gradient);
      }

      .cls-3 {
        fill: #086788;
      }
    </style>
    <linearGradient id="linear-gradient" x1="396.86" y1="960.2" x2="396.86" y2="286.74" gradientUnits="userSpaceOnUse">
      <stop offset="0" stop-color="#086788"/>
      <stop offset="1" stop-color="#21bdc8"/>
    </linearGradient>
  </defs>
  <path class="cls-2" d="M336.84,960.2c-39.27,0-79.5-1.33-120.49-3.98-5.15-.33-9.05-4.78-8.72-9.92.33-5.15,4.77-9.06,9.92-8.72,90.32,5.86,176.92,5.19,257.4-1.97,8.81-.78,16.17-1.53,22.34-2.23-17.41-2.63-40.48-5.59-65.3-8.78-10.55-1.36-21.87-2.81-33.93-4.38-69.84-9.11-114.52-14.99-146.02-19.94-16.98-2.67-29.15-4.94-37.21-6.93-7.71-1.91-19.36-4.8-19.16-14.7.22-11.04,14.68-13.66,25.23-15.57,10.48-1.9,25.08-3.69,44.65-5.49,35.29-3.24,79.76-5.81,115.5-7.87,40.08-2.31,73.53-3.59,99.95-4.49-52.5-7.2-129.49-15.69-205.86-21.79l-4.44-.35c-15.69-1.24-37.17-2.95-54.83-5.23-26.94-3.48-39-6.85-39.18-17.65-.19-11.16,13.93-14.15,26.38-16.79,52.77-11.18,127.25-13.24,199.28-15.24,32.68-.91,63.54-1.76,91.75-3.43,16.7-.99,27.82-2,35.23-2.92-23.87-9.15-77.01-22.77-134.59-30.9-8.09-1.14-16.28-2.17-24.35-3.05-4.57-.5-8.09-4.24-8.32-8.83-1.4-28.59-7.83-55.52-19.11-80.03-10-21.72-16.67-29.87-38.77-56.88-4.94-6.03-10.53-12.87-17.09-20.98-39.95-49.46-71.5-88.52-62.15-128.37,2.57-10.97,11.04-26.8,25.81-48.24-6.62-3-12.93-6.69-18.72-11.18-16.24-12.6-23.41-36.15-17.03-55.98,5.41-16.84,19.53-27.3,37.76-27.99,12.24-.47,24.29,4.18,33.04,12.75,8.01,7.83,12.32,18.12,12.14,28.95-.27,16.32-8.56,30.92-17.14,43.39,16.49,3.24,33.74,3.04,47.85.47,6.24-1.14,12.23-3.39,18.58-5.77,2.48-.93,5.01-1.88,7.59-2.78-6.6-4.19-12.39-9.73-15.9-17.45-6.45-14.16-4.94-29.39,4.13-41.78,10.3-14.06,28.51-22.14,45.33-20.11,14.92,1.81,26.52,10.99,32.64,25.85,7.98,19.35,2.26,40.21-13.81,53.44,17.29,5.28,34.49,9.3,52.12,9.54,9.07.13,19.2-1.07,28.98-3.55-9.35-6.32-16.55-14.77-21.25-25.07-6.75-14.81-4.92-30.25,5.02-42.37,11.31-13.8,31.06-20.65,48.03-16.67,14.94,3.51,25.67,14.91,29.42,31.27,3.78,16.46.49,31.7-9.5,44.07-.82,1.02-1.69,2.02-2.6,3,15.11-.46,30.49-4.84,41.89-12.5,12.03-8.08,18.4-16.54,20.58-19.8,2.87-4.29,8.67-5.44,12.95-2.58,4.29,2.87,5.44,8.66,2.58,12.95-2.8,4.18-10.9,14.99-25.69,24.93-20.7,13.9-50.57,19.11-75.8,13.49-3.77,1.77-7.78,3.37-12.02,4.77-13.62,4.52-28.82,6.91-42.83,6.72-26.04-.35-50.18-7.75-74.68-15.96-.42-.14-.83-.28-1.26-.42-3.21.89-6.4,1.62-9.55,2.35-1.46.34-2.92.67-4.4,1.03-5.11,1.23-10.1,3.1-15.38,5.09-6.84,2.57-13.91,5.23-21.8,6.66-17.4,3.17-40.73,3.48-62.97-2.35-19.65,27.95-24.68,40.82-25.91,46.08-7.26,30.95,20.32,65.1,58.5,112.36,6.52,8.07,12.1,14.89,17.01,20.89,22.66,27.68,30.29,37.01,41.29,60.9,11.23,24.4,18.05,50.94,20.29,78.99,5.71.68,11.45,1.43,17.14,2.23,34.97,4.94,74.28,12.9,105.16,21.31,49.14,13.38,58.07,21.92,56.88,32.16-1.12,9.61-12.14,11.8-17.44,12.85-9.08,1.8-24.37,3.32-46.75,4.64-28.51,1.68-59.51,2.54-92.34,3.45-65.85,1.83-133.77,3.71-184.04,12.55,18.51,2.31,41.67,4.14,53.34,5.07l4.45.35c60.85,4.86,130.49,12.04,186.29,19.21,27.18,3.49,49.81,6.83,65.46,9.66,8.36,1.51,14.87,2.9,19.34,4.12,4.47,1.23,13.77,3.78,13.41,12.44-.16,3.82-2.24,8.7-11.26,10.29-2.61.46-6.23.83-11.38,1.17-9.3.61-23.19,1.07-40.79,1.64-28.32.93-67.1,2.21-115.53,5-32.67,1.88-73.28,4.23-106.78,7.1-15.62,1.34-27.45,2.61-36.4,3.77,33.18,5.75,92.32,13.46,161.49,22.48,12.06,1.57,23.36,3.02,33.9,4.38,32.69,4.2,58.52,7.52,75.85,10.44,21.17,3.57,34.01,6.54,33.78,17.57-.25,12.3-15.4,15.5-67.4,20.13-44.86,3.99-91.6,5.99-139.78,5.99ZM254.43,308.02c-.31,0-.62,0-.93.02-13.27.5-18.58,8.46-20.69,15.04-3.99,12.41.61,27.68,10.7,35.51,5.47,4.25,11.7,7.66,18.37,10.34,8.51-11.85,17.2-24.99,17.42-38.17.12-7.24-3.49-12.31-6.53-15.29-4.81-4.71-11.6-7.45-18.34-7.45ZM510.28,305.78c-8.73,0-18.2,4.2-23.74,10.95-3.77,4.59-7.25,12.27-2.46,22.78,6.27,13.75,18.05,20.4,27.71,23.61,5.49-3.18,10.22-6.94,13.73-11.29,6.44-7.97,8.34-17.19,5.82-28.16-2.19-9.56-7.4-15.37-15.49-17.27-1.79-.42-3.67-.62-5.58-.62ZM383.14,305.41c-9.35,0-19.28,4.98-24.99,12.78-3.57,4.87-6.84,12.82-2.2,23.01,4.14,9.1,16.05,13.63,27.36,17.37,2.43-.88,4.78-1.91,7.06-3.22,13.55-7.72,18.94-21.92,13.41-35.34-3.54-8.59-9.47-13.44-17.62-14.43-1-.12-2.01-.18-3.03-.18Z"/>
  <path class="cls-3" d="M397.06,1080c-45.46,0-85.07-33.76-92.68-79.43-.85-5.09,2.59-9.9,7.68-10.75,5.09-.85,9.9,2.59,10.75,7.67,6.23,37.33,38.96,64.76,76.15,63.8,35.2-.91,65.48-27.15,71.99-62.4.94-5.07,5.81-8.42,10.88-7.49,5.07.94,8.42,5.81,7.49,10.88-8.11,43.87-45.91,76.54-89.88,77.68-.79.02-1.58.03-2.37.03Z"/>
  <path class="cls-1" d="M137.36,686.49c-15.59,0-31.17-1.22-46.56-3.68-3.17-.51-5.8-2.73-6.84-5.77-1.03-3.04-.3-6.4,1.9-8.74,20.13-21.34,33.97-47.1,40.02-74.49,3.97-18.14-10.84-33.44-17.39-39.17C38.53,493.4,0,413.18,0,328.75S41.5,157.87,116.86,95.74C191.74,34,291.17,0,396.86,0s205.13,34,280,95.74c75.36,62.14,116.86,144.89,116.86,233.02s-41.5,170.88-116.86,233.02c-74.87,61.74-174.31,95.74-280,95.74h-.56c-25.37,0-50.91-2.05-75.93-6.1-16.42-2.66-25.47-4.13-30.44-3.47-4.94.65-13.91,4.76-30.19,12.23-37.88,17.36-80.12,26.33-122.4,26.33ZM109.23,667.74c48.94,4.97,99.26-3.15,143.3-23.34,18.96-8.7,27.62-12.66,35.15-13.66,7.49-.99,16.84.53,35.47,3.55,24.1,3.9,48.71,5.88,73.17,5.88.18,0,.36,0,.54,0,209.28,0,379.53-139.7,379.53-311.41S606.13,17.34,396.86,17.34,17.34,157.04,17.34,328.75c0,79.35,36.43,154.94,102.59,212.84,18.75,16.41,27.09,36.8,22.9,55.94-5.59,25.28-17.1,49.27-33.6,70.2Z"/>
</svg>
