<?xml version="1.0" encoding="UTF-8"?>
<svg id="Layer_1" data-name="Layer 1" xmlns="http://www.w3.org/2000/svg" xmlns:xlink="http://www.w3.org/1999/xlink" viewBox="0 0 33.67 45.82">
  <defs>
    <style>
      .cls-1 {
        fill: #f0c808;
      }

      .cls-2 {
        fill: url(#linear-gradient);
      }

      .cls-3 {
        fill: #086788;
      }
    </style>
    <linearGradient id="linear-gradient" x1="17.26" y1="40.73" x2="17.26" y2="12.16" gradientUnits="userSpaceOnUse">
      <stop offset="0" stop-color="#086788"/>
      <stop offset="1" stop-color="#21bdc8"/>
    </linearGradient>
  </defs>
  <path class="cls-2" d="M14.72,40.73c-1.67,0-3.37-.06-5.11-.17-.22-.01-.38-.2-.37-.42.01-.22.2-.38.42-.37,3.83.25,7.51.22,10.92-.08.37-.03.69-.07.95-.09-.74-.11-1.72-.24-2.77-.37-.45-.06-.93-.12-1.44-.19-2.96-.39-4.86-.64-6.19-.85-2.02-.32-2.4-.46-2.39-.92.01-.59.37-.8,7.87-1.23,1.7-.1,3.12-.15,4.24-.19-2.23-.31-5.49-.67-8.73-.92h-.19c-3.51-.29-3.98-.46-3.99-.99,0-.47.59-.6,1.12-.71,2.24-.47,5.4-.56,8.45-.65,1.39-.04,2.7-.07,3.89-.15.71-.04,1.18-.08,1.49-.12-1.01-.39-3.27-.97-5.71-1.31-.35-.05-.69-.09-1.03-.13-.19-.02-.34-.18-.35-.37-.06-1.21-.33-2.36-.81-3.4-.42-.92-.71-1.27-1.64-2.41-.21-.25-.45-.55-.73-.89-1.69-2.1-3.03-3.76-2.64-5.45.11-.47.47-1.14,1.1-2.05-.28-.13-.55-.28-.79-.47-.69-.53-.99-1.53-.72-2.37.23-.71.83-1.16,1.6-1.19.52-.02,1.03.18,1.4.54.34.33.52.77.52,1.23-.01.69-.36,1.31-.73,1.84.7.14,1.43.13,2.03.02.26-.05.52-.14.79-.24.11-.04.21-.08.32-.12-.28-.18-.53-.41-.67-.74-.27-.6-.21-1.25.18-1.77.44-.6,1.21-.94,1.92-.85.63.08,1.12.47,1.38,1.1.34.82.1,1.71-.59,2.27.73.22,1.46.39,2.21.4.38,0,.81-.05,1.23-.15-.4-.27-.7-.63-.9-1.06-.29-.63-.21-1.28.21-1.8.48-.59,1.32-.88,2.04-.71.63.15,1.09.63,1.25,1.33.16.7.02,1.34-.4,1.87-.04.04-.07.09-.11.13.64-.02,1.29-.21,1.78-.53.51-.34.78-.7.87-.84.12-.18.37-.23.55-.11.18.12.23.37.11.55-.12.18-.46.64-1.09,1.06-.88.59-2.14.81-3.21.57-.73.34-1.6.5-2.33.49-1.1-.01-2.13-.33-3.17-.68l-.05-.02c-.14.04-.27.07-.4.1l-.19.04c-.22.05-.43.13-.65.22-.29.11-.59.22-.93.28-.74.13-1.73.15-2.67-.1-.83,1.19-1.05,1.73-1.1,1.95-.31,1.31.86,2.76,2.48,4.77.28.34.51.63.72.89.96,1.17,1.28,1.57,1.75,2.58.48,1.04.77,2.16.86,3.35.24.03.48.06.73.09,1.48.21,3.15.55,4.46.9,2.08.57,2.46.93,2.41,1.36-.06.48-.54.61-2.72.74-1.21.07-2.52.11-3.92.15-2.79.08-5.67.16-7.81.53.78.1,1.77.18,2.26.21h.19c2.58.22,5.54.53,7.9.83,1.15.15,2.11.29,2.78.41.98.18,1.41.27,1.39.7-.02.42-.48.45-.96.49-.39.03-.98.05-1.73.07-1.2.04-2.85.09-4.9.21-1.71.1-4.5.26-6.09.46,1.4.24,3.92.57,6.87.96.51.07.99.13,1.44.19,4.13.53,4.66.6,4.65,1.19,0,.47-.39.63-2.86.85-1.9.17-3.89.25-5.93.25ZM11.22,13.07s-.03,0-.04,0c-.56.02-.79.36-.88.64-.17.53.03,1.17.45,1.51.23.18.5.33.78.44.36-.5.73-1.06.74-1.62,0-.31-.15-.52-.28-.65-.2-.2-.49-.32-.78-.32ZM22.07,12.97c-.37,0-.77.18-1.01.46-.16.19-.31.52-.1.97.27.58.77.87,1.18,1,.23-.13.43-.29.58-.48.27-.34.35-.73.25-1.19-.09-.41-.31-.65-.66-.73-.08-.02-.16-.03-.24-.03ZM16.68,12.96c-.4,0-.82.21-1.06.54-.15.21-.29.54-.09.98.18.39.68.58,1.16.74.1-.04.2-.08.3-.14.57-.33.8-.93.57-1.5-.15-.36-.4-.57-.75-.61-.04,0-.09,0-.13,0Z"/>
  <path class="cls-3" d="M16.11,45.82c-1.93,0-3.61-1.43-3.93-3.37-.04-.22.11-.42.33-.46.22-.04.42.11.46.33.26,1.58,1.66,2.75,3.23,2.71,1.49-.04,2.78-1.15,3.05-2.65.04-.22.25-.36.46-.32.22.04.36.25.32.46-.34,1.86-1.95,3.25-3.81,3.3-.03,0-.07,0-.1,0Z"/>
  <path class="cls-1" d="M5.83,29.12c-.66,0-1.32-.05-1.98-.16-.13-.02-.25-.12-.29-.24-.04-.13-.01-.27.08-.37.85-.91,1.44-2,1.7-3.16.17-.77-.46-1.42-.74-1.66C1.63,20.93,0,17.53,0,13.95,0,6.26,7.55,0,16.84,0s16.84,6.26,16.84,13.95-7.55,13.95-16.84,13.95c-1.08,0-2.18-.09-3.24-.26-.7-.11-1.08-.17-1.29-.15-.21.03-.59.2-1.28.52-1.61.74-3.4,1.12-5.19,1.12ZM4.63,28.33c2.08.21,4.21-.13,6.08-.99.8-.37,1.17-.54,1.49-.58.32-.04.71.02,1.5.15,1.03.17,2.09.26,3.13.25,8.88,0,16.1-5.93,16.1-13.21S25.71.74,16.84.74.74,6.66.74,13.95c0,3.37,1.55,6.57,4.35,9.03.8.7,1.15,1.56.97,2.37-.24,1.07-.73,2.09-1.43,2.98Z"/>
</svg>
